  0
SECTION
  2
HEADER
  9
$ACADVER
  1
AC1018
  9
$ACADMAINTVER
 70
     0
  9
$DWGCODEPAGE
  3
ANSI_932
  9
$INSBASE
 10
0.0
 20
0.0
 30
0.0
  9
$EXTMIN
 10
1.000000000000000E+20
 20
1.000000000000000E+20
 30
1.000000000000000E+20
  9
$EXTMAX
 10
-1.000000000000000E+20
 20
-1.000000000000000E+20
 30
-1.000000000000000E+20
  9
$LIMMIN
 10
0.0
 20
0.0
  9
$LIMMAX
 10
12.0
 20
9.0
  9
$ORTHOMODE
 70
     0
  9
$REGENMODE
 70
     1
  9
$FILLMODE
 70
     1
  9
$QTEXTMODE
 70
     0
  9
$MIRRTEXT
 70
     1
  9
$LTSCALE
 40
1.0
  9
$ATTMODE
 70
     1
  9
$TEXTSIZE
 40
0.2
  9
$TRACEWID
 40
0.05
  9
$TEXTSTYLE
  7
Standard
  9
$CLAYER
  8
0
  9
$CELTYPE
  6
ByLayer
  9
$CECOLOR
 62
   256
  9
$CELTSCALE
 40
1.0
  9
$DISPSILH
 70
     0
  9
$DIMSCALE
 40
1.0
  9
$DIMASZ
 40
0.18
  9
$DIMEXO
 40
0.0625
  9
$DIMDLI
 40
0.38
  9
$DIMRND
 40
0.0
  9
$DIMDLE
 40
0.0
  9
$DIMEXE
 40
0.18
  9
$DIMTP
 40
0.0
  9
$DIMTM
 40
0.0
  9
$DIMTXT
 40
0.18
  9
$DIMCEN
 40
0.09
  9
$DIMTSZ
 40
0.0
  9
$DIMTOL
 70
     0
  9
$DIMLIM
 70
     0
  9
$DIMTIH
 70
     1
  9
$DIMTOH
 70
     1
  9
$DIMSE1
 70
     0
  9
$DIMSE2
 70
     0
  9
$DIMTAD
 70
     0
  9
$DIMZIN
 70
     0
  9
$DIMBLK
  1

  9
$DIMASO
 70
     1
  9
$DIMSHO
 70
     1
  9
$DIMPOST
  1

  9
$DIMAPOST
  1

  9
$DIMALT
 70
     0
  9
$DIMALTD
 70
     2
  9
$DIMALTF
 40
25.4
  9
$DIMLFAC
 40
1.0
  9
$DIMTOFL
 70
     0
  9
$DIMTVP
 40
0.0
  9
$DIMTIX
 70
     0
  9
$DIMSOXD
 70
     0
  9
$DIMSAH
 70
     0
  9
$DIMBLK1
  1

  9
$DIMBLK2
  1

  9
$DIMSTYLE
  2
Standard
  9
$DIMCLRD
 70
     0
  9
$DIMCLRE
 70
     0
  9
$DIMCLRT
 70
     0
  9
$DIMTFAC
 40
1.0
  9
$DIMGAP
 40
0.09
  9
$DIMJUST
 70
     0
  9
$DIMSD1
 70
     0
  9
$DIMSD2
 70
     0
  9
$DIMTOLJ
 70
     1
  9
$DIMTZIN
 70
     0
  9
$DIMALTZ
 70
     0
  9
$DIMALTTZ
 70
     0
  9
$DIMUPT
 70
     0
  9
$DIMDEC
 70
     4
  9
$DIMTDEC
 70
     4
  9
$DIMALTU
 70
     2
  9
$DIMALTTD
 70
     2
  9
$DIMTXSTY
  7
Standard
  9
$DIMAUNIT
 70
     0
  9
$DIMADEC
 70
     0
  9
$DIMALTRND
 40
0.0
  9
$DIMAZIN
 70
     0
  9
$DIMDSEP
 70
    46
  9
$DIMATFIT
 70
     3
  9
$DIMFRAC
 70
     0
  9
$DIMLDRBLK
  1

  9
$DIMLUNIT
 70
     2
  9
$DIMLWD
 70
    -2
  9
$DIMLWE
 70
    -2
  9
$DIMTMOVE
 70
     0
  9
$LUNITS
 70
     2
  9
$LUPREC
 70
     4
  9
$SKETCHINC
 40
0.1
  9
$FILLETRAD
 40
0.5
  9
$AUNITS
 70
     0
  9
$AUPREC
 70
     0
  9
$MENU
  1
.
  9
$ELEVATION
 40
0.0
  9
$PELEVATION
 40
0.0
  9
$THICKNESS
 40
0.0
  9
$LIMCHECK
 70
     0
  9
$CHAMFERA
 40
0.5
  9
$CHAMFERB
 40
0.5
  9
$CHAMFERC
 40
1.0
  9
$CHAMFERD
 40
0.0
  9
$SKPOLY
 70
     0
  9
$TDCREATE
 40
2458447.135459166
  9
$TDUCREATE
 40
2458446.760459166
  9
$TDUPDATE
 40
2458447.135459178
  9
$TDUUPDATE
 40
2458446.760459178
  9
$TDINDWG
 40
0.0000000116
  9
$TDUSRTIMER
 40
0.0000000116
  9
$USRTIMER
 70
     1
  9
$ANGBASE
 50
0.0
  9
$ANGDIR
 70
     0
  9
$PDMODE
 70
     0
  9
$PDSIZE
 40
0.0
  9
$PLINEWID
 40
0.0
  9
$SPLFRAME
 70
     0
  9
$SPLINETYPE
 70
     6
  9
$SPLINESEGS
 70
     8
  9
$HANDSEED
  5
C7
  9
$SURFTAB1
 70
     6
  9
$SURFTAB2
 70
     6
  9
$SURFTYPE
 70
     6
  9
$SURFU
 70
     6
  9
$SURFV
 70
     6
  9
$UCSBASE
  2

  9
$UCSNAME
  2

  9
$UCSORG
 10
0.0
 20
0.0
 30
0.0
  9
$UCSXDIR
 10
1.0
 20
0.0
 30
0.0
  9
$UCSYDIR
 10
0.0
 20
1.0
 30
0.0
  9
$UCSORTHOREF
  2

  9
$UCSORTHOVIEW
 70
     0
  9
$UCSORGTOP
 10
0.0
 20
0.0
 30
0.0
  9
$UCSORGBOTTOM
 10
0.0
 20
0.0
 30
0.0
  9
$UCSORGLEFT
 10
0.0
 20
0.0
 30
0.0
  9
$UCSORGRIGHT
 10
0.0
 20
0.0
 30
0.0
  9
$UCSORGFRONT
 10
0.0
 20
0.0
 30
0.0
  9
$UCSORGBACK
 10
0.0
 20
0.0
 30
0.0
  9
$PUCSBASE
  2

  9
$PUCSNAME
  2

  9
$PUCSORG
 10
0.0
 20
0.0
 30
0.0
  9
$PUCSXDIR
 10
1.0
 20
0.0
 30
0.0
  9
$PUCSYDIR
 10
0.0
 20
1.0
 30
0.0
  9
$PUCSORTHOREF
  2

  9
$PUCSORTHOVIEW
 70
     0
  9
$PUCSORGTOP
 10
0.0
 20
0.0
 30
0.0
  9
$PUCSORGBOTTOM
 10
0.0
 20
0.0
 30
0.0
  9
$PUCSORGLEFT
 10
0.0
 20
0.0
 30
0.0
  9
$PUCSORGRIGHT
 10
0.0
 20
0.0
 30
0.0
  9
$PUCSORGFRONT
 10
0.0
 20
0.0
 30
0.0
  9
$PUCSORGBACK
 10
0.0
 20
0.0
 30
0.0
  9
$USERI1
 70
     0
  9
$USERI2
 70
     0
  9
$USERI3
 70
     0
  9
$USERI4
 70
     0
  9
$USERI5
 70
     0
  9
$USERR1
 40
0.0
  9
$USERR2
 40
0.0
  9
$USERR3
 40
0.0
  9
$USERR4
 40
0.0
  9
$USERR5
 40
0.0
  9
$WORLDVIEW
 70
     1
  9
$SHADEDGE
 70
     3
  9
$SHADEDIF
 70
    70
  9
$TILEMODE
 70
     1
  9
$MAXACTVP
 70
    64
  9
$PINSBASE
 10
0.0
 20
0.0
 30
0.0
  9
$PLIMCHECK
 70
     0
  9
$PEXTMIN
 10
1.000000000000000E+20
 20
1.000000000000000E+20
 30
1.000000000000000E+20
  9
$PEXTMAX
 10
-1.000000000000000E+20
 20
-1.000000000000000E+20
 30
-1.000000000000000E+20
  9
$PLIMMIN
 10
0.0
 20
0.0
  9
$PLIMMAX
 10
12.0
 20
9.0
  9
$UNITMODE
 70
     0
  9
$VISRETAIN
 70
     1
  9
$PLINEGEN
 70
     0
  9
$PSLTSCALE
 70
     1
  9
$TREEDEPTH
 70
  3020
  9
$CMLSTYLE
  2
Standard
  9
$CMLJUST
 70
     0
  9
$CMLSCALE
 40
1.0
  9
$PROXYGRAPHICS
 70
     1
  9
$MEASUREMENT
 70
     0
  9
$CELWEIGHT
370
    -1
  9
$ENDCAPS
280
     0
  9
$JOINSTYLE
280
     0
  9
$LWDISPLAY
290
     1
  9
$INSUNITS
 70
     1
  9
$HYPERLINKBASE
  1

  9
$STYLESHEET
  1

  9
$XEDIT
290
     1
  9
$CEPSNTYPE
380
     0
  9
$PSTYLEMODE
290
     1
  9
$FINGERPRINTGUID
  2
{23ACB2B3-0F76-42EA-8D78-A656B66E6238}
  9
$VERSIONGUID
  2
{FAEB1C32-E019-11D5-929B-00C0DF256EC4}
  9
$EXTNAMES
290
     1
  9
$PSVPSCALE
 40
0.0
  9
$OLESTARTUP
290
     0
  9
$SORTENTS
280
   127
  9
$INDEXCTL
280
     0
  9
$HIDETEXT
280
     1
  9
$XCLIPFRAME
290
     0
  9
$HALOGAP
280
     0
  9
$OBSCOLOR
 70
   257
  9
$OBSLTYPE
280
     0
  9
$INTERSECTIONDISPLAY
280
     0
  9
$INTERSECTIONCOLOR
 70
   257
  9
$DIMASSOC
280
     2
  9
$PROJECTNAME
  1

  0
ENDSEC
  0
SECTION
  2
CLASSES
  0
CLASS
  1
ACDBDICTIONARYWDFLT
  2
AcDbDictionaryWithDefault
  3
ObjectDBX Classes
 90
        0
 91
        3
280
     0
281
     0
  0
CLASS
  1
VISUALSTYLE
  2
AcDbVisualStyle
  3
ObjectDBX Classes
 90
     4095
 91
        3
280
     0
281
     0
  0
ENDSEC
  0
SECTION
  2
TABLES
  0
TABLE
  2
VPORT
  5
8
330
0
100
AcDbSymbolTable
 70
     1
  0
VPORT
  5
29
330
8
100
AcDbSymbolTableRecord
100
AcDbViewportTableRecord
  2
*Active
 70
     0
 10
0.0
 20
0.0
 11
1.0
 21
1.0
 12
0.0
 22
0.0
 13
0.0
 23
0.0
 14
0.5
 24
0.5
 15
0.5
 25
0.5
 16
0.0
 26
0.0
 36
1.0
 17
372.500506060056
 27
-300.0001462926312
 37
0.0
 40
600.0002925852624
 41
1.241667748044047
 42
50.0
 43
0.0
 44
0.0
 50
0.0
 51
0.0
 71
     0
 72
   100
 73
     1
 74
     3
 75
     0
 76
     0
 77
     0
 78
     0
281
     0
 65
     1
110
0.0
120
0.0
130
0.0
111
1.0
121
0.0
131
0.0
112
0.0
122
1.0
132
0.0
 79
     0
146
0.0
  0
ENDTAB
  0
TABLE
  2
LTYPE
  5
5
330
0
100
AcDbSymbolTable
 70
     1
  0
LTYPE
  5
14
330
5
100
AcDbSymbolTableRecord
100
AcDbLinetypeTableRecord
  2
ByBlock
 70
     0
  3

 72
    65
 73
     0
 40
0.0
  0
LTYPE
  5
15
330
5
100
AcDbSymbolTableRecord
100
AcDbLinetypeTableRecord
  2
ByLayer
 70
     0
  3

 72
    65
 73
     0
 40
0.0
  0
LTYPE
  5
16
330
5
100
AcDbSymbolTableRecord
100
AcDbLinetypeTableRecord
  2
Continuous
 70
     0
  3
Solid line
 72
    65
 73
     0
 40
0.0
  0
ENDTAB
  0
TABLE
  2
LAYER
  5
2
330
0
100
AcDbSymbolTable
 70
     2
  0
LAYER
  5
10
330
2
100
AcDbSymbolTableRecord
100
AcDbLayerTableRecord
  2
0
 70
     0
 62
     7
  6
Continuous
370
    -3
390
F
  0
LAYER
  5
3B
330
2
100
AcDbSymbolTableRecord
100
AcDbLayerTableRecord
  2
\U+30EC\U+30A4\U+30E4\U+30FC 1
 70
     0
 62
     7
  6
Continuous
370
    -3
390
F
  0
ENDTAB
  0
TABLE
  2
STYLE
  5
3
330
0
100
AcDbSymbolTable
 70
     1
  0
STYLE
  5
11
330
3
100
AcDbSymbolTableRecord
100
AcDbTextStyleTableRecord
  2
Standard
 70
     0
 40
0.0
 41
1.0
 50
0.0
 71
     0
 42
0.2
  3
txt
  4

  0
ENDTAB
  0
TABLE
  2
VIEW
  5
6
330
0
100
AcDbSymbolTable
 70
     0
  0
ENDTAB
  0
TABLE
  2
UCS
  5
7
330
0
100
AcDbSymbolTable
 70
     0
  0
ENDTAB
  0
TABLE
  2
APPID
  5
9
330
0
100
AcDbSymbolTable
 70
     1
  0
APPID
  5
12
330
9
100
AcDbSymbolTableRecord
100
AcDbRegAppTableRecord
  2
ACAD
 70
     0
  0
ENDTAB
  0
TABLE
  2
DIMSTYLE
  5
A
330
0
100
AcDbSymbolTable
 70
     1
100
AcDbDimStyleTable
  0
DIMSTYLE
105
27
330
A
100
AcDbSymbolTableRecord
100
AcDbDimStyleTableRecord
  2
Standard
 70
     0
340
11
  0
ENDTAB
  0
TABLE
  2
BLOCK_RECORD
  5
1
330
0
100
AcDbSymbolTable
 70
     1
  0
BLOCK_RECORD
  5
1F
330
1
100
AcDbSymbolTableRecord
100
AcDbBlockTableRecord
  2
*Model_Space
340
22
  0
BLOCK_RECORD
  5
1B
330
1
100
AcDbSymbolTableRecord
100
AcDbBlockTableRecord
  2
*Paper_Space
340
1E
  0
BLOCK_RECORD
  5
23
330
1
100
AcDbSymbolTableRecord
100
AcDbBlockTableRecord
  2
*Paper_Space0
340
26
  0
ENDTAB
  0
ENDSEC
  0
SECTION
  2
BLOCKS
  0
BLOCK
  5
20
330
1F
100
AcDbEntity
  8
0
100
AcDbBlockBegin
  2
*Model_Space
 70
     0
 71
     0
 10
0.0
 20
0.0
 30
0.0
  3
*Model_Space
  1

  0
ENDBLK
  5
21
330
1F
100
AcDbEntity
  8
0
100
AcDbBlockEnd
  0
BLOCK
  5
1C
330
1B
100
AcDbEntity
 67
     1
  8
0
100
AcDbBlockBegin
  2
*Paper_Space
 70
     0
 71
     0
 10
0.0
 20
0.0
 30
0.0
  3
*Paper_Space
  1

  0
ENDBLK
  5
1D
330
1B
100
AcDbEntity
 67
     1
  8
0
100
AcDbBlockEnd
  0
BLOCK
  5
24
330
23
100
AcDbEntity
  8
0
100
AcDbBlockBegin
  2
*Paper_Space0
 70
     0
 71
     0
 10
0.0
 20
0.0
 30
0.0
  3
*Paper_Space0
  1

  0
ENDBLK
  5
25
330
23
100
AcDbEntity
  8
0
100
AcDbBlockEnd
  0
ENDSEC
  0
SECTION
  2
ENTITIES
  0
SPLINE
  5
3C
330
1F
100
AcDbEntity
  8
\U+30EC\U+30A4\U+30E4\U+30FC 1
 62
   250
420
  3288107
370
    35
100
AcDbSpline
210
0.0
220
0.0
230
1.0
 70
    11
 71
     3
 72
   125
 73
   121
 74
     0
 42
0.0000000001
 43
0.0000000001
 40
0.0
 40
0.0
 40
0.0
 40
0.0
 40
1.0
 40
1.0
 40
1.0
 40
2.0
 40
2.0
 40
2.0
 40
3.0
 40
3.0
 40
3.0
 40
4.0
 40
4.0
 40
4.0
 40
5.0
 40
5.0
 40
5.0
 40
6.0
 40
6.0
 40
6.0
 40
7.0
 40
7.0
 40
7.0
 40
8.0
 40
8.0
 40
8.0
 40
9.0
 40
9.0
 40
9.0
 40
10.0
 40
10.0
 40
10.0
 40
11.0
 40
11.0
 40
11.0
 40
12.0
 40
12.0
 40
12.0
 40
13.0
 40
13.0
 40
13.0
 40
14.0
 40
14.0
 40
14.0
 40
15.0
 40
15.0
 40
15.0
 40
16.0
 40
16.0
 40
16.0
 40
17.0
 40
17.0
 40
17.0
 40
18.0
 40
18.0
 40
18.0
 40
19.0
 40
19.0
 40
19.0
 40
20.0
 40
20.0
 40
20.0
 40
21.0
 40
21.0
 40
21.0
 40
22.0
 40
22.0
 40
22.0
 40
23.0
 40
23.0
 40
23.0
 40
24.0
 40
24.0
 40
24.0
 40
25.0
 40
25.0
 40
25.0
 40
26.0
 40
26.0
 40
26.0
 40
27.0
 40
27.0
 40
27.0
 40
28.0
 40
28.0
 40
28.0
 40
29.0
 40
29.0
 40
29.0
 40
30.0
 40
30.0
 40
30.0
 40
31.0
 40
31.0
 40
31.0
 40
32.0
 40
32.0
 40
32.0
 40
33.0
 40
33.0
 40
33.0
 40
34.0
 40
34.0
 40
34.0
 40
35.0
 40
35.0
 40
35.0
 40
36.0
 40
36.0
 40
36.0
 40
37.0
 40
37.0
 40
37.0
 40
38.0
 40
38.0
 40
38.0
 40
39.0
 40
39.0
 40
39.0
 40
40.0
 40
40.0
 40
40.0
 40
40.0
 10
6.333984482900462
 20
-585.0516689036908
 30
0.0
 10
6.333984482900462
 20
-585.0516689036908
 30
0.0
 10
6.333984482900462
 20
-490.0513756790183
 30
0.0
 10
6.333984482900462
 20
-490.0513756790183
 30
0.0
 10
6.333984482900462
 20
-490.0513756790183
 30
0.0
 10
11.93399088846719
 20
-490.0513756790183
 30
0.0
 10
11.93399088846719
 20
-490.0513756790183
 30
0.0
 10
11.93399088846719
 20
-490.0513756790183
 30
0.0
 10
11.93399088846719
 20
-390.051212078216
 30
0.0
 10
11.93399088846719
 20
-390.051212078216
 30
0.0
 10
11.93399088846719
 20
-390.051212078216
 30
0.0
 10
6.333984482900462
 20
-390.051212078216
 30
0.0
 10
6.333984482900462
 20
-390.051212078216
 30
0.0
 10
6.333984482900462
 20
-390.051212078216
 30
0.0
 10
6.333984482900462
 20
-295.0512633633193
 30
0.0
 10
6.333984482900462
 20
-295.0512633633193
 30
0.0
 10
6.333984482900462
 20
-295.0512633633193
 30
0.0
 10
71.33402192146683
 20
-295.0512633633193
 30
0.0
 10
71.33367741169103
 20
-295.0519523828709
 30
0.0
 10
71.33367741169103
 20
-295.0519523828709
 30
0.0
 10
71.33367741169103
 20
-300.651269768886
 30
0.0
 10
71.33367741169103
 20
-300.651269768886
 30
0.0
 10
71.33367741169103
 20
-300.651269768886
 30
0.0
 10
171.3338410124934
 20
-300.651269768886
 30
0.0
 10
171.3338410124934
 20
-300.651269768886
 30
0.0
 10
171.3338410124934
 20
-300.651269768886
 30
0.0
 10
171.3338410124934
 20
-295.0519523828709
 30
0.0
 10
171.3338410124934
 20
-295.0519523828709
 30
0.0
 10
171.3338410124934
 20
-295.0519523828709
 30
0.0
 10
271.3338323584078
 20
-295.0519523828709
 30
0.0
 10
271.3338323584078
 20
-295.0519523828709
 30
0.0
 10
271.3338323584078
 20
-295.0519523828709
 30
0.0
 10
271.3338323584078
 20
-300.651269768886
 30
0.0
 10
271.3338323584078
 20
-300.651269768886
 30
0.0
 10
271.3338323584078
 20
-300.651269768886
 30
0.0
 10
371.3339959592101
 20
-300.651269768886
 30
0.0
 10
371.3339959592101
 20
-300.651269768886
 30
0.0
 10
371.3339959592101
 20
-300.651269768886
 30
0.0
 10
371.3339959592101
 20
-295.0519523828709
 30
0.0
 10
371.3339959592101
 20
-295.0519523828709
 30
0.0
 10
371.3339959592101
 20
-295.0519523828709
 30
0.0
 10
471.3341595600125
 20
-295.0519523828709
 30
0.0
 10
471.3341595600125
 20
-295.0519523828709
 30
0.0
 10
471.3341595600125
 20
-295.0519523828709
 30
0.0
 10
471.3341595600125
 20
-300.651269768886
 30
0.0
 10
471.3341595600125
 20
-300.651269768886
 30
0.0
 10
471.3341595600125
 20
-300.651269768886
 30
0.0
 10
571.3343231608148
 20
-300.651269768886
 30
0.0
 10
571.3343231608148
 20
-300.651269768886
 30
0.0
 10
571.3343231608148
 20
-300.651269768886
 30
0.0
 10
571.3343231608148
 20
-295.0519523828709
 30
0.0
 10
571.3343231608148
 20
-295.0519523828709
 30
0.0
 10
571.3343231608148
 20
-295.0519523828709
 30
0.0
 10
671.3344867616172
 20
-295.0519523828709
 30
0.0
 10
671.3344867616172
 20
-295.0519523828709
 30
0.0
 10
671.3344867616172
 20
-295.0519523828709
 30
0.0
 10
671.3344867616172
 20
-300.651269768886
 30
0.0
 10
671.3344867616172
 20
-300.651269768886
 30
0.0
 10
671.3344867616172
 20
-300.651269768886
 30
0.0
 10
736.3345242001835
 20
-300.651269768886
 30
0.0
 10
736.3345242001835
 20
-300.651269768886
 30
0.0
 10
736.3345242001835
 20
-300.651269768886
 30
0.0
 10
736.3345242001835
 20
-390.051212078216
 30
0.0
 10
736.3345242001835
 20
-390.051212078216
 30
0.0
 10
736.3345242001835
 20
-390.051212078216
 30
0.0
 10
730.7345177946167
 20
-390.051212078216
 30
0.0
 10
730.7345177946167
 20
-390.051212078216
 30
0.0
 10
730.7345177946167
 20
-390.051212078216
 30
0.0
 10
730.7345177946167
 20
-490.0513756790183
 30
0.0
 10
730.7345177946167
 20
-490.0513756790183
 30
0.0
 10
730.7345177946167
 20
-490.0513756790183
 30
0.0
 10
736.3345242001835
 20
-490.0513756790183
 30
0.0
 10
736.3345242001835
 20
-490.0513756790183
 30
0.0
 10
736.3345242001835
 20
-490.0513756790183
 30
0.0
 10
736.3345242001835
 20
-579.4516624981242
 30
0.0
 10
736.3345242001835
 20
-579.4516624981242
 30
0.0
 10
736.3345242001835
 20
-579.4516624981242
 30
0.0
 10
671.3344867616172
 20
-579.4516624981242
 30
0.0
 10
671.3344867616172
 20
-579.4516624981242
 30
0.0
 10
671.3344867616172
 20
-579.4516624981242
 30
0.0
 10
671.3344867616172
 20
-585.0509798841393
 30
0.0
 10
671.3344867616172
 20
-585.0509798841393
 30
0.0
 10
671.3344867616172
 20
-585.0509798841393
 30
0.0
 10
571.3343231608148
 20
-585.0509798841393
 30
0.0
 10
571.3343231608148
 20
-585.0509798841393
 30
0.0
 10
571.3343231608148
 20
-585.0509798841393
 30
0.0
 10
571.3343231608148
 20
-579.4516624981242
 30
0.0
 10
571.3343231608148
 20
-579.4516624981242
 30
0.0
 10
571.3343231608148
 20
-579.4516624981242
 30
0.0
 10
471.3341595600125
 20
-579.4516624981242
 30
0.0
 10
471.3341595600125
 20
-579.4516624981242
 30
0.0
 10
471.3341595600125
 20
-579.4516624981242
 30
0.0
 10
471.3341595600125
 20
-585.0509798841393
 30
0.0
 10
471.3341595600125
 20
-585.0509798841393
 30
0.0
 10
471.3341595600125
 20
-585.0509798841393
 30
0.0
 10
371.3339959592101
 20
-585.0509798841393
 30
0.0
 10
371.3339959592101
 20
-585.0509798841393
 30
0.0
 10
371.3339959592101
 20
-585.0509798841393
 30
0.0
 10
371.3339959592101
 20
-579.4516624981242
 30
0.0
 10
371.3339959592101
 20
-579.4516624981242
 30
0.0
 10
371.3339959592101
 20
-579.4516624981242
 30
0.0
 10
271.3338323584078
 20
-579.4516624981242
 30
0.0
 10
271.3338323584078
 20
-579.4516624981242
 30
0.0
 10
271.3338323584078
 20
-579.4516624981242
 30
0.0
 10
271.3338323584078
 20
-585.0509798841393
 30
0.0
 10
271.3338323584078
 20
-585.0509798841393
 30
0.0
 10
271.3338323584078
 20
-585.0509798841393
 30
0.0
 10
171.3336687576055
 20
-585.0509798841393
 30
0.0
 10
171.3336687576055
 20
-585.0509798841393
 30
0.0
 10
171.3336687576055
 20
-585.0509798841393
 30
0.0
 10
171.3336687576055
 20
-579.4516624981242
 30
0.0
 10
171.3336687576055
 20
-579.4516624981242
 30
0.0
 10
171.3336687576055
 20
-579.4516624981242
 30
0.0
 10
71.33367741169103
 20
-579.4516624981242
 30
0.0
 10
71.33367741169103
 20
-579.4516624981242
 30
0.0
 10
71.33367741169103
 20
-579.4516624981242
 30
0.0
 10
71.33367741169103
 20
-585.0509798841393
 30
0.0
 10
71.33367741169103
 20
-585.0509798841393
 30
0.0
 10
71.33402192146683
 20
-585.0516689036908
 30
0.0
 10
6.333984482900462
 20
-585.0516689036908
 30
0.0
 10
6.333984482900462
 20
-585.0516689036908
 30
0.0
  0
SPLINE
  5
3D
330
1F
100
AcDbEntity
  8
\U+30EC\U+30A4\U+30E4\U+30FC 1
 62
   250
420
  3288107
370
    35
100
AcDbSpline
210
0.0
220
0.0
230
1.0
 70
    11
 71
     3
 72
    65
 73
    61
 74
     0
 42
0.0000000001
 43
0.0000000001
 40
0.0
 40
0.0
 40
0.0
 40
0.0
 40
1.0
 40
1.0
 40
1.0
 40
2.0
 40
2.0
 40
2.0
 40
3.0
 40
3.0
 40
3.0
 40
4.0
 40
4.0
 40
4.0
 40
5.0
 40
5.0
 40
5.0
 40
6.0
 40
6.0
 40
6.0
 40
7.0
 40
7.0
 40
7.0
 40
8.0
 40
8.0
 40
8.0
 40
9.0
 40
9.0
 40
9.0
 40
10.0
 40
10.0
 40
10.0
 40
11.0
 40
11.0
 40
11.0
 40
12.0
 40
12.0
 40
12.0
 40
13.0
 40
13.0
 40
13.0
 40
14.0
 40
14.0
 40
14.0
 40
15.0
 40
15.0
 40
15.0
 40
16.0
 40
16.0
 40
16.0
 40
17.0
 40
17.0
 40
17.0
 40
18.0
 40
18.0
 40
18.0
 40
19.0
 40
19.0
 40
19.0
 40
20.0
 40
20.0
 40
20.0
 40
20.0
 10
594.0375173857824
 20
-20.36397284731154
 30
0.0
 10
594.0375173857824
 20
-20.36397284731154
 30
0.0
 10
504.6382640960039
 20
-20.36397284731154
 30
0.0
 10
504.6382640960039
 20
-20.36397284731154
 30
0.0
 10
504.6382640960039
 20
-20.36397284731154
 30
0.0
 10
504.6382640960039
 20
-14.76396644174482
 30
0.0
 10
504.6382640960039
 20
-14.76396644174482
 30
0.0
 10
504.6382640960039
 20
-14.76396644174482
 30
0.0
 10
404.6381004952016
 20
-14.76396644174482
 30
0.0
 10
404.6381004952016
 20
-14.76396644174482
 30
0.0
 10
404.6381004952016
 20
-14.76396644174482
 30
0.0
 10
404.6381004952016
 20
-20.36397284731154
 30
0.0
 10
404.6381004952016
 20
-20.36397284731154
 30
0.0
 10
404.6381004952016
 20
-20.36397284731154
 30
0.0
 10
315.2381581858716
 20
-20.36397284731154
 30
0.0
 10
315.2381581858716
 20
-20.36397284731154
 30
0.0
 10
315.2381581858716
 20
-20.36397284731154
 30
0.0
 10
315.2381581858716
 20
-45.36366923773633
 30
0.0
 10
315.2381581858716
 20
-45.36366923773633
 30
0.0
 10
315.2381581858716
 20
-45.36366923773633
 30
0.0
 10
309.6384962900806
 20
-45.36366923773633
 30
0.0
 10
309.6384962900806
 20
-45.36366923773633
 30
0.0
 10
309.6384962900806
 20
-45.36366923773633
 30
0.0
 10
309.6384962900806
 20
-75.36358051406671
 30
0.0
 10
309.6384962900806
 20
-75.36358051406671
 30
0.0
 10
309.6384962900806
 20
-75.36358051406671
 30
0.0
 10
315.2381581858716
 20
-75.36358051406671
 30
0.0
 10
315.2381581858716
 20
-75.36358051406671
 30
0.0
 10
315.2381581858716
 20
-75.36358051406671
 30
0.0
 10
315.2381581858716
 20
-100.3632769044915
 30
0.0
 10
315.2381581858716
 20
-100.3632769044915
 30
0.0
 10
315.2381581858716
 20
-100.3632769044915
 30
0.0
 10
404.63741147565
 20
-100.3632769044915
 30
0.0
 10
404.63741147565
 20
-100.3632769044915
 30
0.0
 10
404.63741147565
 20
-100.3632769044915
 30
0.0
 10
404.63741147565
 20
-105.9632833100582
 30
0.0
 10
404.63741147565
 20
-105.9632833100582
 30
0.0
 10
404.63741147565
 20
-105.9632833100582
 30
0.0
 10
504.6375750764523
 20
-105.9632833100582
 30
0.0
 10
504.6375750764523
 20
-105.9632833100582
 30
0.0
 10
504.6375750764523
 20
-105.9632833100582
 30
0.0
 10
504.6375750764523
 20
-100.3632769044915
 30
0.0
 10
504.6375750764523
 20
-100.3632769044915
 30
0.0
 10
504.6375750764523
 20
-100.3632769044915
 30
0.0
 10
594.0368283662308
 20
-100.3632769044915
 30
0.0
 10
594.0375173857824
 20
-100.3632769044915
 30
0.0
 10
594.0375173857824
 20
-100.3632769044915
 30
0.0
 10
594.0375173857824
 20
-75.36358051406671
 30
0.0
 10
594.0375173857824
 20
-75.36358051406671
 30
0.0
 10
594.0375173857824
 20
-75.36358051406671
 30
0.0
 10
599.637523791349
 20
-75.36358051406671
 30
0.0
 10
599.637523791349
 20
-75.36358051406671
 30
0.0
 10
599.637523791349
 20
-75.36358051406671
 30
0.0
 10
599.637523791349
 20
-45.36366923773633
 30
0.0
 10
599.637523791349
 20
-45.36366923773633
 30
0.0
 10
599.637523791349
 20
-45.36366923773633
 30
0.0
 10
594.0375173857824
 20
-45.36366923773633
 30
0.0
 10
594.0375173857824
 20
-45.36366923773633
 30
0.0
 10
594.0375173857824
 20
-45.36366923773633
 30
0.0
 10
594.0375173857824
 20
-20.36397284731154
 30
0.0
 10
594.0375173857824
 20
-20.36397284731154
 30
0.0
  0
POLYLINE
  5
3E
330
1F
100
AcDbEntity
  8
\U+30EC\U+30A4\U+30E4\U+30FC 1
 62
   250
420
  3288107
370
    35
100
AcDb2dPolyline
 66
     1
 10
0.0
 20
0.0
 30
0.0
  0
VERTEX
  5
3F
330
3E
100
AcDbEntity
  8
\U+30EC\U+30A4\U+30E4\U+30FC 1
 62
   250
420
  3288107
370
    35
100
AcDbVertex
100
AcDb2dVertex
 10
6.333467718236768
 20
-240.3186507728061
 30
0.0
  0
VERTEX
  5
40
330
3E
100
AcDbEntity
  8
\U+30EC\U+30A4\U+30E4\U+30FC 1
 62
   250
420
  3288107
370
    35
100
AcDbVertex
100
AcDb2dVertex
 10
6.333467718236768
 20
-259.0685953205126
 30
0.0
  0
VERTEX
  5
41
330
3E
100
AcDbEntity
  8
\U+30EC\U+30A4\U+30E4\U+30FC 1
 62
   250
420
  3288107
370
    35
100
AcDbVertex
100
AcDb2dVertex
 10
11.93347412380349
 20
-259.0685953205126
 30
0.0
  0
VERTEX
  5
42
330
3E
100
AcDbEntity
  8
\U+30EC\U+30A4\U+30E4\U+30FC 1
 62
   250
420
  3288107
370
    35
100
AcDbVertex
100
AcDb2dVertex
 10
11.93347412380349
 20
-277.8185398682191
 30
0.0
  0
VERTEX
  5
43
330
3E
100
AcDbEntity
  8
\U+30EC\U+30A4\U+30E4\U+30FC 1
 62
   250
420
  3288107
370
    35
100
AcDbVertex
100
AcDb2dVertex
 10
730.7338287750653
 20
-277.8185398682191
 30
0.0
  0
VERTEX
  5
44
330
3E
100
AcDbEntity
  8
\U+30EC\U+30A4\U+30E4\U+30FC 1
 62
   250
420
  3288107
370
    35
100
AcDbVertex
100
AcDb2dVertex
 10
730.7338287750653
 20
-259.0685953205126
 30
0.0
  0
VERTEX
  5
45
330
3E
100
AcDbEntity
  8
\U+30EC\U+30A4\U+30E4\U+30FC 1
 62
   250
420
  3288107
370
    35
100
AcDbVertex
100
AcDb2dVertex
 10
736.3338351806319
 20
-259.0685953205126
 30
0.0
  0
VERTEX
  5
46
330
3E
100
AcDbEntity
  8
\U+30EC\U+30A4\U+30E4\U+30FC 1
 62
   250
420
  3288107
370
    35
100
AcDbVertex
100
AcDb2dVertex
 10
736.3338351806319
 20
-234.7186443672394
 30
0.0
  0
VERTEX
  5
47
330
3E
100
AcDbEntity
  8
\U+30EC\U+30A4\U+30E4\U+30FC 1
 62
   250
420
  3288107
370
    35
100
AcDbVertex
100
AcDb2dVertex
 10
671.3337977420656
 20
-234.7186443672394
 30
0.0
  0
VERTEX
  5
48
330
3E
100
AcDbEntity
  8
\U+30EC\U+30A4\U+30E4\U+30FC 1
 62
   250
420
  3288107
370
    35
100
AcDbVertex
100
AcDb2dVertex
 10
671.3337977420656
 20
-240.3179617532545
 30
0.0
  0
VERTEX
  5
49
330
3E
100
AcDbEntity
  8
\U+30EC\U+30A4\U+30E4\U+30FC 1
 62
   250
420
  3288107
370
    35
100
AcDbVertex
100
AcDb2dVertex
 10
571.3336341412632
 20
-240.3179617532545
 30
0.0
  0
VERTEX
  5
4A
330
3E
100
AcDbEntity
  8
\U+30EC\U+30A4\U+30E4\U+30FC 1
 62
   250
420
  3288107
370
    35
100
AcDbVertex
100
AcDb2dVertex
 10
571.3336341412632
 20
-234.7186443672394
 30
0.0
  0
VERTEX
  5
4B
330
3E
100
AcDbEntity
  8
\U+30EC\U+30A4\U+30E4\U+30FC 1
 62
   250
420
  3288107
370
    35
100
AcDbVertex
100
AcDb2dVertex
 10
471.3334705404609
 20
-234.7186443672394
 30
0.0
  0
VERTEX
  5
4C
330
3E
100
AcDbEntity
  8
\U+30EC\U+30A4\U+30E4\U+30FC 1
 62
   250
420
  3288107
370
    35
100
AcDbVertex
100
AcDb2dVertex
 10
471.3334705404609
 20
-240.3179617532545
 30
0.0
  0
VERTEX
  5
4D
330
3E
100
AcDbEntity
  8
\U+30EC\U+30A4\U+30E4\U+30FC 1
 62
   250
420
  3288107
370
    35
100
AcDbVertex
100
AcDb2dVertex
 10
371.3333069396585
 20
-240.3179617532545
 30
0.0
  0
VERTEX
  5
4E
330
3E
100
AcDbEntity
  8
\U+30EC\U+30A4\U+30E4\U+30FC 1
 62
   250
420
  3288107
370
    35
100
AcDbVertex
100
AcDb2dVertex
 10
371.3333069396585
 20
-234.7186443672394
 30
0.0
  0
VERTEX
  5
4F
330
3E
100
AcDbEntity
  8
\U+30EC\U+30A4\U+30E4\U+30FC 1
 62
   250
420
  3288107
370
    35
100
AcDbVertex
100
AcDb2dVertex
 10
271.3331433388562
 20
-234.7186443672394
 30
0.0
  0
VERTEX
  5
50
330
3E
100
AcDbEntity
  8
\U+30EC\U+30A4\U+30E4\U+30FC 1
 62
   250
420
  3288107
370
    35
100
AcDbVertex
100
AcDb2dVertex
 10
271.3331433388562
 20
-240.3179617532545
 30
0.0
  0
VERTEX
  5
51
330
3E
100
AcDbEntity
  8
\U+30EC\U+30A4\U+30E4\U+30FC 1
 62
   250
420
  3288107
370
    35
100
AcDbVertex
100
AcDb2dVertex
 10
171.3329797380539
 20
-240.3179617532545
 30
0.0
  0
VERTEX
  5
52
330
3E
100
AcDbEntity
  8
\U+30EC\U+30A4\U+30E4\U+30FC 1
 62
   250
420
  3288107
370
    35
100
AcDbVertex
100
AcDb2dVertex
 10
171.3329797380539
 20
-234.7186443672394
 30
0.0
  0
VERTEX
  5
53
330
3E
100
AcDbEntity
  8
\U+30EC\U+30A4\U+30E4\U+30FC 1
 62
   250
420
  3288107
370
    35
100
AcDbVertex
100
AcDb2dVertex
 10
71.33281613725154
 20
-234.7186443672394
 30
0.0
  0
VERTEX
  5
54
330
3E
100
AcDbEntity
  8
\U+30EC\U+30A4\U+30E4\U+30FC 1
 62
   250
420
  3288107
370
    35
100
AcDbVertex
100
AcDb2dVertex
 10
71.33281613725154
 20
-240.3179617532545
 30
0.0
  0
VERTEX
  5
55
330
3E
100
AcDbEntity
  8
\U+30EC\U+30A4\U+30E4\U+30FC 1
 62
   250
420
  3288107
370
    35
100
AcDbVertex
100
AcDb2dVertex
 10
6.333467718236768
 20
-240.3186507728061
 30
0.0
  0
SEQEND
  5
56
330
3E
100
AcDbEntity
  8
\U+30EC\U+30A4\U+30E4\U+30FC 1
370
    35
  0
POLYLINE
  5
57
330
1F
100
AcDbEntity
  8
\U+30EC\U+30A4\U+30E4\U+30FC 1
 62
   250
420
  3288107
370
    35
100
AcDb2dPolyline
 66
     1
 10
0.0
 20
0.0
 30
0.0
  0
VERTEX
  5
58
330
57
100
AcDbEntity
  8
\U+30EC\U+30A4\U+30E4\U+30FC 1
 62
   250
420
  3288107
370
    35
100
AcDbVertex
100
AcDb2dVertex
 10
6.333467718236768
 20
-191.7159006230342
 30
0.0
  0
VERTEX
  5
59
330
57
100
AcDbEntity
  8
\U+30EC\U+30A4\U+30E4\U+30FC 1
 62
   250
420
  3288107
370
    35
100
AcDbVertex
100
AcDb2dVertex
 10
6.333467718236768
 20
-210.4658451707407
 30
0.0
  0
VERTEX
  5
5A
330
57
100
AcDbEntity
  8
\U+30EC\U+30A4\U+30E4\U+30FC 1
 62
   250
420
  3288107
370
    35
100
AcDbVertex
100
AcDb2dVertex
 10
11.93347412380349
 20
-210.4658451707407
 30
0.0
  0
VERTEX
  5
5B
330
57
100
AcDbEntity
  8
\U+30EC\U+30A4\U+30E4\U+30FC 1
 62
   250
420
  3288107
370
    35
100
AcDbVertex
100
AcDb2dVertex
 10
11.93347412380349
 20
-229.2157897184472
 30
0.0
  0
VERTEX
  5
5C
330
57
100
AcDbEntity
  8
\U+30EC\U+30A4\U+30E4\U+30FC 1
 62
   250
420
  3288107
370
    35
100
AcDbVertex
100
AcDb2dVertex
 10
730.7338287750653
 20
-229.2157897184472
 30
0.0
  0
VERTEX
  5
5D
330
57
100
AcDbEntity
  8
\U+30EC\U+30A4\U+30E4\U+30FC 1
 62
   250
420
  3288107
370
    35
100
AcDbVertex
100
AcDb2dVertex
 10
730.7338287750653
 20
-210.4658451707407
 30
0.0
  0
VERTEX
  5
5E
330
57
100
AcDbEntity
  8
\U+30EC\U+30A4\U+30E4\U+30FC 1
 62
   250
420
  3288107
370
    35
100
AcDbVertex
100
AcDb2dVertex
 10
736.3338351806319
 20
-210.4658451707407
 30
0.0
  0
VERTEX
  5
5F
330
57
100
AcDbEntity
  8
\U+30EC\U+30A4\U+30E4\U+30FC 1
 62
   250
420
  3288107
370
    35
100
AcDbVertex
100
AcDb2dVertex
 10
736.3338351806319
 20
-186.1158942174675
 30
0.0
  0
VERTEX
  5
60
330
57
100
AcDbEntity
  8
\U+30EC\U+30A4\U+30E4\U+30FC 1
 62
   250
420
  3288107
370
    35
100
AcDbVertex
100
AcDb2dVertex
 10
671.3337977420656
 20
-186.1158942174675
 30
0.0
  0
VERTEX
  5
61
330
57
100
AcDbEntity
  8
\U+30EC\U+30A4\U+30E4\U+30FC 1
 62
   250
420
  3288107
370
    35
100
AcDbVertex
100
AcDb2dVertex
 10
671.3337977420656
 20
-191.7152116034826
 30
0.0
  0
VERTEX
  5
62
330
57
100
AcDbEntity
  8
\U+30EC\U+30A4\U+30E4\U+30FC 1
 62
   250
420
  3288107
370
    35
100
AcDbVertex
100
AcDb2dVertex
 10
571.3336341412632
 20
-191.7152116034826
 30
0.0
  0
VERTEX
  5
63
330
57
100
AcDbEntity
  8
\U+30EC\U+30A4\U+30E4\U+30FC 1
 62
   250
420
  3288107
370
    35
100
AcDbVertex
100
AcDb2dVertex
 10
571.3336341412632
 20
-186.1158942174675
 30
0.0
  0
VERTEX
  5
64
330
57
100
AcDbEntity
  8
\U+30EC\U+30A4\U+30E4\U+30FC 1
 62
   250
420
  3288107
370
    35
100
AcDbVertex
100
AcDb2dVertex
 10
471.3334705404609
 20
-186.1158942174675
 30
0.0
  0
VERTEX
  5
65
330
57
100
AcDbEntity
  8
\U+30EC\U+30A4\U+30E4\U+30FC 1
 62
   250
420
  3288107
370
    35
100
AcDbVertex
100
AcDb2dVertex
 10
471.3334705404609
 20
-191.7152116034826
 30
0.0
  0
VERTEX
  5
66
330
57
100
AcDbEntity
  8
\U+30EC\U+30A4\U+30E4\U+30FC 1
 62
   250
420
  3288107
370
    35
100
AcDbVertex
100
AcDb2dVertex
 10
371.3333069396585
 20
-191.7152116034826
 30
0.0
  0
VERTEX
  5
67
330
57
100
AcDbEntity
  8
\U+30EC\U+30A4\U+30E4\U+30FC 1
 62
   250
420
  3288107
370
    35
100
AcDbVertex
100
AcDb2dVertex
 10
371.3333069396585
 20
-186.1158942174675
 30
0.0
  0
VERTEX
  5
68
330
57
100
AcDbEntity
  8
\U+30EC\U+30A4\U+30E4\U+30FC 1
 62
   250
420
  3288107
370
    35
100
AcDbVertex
100
AcDb2dVertex
 10
271.3331433388562
 20
-186.1158942174675
 30
0.0
  0
VERTEX
  5
69
330
57
100
AcDbEntity
  8
\U+30EC\U+30A4\U+30E4\U+30FC 1
 62
   250
420
  3288107
370
    35
100
AcDbVertex
100
AcDb2dVertex
 10
271.3331433388562
 20
-191.7152116034826
 30
0.0
  0
VERTEX
  5
6A
330
57
100
AcDbEntity
  8
\U+30EC\U+30A4\U+30E4\U+30FC 1
 62
   250
420
  3288107
370
    35
100
AcDbVertex
100
AcDb2dVertex
 10
171.3329797380539
 20
-191.7152116034826
 30
0.0
  0
VERTEX
  5
6B
330
57
100
AcDbEntity
  8
\U+30EC\U+30A4\U+30E4\U+30FC 1
 62
   250
420
  3288107
370
    35
100
AcDbVertex
100
AcDb2dVertex
 10
171.3329797380539
 20
-186.1158942174675
 30
0.0
  0
VERTEX
  5
6C
330
57
100
AcDbEntity
  8
\U+30EC\U+30A4\U+30E4\U+30FC 1
 62
   250
420
  3288107
370
    35
100
AcDbVertex
100
AcDb2dVertex
 10
71.33281613725154
 20
-186.1158942174675
 30
0.0
  0
VERTEX
  5
6D
330
57
100
AcDbEntity
  8
\U+30EC\U+30A4\U+30E4\U+30FC 1
 62
   250
420
  3288107
370
    35
100
AcDbVertex
100
AcDb2dVertex
 10
71.33281613725154
 20
-191.7152116034826
 30
0.0
  0
VERTEX
  5
6E
330
57
100
AcDbEntity
  8
\U+30EC\U+30A4\U+30E4\U+30FC 1
 62
   250
420
  3288107
370
    35
100
AcDbVertex
100
AcDb2dVertex
 10
6.333467718236768
 20
-191.7159006230342
 30
0.0
  0
SEQEND
  5
6F
330
57
100
AcDbEntity
  8
\U+30EC\U+30A4\U+30E4\U+30FC 1
370
    35
  0
POLYLINE
  5
70
330
1F
100
AcDbEntity
  8
\U+30EC\U+30A4\U+30E4\U+30FC 1
 62
   250
420
  3288107
370
    35
100
AcDb2dPolyline
 66
     1
 10
0.0
 20
0.0
 30
0.0
  0
VERTEX
  5
71
330
70
100
AcDbEntity
  8
\U+30EC\U+30A4\U+30E4\U+30FC 1
 62
   250
420
  3288107
370
    35
100
AcDbVertex
100
AcDb2dVertex
 10
304.1959308520528
 20
-163.5505039028184
 30
0.0
  0
VERTEX
  5
72
330
70
100
AcDbEntity
  8
\U+30EC\U+30A4\U+30E4\U+30FC 1
 62
   250
420
  3288107
370
    35
100
AcDbVertex
100
AcDb2dVertex
 10
14.19552531168114
 20
-163.5505039028184
 30
0.0
  0
VERTEX
  5
73
330
70
100
AcDbEntity
  8
\U+30EC\U+30A4\U+30E4\U+30FC 1
 62
   250
420
  3288107
370
    35
100
AcDbVertex
100
AcDb2dVertex
 10
14.19552531168114
 20
-144.8005593551119
 30
0.0
  0
VERTEX
  5
74
330
70
100
AcDbEntity
  8
\U+30EC\U+30A4\U+30E4\U+30FC 1
 62
   250
420
  3288107
370
    35
100
AcDbVertex
100
AcDb2dVertex
 10
19.79553171724786
 20
-144.8005593551119
 30
0.0
  0
VERTEX
  5
75
330
70
100
AcDbEntity
  8
\U+30EC\U+30A4\U+30E4\U+30FC 1
 62
   250
420
  3288107
370
    35
100
AcDbVertex
100
AcDb2dVertex
 10
19.79553171724786
 20
-126.0506148074054
 30
0.0
  0
VERTEX
  5
76
330
70
100
AcDbEntity
  8
\U+30EC\U+30A4\U+30E4\U+30FC 1
 62
   250
420
  3288107
370
    35
100
AcDbVertex
100
AcDb2dVertex
 10
109.1956462814658
 20
-126.0506148074054
 30
0.0
  0
VERTEX
  5
77
330
70
100
AcDbEntity
  8
\U+30EC\U+30A4\U+30E4\U+30FC 1
 62
   250
420
  3288107
370
    35
100
AcDbVertex
100
AcDb2dVertex
 10
109.1956462814658
 20
-120.4506084018387
 30
0.0
  0
VERTEX
  5
78
330
70
100
AcDbEntity
  8
\U+30EC\U+30A4\U+30E4\U+30FC 1
 62
   250
420
  3288107
370
    35
100
AcDbVertex
100
AcDb2dVertex
 10
209.195982137156
 20
-120.4506084018387
 30
0.0
  0
VERTEX
  5
79
330
70
100
AcDbEntity
  8
\U+30EC\U+30A4\U+30E4\U+30FC 1
 62
   250
420
  3288107
370
    35
100
AcDbVertex
100
AcDb2dVertex
 10
209.195982137156
 20
-126.0506148074054
 30
0.0
  0
VERTEX
  5
7A
330
70
100
AcDbEntity
  8
\U+30EC\U+30A4\U+30E4\U+30FC 1
 62
   250
420
  3288107
370
    35
100
AcDbVertex
100
AcDb2dVertex
 10
298.595924446486
 20
-126.0506148074054
 30
0.0
  0
VERTEX
  5
7B
330
70
100
AcDbEntity
  8
\U+30EC\U+30A4\U+30E4\U+30FC 1
 62
   250
420
  3288107
370
    35
100
AcDbVertex
100
AcDb2dVertex
 10
298.595924446486
 20
-144.8005593551119
 30
0.0
  0
VERTEX
  5
7C
330
70
100
AcDbEntity
  8
\U+30EC\U+30A4\U+30E4\U+30FC 1
 62
   250
420
  3288107
370
    35
100
AcDbVertex
100
AcDb2dVertex
 10
304.1959308520528
 20
-144.8005593551119
 30
0.0
  0
VERTEX
  5
7D
330
70
100
AcDbEntity
  8
\U+30EC\U+30A4\U+30E4\U+30FC 1
 62
   250
420
  3288107
370
    35
100
AcDbVertex
100
AcDb2dVertex
 10
304.1959308520528
 20
-163.5505039028184
 30
0.0
  0
SEQEND
  5
7E
330
70
100
AcDbEntity
  8
\U+30EC\U+30A4\U+30E4\U+30FC 1
370
    35
  0
POLYLINE
  5
7F
330
1F
100
AcDbEntity
  8
\U+30EC\U+30A4\U+30E4\U+30FC 1
 62
   250
420
  3288107
370
    35
100
AcDb2dPolyline
 66
     1
 10
0.0
 20
0.0
 30
0.0
  0
VERTEX
  5
80
330
7F
100
AcDbEntity
  8
\U+30EC\U+30A4\U+30E4\U+30FC 1
 62
   250
420
  3288107
370
    35
100
AcDbVertex
100
AcDb2dVertex
 10
605.115573736284
 20
-163.5505039028184
 30
0.0
  0
VERTEX
  5
81
330
7F
100
AcDbEntity
  8
\U+30EC\U+30A4\U+30E4\U+30FC 1
 62
   250
420
  3288107
370
    35
100
AcDbVertex
100
AcDb2dVertex
 10
315.1151681959124
 20
-163.5505039028184
 30
0.0
  0
VERTEX
  5
82
330
7F
100
AcDbEntity
  8
\U+30EC\U+30A4\U+30E4\U+30FC 1
 62
   250
420
  3288107
370
    35
100
AcDbVertex
100
AcDb2dVertex
 10
315.1151681959124
 20
-144.8005593551119
 30
0.0
  0
VERTEX
  5
83
330
7F
100
AcDbEntity
  8
\U+30EC\U+30A4\U+30E4\U+30FC 1
 62
   250
420
  3288107
370
    35
100
AcDbVertex
100
AcDb2dVertex
 10
320.7151746014791
 20
-144.8005593551119
 30
0.0
  0
VERTEX
  5
84
330
7F
100
AcDbEntity
  8
\U+30EC\U+30A4\U+30E4\U+30FC 1
 62
   250
420
  3288107
370
    35
100
AcDbVertex
100
AcDb2dVertex
 10
320.7151746014791
 20
-126.0506148074054
 30
0.0
  0
VERTEX
  5
85
330
7F
100
AcDbEntity
  8
\U+30EC\U+30A4\U+30E4\U+30FC 1
 62
   250
420
  3288107
370
    35
100
AcDbVertex
100
AcDb2dVertex
 10
410.1151169108091
 20
-126.0506148074054
 30
0.0
  0
VERTEX
  5
86
330
7F
100
AcDbEntity
  8
\U+30EC\U+30A4\U+30E4\U+30FC 1
 62
   250
420
  3288107
370
    35
100
AcDbVertex
100
AcDb2dVertex
 10
410.1151169108091
 20
-120.4506084018387
 30
0.0
  0
VERTEX
  5
87
330
7F
100
AcDbEntity
  8
\U+30EC\U+30A4\U+30E4\U+30FC 1
 62
   250
420
  3288107
370
    35
100
AcDbVertex
100
AcDb2dVertex
 10
510.1152805116114
 20
-120.4506084018387
 30
0.0
  0
VERTEX
  5
88
330
7F
100
AcDbEntity
  8
\U+30EC\U+30A4\U+30E4\U+30FC 1
 62
   250
420
  3288107
370
    35
100
AcDbVertex
100
AcDb2dVertex
 10
510.1152805116114
 20
-126.0506148074054
 30
0.0
  0
VERTEX
  5
89
330
7F
100
AcDbEntity
  8
\U+30EC\U+30A4\U+30E4\U+30FC 1
 62
   250
420
  3288107
370
    35
100
AcDbVertex
100
AcDb2dVertex
 10
599.5155673307172
 20
-126.0506148074054
 30
0.0
  0
VERTEX
  5
8A
330
7F
100
AcDbEntity
  8
\U+30EC\U+30A4\U+30E4\U+30FC 1
 62
   250
420
  3288107
370
    35
100
AcDbVertex
100
AcDb2dVertex
 10
599.5155673307172
 20
-144.8005593551119
 30
0.0
  0
VERTEX
  5
8B
330
7F
100
AcDbEntity
  8
\U+30EC\U+30A4\U+30E4\U+30FC 1
 62
   250
420
  3288107
370
    35
100
AcDbVertex
100
AcDb2dVertex
 10
605.115573736284
 20
-144.8005593551119
 30
0.0
  0
VERTEX
  5
8C
330
7F
100
AcDbEntity
  8
\U+30EC\U+30A4\U+30E4\U+30FC 1
 62
   250
420
  3288107
370
    35
100
AcDbVertex
100
AcDb2dVertex
 10
605.115573736284
 20
-163.5505039028184
 30
0.0
  0
SEQEND
  5
8D
330
7F
100
AcDbEntity
  8
\U+30EC\U+30A4\U+30E4\U+30FC 1
370
    35
  0
SPLINE
  5
8E
330
1F
100
AcDbEntity
  8
\U+30EC\U+30A4\U+30E4\U+30FC 1
 62
   250
420
  3288107
370
    35
100
AcDbSpline
210
0.0
220
0.0
230
1.0
 70
    11
 71
     3
 72
    17
 73
    13
 74
     0
 42
0.0000000001
 43
0.0000000001
 40
0.0
 40
0.0
 40
0.0
 40
0.0
 40
1.0
 40
1.0
 40
1.0
 40
2.0
 40
2.0
 40
2.0
 40
3.0
 40
3.0
 40
3.0
 40
4.0
 40
4.0
 40
4.0
 40
4.0
 10
231.3341803298178
 20
-313.7512539935353
 30
0.0
 10
230.4501682451249
 20
-313.7512539935353
 30
0.0
 10
229.7342769310204
 20
-313.0350181696551
 30
0.0
 10
229.7342769310204
 20
-312.1513505947379
 30
0.0
 10
229.7342769310204
 20
-311.2676830198207
 30
0.0
 10
230.4501682451249
 20
-310.5514471959405
 30
0.0
 10
231.3341803298178
 20
-310.5514471959405
 30
0.0
 10
232.2175033949592
 20
-310.5514471959405
 30
0.0
 10
232.9340837286152
 20
-311.2676830198207
 30
0.0
 10
232.9340837286152
 20
-312.1513505947379
 30
0.0
 10
232.9340837286152
 20
-313.0350181696551
 30
0.0
 10
232.2175033949592
 20
-313.7512539935353
 30
0.0
 10
231.3341803298178
 20
-313.7512539935353
 30
0.0
  0
SPLINE
  5
8F
330
1F
100
AcDbEntity
  8
\U+30EC\U+30A4\U+30E4\U+30FC 1
 62
   250
420
  3288107
370
    35
100
AcDbSpline
210
0.0
220
0.0
230
1.0
 70
    11
 71
     3
 72
    17
 73
    13
 74
     0
 42
0.0000000001
 43
0.0000000001
 40
0.0
 40
0.0
 40
0.0
 40
0.0
 40
1.0
 40
1.0
 40
1.0
 40
2.0
 40
2.0
 40
2.0
 40
3.0
 40
3.0
 40
3.0
 40
4.0
 40
4.0
 40
4.0
 40
4.0
 10
511.334500608154
 20
-313.7512539935353
 30
0.0
 10
510.4508330332369
 20
-313.7512539935353
 30
0.0
 10
509.7345972093567
 20
-313.0350181696551
 30
0.0
 10
509.7345972093567
 20
-312.1513505947379
 30
0.0
 10
509.7345972093567
 20
-311.2676830198207
 30
0.0
 10
510.4508330332369
 20
-310.5514471959405
 30
0.0
 10
511.334500608154
 20
-310.5514471959405
 30
0.0
 10
512.2181681830713
 20
-310.5514471959405
 30
0.0
 10
512.9347485167273
 20
-311.2676830198207
 30
0.0
 10
512.9347485167273
 20
-312.1513505947379
 30
0.0
 10
512.9347485167273
 20
-313.0350181696551
 30
0.0
 10
512.2181681830713
 20
-313.7512539935353
 30
0.0
 10
511.334500608154
 20
-313.7512539935353
 30
0.0
  0
SPLINE
  5
90
330
1F
100
AcDbEntity
  8
\U+30EC\U+30A4\U+30E4\U+30FC 1
 62
   250
420
  3288107
370
    35
100
AcDbSpline
210
0.0
220
0.0
230
1.0
 70
    11
 71
     3
 72
    17
 73
    13
 74
     0
 42
0.0000000001
 43
0.0000000001
 40
0.0
 40
0.0
 40
0.0
 40
0.0
 40
1.0
 40
1.0
 40
1.0
 40
2.0
 40
2.0
 40
2.0
 40
3.0
 40
3.0
 40
3.0
 40
4.0
 40
4.0
 40
4.0
 40
4.0
 10
161.3341002602338
 20
-566.351333763699
 30
0.0
 10
162.2177678351509
 20
-566.351333763699
 30
0.0
 10
162.9340036590312
 20
-567.067914097355
 30
0.0
 10
162.9340036590312
 20
-567.9515816722723
 30
0.0
 10
162.9340036590312
 20
-568.8352492471894
 30
0.0
 10
162.2177678351509
 20
-569.5514850710697
 30
0.0
 10
161.3341002602338
 20
-569.5514850710697
 30
0.0
 10
160.4504326853166
 20
-569.5514850710697
 30
0.0
 10
159.7338523516606
 20
-568.8352492471894
 30
0.0
 10
159.7338523516606
 20
-567.9515816722723
 30
0.0
 10
159.7338523516606
 20
-567.067914097355
 30
0.0
 10
160.4504326853166
 20
-566.351333763699
 30
0.0
 10
161.3341002602338
 20
-566.351333763699
 30
0.0
  0
SPLINE
  5
91
330
1F
100
AcDbEntity
  8
\U+30EC\U+30A4\U+30E4\U+30FC 1
 62
   250
420
  3288107
370
    35
100
AcDbSpline
210
0.0
220
0.0
230
1.0
 70
    11
 71
     3
 72
    17
 73
    13
 74
     0
 42
0.0000000001
 43
0.0000000001
 40
0.0
 40
0.0
 40
0.0
 40
0.0
 40
1.0
 40
1.0
 40
1.0
 40
2.0
 40
2.0
 40
2.0
 40
3.0
 40
3.0
 40
3.0
 40
4.0
 40
4.0
 40
4.0
 40
4.0
 10
581.334752932626
 20
-566.351333763699
 30
0.0
 10
582.2184205075432
 20
-566.351333763699
 30
0.0
 10
582.9346563314234
 20
-567.067914097355
 30
0.0
 10
582.9346563314234
 20
-567.9515816722723
 30
0.0
 10
582.9346563314234
 20
-568.8352492471894
 30
0.0
 10
582.2184205075432
 20
-569.5514850710697
 30
0.0
 10
581.334752932626
 20
-569.5514850710697
 30
0.0
 10
580.4510853577088
 20
-569.5514850710697
 30
0.0
 10
579.7345050240529
 20
-568.8352492471894
 30
0.0
 10
579.7345050240529
 20
-567.9515816722723
 30
0.0
 10
579.7345050240529
 20
-567.067914097355
 30
0.0
 10
580.4510853577088
 20
-566.351333763699
 30
0.0
 10
581.334752932626
 20
-566.351333763699
 30
0.0
  0
SPLINE
  5
92
330
1F
100
AcDbEntity
  8
\U+30EC\U+30A4\U+30E4\U+30FC 1
 62
   250
420
  3288107
370
    35
100
AcDbSpline
210
0.0
220
0.0
230
1.0
 70
    11
 71
     3
 72
    17
 73
    13
 74
     0
 42
0.0000000001
 43
0.0000000001
 40
0.0
 40
0.0
 40
0.0
 40
0.0
 40
1.0
 40
1.0
 40
1.0
 40
2.0
 40
2.0
 40
2.0
 40
3.0
 40
3.0
 40
3.0
 40
4.0
 40
4.0
 40
4.0
 40
4.0
 10
581.3344084228502
 20
-204.8155403379077
 30
0.0
 10
580.4503963381572
 20
-204.8155403379077
 30
0.0
 10
579.7345050240529
 20
-204.0989600042517
 30
0.0
 10
579.7345050240529
 20
-203.2152924293345
 30
0.0
 10
579.7345050240529
 20
-202.3316248544174
 30
0.0
 10
580.4503963381572
 20
-201.6153890305371
 30
0.0
 10
581.3344084228502
 20
-201.6153890305371
 30
0.0
 10
582.2177314879916
 20
-201.6153890305371
 30
0.0
 10
582.9343118216476
 20
-202.3316248544174
 30
0.0
 10
582.9343118216476
 20
-203.2152924293345
 30
0.0
 10
582.9343118216476
 20
-204.0989600042517
 30
0.0
 10
582.2177314879916
 20
-204.8155403379077
 30
0.0
 10
581.3344084228502
 20
-204.8155403379077
 30
0.0
  0
SPLINE
  5
93
330
1F
100
AcDbEntity
  8
\U+30EC\U+30A4\U+30E4\U+30FC 1
 62
   250
420
  3288107
370
    35
100
AcDbSpline
210
0.0
220
0.0
230
1.0
 70
    11
 71
     3
 72
    17
 73
    13
 74
     0
 42
0.0000000001
 43
0.0000000001
 40
0.0
 40
0.0
 40
0.0
 40
0.0
 40
1.0
 40
1.0
 40
1.0
 40
2.0
 40
2.0
 40
2.0
 40
3.0
 40
3.0
 40
3.0
 40
4.0
 40
4.0
 40
4.0
 40
4.0
 10
161.3335834955701
 20
-204.8155403379077
 30
0.0
 10
160.4499159206529
 20
-204.8155403379077
 30
0.0
 10
159.7336800967727
 20
-204.0989600042517
 30
0.0
 10
159.7336800967727
 20
-203.2152924293345
 30
0.0
 10
159.7336800967727
 20
-202.3316248544174
 30
0.0
 10
160.4499159206529
 20
-201.6153890305371
 30
0.0
 10
161.3335834955701
 20
-201.6153890305371
 30
0.0
 10
162.2172510704872
 20
-201.6153890305371
 30
0.0
 10
162.9338314041433
 20
-202.3316248544174
 30
0.0
 10
162.9338314041433
 20
-203.2152924293345
 30
0.0
 10
162.9338314041433
 20
-204.0989600042517
 30
0.0
 10
162.2172510704872
 20
-204.8155403379077
 30
0.0
 10
161.3335834955701
 20
-204.8155403379077
 30
0.0
  0
SPLINE
  5
94
330
1F
100
AcDbEntity
  8
\U+30EC\U+30A4\U+30E4\U+30FC 1
 62
   250
420
  3288107
370
    35
100
AcDbSpline
210
0.0
220
0.0
230
1.0
 70
    11
 71
     3
 72
    17
 73
    13
 74
     0
 42
0.0000000001
 43
0.0000000001
 40
0.0
 40
0.0
 40
0.0
 40
0.0
 40
1.0
 40
1.0
 40
1.0
 40
2.0
 40
2.0
 40
2.0
 40
3.0
 40
3.0
 40
3.0
 40
4.0
 40
4.0
 40
4.0
 40
4.0
 10
231.3334913102662
 20
-253.4179459779039
 30
0.0
 10
230.4498237353491
 20
-253.4179459779039
 30
0.0
 10
229.7335879114688
 20
-252.7017101540236
 30
0.0
 10
229.7335879114688
 20
-251.8180425791064
 30
0.0
 10
229.7335879114688
 20
-250.9343750041893
 30
0.0
 10
230.4498237353491
 20
-250.218139180309
 30
0.0
 10
231.3334913102662
 20
-250.218139180309
 30
0.0
 10
232.2171588851834
 20
-250.218139180309
 30
0.0
 10
232.9337392188394
 20
-250.9343750041893
 30
0.0
 10
232.9337392188394
 20
-251.8180425791064
 30
0.0
 10
232.9337392188394
 20
-252.7017101540236
 30
0.0
 10
232.2171588851834
 20
-253.4179459779039
 30
0.0
 10
231.3334913102662
 20
-253.4179459779039
 30
0.0
  0
SPLINE
  5
95
330
1F
100
AcDbEntity
  8
\U+30EC\U+30A4\U+30E4\U+30FC 1
 62
   250
420
  3288107
370
    35
100
AcDbSpline
210
0.0
220
0.0
230
1.0
 70
    11
 71
     3
 72
    17
 73
    13
 74
     0
 42
0.0000000001
 43
0.0000000001
 40
0.0
 40
0.0
 40
0.0
 40
0.0
 40
1.0
 40
1.0
 40
1.0
 40
2.0
 40
2.0
 40
2.0
 40
3.0
 40
3.0
 40
3.0
 40
4.0
 40
4.0
 40
4.0
 40
4.0
 10
511.3341560983783
 20
-253.4179459779039
 30
0.0
 10
510.4501440136853
 20
-253.4179459779039
 30
0.0
 10
509.7342526995808
 20
-252.7017101540236
 30
0.0
 10
509.7342526995808
 20
-251.8180425791064
 30
0.0
 10
509.7342526995808
 20
-250.9343750041893
 30
0.0
 10
510.4501440136853
 20
-250.218139180309
 30
0.0
 10
511.3341560983783
 20
-250.218139180309
 30
0.0
 10
512.2174791635197
 20
-250.218139180309
 30
0.0
 10
512.9340594971757
 20
-250.9343750041893
 30
0.0
 10
512.9340594971757
 20
-251.8180425791064
 30
0.0
 10
512.9340594971757
 20
-252.7017101540236
 30
0.0
 10
512.2174791635197
 20
-253.4179459779039
 30
0.0
 10
511.3341560983783
 20
-253.4179459779039
 30
0.0
  0
SPLINE
  5
96
330
1F
100
AcDbEntity
  8
\U+30EC\U+30A4\U+30E4\U+30FC 1
 62
   250
420
  3288107
370
    35
100
AcDbSpline
210
0.0
220
0.0
230
1.0
 70
    11
 71
     3
 72
    17
 73
    13
 74
     0
 42
0.0000000001
 43
0.0000000001
 40
0.0
 40
0.0
 40
0.0
 40
0.0
 40
1.0
 40
1.0
 40
1.0
 40
2.0
 40
2.0
 40
2.0
 40
3.0
 40
3.0
 40
3.0
 40
4.0
 40
4.0
 40
4.0
 40
4.0
 10
585.037888512659
 20
-33.46395707196086
 30
0.0
 10
584.1542209377419
 20
-33.46395707196086
 30
0.0
 10
583.4379851138616
 20
-32.74754899319273
 30
0.0
 10
583.4379851138616
 20
-31.86388141827555
 30
0.0
 10
583.4379851138616
 20
-30.98021384335838
 30
0.0
 10
584.1542209377419
 20
-30.26397801947815
 30
0.0
 10
585.037888512659
 20
-30.26397801947815
 30
0.0
 10
585.9215560875762
 20
-30.26397801947815
 30
0.0
 10
586.6381364212323
 20
-30.98021384335838
 30
0.0
 10
586.6381364212323
 20
-31.86388141827555
 30
0.0
 10
586.6381364212323
 20
-32.74754899319273
 30
0.0
 10
585.9215560875762
 20
-33.46395707196086
 30
0.0
 10
585.037888512659
 20
-33.46395707196086
 30
0.0
  0
SPLINE
  5
97
330
1F
100
AcDbEntity
  8
\U+30EC\U+30A4\U+30E4\U+30FC 1
 62
   250
420
  3288107
370
    35
100
AcDbSpline
210
0.0
220
0.0
230
1.0
 70
    11
 71
     3
 72
    17
 73
    13
 74
     0
 42
0.0000000001
 43
0.0000000001
 40
0.0
 40
0.0
 40
0.0
 40
0.0
 40
1.0
 40
1.0
 40
1.0
 40
2.0
 40
2.0
 40
2.0
 40
3.0
 40
3.0
 40
3.0
 40
4.0
 40
4.0
 40
4.0
 40
4.0
 10
324.2381315687707
 20
-33.46395707196086
 30
0.0
 10
325.1217991436878
 20
-33.46395707196086
 30
0.0
 10
325.8380349675681
 20
-32.74754899319273
 30
0.0
 10
325.8380349675681
 20
-31.86388141827555
 30
0.0
 10
325.8380349675681
 20
-30.98021384335838
 30
0.0
 10
325.1217991436878
 20
-30.26397801947815
 30
0.0
 10
324.2381315687707
 20
-30.26397801947815
 30
0.0
 10
323.3544639938535
 20
-30.26397801947815
 30
0.0
 10
322.6378836601975
 20
-30.98021384335838
 30
0.0
 10
322.6378836601975
 20
-31.86388141827555
 30
0.0
 10
322.6378836601975
 20
-32.74754899319273
 30
0.0
 10
323.3544639938535
 20
-33.46395707196086
 30
0.0
 10
324.2381315687707
 20
-33.46395707196086
 30
0.0
  0
SPLINE
  5
98
330
1F
100
AcDbEntity
  8
\U+30EC\U+30A4\U+30E4\U+30FC 1
 62
   250
420
  3288107
370
    35
100
AcDbSpline
210
0.0
220
0.0
230
1.0
 70
    11
 71
     3
 72
    17
 73
    13
 74
     0
 42
0.0000000001
 43
0.0000000001
 40
0.0
 40
0.0
 40
0.0
 40
0.0
 40
1.0
 40
1.0
 40
1.0
 40
2.0
 40
2.0
 40
2.0
 40
3.0
 40
3.0
 40
3.0
 40
4.0
 40
4.0
 40
4.0
 40
4.0
 10
324.2388205883223
 20
-87.26312042495428
 30
0.0
 10
325.1221436534636
 20
-87.26312042495428
 30
0.0
 10
325.8387239871197
 20
-87.97952850372242
 30
0.0
 10
325.8387239871197
 20
-88.86319607863959
 30
0.0
 10
325.8387239871197
 20
-89.74686365355676
 30
0.0
 10
325.1221436534636
 20
-90.463099477437
 30
0.0
 10
324.2388205883223
 20
-90.463099477437
 30
0.0
 10
323.3548085036293
 20
-90.463099477437
 30
0.0
 10
322.6382281699733
 20
-89.74686365355676
 30
0.0
 10
322.6382281699733
 20
-88.86319607863959
 30
0.0
 10
322.6382281699733
 20
-87.97952850372242
 30
0.0
 10
323.3548085036293
 20
-87.26312042495428
 30
0.0
 10
324.2388205883223
 20
-87.26312042495428
 30
0.0
  0
SPLINE
  5
99
330
1F
100
AcDbEntity
  8
\U+30EC\U+30A4\U+30E4\U+30FC 1
 62
   250
420
  3288107
370
    35
100
AcDbSpline
210
0.0
220
0.0
230
1.0
 70
    11
 71
     3
 72
    17
 73
    13
 74
     0
 42
0.0000000001
 43
0.0000000001
 40
0.0
 40
0.0
 40
0.0
 40
0.0
 40
1.0
 40
1.0
 40
1.0
 40
2.0
 40
2.0
 40
2.0
 40
3.0
 40
3.0
 40
3.0
 40
4.0
 40
4.0
 40
4.0
 40
4.0
 10
585.0385775322106
 20
-87.26312042495428
 30
0.0
 10
584.1545654475176
 20
-87.26312042495428
 30
0.0
 10
583.4386741334132
 20
-87.97952850372242
 30
0.0
 10
583.4386741334132
 20
-88.86319607863959
 30
0.0
 10
583.4386741334132
 20
-89.74686365355676
 30
0.0
 10
584.1545654475176
 20
-90.463099477437
 30
0.0
 10
585.0385775322106
 20
-90.463099477437
 30
0.0
 10
585.921900597352
 20
-90.463099477437
 30
0.0
 10
586.6384809310081
 20
-89.74686365355676
 30
0.0
 10
586.6384809310081
 20
-88.86319607863959
 30
0.0
 10
586.6384809310081
 20
-87.97952850372242
 30
0.0
 10
585.921900597352
 20
-87.26312042495428
 30
0.0
 10
585.0385775322106
 20
-87.26312042495428
 30
0.0
  0
SPLINE
  5
9A
330
1F
100
AcDbEntity
  8
\U+30EC\U+30A4\U+30E4\U+30FC 1
 62
   250
420
  3288107
370
    35
100
AcDbSpline
210
0.0
220
0.0
230
1.0
 70
    11
 71
     3
 72
    17
 73
    13
 74
     0
 42
0.0000000001
 43
0.0000000001
 40
0.0
 40
0.0
 40
0.0
 40
0.0
 40
1.0
 40
1.0
 40
1.0
 40
2.0
 40
2.0
 40
2.0
 40
3.0
 40
3.0
 40
3.0
 40
4.0
 40
4.0
 40
4.0
 40
4.0
 10
328.3381424105209
 20
-60.36379713078942
 30
0.0
 10
328.3381424105209
 20
-61.24746470570659
 30
0.0
 10
327.6219065866406
 20
-61.96370052958682
 30
0.0
 10
326.7378945019477
 20
-61.96370052958682
 30
0.0
 10
325.8545714368063
 20
-61.96370052958682
 30
0.0
 10
325.1379911031503
 20
-61.24746470570659
 30
0.0
 10
325.1379911031503
 20
-60.36379713078942
 30
0.0
 10
325.1379911031503
 20
-59.48012955587225
 30
0.0
 10
325.8545714368063
 20
-58.76354922221621
 30
0.0
 10
326.7378945019477
 20
-58.76354922221621
 30
0.0
 10
327.6219065866406
 20
-58.76354922221621
 30
0.0
 10
328.3381424105209
 20
-59.48012955587225
 30
0.0
 10
328.3381424105209
 20
-60.36379713078942
 30
0.0
  0
SPLINE
  5
9B
330
1F
100
AcDbEntity
  8
\U+30EC\U+30A4\U+30E4\U+30FC 1
 62
   250
420
  3288107
370
    35
100
AcDbSpline
210
0.0
220
0.0
230
1.0
 70
    11
 71
     3
 72
    17
 73
    13
 74
     0
 42
0.0000000001
 43
0.0000000001
 40
0.0
 40
0.0
 40
0.0
 40
0.0
 40
1.0
 40
1.0
 40
1.0
 40
2.0
 40
2.0
 40
2.0
 40
3.0
 40
3.0
 40
3.0
 40
4.0
 40
4.0
 40
4.0
 40
4.0
 10
580.937533161133
 20
-60.36345262101362
 30
0.0
 10
580.937533161133
 20
-59.47978504609645
 30
0.0
 10
581.6537689850132
 20
-58.76354922221621
 30
0.0
 10
582.5374365599305
 20
-58.76354922221621
 30
0.0
 10
583.4211041348476
 20
-58.76354922221621
 30
0.0
 10
584.1373399587278
 20
-59.47978504609645
 30
0.0
 10
584.1373399587278
 20
-60.36345262101362
 30
0.0
 10
584.1373399587278
 20
-61.2471201959308
 30
0.0
 10
583.4211041348476
 20
-61.96370052958682
 30
0.0
 10
582.5374365599305
 20
-61.96370052958682
 30
0.0
 10
581.6537689850132
 20
-61.96370052958682
 30
0.0
 10
580.937533161133
 20
-61.2471201959308
 30
0.0
 10
580.937533161133
 20
-60.36345262101362
 30
0.0
  0
SPLINE
  5
9C
330
1F
100
AcDbEntity
  8
\U+30EC\U+30A4\U+30E4\U+30FC 1
 62
   250
420
  3288107
370
    35
100
AcDbSpline
210
0.0
220
0.0
230
1.0
 70
    11
 71
     3
 72
    17
 73
    13
 74
     0
 42
0.0000000001
 43
0.0000000001
 40
0.0
 40
0.0
 40
0.0
 40
0.0
 40
1.0
 40
1.0
 40
1.0
 40
2.0
 40
2.0
 40
2.0
 40
3.0
 40
3.0
 40
3.0
 40
4.0
 40
4.0
 40
4.0
 40
4.0
 10
32.89551594189718
 20
-143.5503333787476
 30
0.0
 10
32.89551594189718
 20
-144.4340009536648
 30
0.0
 10
32.17910786312905
 20
-145.150236777545
 30
0.0
 10
31.29544028821187
 20
-145.150236777545
 30
0.0
 10
30.4117727132947
 20
-145.150236777545
 30
0.0
 10
29.69553688941447
 20
-144.4340009536648
 30
0.0
 10
29.69553688941447
 20
-143.5503333787476
 30
0.0
 10
29.69553688941447
 20
-142.6666658038305
 30
0.0
 10
30.4117727132947
 20
-141.9500854701744
 30
0.0
 10
31.29544028821187
 20
-141.9500854701744
 30
0.0
 10
32.17910786312905
 20
-141.9500854701744
 30
0.0
 10
32.89551594189718
 20
-142.6666658038305
 30
0.0
 10
32.89551594189718
 20
-143.5503333787476
 30
0.0
  0
SPLINE
  5
9D
330
1F
100
AcDbEntity
  8
\U+30EC\U+30A4\U+30E4\U+30FC 1
 62
   250
420
  3288107
370
    35
100
AcDbSpline
210
0.0
220
0.0
230
1.0
 70
    11
 71
     3
 72
    17
 73
    13
 74
     0
 42
0.0000000001
 43
0.0000000001
 40
0.0
 40
0.0
 40
0.0
 40
0.0
 40
1.0
 40
1.0
 40
1.0
 40
2.0
 40
2.0
 40
2.0
 40
3.0
 40
3.0
 40
3.0
 40
4.0
 40
4.0
 40
4.0
 40
4.0
 10
285.4959402218367
 20
-143.5503333787476
 30
0.0
 10
285.4959402218367
 20
-144.4340009536648
 30
0.0
 10
286.2125205554927
 20
-145.150236777545
 30
0.0
 10
287.0958436206341
 20
-145.150236777545
 30
0.0
 10
287.9798557053271
 20
-145.150236777545
 30
0.0
 10
288.6957470194315
 20
-144.4340009536648
 30
0.0
 10
288.6957470194315
 20
-143.5503333787476
 30
0.0
 10
288.6957470194315
 20
-142.6666658038305
 30
0.0
 10
287.9798557053271
 20
-141.9500854701744
 30
0.0
 10
287.0958436206341
 20
-141.9500854701744
 30
0.0
 10
286.2125205554927
 20
-141.9500854701744
 30
0.0
 10
285.4959402218367
 20
-142.6666658038305
 30
0.0
 10
285.4959402218367
 20
-143.5503333787476
 30
0.0
  0
SPLINE
  5
9E
330
1F
100
AcDbEntity
  8
\U+30EC\U+30A4\U+30E4\U+30FC 1
 62
   250
420
  3288107
370
    35
100
AcDbSpline
210
0.0
220
0.0
230
1.0
 70
    11
 71
     3
 72
    17
 73
    13
 74
     0
 42
0.0000000001
 43
0.0000000001
 40
0.0
 40
0.0
 40
0.0
 40
0.0
 40
1.0
 40
1.0
 40
1.0
 40
2.0
 40
2.0
 40
2.0
 40
3.0
 40
3.0
 40
3.0
 40
4.0
 40
4.0
 40
4.0
 40
4.0
 10
333.8151588261284
 20
-143.5503333787476
 30
0.0
 10
333.8151588261284
 20
-144.4340009536648
 30
0.0
 10
333.0989230022482
 20
-145.150236777545
 30
0.0
 10
332.2149109175552
 20
-145.150236777545
 30
0.0
 10
331.3315878524138
 20
-145.150236777545
 30
0.0
 10
330.6150075187577
 20
-144.4340009536648
 30
0.0
 10
330.6150075187577
 20
-143.5503333787476
 30
0.0
 10
330.6150075187577
 20
-142.6666658038305
 30
0.0
 10
331.3315878524138
 20
-141.9500854701744
 30
0.0
 10
332.2149109175552
 20
-141.9500854701744
 30
0.0
 10
333.0989230022482
 20
-141.9500854701744
 30
0.0
 10
333.8151588261284
 20
-142.6666658038305
 30
0.0
 10
333.8151588261284
 20
-143.5503333787476
 30
0.0
  0
SPLINE
  5
9F
330
1F
100
AcDbEntity
  8
\U+30EC\U+30A4\U+30E4\U+30FC 1
 62
   250
420
  3288107
370
    35
100
AcDbSpline
210
0.0
220
0.0
230
1.0
 70
    11
 71
     3
 72
    17
 73
    13
 74
     0
 42
0.0000000001
 43
0.0000000001
 40
0.0
 40
0.0
 40
0.0
 40
0.0
 40
1.0
 40
1.0
 40
1.0
 40
2.0
 40
2.0
 40
2.0
 40
3.0
 40
3.0
 40
3.0
 40
4.0
 40
4.0
 40
4.0
 40
4.0
 10
586.4155831060679
 20
-143.5503333787476
 30
0.0
 10
586.4155831060679
 20
-144.4340009536648
 30
0.0
 10
587.1318189299482
 20
-145.150236777545
 30
0.0
 10
588.0158310146411
 20
-145.150236777545
 30
0.0
 10
588.8991540797825
 20
-145.150236777545
 30
0.0
 10
589.6157344134385
 20
-144.4340009536648
 30
0.0
 10
589.6157344134385
 20
-143.5503333787476
 30
0.0
 10
589.6157344134385
 20
-142.6666658038305
 30
0.0
 10
588.8991540797825
 20
-141.9500854701744
 30
0.0
 10
588.0158310146411
 20
-141.9500854701744
 30
0.0
 10
587.1318189299482
 20
-141.9500854701744
 30
0.0
 10
586.4155831060679
 20
-142.6666658038305
 30
0.0
 10
586.4155831060679
 20
-143.5503333787476
 30
0.0
  0
SPLINE
  5
A0
330
1F
100
AcDbEntity
  8
\U+30EC\U+30A4\U+30E4\U+30FC 1
 62
   250
420
  3288107
370
    35
100
AcDbSpline
210
0.0
220
0.0
230
1.0
 70
    11
 71
     3
 72
    17
 73
    13
 74
     0
 42
0.0000000001
 43
0.0000000001
 40
0.0
 40
0.0
 40
0.0
 40
0.0
 40
1.0
 40
1.0
 40
1.0
 40
2.0
 40
2.0
 40
2.0
 40
3.0
 40
3.0
 40
3.0
 40
4.0
 40
4.0
 40
4.0
 40
4.0
 10
25.03345834845281
 20
-209.2156191943764
 30
0.0
 10
25.03345834845281
 20
-210.0992867692936
 30
0.0
 10
24.31705026968468
 20
-210.8155225931738
 30
0.0
 10
23.43338269476751
 20
-210.8155225931738
 30
0.0
 10
22.54971511985033
 20
-210.8155225931738
 30
0.0
 10
21.8334792959701
 20
-210.0992867692936
 30
0.0
 10
21.8334792959701
 20
-209.2156191943764
 30
0.0
 10
21.8334792959701
 20
-208.3319516194592
 30
0.0
 10
22.54971511985033
 20
-207.6153712858032
 30
0.0
 10
23.43338269476751
 20
-207.6153712858032
 30
0.0
 10
24.31705026968468
 20
-207.6153712858032
 30
0.0
 10
25.03345834845281
 20
-208.3319516194592
 30
0.0
 10
25.03345834845281
 20
-209.2156191943764
 30
0.0
  0
SPLINE
  5
A1
330
1F
100
AcDbEntity
  8
\U+30EC\U+30A4\U+30E4\U+30FC 1
 62
   250
420
  3288107
370
    35
100
AcDbSpline
210
0.0
220
0.0
230
1.0
 70
    11
 71
     3
 72
    17
 73
    13
 74
     0
 42
0.0000000001
 43
0.0000000001
 40
0.0
 40
0.0
 40
0.0
 40
0.0
 40
1.0
 40
1.0
 40
1.0
 40
2.0
 40
2.0
 40
2.0
 40
3.0
 40
3.0
 40
3.0
 40
4.0
 40
4.0
 40
4.0
 40
4.0
 10
719.506255181868
 20
-209.2156191943764
 30
0.0
 10
719.506255181868
 20
-210.0992867692936
 30
0.0
 10
718.789674848212
 20
-210.8155225931738
 30
0.0
 10
717.9063517830707
 20
-210.8155225931738
 30
0.0
 10
717.0223396983777
 20
-210.8155225931738
 30
0.0
 10
716.3064483842733
 20
-210.0992867692936
 30
0.0
 10
716.3064483842733
 20
-209.2156191943764
 30
0.0
 10
716.3064483842733
 20
-208.3319516194592
 30
0.0
 10
717.0223396983777
 20
-207.6153712858032
 30
0.0
 10
717.9063517830707
 20
-207.6153712858032
 30
0.0
 10
718.789674848212
 20
-207.6153712858032
 30
0.0
 10
719.506255181868
 20
-208.3319516194592
 30
0.0
 10
719.506255181868
 20
-209.2156191943764
 30
0.0
  0
SPLINE
  5
A2
330
1F
100
AcDbEntity
  8
\U+30EC\U+30A4\U+30E4\U+30FC 1
 62
   250
420
  3288107
370
    35
100
AcDbSpline
210
0.0
220
0.0
230
1.0
 70
    11
 71
     3
 72
    17
 73
    13
 74
     0
 42
0.0000000001
 43
0.0000000001
 40
0.0
 40
0.0
 40
0.0
 40
0.0
 40
1.0
 40
1.0
 40
1.0
 40
2.0
 40
2.0
 40
2.0
 40
3.0
 40
3.0
 40
3.0
 40
4.0
 40
4.0
 40
4.0
 40
4.0
 10
25.03345834845281
 20
-257.8183693441483
 30
0.0
 10
25.03345834845281
 20
-258.7020369190655
 30
0.0
 10
24.31705026968468
 20
-259.4182727429457
 30
0.0
 10
23.43338269476751
 20
-259.4182727429457
 30
0.0
 10
22.54971511985033
 20
-259.4182727429457
 30
0.0
 10
21.8334792959701
 20
-258.7020369190655
 30
0.0
 10
21.8334792959701
 20
-257.8183693441483
 30
0.0
 10
21.8334792959701
 20
-256.9347017692311
 30
0.0
 10
22.54971511985033
 20
-256.2181214355751
 30
0.0
 10
23.43338269476751
 20
-256.2181214355751
 30
0.0
 10
24.31705026968468
 20
-256.2181214355751
 30
0.0
 10
25.03345834845281
 20
-256.9347017692311
 30
0.0
 10
25.03345834845281
 20
-257.8183693441483
 30
0.0
  0
SPLINE
  5
A3
330
1F
100
AcDbEntity
  8
\U+30EC\U+30A4\U+30E4\U+30FC 1
 62
   250
420
  3288107
370
    35
100
AcDbSpline
210
0.0
220
0.0
230
1.0
 70
    11
 71
     3
 72
    17
 73
    13
 74
     0
 42
0.0000000001
 43
0.0000000001
 40
0.0
 40
0.0
 40
0.0
 40
0.0
 40
1.0
 40
1.0
 40
1.0
 40
2.0
 40
2.0
 40
2.0
 40
3.0
 40
3.0
 40
3.0
 40
4.0
 40
4.0
 40
4.0
 40
4.0
 10
719.506255181868
 20
-257.8183693441483
 30
0.0
 10
719.506255181868
 20
-258.7020369190655
 30
0.0
 10
718.789674848212
 20
-259.4182727429457
 30
0.0
 10
717.9063517830707
 20
-259.4182727429457
 30
0.0
 10
717.0223396983777
 20
-259.4182727429457
 30
0.0
 10
716.3064483842733
 20
-258.7020369190655
 30
0.0
 10
716.3064483842733
 20
-257.8183693441483
 30
0.0
 10
716.3064483842733
 20
-256.9347017692311
 30
0.0
 10
717.0223396983777
 20
-256.2181214355751
 30
0.0
 10
717.9063517830707
 20
-256.2181214355751
 30
0.0
 10
718.789674848212
 20
-256.2181214355751
 30
0.0
 10
719.506255181868
 20
-256.9347017692311
 30
0.0
 10
719.506255181868
 20
-257.8183693441483
 30
0.0
  0
SPLINE
  5
A4
330
1F
100
AcDbEntity
  8
\U+30EC\U+30A4\U+30E4\U+30FC 1
 62
   250
420
  3288107
370
    35
100
AcDbSpline
210
0.0
220
0.0
230
1.0
 70
    11
 71
     3
 72
    17
 73
    13
 74
     0
 42
0.0000000001
 43
0.0000000001
 40
0.0
 40
0.0
 40
0.0
 40
0.0
 40
1.0
 40
1.0
 40
1.0
 40
2.0
 40
2.0
 40
2.0
 40
3.0
 40
3.0
 40
3.0
 40
4.0
 40
4.0
 40
4.0
 40
4.0
 10
48.79533111444196
 20
-139.1505990320548
 30
0.0
 10
47.9116635395248
 20
-139.1505990320548
 30
0.0
 10
47.19542771564456
 20
-138.4343632081745
 30
0.0
 10
47.19542771564456
 20
-137.5503511234816
 30
0.0
 10
47.19542771564456
 20
-136.6670280583402
 30
0.0
 10
47.9116635395248
 20
-135.9504477246842
 30
0.0
 10
48.79533111444196
 20
-135.9504477246842
 30
0.0
 10
49.67899868935914
 20
-135.9504477246842
 30
0.0
 10
50.39557902301517
 20
-136.6670280583402
 30
0.0
 10
50.39557902301517
 20
-137.5503511234816
 30
0.0
 10
50.39557902301517
 20
-138.4343632081745
 30
0.0
 10
49.67899868935914
 20
-139.1505990320548
 30
0.0
 10
48.79533111444196
 20
-139.1505990320548
 30
0.0
  0
SPLINE
  5
A5
330
1F
100
AcDbEntity
  8
\U+30EC\U+30A4\U+30E4\U+30FC 1
 62
   250
420
  3288107
370
    35
100
AcDbSpline
210
0.0
220
0.0
230
1.0
 70
    11
 71
     3
 72
    17
 73
    13
 74
     0
 42
0.0000000001
 43
0.0000000001
 40
0.0
 40
0.0
 40
0.0
 40
0.0
 40
1.0
 40
1.0
 40
1.0
 40
2.0
 40
2.0
 40
2.0
 40
3.0
 40
3.0
 40
3.0
 40
4.0
 40
4.0
 40
4.0
 40
4.0
 10
269.5961250492919
 20
-139.1505990320548
 30
0.0
 10
270.4797926242091
 20
-139.1505990320548
 30
0.0
 10
271.1960284480894
 20
-138.4343632081745
 30
0.0
 10
271.1960284480894
 20
-137.5503511234816
 30
0.0
 10
271.1960284480894
 20
-136.6670280583402
 30
0.0
 10
270.4797926242091
 20
-135.9504477246842
 30
0.0
 10
269.5961250492919
 20
-135.9504477246842
 30
0.0
 10
268.7124574743747
 20
-135.9504477246842
 30
0.0
 10
267.9958771407187
 20
-136.6670280583402
 30
0.0
 10
267.9958771407187
 20
-137.5503511234816
 30
0.0
 10
267.9958771407187
 20
-138.4343632081745
 30
0.0
 10
268.7124574743747
 20
-139.1505990320548
 30
0.0
 10
269.5961250492919
 20
-139.1505990320548
 30
0.0
  0
SPLINE
  5
A6
330
1F
100
AcDbEntity
  8
\U+30EC\U+30A4\U+30E4\U+30FC 1
 62
   250
420
  3288107
370
    35
100
AcDbSpline
210
0.0
220
0.0
230
1.0
 70
    11
 71
     3
 72
    17
 73
    13
 74
     0
 42
0.0000000001
 43
0.0000000001
 40
0.0
 40
0.0
 40
0.0
 40
0.0
 40
1.0
 40
1.0
 40
1.0
 40
2.0
 40
2.0
 40
2.0
 40
3.0
 40
3.0
 40
3.0
 40
4.0
 40
4.0
 40
4.0
 40
4.0
 10
349.7149739986731
 20
-139.1505990320548
 30
0.0
 10
348.831306423756
 20
-139.1505990320548
 30
0.0
 10
348.1150705998758
 20
-138.4343632081745
 30
0.0
 10
348.1150705998758
 20
-137.5503511234816
 30
0.0
 10
348.1150705998758
 20
-136.6670280583402
 30
0.0
 10
348.831306423756
 20
-135.9504477246842
 30
0.0
 10
349.7149739986731
 20
-135.9504477246842
 30
0.0
 10
350.5986415735903
 20
-135.9504477246842
 30
0.0
 10
351.3152219072464
 20
-136.6670280583402
 30
0.0
 10
351.3152219072464
 20
-137.5503511234816
 30
0.0
 10
351.3152219072464
 20
-138.4343632081745
 30
0.0
 10
350.5986415735903
 20
-139.1505990320548
 30
0.0
 10
349.7149739986731
 20
-139.1505990320548
 30
0.0
  0
SPLINE
  5
A7
330
1F
100
AcDbEntity
  8
\U+30EC\U+30A4\U+30E4\U+30FC 1
 62
   250
420
  3288107
370
    35
100
AcDbSpline
210
0.0
220
0.0
230
1.0
 70
    11
 71
     3
 72
    17
 73
    13
 74
     0
 42
0.0000000001
 43
0.0000000001
 40
0.0
 40
0.0
 40
0.0
 40
0.0
 40
1.0
 40
1.0
 40
1.0
 40
2.0
 40
2.0
 40
2.0
 40
3.0
 40
3.0
 40
3.0
 40
4.0
 40
4.0
 40
4.0
 40
4.0
 10
570.5157679335231
 20
-139.1505990320548
 30
0.0
 10
571.3994355084403
 20
-139.1505990320548
 30
0.0
 10
572.1156713323205
 20
-138.4343632081745
 30
0.0
 10
572.1156713323205
 20
-137.5503511234816
 30
0.0
 10
572.1156713323205
 20
-136.6670280583402
 30
0.0
 10
571.3994355084403
 20
-135.9504477246842
 30
0.0
 10
570.5157679335231
 20
-135.9504477246842
 30
0.0
 10
569.632100358606
 20
-135.9504477246842
 30
0.0
 10
568.91552002495
 20
-136.6670280583402
 30
0.0
 10
568.91552002495
 20
-137.5503511234816
 30
0.0
 10
568.91552002495
 20
-138.4343632081745
 30
0.0
 10
569.632100358606
 20
-139.1505990320548
 30
0.0
 10
570.5157679335231
 20
-139.1505990320548
 30
0.0
  0
SPLINE
  5
A8
330
1F
100
AcDbEntity
  8
\U+30EC\U+30A4\U+30E4\U+30FC 1
 62
   250
420
  3288107
370
    35
100
AcDbSpline
210
0.0
220
0.0
230
1.0
 70
    11
 71
     3
 72
    17
 73
    13
 74
     0
 42
0.0000000001
 43
0.0000000001
 40
0.0
 40
0.0
 40
0.0
 40
0.0
 40
1.0
 40
1.0
 40
1.0
 40
2.0
 40
2.0
 40
2.0
 40
3.0
 40
3.0
 40
3.0
 40
4.0
 40
4.0
 40
4.0
 40
4.0
 10
25.0341473680044
 20
-550.4522076107058
 30
0.0
 10
25.0341473680044
 20
-551.3355306758472
 30
0.0
 10
24.31791154412417
 20
-552.0521110095033
 30
0.0
 10
23.4338994594312
 20
-552.0521110095033
 30
0.0
 10
22.55057639428982
 20
-552.0521110095033
 30
0.0
 10
21.83399606063379
 20
-551.3355306758472
 30
0.0
 10
21.83399606063379
 20
-550.4522076107058
 30
0.0
 10
21.83399606063379
 20
-549.5681955260129
 30
0.0
 10
22.55057639428982
 20
-548.8516151923568
 30
0.0
 10
23.4338994594312
 20
-548.8516151923568
 30
0.0
 10
24.31791154412417
 20
-548.8516151923568
 30
0.0
 10
25.0341473680044
 20
-549.5681955260129
 30
0.0
 10
25.0341473680044
 20
-550.4522076107058
 30
0.0
  0
SPLINE
  5
A9
330
1F
100
AcDbEntity
  8
\U+30EC\U+30A4\U+30E4\U+30FC 1
 62
   250
420
  3288107
370
    35
100
AcDbSpline
210
0.0
220
0.0
230
1.0
 70
    11
 71
     3
 72
    17
 73
    13
 74
     0
 42
0.0000000001
 43
0.0000000001
 40
0.0
 40
0.0
 40
0.0
 40
0.0
 40
1.0
 40
1.0
 40
1.0
 40
2.0
 40
2.0
 40
2.0
 40
3.0
 40
3.0
 40
3.0
 40
4.0
 40
4.0
 40
4.0
 40
4.0
 10
25.03397511311651
 20
-329.6510691660801
 30
0.0
 10
25.03397511311651
 20
-328.7674015911629
 30
0.0
 10
24.31773928923627
 20
-328.0511657672827
 30
0.0
 10
23.4337272045433
 20
-328.0511657672827
 30
0.0
 10
22.55040413940193
 20
-328.0511657672827
 30
0.0
 10
21.83382380574589
 20
-328.7674015911629
 30
0.0
 10
21.83382380574589
 20
-329.6510691660801
 30
0.0
 10
21.83382380574589
 20
-330.5347367409972
 30
0.0
 10
22.55040413940193
 20
-331.2513170746533
 30
0.0
 10
23.4337272045433
 20
-331.2513170746533
 30
0.0
 10
24.31773928923627
 20
-331.2513170746533
 30
0.0
 10
25.03397511311651
 20
-330.5347367409972
 30
0.0
 10
25.03397511311651
 20
-329.6510691660801
 30
0.0
  0
SPLINE
  5
AA
330
1F
100
AcDbEntity
  8
\U+30EC\U+30A4\U+30E4\U+30FC 1
 62
   250
420
  3288107
370
    35
100
AcDbSpline
210
0.0
220
0.0
230
1.0
 70
    11
 71
     3
 72
    17
 73
    13
 74
     0
 42
0.0000000001
 43
0.0000000001
 40
0.0
 40
0.0
 40
0.0
 40
0.0
 40
1.0
 40
1.0
 40
1.0
 40
2.0
 40
2.0
 40
2.0
 40
3.0
 40
3.0
 40
3.0
 40
4.0
 40
4.0
 40
4.0
 40
4.0
 10
717.6345335699675
 20
-550.45186310093
 30
0.0
 10
717.6345335699675
 20
-551.3351861660715
 30
0.0
 10
718.3507693938477
 20
-552.0517664997275
 30
0.0
 10
719.2347814785406
 20
-552.0517664997275
 30
0.0
 10
720.1181045436821
 20
-552.0517664997275
 30
0.0
 10
720.8346848773381
 20
-551.3351861660715
 30
0.0
 10
720.8346848773381
 20
-550.45186310093
 30
0.0
 10
720.8346848773381
 20
-549.5678510162371
 30
0.0
 10
720.1181045436821
 20
-548.851270682581
 30
0.0
 10
719.2347814785406
 20
-548.851270682581
 30
0.0
 10
718.3507693938477
 20
-548.851270682581
 30
0.0
 10
717.6345335699675
 20
-549.5678510162371
 30
0.0
 10
717.6345335699675
 20
-550.45186310093
 30
0.0
  0
SPLINE
  5
AB
330
1F
100
AcDbEntity
  8
\U+30EC\U+30A4\U+30E4\U+30FC 1
 62
   250
420
  3288107
370
    35
100
AcDbSpline
210
0.0
220
0.0
230
1.0
 70
    11
 71
     3
 72
    17
 73
    13
 74
     0
 42
0.0000000001
 43
0.0000000001
 40
0.0
 40
0.0
 40
0.0
 40
0.0
 40
1.0
 40
1.0
 40
1.0
 40
2.0
 40
2.0
 40
2.0
 40
3.0
 40
3.0
 40
3.0
 40
4.0
 40
4.0
 40
4.0
 40
4.0
 10
717.6345335699675
 20
-329.6507246563043
 30
0.0
 10
717.6345335699675
 20
-328.7674015911629
 30
0.0
 10
718.3507693938477
 20
-328.0508212575069
 30
0.0
 10
719.2347814785406
 20
-328.0508212575069
 30
0.0
 10
720.1181045436821
 20
-328.0508212575069
 30
0.0
 10
720.8346848773381
 20
-328.7674015911629
 30
0.0
 10
720.8346848773381
 20
-329.6507246563043
 30
0.0
 10
720.8346848773381
 20
-330.5347367409972
 30
0.0
 10
720.1181045436821
 20
-331.2513170746533
 30
0.0
 10
719.2347814785406
 20
-331.2513170746533
 30
0.0
 10
718.3507693938477
 20
-331.2513170746533
 30
0.0
 10
717.6345335699675
 20
-330.5347367409972
 30
0.0
 10
717.6345335699675
 20
-329.6507246563043
 30
0.0
  0
SPLINE
  5
AC
330
1F
100
AcDbEntity
  8
\U+30EC\U+30A4\U+30E4\U+30FC 1
 62
   250
420
  3288107
370
    35
100
AcDbSpline
210
0.0
220
0.0
230
1.0
 70
    11
 71
     3
 72
    17
 73
    13
 74
     0
 42
0.0000000001
 43
0.0000000001
 40
0.0
 40
0.0
 40
0.0
 40
0.0
 40
1.0
 40
1.0
 40
1.0
 40
2.0
 40
2.0
 40
2.0
 40
3.0
 40
3.0
 40
3.0
 40
4.0
 40
4.0
 40
4.0
 40
4.0
 10
463.0380196490649
 20
-26.96443564179034
 30
0.0
 10
463.0380196490649
 20
-26.08076806687317
 30
0.0
 10
463.7542554729452
 20
-25.36418773321714
 30
0.0
 10
464.6379230478623
 20
-25.36418773321714
 30
0.0
 10
465.5215906227795
 20
-25.36418773321714
 30
0.0
 10
466.2378264466598
 20
-26.08076806687317
 30
0.0
 10
466.2378264466598
 20
-26.96443564179034
 30
0.0
 10
466.2378264466598
 20
-27.84810321670751
 30
0.0
 10
465.5215906227795
 20
-28.56433904058775
 30
0.0
 10
464.6379230478623
 20
-28.56433904058775
 30
0.0
 10
463.7542554729452
 20
-28.56433904058775
 30
0.0
 10
463.0380196490649
 20
-27.84810321670751
 30
0.0
 10
463.0380196490649
 20
-26.96443564179034
 30
0.0
  0
SPLINE
  5
AD
330
1F
100
AcDbEntity
  8
\U+30EC\U+30A4\U+30E4\U+30FC 1
 62
   250
420
  3288107
370
    35
100
AcDbSpline
210
0.0
220
0.0
230
1.0
 70
    11
 71
     3
 72
    17
 73
    13
 74
     0
 42
0.0000000001
 43
0.0000000001
 40
0.0
 40
0.0
 40
0.0
 40
0.0
 40
1.0
 40
1.0
 40
1.0
 40
2.0
 40
2.0
 40
2.0
 40
3.0
 40
3.0
 40
3.0
 40
4.0
 40
4.0
 40
4.0
 40
4.0
 10
443.0378491249942
 20
-26.96443564179034
 30
0.0
 10
443.0378491249942
 20
-26.08076806687317
 30
0.0
 10
443.7544294586502
 20
-25.36418773321714
 30
0.0
 10
444.6380970335674
 20
-25.36418773321714
 30
0.0
 10
445.5217646084845
 20
-25.36418773321714
 30
0.0
 10
446.2380004323647
 20
-26.08076806687317
 30
0.0
 10
446.2380004323647
 20
-26.96443564179034
 30
0.0
 10
446.2380004323647
 20
-27.84810321670751
 30
0.0
 10
445.5217646084845
 20
-28.56433904058775
 30
0.0
 10
444.6380970335674
 20
-28.56433904058775
 30
0.0
 10
443.7544294586502
 20
-28.56433904058775
 30
0.0
 10
443.0378491249942
 20
-27.84810321670751
 30
0.0
 10
443.0378491249942
 20
-26.96443564179034
 30
0.0
  0
SPLINE
  5
AE
330
1F
100
AcDbEntity
  8
\U+30EC\U+30A4\U+30E4\U+30FC 1
 62
   250
420
  3288107
370
    35
100
AcDbSpline
210
0.0
220
0.0
230
1.0
 70
    11
 71
     3
 72
    17
 73
    13
 74
     0
 42
0.0000000001
 43
0.0000000001
 40
0.0
 40
0.0
 40
0.0
 40
0.0
 40
1.0
 40
1.0
 40
1.0
 40
2.0
 40
2.0
 40
2.0
 40
3.0
 40
3.0
 40
3.0
 40
4.0
 40
4.0
 40
4.0
 40
4.0
 10
367.6846039042013
 20
-257.5189903489814
 30
0.0
 10
367.6846039042013
 20
-256.6353227740643
 30
0.0
 10
366.9680235705453
 20
-255.9187424404082
 30
0.0
 10
366.0843559956281
 20
-255.9187424404082
 30
0.0
 10
365.2006884207109
 20
-255.9187424404082
 30
0.0
 10
364.4844525968307
 20
-256.6353227740643
 30
0.0
 10
364.4844525968307
 20
-257.5189903489814
 30
0.0
 10
364.4844525968307
 20
-258.4026579238986
 30
0.0
 10
365.2006884207109
 20
-259.1188937477788
 30
0.0
 10
366.0843559956281
 20
-259.1188937477788
 30
0.0
 10
366.9680235705453
 20
-259.1188937477788
 30
0.0
 10
367.6846039042013
 20
-258.4026579238986
 30
0.0
 10
367.6846039042013
 20
-257.5189903489814
 30
0.0
  0
SPLINE
  5
AF
330
1F
100
AcDbEntity
  8
\U+30EC\U+30A4\U+30E4\U+30FC 1
 62
   250
420
  3288107
370
    35
100
AcDbSpline
210
0.0
220
0.0
230
1.0
 70
    11
 71
     3
 72
    17
 73
    13
 74
     0
 42
0.0000000001
 43
0.0000000001
 40
0.0
 40
0.0
 40
0.0
 40
0.0
 40
1.0
 40
1.0
 40
1.0
 40
2.0
 40
2.0
 40
2.0
 40
3.0
 40
3.0
 40
3.0
 40
4.0
 40
4.0
 40
4.0
 40
4.0
 10
378.1845728509169
 20
-252.0188917783956
 30
0.0
 10
378.1845728509169
 20
-251.1352242034784
 30
0.0
 10
377.4679925172609
 20
-250.4186438698224
 30
0.0
 10
376.5843249423438
 20
-250.4186438698224
 30
0.0
 10
375.7006573674266
 20
-250.4186438698224
 30
0.0
 10
374.9844215435464
 20
-251.1352242034784
 30
0.0
 10
374.9844215435464
 20
-252.0188917783956
 30
0.0
 10
374.9844215435464
 20
-252.9025593533128
 30
0.0
 10
375.7006573674266
 20
-253.618795177193
 30
0.0
 10
376.5843249423438
 20
-253.618795177193
 30
0.0
 10
377.4679925172609
 20
-253.618795177193
 30
0.0
 10
378.1845728509169
 20
-252.9025593533128
 30
0.0
 10
378.1845728509169
 20
-252.0188917783956
 30
0.0
  0
SPLINE
  5
B0
330
1F
100
AcDbEntity
  8
\U+30EC\U+30A4\U+30E4\U+30FC 1
 62
   250
420
  3288107
370
    35
100
AcDbSpline
210
0.0
220
0.0
230
1.0
 70
    11
 71
     3
 72
    17
 73
    13
 74
     0
 42
0.0000000001
 43
0.0000000001
 40
0.0
 40
0.0
 40
0.0
 40
0.0
 40
1.0
 40
1.0
 40
1.0
 40
2.0
 40
2.0
 40
2.0
 40
3.0
 40
3.0
 40
3.0
 40
4.0
 40
4.0
 40
4.0
 40
4.0
 10
162.8459814113153
 20
-143.1303759620521
 30
0.0
 10
162.8459814113153
 20
-142.2467083871349
 30
0.0
 10
163.5623894900834
 20
-141.5301280534789
 30
0.0
 10
164.4460570650006
 20
-141.5301280534789
 30
0.0
 10
165.3297246399177
 20
-141.5301280534789
 30
0.0
 10
166.045960463798
 20
-142.2467083871349
 30
0.0
 10
166.045960463798
 20
-143.1303759620521
 30
0.0
 10
166.045960463798
 20
-144.0140435369693
 30
0.0
 10
165.3297246399177
 20
-144.7302793608495
 30
0.0
 10
164.4460570650006
 20
-144.7302793608495
 30
0.0
 10
163.5623894900834
 20
-144.7302793608495
 30
0.0
 10
162.8459814113153
 20
-144.0140435369693
 30
0.0
 10
162.8459814113153
 20
-143.1303759620521
 30
0.0
  0
SPLINE
  5
B1
330
1F
100
AcDbEntity
  8
\U+30EC\U+30A4\U+30E4\U+30FC 1
 62
   250
420
  3288107
370
    35
100
AcDbSpline
210
0.0
220
0.0
230
1.0
 70
    11
 71
     3
 72
    17
 73
    13
 74
     0
 42
0.0000000001
 43
0.0000000001
 40
0.0
 40
0.0
 40
0.0
 40
0.0
 40
1.0
 40
1.0
 40
1.0
 40
2.0
 40
2.0
 40
2.0
 40
3.0
 40
3.0
 40
3.0
 40
4.0
 40
4.0
 40
4.0
 40
4.0
 10
152.3460124645996
 20
-137.6302773914663
 30
0.0
 10
152.3460124645996
 20
-136.7466098165491
 30
0.0
 10
153.0624205433678
 20
-136.0300294828931
 30
0.0
 10
153.9460881182849
 20
-136.0300294828931
 30
0.0
 10
154.8297556932021
 20
-136.0300294828931
 30
0.0
 10
155.5459915170823
 20
-136.7466098165491
 30
0.0
 10
155.5459915170823
 20
-137.6302773914663
 30
0.0
 10
155.5459915170823
 20
-138.5139449663834
 30
0.0
 10
154.8297556932021
 20
-139.2301807902637
 30
0.0
 10
153.9460881182849
 20
-139.2301807902637
 30
0.0
 10
153.0624205433678
 20
-139.2301807902637
 30
0.0
 10
152.3460124645996
 20
-138.5139449663834
 30
0.0
 10
152.3460124645996
 20
-137.6302773914663
 30
0.0
  0
SPLINE
  5
B2
330
1F
100
AcDbEntity
  8
\U+30EC\U+30A4\U+30E4\U+30FC 1
 62
   250
420
  3288107
370
    35
100
AcDbSpline
210
0.0
220
0.0
230
1.0
 70
    11
 71
     3
 72
    17
 73
    13
 74
     0
 42
0.0000000001
 43
0.0000000001
 40
0.0
 40
0.0
 40
0.0
 40
0.0
 40
1.0
 40
1.0
 40
1.0
 40
2.0
 40
2.0
 40
2.0
 40
3.0
 40
3.0
 40
3.0
 40
4.0
 40
4.0
 40
4.0
 40
4.0
 10
463.7656242955464
 20
-143.2509543835808
 30
0.0
 10
463.7656242955464
 20
-142.3672868086636
 30
0.0
 10
464.4818601194267
 20
-141.6507064750076
 30
0.0
 10
465.3655276943439
 20
-141.6507064750076
 30
0.0
 10
466.249195269261
 20
-141.6507064750076
 30
0.0
 10
466.9654310931413
 20
-142.3672868086636
 30
0.0
 10
466.9654310931413
 20
-143.2509543835808
 30
0.0
 10
466.9654310931413
 20
-144.1346219584979
 30
0.0
 10
466.249195269261
 20
-144.8508577823782
 30
0.0
 10
465.3655276943439
 20
-144.8508577823782
 30
0.0
 10
464.4818601194267
 20
-144.8508577823782
 30
0.0
 10
463.7656242955464
 20
-144.1346219584979
 30
0.0
 10
463.7656242955464
 20
-143.2509543835808
 30
0.0
  0
SPLINE
  5
B3
330
1F
100
AcDbEntity
  8
\U+30EC\U+30A4\U+30E4\U+30FC 1
 62
   250
420
  3288107
370
    35
100
AcDbSpline
210
0.0
220
0.0
230
1.0
 70
    11
 71
     3
 72
    17
 73
    13
 74
     0
 42
0.0000000001
 43
0.0000000001
 40
0.0
 40
0.0
 40
0.0
 40
0.0
 40
1.0
 40
1.0
 40
1.0
 40
2.0
 40
2.0
 40
2.0
 40
3.0
 40
3.0
 40
3.0
 40
4.0
 40
4.0
 40
4.0
 40
4.0
 10
453.2656553488308
 20
-137.7508558129949
 30
0.0
 10
453.2656553488308
 20
-136.8671882380777
 30
0.0
 10
453.9818911727111
 20
-136.1506079044217
 30
0.0
 10
454.8655587476282
 20
-136.1506079044217
 30
0.0
 10
455.7492263225454
 20
-136.1506079044217
 30
0.0
 10
456.4654621464256
 20
-136.8671882380777
 30
0.0
 10
456.4654621464256
 20
-137.7508558129949
 30
0.0
 10
456.4654621464256
 20
-138.6345233879121
 30
0.0
 10
455.7492263225454
 20
-139.3507592117923
 30
0.0
 10
454.8655587476282
 20
-139.3507592117923
 30
0.0
 10
453.9818911727111
 20
-139.3507592117923
 30
0.0
 10
453.2656553488308
 20
-138.6345233879121
 30
0.0
 10
453.2656553488308
 20
-137.7508558129949
 30
0.0
  0
SPLINE
  5
B4
330
1F
100
AcDbEntity
  8
\U+30EC\U+30A4\U+30E4\U+30FC 1
 62
   250
420
  3288107
370
    35
100
AcDbSpline
210
0.0
220
0.0
230
1.0
 70
    11
 71
     3
 72
    17
 73
    13
 74
     0
 42
0.0000000001
 43
0.0000000001
 40
0.0
 40
0.0
 40
0.0
 40
0.0
 40
1.0
 40
1.0
 40
1.0
 40
2.0
 40
2.0
 40
2.0
 40
3.0
 40
3.0
 40
3.0
 40
4.0
 40
4.0
 40
4.0
 40
4.0
 10
374.9847660533221
 20
-208.9162401992095
 30
0.0
 10
374.9847660533221
 20
-208.0325726242924
 30
0.0
 10
375.7013463869782
 20
-207.3159922906363
 30
0.0
 10
376.5846694521196
 20
-207.3159922906363
 30
0.0
 10
377.4686815368125
 20
-207.3159922906363
 30
0.0
 10
378.1845728509169
 20
-208.0325726242924
 30
0.0
 10
378.1845728509169
 20
-208.9162401992095
 30
0.0
 10
378.1845728509169
 20
-209.7999077741267
 30
0.0
 10
377.4686815368125
 20
-210.5161435980069
 30
0.0
 10
376.5846694521196
 20
-210.5161435980069
 30
0.0
 10
375.7013463869782
 20
-210.5161435980069
 30
0.0
 10
374.9847660533221
 20
-209.7999077741267
 30
0.0
 10
374.9847660533221
 20
-208.9162401992095
 30
0.0
  0
SPLINE
  5
B5
330
1F
100
AcDbEntity
  8
\U+30EC\U+30A4\U+30E4\U+30FC 1
 62
   250
420
  3288107
370
    35
100
AcDbSpline
210
0.0
220
0.0
230
1.0
 70
    11
 71
     3
 72
    17
 73
    13
 74
     0
 42
0.0000000001
 43
0.0000000001
 40
0.0
 40
0.0
 40
0.0
 40
0.0
 40
1.0
 40
1.0
 40
1.0
 40
2.0
 40
2.0
 40
2.0
 40
3.0
 40
3.0
 40
3.0
 40
4.0
 40
4.0
 40
4.0
 40
4.0
 10
364.4847971066065
 20
-203.4161416286237
 30
0.0
 10
364.4847971066065
 20
-202.5324740537065
 30
0.0
 10
365.2010329304867
 20
-201.8158937200505
 30
0.0
 10
366.0850450151797
 20
-201.8158937200505
 30
0.0
 10
366.9687125900969
 20
-201.8158937200505
 30
0.0
 10
367.6846039042013
 20
-202.5324740537065
 30
0.0
 10
367.6846039042013
 20
-203.4161416286237
 30
0.0
 10
367.6846039042013
 20
-204.2998092035409
 30
0.0
 10
366.9687125900969
 20
-205.0160450274211
 30
0.0
 10
366.0850450151797
 20
-205.0160450274211
 30
0.0
 10
365.2010329304867
 20
-205.0160450274211
 30
0.0
 10
364.4847971066065
 20
-204.2998092035409
 30
0.0
 10
364.4847971066065
 20
-203.4161416286237
 30
0.0
  0
SPLINE
  5
B6
330
1F
100
AcDbEntity
  8
\U+30EC\U+30A4\U+30E4\U+30FC 1
 62
   250
420
  3288107
370
    35
100
AcDbSpline
210
0.0
220
0.0
230
1.0
 70
    11
 71
     3
 72
    65
 73
    61
 74
     0
 42
0.0000000001
 43
0.0000000001
 40
0.0
 40
0.0
 40
0.0
 40
0.0
 40
1.0
 40
1.0
 40
1.0
 40
2.0
 40
2.0
 40
2.0
 40
3.0
 40
3.0
 40
3.0
 40
4.0
 40
4.0
 40
4.0
 40
5.0
 40
5.0
 40
5.0
 40
6.0
 40
6.0
 40
6.0
 40
7.0
 40
7.0
 40
7.0
 40
8.0
 40
8.0
 40
8.0
 40
9.0
 40
9.0
 40
9.0
 40
10.0
 40
10.0
 40
10.0
 40
11.0
 40
11.0
 40
11.0
 40
12.0
 40
12.0
 40
12.0
 40
13.0
 40
13.0
 40
13.0
 40
14.0
 40
14.0
 40
14.0
 40
15.0
 40
15.0
 40
15.0
 40
16.0
 40
16.0
 40
16.0
 40
17.0
 40
17.0
 40
17.0
 40
18.0
 40
18.0
 40
18.0
 40
19.0
 40
19.0
 40
19.0
 40
20.0
 40
20.0
 40
20.0
 40
20.0
 10
294.6888390791817
 20
-20.17500923528734
 30
0.0
 10
294.6888390791817
 20
-20.17500923528734
 30
0.0
 10
205.2895857894032
 20
-20.17500923528734
 30
0.0
 10
205.2895857894032
 20
-20.17500923528734
 30
0.0
 10
205.2895857894032
 20
-20.17500923528734
 30
0.0
 10
205.2895857894032
 20
-14.57500282972062
 30
0.0
 10
205.2895857894032
 20
-14.57500282972062
 30
0.0
 10
205.2895857894032
 20
-14.57500282972062
 30
0.0
 10
105.289249933713
 20
-14.57500282972062
 30
0.0
 10
105.289249933713
 20
-14.57500282972062
 30
0.0
 10
105.289249933713
 20
-14.57500282972062
 30
0.0
 10
105.289249933713
 20
-20.17500923528734
 30
0.0
 10
105.289249933713
 20
-20.17500923528734
 30
0.0
 10
105.289249933713
 20
-20.17500923528734
 30
0.0
 10
15.8896521341588
 20
-20.17500923528734
 30
0.0
 10
15.8896521341588
 20
-20.17500923528734
 30
0.0
 10
15.8896521341588
 20
-20.17500923528734
 30
0.0
 10
15.8896521341588
 20
-45.17470562571213
 30
0.0
 10
15.8896521341588
 20
-45.17470562571213
 30
0.0
 10
15.8896521341588
 20
-45.17470562571213
 30
0.0
 10
10.28964572859207
 20
-45.17470562571213
 30
0.0
 10
10.28964572859207
 20
-45.17470562571213
 30
0.0
 10
10.28964572859207
 20
-45.17470562571213
 30
0.0
 10
10.28964572859207
 20
-75.17461690204252
 30
0.0
 10
10.28964572859207
 20
-75.17461690204252
 30
0.0
 10
10.28964572859207
 20
-75.17461690204252
 30
0.0
 10
15.8896521341588
 20
-75.17461690204252
 30
0.0
 10
15.8896521341588
 20
-75.17461690204252
 30
0.0
 10
15.8896521341588
 20
-75.17461690204252
 30
0.0
 10
15.8896521341588
 20
-100.1743132924673
 30
0.0
 10
15.8896521341588
 20
-100.1743132924673
 30
0.0
 10
15.8896521341588
 20
-100.1743132924673
 30
0.0
 10
105.2889054239372
 20
-100.1743132924673
 30
0.0
 10
105.2889054239372
 20
-100.1743132924673
 30
0.0
 10
105.2889054239372
 20
-100.1743132924673
 30
0.0
 10
105.2889054239372
 20
-105.774319698034
 30
0.0
 10
105.2889054239372
 20
-105.774319698034
 30
0.0
 10
105.2889054239372
 20
-105.774319698034
 30
0.0
 10
205.2888967698517
 20
-105.774319698034
 30
0.0
 10
205.2888967698517
 20
-105.774319698034
 30
0.0
 10
205.2888967698517
 20
-105.774319698034
 30
0.0
 10
205.2888967698517
 20
-100.1743132924673
 30
0.0
 10
205.2888967698517
 20
-100.1743132924673
 30
0.0
 10
205.2888967698517
 20
-100.1743132924673
 30
0.0
 10
294.6881500596301
 20
-100.1743132924673
 30
0.0
 10
294.6888390791817
 20
-100.1743132924673
 30
0.0
 10
294.6888390791817
 20
-100.1743132924673
 30
0.0
 10
294.6888390791817
 20
-75.17461690204252
 30
0.0
 10
294.6888390791817
 20
-75.17461690204252
 30
0.0
 10
294.6888390791817
 20
-75.17461690204252
 30
0.0
 10
300.2888454847484
 20
-75.17461690204252
 30
0.0
 10
300.2888454847484
 20
-75.17461690204252
 30
0.0
 10
300.2888454847484
 20
-75.17461690204252
 30
0.0
 10
300.2888454847484
 20
-45.17470562571213
 30
0.0
 10
300.2888454847484
 20
-45.17470562571213
 30
0.0
 10
300.2888454847484
 20
-45.17470562571213
 30
0.0
 10
294.6888390791817
 20
-45.17470562571213
 30
0.0
 10
294.6888390791817
 20
-45.17470562571213
 30
0.0
 10
294.6888390791817
 20
-45.17470562571213
 30
0.0
 10
294.6888390791817
 20
-20.17500923528734
 30
0.0
 10
294.6888390791817
 20
-20.17500923528734
 30
0.0
  0
SPLINE
  5
B7
330
1F
100
AcDbEntity
  8
\U+30EC\U+30A4\U+30E4\U+30FC 1
 62
   250
420
  3288107
370
    35
100
AcDbSpline
210
0.0
220
0.0
230
1.0
 70
    11
 71
     3
 72
    17
 73
    13
 74
     0
 42
0.0000000001
 43
0.0000000001
 40
0.0
 40
0.0
 40
0.0
 40
0.0
 40
1.0
 40
1.0
 40
1.0
 40
2.0
 40
2.0
 40
2.0
 40
3.0
 40
3.0
 40
3.0
 40
4.0
 40
4.0
 40
4.0
 40
4.0
 10
285.6892102060584
 20
-33.27499345993666
 30
0.0
 10
284.8055426311412
 20
-33.27499345993666
 30
0.0
 10
284.089306807261
 20
-32.55858538116853
 30
0.0
 10
284.089306807261
 20
-31.67491780625136
 30
0.0
 10
284.089306807261
 20
-30.79125023133418
 30
0.0
 10
284.8055426311412
 20
-30.07501440745395
 30
0.0
 10
285.6892102060584
 20
-30.07501440745395
 30
0.0
 10
286.5728777809755
 20
-30.07501440745395
 30
0.0
 10
287.2894581146315
 20
-30.79125023133418
 30
0.0
 10
287.2894581146315
 20
-31.67491780625136
 30
0.0
 10
287.2894581146315
 20
-32.55858538116853
 30
0.0
 10
286.5728777809755
 20
-33.27499345993666
 30
0.0
 10
285.6892102060584
 20
-33.27499345993666
 30
0.0
  0
SPLINE
  5
B8
330
1F
100
AcDbEntity
  8
\U+30EC\U+30A4\U+30E4\U+30FC 1
 62
   250
420
  3288107
370
    35
100
AcDbSpline
210
0.0
220
0.0
230
1.0
 70
    11
 71
     3
 72
    17
 73
    13
 74
     0
 42
0.0000000001
 43
0.0000000001
 40
0.0
 40
0.0
 40
0.0
 40
0.0
 40
1.0
 40
1.0
 40
1.0
 40
2.0
 40
2.0
 40
2.0
 40
3.0
 40
3.0
 40
3.0
 40
4.0
 40
4.0
 40
4.0
 40
4.0
 10
24.88945326217002
 20
-33.27499345993666
 30
0.0
 10
25.77312083708719
 20
-33.27499345993666
 30
0.0
 10
26.48935666096742
 20
-32.55858538116853
 30
0.0
 10
26.48935666096742
 20
-31.67491780625136
 30
0.0
 10
26.48935666096742
 20
-30.79125023133418
 30
0.0
 10
25.77312083708719
 20
-30.07501440745395
 30
0.0
 10
24.88945326217002
 20
-30.07501440745395
 30
0.0
 10
24.00578568725284
 20
-30.07501440745395
 30
0.0
 10
23.28920535359681
 20
-30.79125023133418
 30
0.0
 10
23.28920535359681
 20
-31.67491780625136
 30
0.0
 10
23.28920535359681
 20
-32.55858538116853
 30
0.0
 10
24.00578568725284
 20
-33.27499345993666
 30
0.0
 10
24.88945326217002
 20
-33.27499345993666
 30
0.0
  0
SPLINE
  5
B9
330
1F
100
AcDbEntity
  8
\U+30EC\U+30A4\U+30E4\U+30FC 1
 62
   250
420
  3288107
370
    35
100
AcDbSpline
210
0.0
220
0.0
230
1.0
 70
    11
 71
     3
 72
    17
 73
    13
 74
     0
 42
0.0000000001
 43
0.0000000001
 40
0.0
 40
0.0
 40
0.0
 40
0.0
 40
1.0
 40
1.0
 40
1.0
 40
2.0
 40
2.0
 40
2.0
 40
3.0
 40
3.0
 40
3.0
 40
4.0
 40
4.0
 40
4.0
 40
4.0
 10
24.88997002683371
 20
-87.07415681293008
 30
0.0
 10
25.77363760175088
 20
-87.07415681293008
 30
0.0
 10
26.48987342563112
 20
-87.79056489169821
 30
0.0
 10
26.48987342563112
 20
-88.6742324666154
 30
0.0
 10
26.48987342563112
 20
-89.55790004153256
 30
0.0
 10
25.77363760175088
 20
-90.2741358654128
 30
0.0
 10
24.88997002683371
 20
-90.2741358654128
 30
0.0
 10
24.00630245191654
 20
-90.2741358654128
 30
0.0
 10
23.2897221182605
 20
-89.55790004153256
 30
0.0
 10
23.2897221182605
 20
-88.6742324666154
 30
0.0
 10
23.2897221182605
 20
-87.79056489169821
 30
0.0
 10
24.00630245191654
 20
-87.07415681293008
 30
0.0
 10
24.88997002683371
 20
-87.07415681293008
 30
0.0
  0
SPLINE
  5
BA
330
1F
100
AcDbEntity
  8
\U+30EC\U+30A4\U+30E4\U+30FC 1
 62
   250
420
  3288107
370
    35
100
AcDbSpline
210
0.0
220
0.0
230
1.0
 70
    11
 71
     3
 72
    17
 73
    13
 74
     0
 42
0.0000000001
 43
0.0000000001
 40
0.0
 40
0.0
 40
0.0
 40
0.0
 40
1.0
 40
1.0
 40
1.0
 40
2.0
 40
2.0
 40
2.0
 40
3.0
 40
3.0
 40
3.0
 40
4.0
 40
4.0
 40
4.0
 40
4.0
 10
285.6895547158342
 20
-87.07415681293008
 30
0.0
 10
284.8062316506928
 20
-87.07415681293008
 30
0.0
 10
284.0896513170368
 20
-87.79056489169821
 30
0.0
 10
284.0896513170368
 20
-88.6742324666154
 30
0.0
 10
284.0896513170368
 20
-89.55790004153256
 30
0.0
 10
284.8062316506928
 20
-90.2741358654128
 30
0.0
 10
285.6895547158342
 20
-90.2741358654128
 30
0.0
 10
286.5735668005271
 20
-90.2741358654128
 30
0.0
 10
287.2901471341831
 20
-89.55790004153256
 30
0.0
 10
287.2901471341831
 20
-88.6742324666154
 30
0.0
 10
287.2901471341831
 20
-87.79056489169821
 30
0.0
 10
286.5735668005271
 20
-87.07415681293008
 30
0.0
 10
285.6895547158342
 20
-87.07415681293008
 30
0.0
  0
SPLINE
  5
BB
330
1F
100
AcDbEntity
  8
\U+30EC\U+30A4\U+30E4\U+30FC 1
 62
   250
420
  3288107
370
    35
100
AcDbSpline
210
0.0
220
0.0
230
1.0
 70
    11
 71
     3
 72
    17
 73
    13
 74
     0
 42
0.0000000001
 43
0.0000000001
 40
0.0
 40
0.0
 40
0.0
 40
0.0
 40
1.0
 40
1.0
 40
1.0
 40
2.0
 40
2.0
 40
2.0
 40
3.0
 40
3.0
 40
3.0
 40
4.0
 40
4.0
 40
4.0
 40
4.0
 10
28.98963635880812
 20
-60.17483351876522
 30
0.0
 10
28.98963635880812
 20
-61.05850109368239
 30
0.0
 10
28.27322828003998
 20
-61.77473691756263
 30
0.0
 10
27.38956070512281
 20
-61.77473691756263
 30
0.0
 10
26.50589313020564
 20
-61.77473691756263
 30
0.0
 10
25.7896573063254
 20
-61.05850109368239
 30
0.0
 10
25.7896573063254
 20
-60.17483351876522
 30
0.0
 10
25.7896573063254
 20
-59.29116594384805
 30
0.0
 10
26.50589313020564
 20
-58.57458561019202
 30
0.0
 10
27.38956070512281
 20
-58.57458561019202
 30
0.0
 10
28.27322828003998
 20
-58.57458561019202
 30
0.0
 10
28.98963635880812
 20
-59.29116594384805
 30
0.0
 10
28.98963635880812
 20
-60.17483351876522
 30
0.0
  0
SPLINE
  5
BC
330
1F
100
AcDbEntity
  8
\U+30EC\U+30A4\U+30E4\U+30FC 1
 62
   250
420
  3288107
370
    35
100
AcDbSpline
210
0.0
220
0.0
230
1.0
 70
    11
 71
     3
 72
    17
 73
    13
 74
     0
 42
0.0000000001
 43
0.0000000001
 40
0.0
 40
0.0
 40
0.0
 40
0.0
 40
1.0
 40
1.0
 40
1.0
 40
2.0
 40
2.0
 40
2.0
 40
3.0
 40
3.0
 40
3.0
 40
4.0
 40
4.0
 40
4.0
 40
4.0
 10
281.5888548545324
 20
-60.17448900898943
 30
0.0
 10
281.5888548545324
 20
-59.29082143407225
 30
0.0
 10
282.3050906784126
 20
-58.57458561019202
 30
0.0
 10
283.1891027631056
 20
-58.57458561019202
 30
0.0
 10
284.0724258282469
 20
-58.57458561019202
 30
0.0
 10
284.789006161903
 20
-59.29082143407225
 30
0.0
 10
284.789006161903
 20
-60.17448900898943
 30
0.0
 10
284.789006161903
 20
-61.05815658390659
 30
0.0
 10
284.0724258282469
 20
-61.77473691756263
 30
0.0
 10
283.1891027631056
 20
-61.77473691756263
 30
0.0
 10
282.3050906784126
 20
-61.77473691756263
 30
0.0
 10
281.5888548545324
 20
-61.05815658390659
 30
0.0
 10
281.5888548545324
 20
-60.17448900898943
 30
0.0
  0
SPLINE
  5
BD
330
1F
100
AcDbEntity
  8
\U+30EC\U+30A4\U+30E4\U+30FC 1
 62
   250
420
  3288107
370
    35
100
AcDbSpline
210
0.0
220
0.0
230
1.0
 70
    11
 71
     3
 72
    17
 73
    13
 74
     0
 42
0.0000000001
 43
0.0000000001
 40
0.0
 40
0.0
 40
0.0
 40
0.0
 40
1.0
 40
1.0
 40
1.0
 40
2.0
 40
2.0
 40
2.0
 40
3.0
 40
3.0
 40
3.0
 40
4.0
 40
4.0
 40
4.0
 40
4.0
 10
163.6891690875764
 20
-26.77547202976614
 30
0.0
 10
163.6891690875764
 20
-25.89180445484897
 30
0.0
 10
164.4055771663445
 20
-25.17522412119294
 30
0.0
 10
165.2892447412617
 20
-25.17522412119294
 30
0.0
 10
166.1729123161789
 20
-25.17522412119294
 30
0.0
 10
166.8891481400591
 20
-25.89180445484897
 30
0.0
 10
166.8891481400591
 20
-26.77547202976614
 30
0.0
 10
166.8891481400591
 20
-27.65913960468331
 30
0.0
 10
166.1729123161789
 20
-28.37537542856355
 30
0.0
 10
165.2892447412617
 20
-28.37537542856355
 30
0.0
 10
164.4055771663445
 20
-28.37537542856355
 30
0.0
 10
163.6891690875764
 20
-27.65913960468331
 30
0.0
 10
163.6891690875764
 20
-26.77547202976614
 30
0.0
  0
SPLINE
  5
BE
330
1F
100
AcDbEntity
  8
\U+30EC\U+30A4\U+30E4\U+30FC 1
 62
   250
420
  3288107
370
    35
100
AcDbSpline
210
0.0
220
0.0
230
1.0
 70
    11
 71
     3
 72
    17
 73
    13
 74
     0
 42
0.0000000001
 43
0.0000000001
 40
0.0
 40
0.0
 40
0.0
 40
0.0
 40
1.0
 40
1.0
 40
1.0
 40
2.0
 40
2.0
 40
2.0
 40
3.0
 40
3.0
 40
3.0
 40
4.0
 40
4.0
 40
4.0
 40
4.0
 10
143.6893430732814
 20
-26.77547202976614
 30
0.0
 10
143.6893430732814
 20
-25.89180445484897
 30
0.0
 10
144.4057511520495
 20
-25.17522412119294
 30
0.0
 10
145.2894187269667
 20
-25.17522412119294
 30
0.0
 10
146.1730863018839
 20
-25.17522412119294
 30
0.0
 10
146.8893221257641
 20
-25.89180445484897
 30
0.0
 10
146.8893221257641
 20
-26.77547202976614
 30
0.0
 10
146.8893221257641
 20
-27.65913960468331
 30
0.0
 10
146.1730863018839
 20
-28.37537542856355
 30
0.0
 10
145.2894187269667
 20
-28.37537542856355
 30
0.0
 10
144.4057511520495
 20
-28.37537542856355
 30
0.0
 10
143.6893430732814
 20
-27.65913960468331
 30
0.0
 10
143.6893430732814
 20
-26.77547202976614
 30
0.0
  0
POLYLINE
  5
BF
330
1F
100
AcDbEntity
  8
\U+30EC\U+30A4\U+30E4\U+30FC 1
 62
   250
420
  3288107
370
    35
100
AcDb2dPolyline
 66
     1
 10
0.0
 20
0.0
 30
0.0
  0
VERTEX
  5
C0
330
BF
100
AcDbEntity
  8
\U+30EC\U+30A4\U+30E4\U+30FC 1
 62
   250
420
  3288107
370
    35
100
AcDbVertex
100
AcDb2dVertex
 10
85.88973220374285
 20
-43.17499863210327
 30
0.0
  0
VERTEX
  5
C1
330
BF
100
AcDbEntity
  8
\U+30EC\U+30A4\U+30E4\U+30FC 1
 62
   250
420
  3288107
370
    35
100
AcDbVertex
100
AcDb2dVertex
 10
70.88960431068976
 20
-43.17499863210327
 30
0.0
  0
VERTEX
  5
C2
330
BF
100
AcDbEntity
  8
\U+30EC\U+30A4\U+30E4\U+30FC 1
 62
   250
420
  3288107
370
    35
100
AcDbVertex
100
AcDb2dVertex
 10
70.88960431068976
 20
-33.17508562495577
 30
0.0
  0
VERTEX
  5
C3
330
BF
100
AcDbEntity
  8
\U+30EC\U+30A4\U+30E4\U+30FC 1
 62
   250
420
  3288107
370
    35
100
AcDbVertex
100
AcDb2dVertex
 10
85.88973220374285
 20
-33.17508562495577
 30
0.0
  0
VERTEX
  5
C4
330
BF
100
AcDbEntity
  8
\U+30EC\U+30A4\U+30E4\U+30FC 1
 62
   250
420
  3288107
370
    35
100
AcDbVertex
100
AcDb2dVertex
 10
85.88973220374285
 20
-43.17499863210327
 30
0.0
  0
SEQEND
  5
C5
330
BF
100
AcDbEntity
  8
\U+30EC\U+30A4\U+30E4\U+30FC 1
370
    35
  0
ENDSEC
  0
SECTION
  2
OBJECTS
  0
DICTIONARY
  5
C
330
0
100
AcDbDictionary
281
     1
  3
ACAD_GROUP
350
D
  3
ACAD_LAYOUT
350
1A
  3
ACAD_MLINESTYLE
350
17
  3
ACAD_PLOTSETTINGS
350
19
  3
ACAD_PLOTSTYLENAME
350
E
  3
ACAD_TABLESTYLE
350
C6
  3
ACAD_VISUALSTYLE
350
2A
  0
DICTIONARY
  5
D
102
{ACAD_REACTORS
330
C
102
}
330
C
100
AcDbDictionary
281
     1
  0
DICTIONARY
  5
1A
102
{ACAD_REACTORS
330
C
102
}
330
C
100
AcDbDictionary
281
     1
  3
Layout1
350
1E
  3
Layout2
350
26
  3
Model
350
22
  0
DICTIONARY
  5
17
102
{ACAD_REACTORS
330
C
102
}
330
C
100
AcDbDictionary
281
     1
  3
Standard
350
18
  0
DICTIONARY
  5
19
102
{ACAD_REACTORS
330
C
102
}
330
C
100
AcDbDictionary
281
     1
  0
ACDBDICTIONARYWDFLT
  5
E
102
{ACAD_REACTORS
330
C
102
}
330
C
100
AcDbDictionary
281
     1
  3
Normal
350
F
100
AcDbDictionaryWithDefault
340
F
  0
DICTIONARY
  5
C6
102
{ACAD_REACTORS
330
C
102
}
330
C
100
AcDbDictionary
281
     1
  0
DICTIONARY
  5
2A
102
{ACAD_REACTORS
330
C
102
}
330
C
100
AcDbDictionary
281
     1
  3
2dWireframe
350
2F
  3
3D Hidden
350
31
  3
3dWireframe
350
30
  3
Basic
350
32
  3
Brighten
350
36
  3
ColorChange
350
3A
  3
Conceptual
350
34
  3
Dim
350
35
  3
Facepattern
350
39
  3
Flat
350
2B
  3
FlatWithEdges
350
2C
  3
Gouraud
350
2D
  3
GouraudWithEdges
350
2E
  3
Linepattern
350
38
  3
Realistic
350
33
  3
Thicken
350
37
  0
LAYOUT
  5
1E
102
{ACAD_REACTORS
330
1A
102
}
330
1A
100
AcDbPlotSettings
  1

  2
none_device
  4

  6

 40
0.0
 41
0.0
 42
0.0
 43
0.0
 44
0.0
 45
0.0
 46
0.0
 47
0.0
 48
0.0
 49
0.0
140
0.0
141
0.0
142
1.0
143
1.0
 70
   688
 72
     0
 73
     0
 74
     5
  7

 75
    16
 76
     0
 77
     2
 78
   300
147
1.0
148
0.0
149
0.0
100
AcDbLayout
  1
Layout1
 70
     1
 71
     1
 10
0.0
 20
0.0
 11
12.0
 21
9.0
 12
0.0
 22
0.0
 32
0.0
 14
1.000000000000000E+20
 24
1.000000000000000E+20
 34
1.000000000000000E+20
 15
-1.000000000000000E+20
 25
-1.000000000000000E+20
 35
-1.000000000000000E+20
146
0.0
 13
0.0
 23
0.0
 33
0.0
 16
1.0
 26
0.0
 36
0.0
 17
0.0
 27
1.0
 37
0.0
 76
     0
330
1B
  0
LAYOUT
  5
26
102
{ACAD_REACTORS
330
1A
102
}
330
1A
100
AcDbPlotSettings
  1

  2
none_device
  4

  6

 40
0.0
 41
0.0
 42
0.0
 43
0.0
 44
0.0
 45
0.0
 46
0.0
 47
0.0
 48
0.0
 49
0.0
140
0.0
141
0.0
142
1.0
143
1.0
 70
   688
 72
     0
 73
     0
 74
     5
  7

 75
    16
 76
     0
 77
     2
 78
   300
147
1.0
148
0.0
149
0.0
100
AcDbLayout
  1
Layout2
 70
     1
 71
     2
 10
0.0
 20
0.0
 11
0.0
 21
0.0
 12
0.0
 22
0.0
 32
0.0
 14
0.0
 24
0.0
 34
0.0
 15
0.0
 25
0.0
 35
0.0
146
0.0
 13
0.0
 23
0.0
 33
0.0
 16
1.0
 26
0.0
 36
0.0
 17
0.0
 27
1.0
 37
0.0
 76
     0
330
23
  0
LAYOUT
  5
22
102
{ACAD_REACTORS
330
1A
102
}
330
1A
100
AcDbPlotSettings
  1

  2
none_device
  4

  6

 40
0.0
 41
0.0
 42
0.0
 43
0.0
 44
0.0
 45
0.0
 46
0.0
 47
0.0
 48
0.0
 49
0.0
140
0.0
141
0.0
142
1.0
143
1.0
 70
  1712
 72
     0
 73
     0
 74
     0
  7

 75
     0
 76
     0
 77
     2
 78
   300
147
1.0
148
0.0
149
0.0
100
AcDbLayout
  1
Model
 70
     1
 71
     0
 10
0.0
 20
0.0
 11
12.0
 21
9.0
 12
0.0
 22
0.0
 32
0.0
 14
1.000000000000000E+20
 24
1.000000000000000E+20
 34
1.000000000000000E+20
 15
-1.000000000000000E+20
 25
-1.000000000000000E+20
 35
-1.000000000000000E+20
146
0.0
 13
0.0
 23
0.0
 33
0.0
 16
1.0
 26
0.0
 36
0.0
 17
0.0
 27
1.0
 37
0.0
 76
     0
330
1F
331
29
  0
MLINESTYLE
  5
18
102
{ACAD_REACTORS
330
17
102
}
330
17
100
AcDbMlineStyle
  2
Standard
 70
     0
  3

 62
   256
 51
90.0
 52
90.0
 71
     2
 49
0.5
 62
   256
  6
BYLAYER
 49
-0.5
 62
   256
  6
BYLAYER
  0
ACDBPLACEHOLDER
  5
F
102
{ACAD_REACTORS
330
E
102
}
330
E
  0
VISUALSTYLE
  5
2F
102
{ACAD_REACTORS
330
2A
102
}
330
2A
100
AcDbVisualStyle
  2
2dWireframe
 70
     4
 71
     0
 72
     2
 73
     0
 90
        0
 40
-0.6
 41
-30.0
 62
     5
 63
     7
421
 16777215
 74
     1
 91
        4
 64
     7
 65
   257
 75
     1
175
     1
 42
1.0
 92
        0
 66
   257
 43
1.0
 76
     1
 77
     6
 78
     2
 67
     7
 79
     5
170
     0
171
     0
290
     0
174
     0
 93
        1
 44
0.0
173
     0
291
     0
 45
0.0
1001
ACAD
1000
AcDbSavedByObjectVersion
1070
     0
  0
VISUALSTYLE
  5
31
102
{ACAD_REACTORS
330
2A
102
}
330
2A
100
AcDbVisualStyle
  2
3D Hidden
 70
     6
 71
     1
 72
     2
 73
     2
 90
        0
 40
-0.6
 41
-30.0
 62
     5
 63
     7
421
 16777215
 74
     2
 91
        2
 64
     7
 65
   257
 75
     2
175
     1
 42
40.0
 92
        0
 66
   257
 43
1.0
 76
     1
 77
     6
 78
     2
 67
     7
 79
     3
170
     0
171
     0
290
     0
174
     0
 93
        1
 44
0.0
173
     0
291
     0
 45
0.0
1001
ACAD
1000
AcDbSavedByObjectVersion
1070
     0
  0
VISUALSTYLE
  5
30
102
{ACAD_REACTORS
330
2A
102
}
330
2A
100
AcDbVisualStyle
  2
3dWireframe
 70
     5
 71
     0
 72
     2
 73
     0
 90
        0
 40
-0.6
 41
-30.0
 62
     5
 63
     7
421
 16777215
 74
     1
 91
        4
 64
     7
 65
   257
 75
     1
175
     1
 42
1.0
 92
        0
 66
   257
 43
1.0
 76
     1
 77
     6
 78
     2
 67
     7
 79
     5
170
     0
171
     0
290
     0
174
     0
 93
        1
 44
0.0
173
     0
291
     0
 45
0.0
1001
ACAD
1000
AcDbSavedByObjectVersion
1070
     0
  0
VISUALSTYLE
  5
32
102
{ACAD_REACTORS
330
2A
102
}
330
2A
100
AcDbVisualStyle
  2
Basic
 70
     7
 71
     1
 72
     0
 73
     1
 90
        0
 40
-0.6
 41
-30.0
 62
     5
 63
     7
421
 16777215
 74
     0
 91
        4
 64
     7
 65
   257
 75
     1
175
     1
 42
1.0
 92
        8
 66
     7
 43
1.0
 76
     1
 77
     6
 78
     2
 67
     7
 79
     5
170
     0
171
     0
290
     0
174
     0
 93
        1
 44
0.0
173
     0
291
     1
 45
0.0
1001
ACAD
1000
AcDbSavedByObjectVersion
1070
     0
  0
VISUALSTYLE
  5
36
102
{ACAD_REACTORS
330
2A
102
}
330
2A
100
AcDbVisualStyle
  2
Brighten
 70
    12
 71
     2
 72
     2
 73
     0
 90
        0
 40
-0.6
 41
-30.0
 62
     5
 63
     7
421
 16777215
 74
     1
 91
        4
 64
     7
 65
   257
 75
     1
175
     1
 42
1.0
 92
        8
 66
     7
 43
1.0
 76
     1
 77
     6
 78
     2
 67
     7
 79
     5
170
     0
171
     0
290
     0
174
     0
 93
        1
 44
50.0
173
     0
291
     1
 45
0.0
1001
ACAD
1000
AcDbSavedByObjectVersion
1070
     0
  0
VISUALSTYLE
  5
3A
102
{ACAD_REACTORS
330
2A
102
}
330
2A
100
AcDbVisualStyle
  2
ColorChange
 70
    16
 71
     2
 72
     2
 73
     3
 90
        0
 40
-0.6
 41
-30.0
 62
     5
 63
     8
421
  8421504
 74
     1
 91
        4
 64
     7
 65
   257
 75
     1
175
     1
 42
1.0
 92
        8
 66
     8
424
  8421504
 43
1.0
 76
     1
 77
     6
 78
     2
 67
     7
 79
     5
170
     0
171
     0
290
     0
174
     0
 93
        1
 44
0.0
173
     0
291
     1
 45
0.0
1001
ACAD
1000
AcDbSavedByObjectVersion
1070
     0
  0
VISUALSTYLE
  5
34
102
{ACAD_REACTORS
330
2A
102
}
330
2A
100
AcDbVisualStyle
  2
Conceptual
 70
     9
 71
     3
 72
     2
 73
     0
 90
        0
 40
-0.6
 41
-30.0
 62
     5
 63
     7
421
 16777215
 74
     2
 91
        2
 64
     7
 65
   257
 75
     1
175
     1
 42
40.0
 92
        8
 66
     7
 43
1.0
 76
     1
 77
     6
 78
     2
 67
     7
 79
     3
170
     0
171
     0
290
     0
174
     0
 93
        1
 44
0.0
173
     0
291
     0
 45
0.0
1001
ACAD
1000
AcDbSavedByObjectVersion
1070
     0
  0
VISUALSTYLE
  5
35
102
{ACAD_REACTORS
330
2A
102
}
330
2A
100
AcDbVisualStyle
  2
Dim
 70
    11
 71
     2
 72
     2
 73
     0
 90
        0
 40
-0.6
 41
-30.0
 62
     5
 63
     7
421
 16777215
 74
     1
 91
        4
 64
     7
 65
   257
 75
     1
175
     1
 42
1.0
 92
        8
 66
     7
 43
1.0
 76
     1
 77
     6
 78
     2
 67
     7
 79
     5
170
     0
171
     0
290
     0
174
     0
 93
        1
 44
-50.0
173
     0
291
     1
 45
0.0
1001
ACAD
1000
AcDbSavedByObjectVersion
1070
     0
  0
VISUALSTYLE
  5
39
102
{ACAD_REACTORS
330
2A
102
}
330
2A
100
AcDbVisualStyle
  2
Facepattern
 70
    15
 71
     2
 72
     2
 73
     0
 90
        0
 40
-0.6
 41
-30.0
 62
     5
 63
     7
421
 16777215
 74
     1
 91
        4
 64
     7
 65
   257
 75
     1
175
     1
 42
1.0
 92
        8
 66
     7
 43
1.0
 76
     1
 77
     6
 78
     2
 67
     7
 79
     5
170
     0
171
     0
290
     0
174
     0
 93
        1
 44
0.0
173
     0
291
     1
 45
0.0
1001
ACAD
1000
AcDbSavedByObjectVersion
1070
     0
  0
VISUALSTYLE
  5
2B
102
{ACAD_REACTORS
330
2A
102
}
330
2A
100
AcDbVisualStyle
  2
Flat
 70
     0
 71
     2
 72
     1
 73
     1
 90
        2
 40
-0.6
 41
30.0
 62
     5
 63
     7
421
 16777215
 74
     0
 91
        4
 64
     7
 65
   257
 75
     1
175
     1
 42
1.0
 92
        8
 66
     7
 43
1.0
 76
     1
 77
     6
 78
     2
 67
     7
 79
     5
170
     0
171
     0
290
     0
174
     0
 93
       13
 44
0.0
173
     0
291
     1
 45
0.0
1001
ACAD
1000
AcDbSavedByObjectVersion
1070
     0
  0
VISUALSTYLE
  5
2C
102
{ACAD_REACTORS
330
2A
102
}
330
2A
100
AcDbVisualStyle
  2
FlatWithEdges
 70
     1
 71
     2
 72
     1
 73
     1
 90
        2
 40
-0.6
 41
30.0
 62
     5
 63
     7
421
 16777215
 74
     1
 91
        4
 64
     7
 65
   257
 75
     1
175
     1
 42
1.0
 92
        0
 66
   257
 43
1.0
 76
     1
 77
     6
 78
     2
 67
     7
 79
     5
170
     0
171
     0
290
     0
174
     0
 93
       13
 44
0.0
173
     0
291
     1
 45
0.0
1001
ACAD
1000
AcDbSavedByObjectVersion
1070
     0
  0
VISUALSTYLE
  5
2D
102
{ACAD_REACTORS
330
2A
102
}
330
2A
100
AcDbVisualStyle
  2
Gouraud
 70
     2
 71
     2
 72
     2
 73
     1
 90
        2
 40
-0.6
 41
30.0
 62
     5
 63
     7
421
 16777215
 74
     0
 91
        4
 64
     7
 65
   257
 75
     1
175
     1
 42
1.0
 92
        0
 66
     7
 43
1.0
 76
     1
 77
     6
 78
     2
 67
     7
 79
     5
170
     0
171
     0
290
     0
174
     0
 93
       13
 44
0.0
173
     0
291
     1
 45
0.0
1001
ACAD
1000
AcDbSavedByObjectVersion
1070
     0
  0
VISUALSTYLE
  5
2E
102
{ACAD_REACTORS
330
2A
102
}
330
2A
100
AcDbVisualStyle
  2
GouraudWithEdges
 70
     3
 71
     2
 72
     2
 73
     1
 90
        2
 40
-0.6
 41
30.0
 62
     5
 63
     7
421
 16777215
 74
     1
 91
        4
 64
     7
 65
   257
 75
     1
175
     1
 42
1.0
 92
        0
 66
   257
 43
1.0
 76
     1
 77
     6
 78
     2
 67
     7
 79
     5
170
     0
171
     0
290
     0
174
     0
 93
       13
 44
0.0
173
     0
291
     1
 45
0.0
1001
ACAD
1000
AcDbSavedByObjectVersion
1070
     0
  0
VISUALSTYLE
  5
38
102
{ACAD_REACTORS
330
2A
102
}
330
2A
100
AcDbVisualStyle
  2
Linepattern
 70
    14
 71
     2
 72
     2
 73
     0
 90
        0
 40
-0.6
 41
-30.0
 62
     5
 63
     7
421
 16777215
 74
     1
 91
        4
 64
     7
 65
   257
 75
     7
175
     7
 42
1.0
 92
        8
 66
     7
 43
1.0
 76
     1
 77
     6
 78
     2
 67
     7
 79
     5
170
     0
171
     0
290
     0
174
     0
 93
        1
 44
0.0
173
     0
291
     1
 45
0.0
1001
ACAD
1000
AcDbSavedByObjectVersion
1070
     0
  0
VISUALSTYLE
  5
33
102
{ACAD_REACTORS
330
2A
102
}
330
2A
100
AcDbVisualStyle
  2
Realistic
 70
     8
 71
     2
 72
     2
 73
     0
 90
        0
 40
-0.6
 41
-30.0
 62
     5
 63
     7
421
 16777215
 74
     1
 91
        0
 64
     7
 65
   257
 75
     1
175
     1
 42
1.0
 92
        8
 66
     8
424
  7895160
 43
1.0
 76
     1
 77
     6
 78
     2
 67
     7
 79
     5
170
     0
171
     0
290
     0
174
     0
 93
       13
 44
0.0
173
     0
291
     0
 45
0.0
1001
ACAD
1000
AcDbSavedByObjectVersion
1070
     0
  0
VISUALSTYLE
  5
37
102
{ACAD_REACTORS
330
2A
102
}
330
2A
100
AcDbVisualStyle
  2
Thicken
 70
    13
 71
     2
 72
     2
 73
     0
 90
        0
 40
-0.6
 41
-30.0
 62
     5
 63
     7
421
 16777215
 74
     1
 91
        4
 64
     7
 65
   257
 75
     1
175
     1
 42
1.0
 92
       12
 66
     7
 43
1.0
 76
     1
 77
     6
 78
     2
 67
     7
 79
     5
170
     0
171
     0
290
     0
174
     0
 93
        1
 44
0.0
173
     0
291
     1
 45
0.0
1001
ACAD
1000
AcDbSavedByObjectVersion
1070
     0
  0
ENDSEC
  0
EOF
