  0
SECTION
  2
HEADER
  9
$ACADVER
  1
AC1018
  9
$ACADMAINTVER
 70
     0
  9
$DWGCODEPAGE
  3
ANSI_932
  9
$INSBASE
 10
0.0
 20
0.0
 30
0.0
  9
$EXTMIN
 10
1.000000000000000E+20
 20
1.000000000000000E+20
 30
1.000000000000000E+20
  9
$EXTMAX
 10
-1.000000000000000E+20
 20
-1.000000000000000E+20
 30
-1.000000000000000E+20
  9
$LIMMIN
 10
0.0
 20
0.0
  9
$LIMMAX
 10
12.0
 20
9.0
  9
$ORTHOMODE
 70
     0
  9
$REGENMODE
 70
     1
  9
$FILLMODE
 70
     1
  9
$QTEXTMODE
 70
     0
  9
$MIRRTEXT
 70
     1
  9
$LTSCALE
 40
1.0
  9
$ATTMODE
 70
     1
  9
$TEXTSIZE
 40
0.2
  9
$TRACEWID
 40
0.05
  9
$TEXTSTYLE
  7
Standard
  9
$CLAYER
  8
0
  9
$CELTYPE
  6
ByLayer
  9
$CECOLOR
 62
   256
  9
$CELTSCALE
 40
1.0
  9
$DISPSILH
 70
     0
  9
$DIMSCALE
 40
1.0
  9
$DIMASZ
 40
0.18
  9
$DIMEXO
 40
0.0625
  9
$DIMDLI
 40
0.38
  9
$DIMRND
 40
0.0
  9
$DIMDLE
 40
0.0
  9
$DIMEXE
 40
0.18
  9
$DIMTP
 40
0.0
  9
$DIMTM
 40
0.0
  9
$DIMTXT
 40
0.18
  9
$DIMCEN
 40
0.09
  9
$DIMTSZ
 40
0.0
  9
$DIMTOL
 70
     0
  9
$DIMLIM
 70
     0
  9
$DIMTIH
 70
     1
  9
$DIMTOH
 70
     1
  9
$DIMSE1
 70
     0
  9
$DIMSE2
 70
     0
  9
$DIMTAD
 70
     0
  9
$DIMZIN
 70
     0
  9
$DIMBLK
  1

  9
$DIMASO
 70
     1
  9
$DIMSHO
 70
     1
  9
$DIMPOST
  1

  9
$DIMAPOST
  1

  9
$DIMALT
 70
     0
  9
$DIMALTD
 70
     2
  9
$DIMALTF
 40
25.4
  9
$DIMLFAC
 40
1.0
  9
$DIMTOFL
 70
     0
  9
$DIMTVP
 40
0.0
  9
$DIMTIX
 70
     0
  9
$DIMSOXD
 70
     0
  9
$DIMSAH
 70
     0
  9
$DIMBLK1
  1

  9
$DIMBLK2
  1

  9
$DIMSTYLE
  2
Standard
  9
$DIMCLRD
 70
     0
  9
$DIMCLRE
 70
     0
  9
$DIMCLRT
 70
     0
  9
$DIMTFAC
 40
1.0
  9
$DIMGAP
 40
0.09
  9
$DIMJUST
 70
     0
  9
$DIMSD1
 70
     0
  9
$DIMSD2
 70
     0
  9
$DIMTOLJ
 70
     1
  9
$DIMTZIN
 70
     0
  9
$DIMALTZ
 70
     0
  9
$DIMALTTZ
 70
     0
  9
$DIMUPT
 70
     0
  9
$DIMDEC
 70
     4
  9
$DIMTDEC
 70
     4
  9
$DIMALTU
 70
     2
  9
$DIMALTTD
 70
     2
  9
$DIMTXSTY
  7
Standard
  9
$DIMAUNIT
 70
     0
  9
$DIMADEC
 70
     0
  9
$DIMALTRND
 40
0.0
  9
$DIMAZIN
 70
     0
  9
$DIMDSEP
 70
    46
  9
$DIMATFIT
 70
     3
  9
$DIMFRAC
 70
     0
  9
$DIMLDRBLK
  1

  9
$DIMLUNIT
 70
     2
  9
$DIMLWD
 70
    -2
  9
$DIMLWE
 70
    -2
  9
$DIMTMOVE
 70
     0
  9
$LUNITS
 70
     2
  9
$LUPREC
 70
     4
  9
$SKETCHINC
 40
0.1
  9
$FILLETRAD
 40
0.5
  9
$AUNITS
 70
     0
  9
$AUPREC
 70
     0
  9
$MENU
  1
.
  9
$ELEVATION
 40
0.0
  9
$PELEVATION
 40
0.0
  9
$THICKNESS
 40
0.0
  9
$LIMCHECK
 70
     0
  9
$CHAMFERA
 40
0.5
  9
$CHAMFERB
 40
0.5
  9
$CHAMFERC
 40
1.0
  9
$CHAMFERD
 40
0.0
  9
$SKPOLY
 70
     0
  9
$TDCREATE
 40
2458447.108632998
  9
$TDUCREATE
 40
2458446.733632998
  9
$TDUPDATE
 40
2458447.108633009
  9
$TDUUPDATE
 40
2458446.733633009
  9
$TDINDWG
 40
0.0000000116
  9
$TDUSRTIMER
 40
0.0000000116
  9
$USRTIMER
 70
     1
  9
$ANGBASE
 50
0.0
  9
$ANGDIR
 70
     0
  9
$PDMODE
 70
     0
  9
$PDSIZE
 40
0.0
  9
$PLINEWID
 40
0.0
  9
$SPLFRAME
 70
     0
  9
$SPLINETYPE
 70
     6
  9
$SPLINESEGS
 70
     8
  9
$HANDSEED
  5
DB
  9
$SURFTAB1
 70
     6
  9
$SURFTAB2
 70
     6
  9
$SURFTYPE
 70
     6
  9
$SURFU
 70
     6
  9
$SURFV
 70
     6
  9
$UCSBASE
  2

  9
$UCSNAME
  2

  9
$UCSORG
 10
0.0
 20
0.0
 30
0.0
  9
$UCSXDIR
 10
1.0
 20
0.0
 30
0.0
  9
$UCSYDIR
 10
0.0
 20
1.0
 30
0.0
  9
$UCSORTHOREF
  2

  9
$UCSORTHOVIEW
 70
     0
  9
$UCSORGTOP
 10
0.0
 20
0.0
 30
0.0
  9
$UCSORGBOTTOM
 10
0.0
 20
0.0
 30
0.0
  9
$UCSORGLEFT
 10
0.0
 20
0.0
 30
0.0
  9
$UCSORGRIGHT
 10
0.0
 20
0.0
 30
0.0
  9
$UCSORGFRONT
 10
0.0
 20
0.0
 30
0.0
  9
$UCSORGBACK
 10
0.0
 20
0.0
 30
0.0
  9
$PUCSBASE
  2

  9
$PUCSNAME
  2

  9
$PUCSORG
 10
0.0
 20
0.0
 30
0.0
  9
$PUCSXDIR
 10
1.0
 20
0.0
 30
0.0
  9
$PUCSYDIR
 10
0.0
 20
1.0
 30
0.0
  9
$PUCSORTHOREF
  2

  9
$PUCSORTHOVIEW
 70
     0
  9
$PUCSORGTOP
 10
0.0
 20
0.0
 30
0.0
  9
$PUCSORGBOTTOM
 10
0.0
 20
0.0
 30
0.0
  9
$PUCSORGLEFT
 10
0.0
 20
0.0
 30
0.0
  9
$PUCSORGRIGHT
 10
0.0
 20
0.0
 30
0.0
  9
$PUCSORGFRONT
 10
0.0
 20
0.0
 30
0.0
  9
$PUCSORGBACK
 10
0.0
 20
0.0
 30
0.0
  9
$USERI1
 70
     0
  9
$USERI2
 70
     0
  9
$USERI3
 70
     0
  9
$USERI4
 70
     0
  9
$USERI5
 70
     0
  9
$USERR1
 40
0.0
  9
$USERR2
 40
0.0
  9
$USERR3
 40
0.0
  9
$USERR4
 40
0.0
  9
$USERR5
 40
0.0
  9
$WORLDVIEW
 70
     1
  9
$SHADEDGE
 70
     3
  9
$SHADEDIF
 70
    70
  9
$TILEMODE
 70
     1
  9
$MAXACTVP
 70
    64
  9
$PINSBASE
 10
0.0
 20
0.0
 30
0.0
  9
$PLIMCHECK
 70
     0
  9
$PEXTMIN
 10
1.000000000000000E+20
 20
1.000000000000000E+20
 30
1.000000000000000E+20
  9
$PEXTMAX
 10
-1.000000000000000E+20
 20
-1.000000000000000E+20
 30
-1.000000000000000E+20
  9
$PLIMMIN
 10
0.0
 20
0.0
  9
$PLIMMAX
 10
12.0
 20
9.0
  9
$UNITMODE
 70
     0
  9
$VISRETAIN
 70
     1
  9
$PLINEGEN
 70
     0
  9
$PSLTSCALE
 70
     1
  9
$TREEDEPTH
 70
  3020
  9
$CMLSTYLE
  2
Standard
  9
$CMLJUST
 70
     0
  9
$CMLSCALE
 40
1.0
  9
$PROXYGRAPHICS
 70
     1
  9
$MEASUREMENT
 70
     0
  9
$CELWEIGHT
370
    -1
  9
$ENDCAPS
280
     0
  9
$JOINSTYLE
280
     0
  9
$LWDISPLAY
290
     1
  9
$INSUNITS
 70
     1
  9
$HYPERLINKBASE
  1

  9
$STYLESHEET
  1

  9
$XEDIT
290
     1
  9
$CEPSNTYPE
380
     0
  9
$PSTYLEMODE
290
     1
  9
$FINGERPRINTGUID
  2
{BCAAFF1B-3F89-4404-A94D-43BFB2861D78}
  9
$VERSIONGUID
  2
{FAEB1C32-E019-11D5-929B-00C0DF256EC4}
  9
$EXTNAMES
290
     1
  9
$PSVPSCALE
 40
0.0
  9
$OLESTARTUP
290
     0
  9
$SORTENTS
280
   127
  9
$INDEXCTL
280
     0
  9
$HIDETEXT
280
     1
  9
$XCLIPFRAME
290
     0
  9
$HALOGAP
280
     0
  9
$OBSCOLOR
 70
   257
  9
$OBSLTYPE
280
     0
  9
$INTERSECTIONDISPLAY
280
     0
  9
$INTERSECTIONCOLOR
 70
   257
  9
$DIMASSOC
280
     2
  9
$PROJECTNAME
  1

  0
ENDSEC
  0
SECTION
  2
CLASSES
  0
CLASS
  1
ACDBDICTIONARYWDFLT
  2
AcDbDictionaryWithDefault
  3
ObjectDBX Classes
 90
        0
 91
        3
280
     0
281
     0
  0
CLASS
  1
VISUALSTYLE
  2
AcDbVisualStyle
  3
ObjectDBX Classes
 90
     4095
 91
        3
280
     0
281
     0
  0
ENDSEC
  0
SECTION
  2
TABLES
  0
TABLE
  2
VPORT
  5
8
330
0
100
AcDbSymbolTable
 70
     1
  0
VPORT
  5
29
330
8
100
AcDbSymbolTableRecord
100
AcDbViewportTableRecord
  2
*Active
 70
     0
 10
0.0
 20
0.0
 11
1.0
 21
1.0
 12
0.0
 22
0.0
 13
0.0
 23
0.0
 14
0.5
 24
0.5
 15
0.5
 25
0.5
 16
0.0
 26
0.0
 36
1.0
 17
372.5001615502802
 27
-300.0001462926312
 37
0.0
 40
600.0002925852624
 41
1.241666599678687
 42
50.0
 43
0.0
 44
0.0
 50
0.0
 51
0.0
 71
     0
 72
   100
 73
     1
 74
     3
 75
     0
 76
     0
 77
     0
 78
     0
281
     0
 65
     1
110
0.0
120
0.0
130
0.0
111
1.0
121
0.0
131
0.0
112
0.0
122
1.0
132
0.0
 79
     0
146
0.0
  0
ENDTAB
  0
TABLE
  2
LTYPE
  5
5
330
0
100
AcDbSymbolTable
 70
     1
  0
LTYPE
  5
14
330
5
100
AcDbSymbolTableRecord
100
AcDbLinetypeTableRecord
  2
ByBlock
 70
     0
  3

 72
    65
 73
     0
 40
0.0
  0
LTYPE
  5
15
330
5
100
AcDbSymbolTableRecord
100
AcDbLinetypeTableRecord
  2
ByLayer
 70
     0
  3

 72
    65
 73
     0
 40
0.0
  0
LTYPE
  5
16
330
5
100
AcDbSymbolTableRecord
100
AcDbLinetypeTableRecord
  2
Continuous
 70
     0
  3
Solid line
 72
    65
 73
     0
 40
0.0
  0
ENDTAB
  0
TABLE
  2
LAYER
  5
2
330
0
100
AcDbSymbolTable
 70
     2
  0
LAYER
  5
10
330
2
100
AcDbSymbolTableRecord
100
AcDbLayerTableRecord
  2
0
 70
     0
 62
     7
  6
Continuous
370
    -3
390
F
  0
LAYER
  5
3B
330
2
100
AcDbSymbolTableRecord
100
AcDbLayerTableRecord
  2
\U+30EC\U+30A4\U+30E4\U+30FC 1
 70
     0
 62
     7
  6
Continuous
370
    -3
390
F
  0
ENDTAB
  0
TABLE
  2
STYLE
  5
3
330
0
100
AcDbSymbolTable
 70
     1
  0
STYLE
  5
11
330
3
100
AcDbSymbolTableRecord
100
AcDbTextStyleTableRecord
  2
Standard
 70
     0
 40
0.0
 41
1.0
 50
0.0
 71
     0
 42
0.2
  3
txt
  4

  0
ENDTAB
  0
TABLE
  2
VIEW
  5
6
330
0
100
AcDbSymbolTable
 70
     0
  0
ENDTAB
  0
TABLE
  2
UCS
  5
7
330
0
100
AcDbSymbolTable
 70
     0
  0
ENDTAB
  0
TABLE
  2
APPID
  5
9
330
0
100
AcDbSymbolTable
 70
     1
  0
APPID
  5
12
330
9
100
AcDbSymbolTableRecord
100
AcDbRegAppTableRecord
  2
ACAD
 70
     0
  0
ENDTAB
  0
TABLE
  2
DIMSTYLE
  5
A
330
0
100
AcDbSymbolTable
 70
     1
100
AcDbDimStyleTable
  0
DIMSTYLE
105
27
330
A
100
AcDbSymbolTableRecord
100
AcDbDimStyleTableRecord
  2
Standard
 70
     0
340
11
  0
ENDTAB
  0
TABLE
  2
BLOCK_RECORD
  5
1
330
0
100
AcDbSymbolTable
 70
     1
  0
BLOCK_RECORD
  5
1F
330
1
100
AcDbSymbolTableRecord
100
AcDbBlockTableRecord
  2
*Model_Space
340
22
  0
BLOCK_RECORD
  5
1B
330
1
100
AcDbSymbolTableRecord
100
AcDbBlockTableRecord
  2
*Paper_Space
340
1E
  0
BLOCK_RECORD
  5
23
330
1
100
AcDbSymbolTableRecord
100
AcDbBlockTableRecord
  2
*Paper_Space0
340
26
  0
ENDTAB
  0
ENDSEC
  0
SECTION
  2
BLOCKS
  0
BLOCK
  5
20
330
1F
100
AcDbEntity
  8
0
100
AcDbBlockBegin
  2
*Model_Space
 70
     0
 71
     0
 10
0.0
 20
0.0
 30
0.0
  3
*Model_Space
  1

  0
ENDBLK
  5
21
330
1F
100
AcDbEntity
  8
0
100
AcDbBlockEnd
  0
BLOCK
  5
1C
330
1B
100
AcDbEntity
 67
     1
  8
0
100
AcDbBlockBegin
  2
*Paper_Space
 70
     0
 71
     0
 10
0.0
 20
0.0
 30
0.0
  3
*Paper_Space
  1

  0
ENDBLK
  5
1D
330
1B
100
AcDbEntity
 67
     1
  8
0
100
AcDbBlockEnd
  0
BLOCK
  5
24
330
23
100
AcDbEntity
  8
0
100
AcDbBlockBegin
  2
*Paper_Space0
 70
     0
 71
     0
 10
0.0
 20
0.0
 30
0.0
  3
*Paper_Space0
  1

  0
ENDBLK
  5
25
330
23
100
AcDbEntity
  8
0
100
AcDbBlockEnd
  0
ENDSEC
  0
SECTION
  2
ENTITIES
  0
SPLINE
  5
3C
330
1F
100
AcDbEntity
  8
\U+30EC\U+30A4\U+30E4\U+30FC 1
 62
   250
420
  3288107
370
    35
100
AcDbSpline
210
0.0
220
0.0
230
1.0
 70
    11
 71
     3
 72
   125
 73
   121
 74
     0
 42
0.0000000001
 43
0.0000000001
 40
0.0
 40
0.0
 40
0.0
 40
0.0
 40
1.0
 40
1.0
 40
1.0
 40
2.0
 40
2.0
 40
2.0
 40
3.0
 40
3.0
 40
3.0
 40
4.0
 40
4.0
 40
4.0
 40
5.0
 40
5.0
 40
5.0
 40
6.0
 40
6.0
 40
6.0
 40
7.0
 40
7.0
 40
7.0
 40
8.0
 40
8.0
 40
8.0
 40
9.0
 40
9.0
 40
9.0
 40
10.0
 40
10.0
 40
10.0
 40
11.0
 40
11.0
 40
11.0
 40
12.0
 40
12.0
 40
12.0
 40
13.0
 40
13.0
 40
13.0
 40
14.0
 40
14.0
 40
14.0
 40
15.0
 40
15.0
 40
15.0
 40
16.0
 40
16.0
 40
16.0
 40
17.0
 40
17.0
 40
17.0
 40
18.0
 40
18.0
 40
18.0
 40
19.0
 40
19.0
 40
19.0
 40
20.0
 40
20.0
 40
20.0
 40
21.0
 40
21.0
 40
21.0
 40
22.0
 40
22.0
 40
22.0
 40
23.0
 40
23.0
 40
23.0
 40
24.0
 40
24.0
 40
24.0
 40
25.0
 40
25.0
 40
25.0
 40
26.0
 40
26.0
 40
26.0
 40
27.0
 40
27.0
 40
27.0
 40
28.0
 40
28.0
 40
28.0
 40
29.0
 40
29.0
 40
29.0
 40
30.0
 40
30.0
 40
30.0
 40
31.0
 40
31.0
 40
31.0
 40
32.0
 40
32.0
 40
32.0
 40
33.0
 40
33.0
 40
33.0
 40
34.0
 40
34.0
 40
34.0
 40
35.0
 40
35.0
 40
35.0
 40
36.0
 40
36.0
 40
36.0
 40
37.0
 40
37.0
 40
37.0
 40
38.0
 40
38.0
 40
38.0
 40
39.0
 40
39.0
 40
39.0
 40
40.0
 40
40.0
 40
40.0
 40
40.0
 10
6.763932683094081
 20
-489.1456594784502
 30
0.0
 10
6.763932683094081
 20
-489.1456594784502
 30
0.0
 10
6.763932683094081
 20
-394.146399783105
 30
0.0
 10
6.763932683094081
 20
-394.146399783105
 30
0.0
 10
6.763932683094081
 20
-394.146399783105
 30
0.0
 10
12.36393908866081
 20
-394.146399783105
 30
0.0
 10
12.36393908866081
 20
-394.146399783105
 30
0.0
 10
12.36393908866081
 20
-394.146399783105
 30
0.0
 10
12.36393908866081
 20
-294.1455471627511
 30
0.0
 10
12.36393908866081
 20
-294.1455471627511
 30
0.0
 10
12.36393908866081
 20
-294.1455471627511
 30
0.0
 10
6.763932683094081
 20
-294.1455471627511
 30
0.0
 10
6.763932683094081
 20
-294.1455471627511
 30
0.0
 10
6.763932683094081
 20
-294.1455471627511
 30
0.0
 10
6.763932683094081
 20
-199.1455984478544
 30
0.0
 10
6.763932683094081
 20
-199.1455984478544
 30
0.0
 10
6.763932683094081
 20
-199.1455984478544
 30
0.0
 10
71.76414237654834
 20
-199.1455984478544
 30
0.0
 10
71.76379786677255
 20
-199.146287467406
 30
0.0
 10
71.76379786677255
 20
-199.146287467406
 30
0.0
 10
71.76379786677255
 20
-204.7459493631969
 30
0.0
 10
71.76379786677255
 20
-204.7459493631969
 30
0.0
 10
71.76379786677255
 20
-204.7459493631969
 30
0.0
 10
171.7639614675749
 20
-204.7459493631969
 30
0.0
 10
171.7639614675749
 20
-204.7459493631969
 30
0.0
 10
171.7639614675749
 20
-204.7459493631969
 30
0.0
 10
171.7639614675749
 20
-199.146287467406
 30
0.0
 10
171.7639614675749
 20
-199.146287467406
 30
0.0
 10
171.7639614675749
 20
-199.146287467406
 30
0.0
 10
271.7641250683772
 20
-199.146287467406
 30
0.0
 10
271.7641250683772
 20
-199.146287467406
 30
0.0
 10
271.7641250683772
 20
-199.146287467406
 30
0.0
 10
271.7641250683772
 20
-204.7459493631969
 30
0.0
 10
271.7641250683772
 20
-204.7459493631969
 30
0.0
 10
271.7641250683772
 20
-204.7459493631969
 30
0.0
 10
371.7642886691796
 20
-204.7459493631969
 30
0.0
 10
371.7642886691796
 20
-204.7459493631969
 30
0.0
 10
371.7642886691796
 20
-204.7459493631969
 30
0.0
 10
371.7642886691796
 20
-199.146287467406
 30
0.0
 10
371.7642886691796
 20
-199.146287467406
 30
0.0
 10
371.7642886691796
 20
-199.146287467406
 30
0.0
 10
471.7644522699819
 20
-199.146287467406
 30
0.0
 10
471.7644522699819
 20
-199.146287467406
 30
0.0
 10
471.7644522699819
 20
-199.146287467406
 30
0.0
 10
471.7644522699819
 20
-204.7459493631969
 30
0.0
 10
471.7644522699819
 20
-204.7459493631969
 30
0.0
 10
471.7644522699819
 20
-204.7459493631969
 30
0.0
 10
571.7646158707843
 20
-204.7459493631969
 30
0.0
 10
571.7646158707843
 20
-204.7459493631969
 30
0.0
 10
571.7646158707843
 20
-204.7459493631969
 30
0.0
 10
571.7646158707843
 20
-199.146287467406
 30
0.0
 10
571.7646158707843
 20
-199.146287467406
 30
0.0
 10
571.7646158707843
 20
-199.146287467406
 30
0.0
 10
671.7647794715866
 20
-199.146287467406
 30
0.0
 10
671.7647794715866
 20
-199.146287467406
 30
0.0
 10
671.7647794715866
 20
-199.146287467406
 30
0.0
 10
671.7647794715866
 20
-204.7459493631969
 30
0.0
 10
671.7647794715866
 20
-204.7459493631969
 30
0.0
 10
671.7647794715866
 20
-204.7459493631969
 30
0.0
 10
736.7644724003771
 20
-204.7459493631969
 30
0.0
 10
736.7644724003771
 20
-204.7459493631969
 30
0.0
 10
736.7644724003771
 20
-204.7459493631969
 30
0.0
 10
736.7644724003771
 20
-294.1455471627511
 30
0.0
 10
736.7644724003771
 20
-294.1455471627511
 30
0.0
 10
736.7644724003771
 20
-294.1455471627511
 30
0.0
 10
731.1644659948104
 20
-294.1455471627511
 30
0.0
 10
731.1644659948104
 20
-294.1455471627511
 30
0.0
 10
731.1644659948104
 20
-294.1455471627511
 30
0.0
 10
731.1644659948104
 20
-394.1457107635534
 30
0.0
 10
731.1644659948104
 20
-394.1457107635534
 30
0.0
 10
731.1644659948104
 20
-394.1457107635534
 30
0.0
 10
736.7644724003771
 20
-394.1457107635534
 30
0.0
 10
736.7644724003771
 20
-394.1457107635534
 30
0.0
 10
736.7644724003771
 20
-394.1457107635534
 30
0.0
 10
736.7644724003771
 20
-483.5453085631077
 30
0.0
 10
736.7644724003771
 20
-483.5459975826593
 30
0.0
 10
736.7644724003771
 20
-483.5459975826593
 30
0.0
 10
671.7644349618108
 20
-483.5459975826593
 30
0.0
 10
671.7644349618108
 20
-483.5459975826593
 30
0.0
 10
671.7644349618108
 20
-483.5459975826593
 30
0.0
 10
671.7644349618108
 20
-489.1456594784502
 30
0.0
 10
671.7644349618108
 20
-489.1456594784502
 30
0.0
 10
671.7644349618108
 20
-489.1456594784502
 30
0.0
 10
571.7642713610085
 20
-489.1456594784502
 30
0.0
 10
571.7642713610085
 20
-489.1456594784502
 30
0.0
 10
571.7642713610085
 20
-489.1456594784502
 30
0.0
 10
571.7642713610085
 20
-483.5459975826593
 30
0.0
 10
571.7642713610085
 20
-483.5459975826593
 30
0.0
 10
571.7642713610085
 20
-483.5459975826593
 30
0.0
 10
471.7641077602061
 20
-483.5459975826593
 30
0.0
 10
471.7641077602061
 20
-483.5459975826593
 30
0.0
 10
471.7641077602061
 20
-483.5459975826593
 30
0.0
 10
471.7641077602061
 20
-489.1456594784502
 30
0.0
 10
471.7641077602061
 20
-489.1456594784502
 30
0.0
 10
471.7641077602061
 20
-489.1456594784502
 30
0.0
 10
371.7639441594038
 20
-489.1456594784502
 30
0.0
 10
371.7639441594038
 20
-489.1456594784502
 30
0.0
 10
371.7639441594038
 20
-489.1456594784502
 30
0.0
 10
371.7639441594038
 20
-483.5459975826593
 30
0.0
 10
371.7639441594038
 20
-483.5459975826593
 30
0.0
 10
371.7639441594038
 20
-483.5459975826593
 30
0.0
 10
271.7637805586014
 20
-483.5459975826593
 30
0.0
 10
271.7637805586014
 20
-483.5459975826593
 30
0.0
 10
271.7637805586014
 20
-483.5459975826593
 30
0.0
 10
271.7637805586014
 20
-489.1456594784502
 30
0.0
 10
271.7637805586014
 20
-489.1456594784502
 30
0.0
 10
271.7637805586014
 20
-489.1456594784502
 30
0.0
 10
171.7636169577991
 20
-489.1456594784502
 30
0.0
 10
171.7636169577991
 20
-489.1456594784502
 30
0.0
 10
171.7636169577991
 20
-489.1456594784502
 30
0.0
 10
171.7636169577991
 20
-483.5459975826593
 30
0.0
 10
171.7636169577991
 20
-483.5459975826593
 30
0.0
 10
171.7636169577991
 20
-483.5459975826593
 30
0.0
 10
71.76345335699675
 20
-483.5459975826593
 30
0.0
 10
71.76345335699675
 20
-483.5459975826593
 30
0.0
 10
71.76345335699675
 20
-483.5459975826593
 30
0.0
 10
71.76345335699675
 20
-489.1456594784502
 30
0.0
 10
71.76345335699675
 20
-489.1456594784502
 30
0.0
 10
71.76345335699675
 20
-489.1456594784502
 30
0.0
 10
6.763932683094081
 20
-489.1456594784502
 30
0.0
 10
6.763932683094081
 20
-489.1456594784502
 30
0.0
  0
SPLINE
  5
3D
330
1F
100
AcDbEntity
  8
\U+30EC\U+30A4\U+30E4\U+30FC 1
 62
   250
420
  3288107
370
    35
100
AcDbSpline
210
0.0
220
0.0
230
1.0
 70
    11
 71
     3
 72
    41
 73
    37
 74
     0
 42
0.0000000001
 43
0.0000000001
 40
0.0
 40
0.0
 40
0.0
 40
0.0
 40
1.0
 40
1.0
 40
1.0
 40
2.0
 40
2.0
 40
2.0
 40
3.0
 40
3.0
 40
3.0
 40
4.0
 40
4.0
 40
4.0
 40
5.0
 40
5.0
 40
5.0
 40
6.0
 40
6.0
 40
6.0
 40
7.0
 40
7.0
 40
7.0
 40
8.0
 40
8.0
 40
8.0
 40
9.0
 40
9.0
 40
9.0
 40
10.0
 40
10.0
 40
10.0
 40
11.0
 40
11.0
 40
11.0
 40
12.0
 40
12.0
 40
12.0
 40
12.0
 10
165.261683959198
 20
-233.2851391901515
 30
0.0
 10
165.2630619983012
 20
-233.2389748801948
 30
0.0
 10
165.2637510178528
 20
-233.1928105702382
 30
0.0
 10
165.2637510178528
 20
-233.1466462602815
 30
0.0
 10
165.2637510178528
 20
-230.9369605583248
 30
0.0
 10
163.6969205575318
 20
-229.1461987437364
 30
0.0
 10
161.7635316957637
 20
-229.1461987437364
 30
0.0
 10
159.8308318535472
 20
-229.1461987437364
 30
0.0
 10
158.2640013932262
 20
-230.9369605583248
 30
0.0
 10
158.2640013932262
 20
-233.1466462602815
 30
0.0
 10
158.2640013932262
 20
-233.1928105702382
 30
0.0
 10
158.2645181578899
 20
-233.2389748801948
 30
0.0
 10
158.2657239421052
 20
-233.2851391901515
 30
0.0
 10
135.8767226326638
 20
-235.0662547310177
 30
0.0
 10
118.2638325999725
 20
-253.7993182997102
 30
0.0
 10
118.2638325999725
 20
-276.6465176109605
 30
0.0
 10
118.2638325999725
 20
-299.4930279026593
 30
0.0
 10
135.8774116522154
 20
-318.2267804909033
 30
0.0
 10
158.266068451881
 20
-320.0078960317695
 30
0.0
 10
158.2645181578899
 20
-320.0533713221746
 30
0.0
 10
158.2640013932262
 20
-320.1002246516829
 30
0.0
 10
158.2640013932262
 20
-320.1463889616396
 30
0.0
 10
158.2640013932262
 20
-322.3553856440446
 30
0.0
 10
159.8308318535472
 20
-324.1461474586331
 30
0.0
 10
161.7635316957637
 20
-324.1461474586331
 30
0.0
 10
163.6969205575318
 20
-324.1461474586331
 30
0.0
 10
165.2637510178528
 20
-322.3553856440446
 30
0.0
 10
165.2637510178528
 20
-320.1463889616396
 30
0.0
 10
165.2637510178528
 20
-320.1002246516829
 30
0.0
 10
165.2630619983012
 20
-320.0533713221746
 30
0.0
 10
165.2611671945343
 20
-320.0078960317695
 30
0.0
 10
187.6499962490878
 20
-318.2267804909033
 30
0.0
 10
205.2637475562185
 20
-299.4930279026593
 30
0.0
 10
205.2637475562185
 20
-276.6465176109605
 30
0.0
 10
205.2637475562185
 20
-253.7993182997102
 30
0.0
 10
187.6503407588636
 20
-235.0662547310177
 30
0.0
 10
165.261683959198
 20
-233.2851391901515
 30
0.0
  0
SPLINE
  5
3E
330
1F
100
AcDbEntity
  8
\U+30EC\U+30A4\U+30E4\U+30FC 1
 62
   250
420
  3288107
370
    35
100
AcDbSpline
210
0.0
220
0.0
230
1.0
 70
    11
 71
     3
 72
    41
 73
    37
 74
     0
 42
0.0000000001
 43
0.0000000001
 40
0.0
 40
0.0
 40
0.0
 40
0.0
 40
1.0
 40
1.0
 40
1.0
 40
2.0
 40
2.0
 40
2.0
 40
3.0
 40
3.0
 40
3.0
 40
4.0
 40
4.0
 40
4.0
 40
5.0
 40
5.0
 40
5.0
 40
6.0
 40
6.0
 40
6.0
 40
7.0
 40
7.0
 40
7.0
 40
8.0
 40
8.0
 40
8.0
 40
9.0
 40
9.0
 40
9.0
 40
10.0
 40
10.0
 40
10.0
 40
11.0
 40
11.0
 40
11.0
 40
12.0
 40
12.0
 40
12.0
 40
12.0
 10
95.26177614450184
 20
-368.2847399336383
 30
0.0
 10
95.26315418360501
 20
-368.2385756236816
 30
0.0
 10
95.26384320315661
 20
-368.1924113137249
 30
0.0
 10
95.26384320315661
 20
-368.1462470037682
 30
0.0
 10
95.26384320315661
 20
-365.9372503213631
 30
0.0
 10
93.69701274283564
 20
-364.1464885067747
 30
0.0
 10
91.76362388106753
 20
-364.1464885067747
 30
0.0
 10
89.83092403885102
 20
-364.1464885067747
 30
0.0
 10
88.26409357853005
 20
-365.9372503213631
 30
0.0
 10
88.26409357853005
 20
-368.1462470037682
 30
0.0
 10
88.26409357853005
 20
-368.1924113137249
 30
0.0
 10
88.26478259808164
 20
-368.2385756236816
 30
0.0
 10
88.26581612740902
 20
-368.2847399336383
 30
0.0
 10
65.87698707285551
 20
-370.0658554745045
 30
0.0
 10
48.26375253038848
 20
-388.7989190431969
 30
0.0
 10
48.26375253038848
 20
-411.6461183544473
 30
0.0
 10
48.26375253038848
 20
-434.4933176656976
 30
0.0
 10
65.8773315826313
 20
-453.22638123439
 30
0.0
 10
88.26616063718483
 20
-455.0074967752562
 30
0.0
 10
88.26478259808164
 20
-455.0536610852129
 30
0.0
 10
88.26409357853005
 20
-455.0998253951696
 30
0.0
 10
88.26409357853005
 20
-455.1466787246779
 30
0.0
 10
88.26409357853005
 20
-457.3556754070829
 30
0.0
 10
89.83092403885102
 20
-459.1464372216714
 30
0.0
 10
91.76362388106753
 20
-459.1464372216714
 30
0.0
 10
93.69701274283564
 20
-459.1464372216714
 30
0.0
 10
95.26384320315661
 20
-457.3556754070829
 30
0.0
 10
95.26384320315661
 20
-455.1466787246779
 30
0.0
 10
95.26384320315661
 20
-455.0998253951696
 30
0.0
 10
95.26315418360501
 20
-455.0536610852129
 30
0.0
 10
95.26143163472604
 20
-455.0074967752562
 30
0.0
 10
117.6500884343917
 20
-453.22638123439
 30
0.0
 10
135.2638397415224
 20
-434.4933176656976
 30
0.0
 10
135.2638397415224
 20
-411.6461183544473
 30
0.0
 10
135.2638397415224
 20
-388.7989190431969
 30
0.0
 10
117.6504329441675
 20
-370.0658554745045
 30
0.0
 10
95.26177614450184
 20
-368.2847399336383
 30
0.0
  0
SPLINE
  5
3F
330
1F
100
AcDbEntity
  8
\U+30EC\U+30A4\U+30E4\U+30FC 1
 62
   250
420
  3288107
370
    35
100
AcDbSpline
210
0.0
220
0.0
230
1.0
 70
    11
 71
     3
 72
    41
 73
    37
 74
     0
 42
0.0000000001
 43
0.0000000001
 40
0.0
 40
0.0
 40
0.0
 40
0.0
 40
1.0
 40
1.0
 40
1.0
 40
2.0
 40
2.0
 40
2.0
 40
3.0
 40
3.0
 40
3.0
 40
4.0
 40
4.0
 40
4.0
 40
5.0
 40
5.0
 40
5.0
 40
6.0
 40
6.0
 40
6.0
 40
7.0
 40
7.0
 40
7.0
 40
8.0
 40
8.0
 40
8.0
 40
9.0
 40
9.0
 40
9.0
 40
10.0
 40
10.0
 40
10.0
 40
11.0
 40
11.0
 40
11.0
 40
12.0
 40
12.0
 40
12.0
 40
12.0
 10
235.2622807934457
 20
-368.2847399336383
 30
0.0
 10
235.2636588325489
 20
-368.2385756236816
 30
0.0
 10
235.2643478521005
 20
-368.1924113137249
 30
0.0
 10
235.2643478521005
 20
-368.1462470037682
 30
0.0
 10
235.2643478521005
 20
-365.9372503213631
 30
0.0
 10
233.6975173917795
 20
-364.1464885067747
 30
0.0
 10
231.7641285300114
 20
-364.1464885067747
 30
0.0
 10
229.8314286877949
 20
-364.1464885067747
 30
0.0
 10
228.264598227474
 20
-365.9372503213631
 30
0.0
 10
228.264598227474
 20
-368.1462470037682
 30
0.0
 10
228.264598227474
 20
-368.1924113137249
 30
0.0
 10
228.2652872470256
 20
-368.2385756236816
 30
0.0
 10
228.266320776353
 20
-368.2847399336383
 30
0.0
 10
205.8776639766873
 20
-370.0658554745045
 30
0.0
 10
188.2642571793324
 20
-388.7989190431969
 30
0.0
 10
188.2642571793324
 20
-411.6461183544473
 30
0.0
 10
188.2642571793324
 20
-434.4933176656976
 30
0.0
 10
205.8776639766873
 20
-453.22638123439
 30
0.0
 10
228.2666652861287
 20
-455.0074967752562
 30
0.0
 10
228.2652872470256
 20
-455.0536610852129
 30
0.0
 10
228.264598227474
 20
-455.0998253951696
 30
0.0
 10
228.264598227474
 20
-455.1466787246779
 30
0.0
 10
228.264598227474
 20
-457.3556754070829
 30
0.0
 10
229.8314286877949
 20
-459.1464372216714
 30
0.0
 10
231.7641285300114
 20
-459.1464372216714
 30
0.0
 10
233.6975173917795
 20
-459.1464372216714
 30
0.0
 10
235.2643478521005
 20
-457.3556754070829
 30
0.0
 10
235.2643478521005
 20
-455.1466787246779
 30
0.0
 10
235.2643478521005
 20
-455.0998253951696
 30
0.0
 10
235.2636588325489
 20
-455.0536610852129
 30
0.0
 10
235.2619362836699
 20
-455.0074967752562
 30
0.0
 10
257.6505930833356
 20
-453.22638123439
 30
0.0
 10
275.2643443904663
 20
-434.4933176656976
 30
0.0
 10
275.2643443904663
 20
-411.6461183544473
 30
0.0
 10
275.2643443904663
 20
-388.7989190431969
 30
0.0
 10
257.6509375931114
 20
-370.0658554745045
 30
0.0
 10
235.2622807934457
 20
-368.2847399336383
 30
0.0
  0
SPLINE
  5
40
330
1F
100
AcDbEntity
  8
\U+30EC\U+30A4\U+30E4\U+30FC 1
 62
   250
420
  3288107
370
    35
100
AcDbSpline
210
0.0
220
0.0
230
1.0
 70
    11
 71
     3
 72
    41
 73
    37
 74
     0
 42
0.0000000001
 43
0.0000000001
 40
0.0
 40
0.0
 40
0.0
 40
0.0
 40
1.0
 40
1.0
 40
1.0
 40
2.0
 40
2.0
 40
2.0
 40
3.0
 40
3.0
 40
3.0
 40
4.0
 40
4.0
 40
4.0
 40
5.0
 40
5.0
 40
5.0
 40
6.0
 40
6.0
 40
6.0
 40
7.0
 40
7.0
 40
7.0
 40
8.0
 40
8.0
 40
8.0
 40
9.0
 40
9.0
 40
9.0
 40
10.0
 40
10.0
 40
10.0
 40
11.0
 40
11.0
 40
11.0
 40
12.0
 40
12.0
 40
12.0
 40
12.0
 10
305.2621886081419
 20
-233.2851391901515
 30
0.0
 10
305.2635666472451
 20
-233.2389748801948
 30
0.0
 10
305.2642556667967
 20
-233.1928105702382
 30
0.0
 10
305.2642556667967
 20
-233.1466462602815
 30
0.0
 10
305.2642556667967
 20
-230.9369605583248
 30
0.0
 10
303.6974252064757
 20
-229.1461987437364
 30
0.0
 10
301.7640363447076
 20
-229.1461987437364
 30
0.0
 10
299.8311642476032
 20
-229.1461987437364
 30
0.0
 10
298.2645060421701
 20
-230.9369605583248
 30
0.0
 10
298.2645060421701
 20
-233.1466462602815
 30
0.0
 10
298.2645060421701
 20
-233.1928105702382
 30
0.0
 10
298.2651950617217
 20
-233.2389748801948
 30
0.0
 10
298.2662285910491
 20
-233.2851391901515
 30
0.0
 10
275.8775717913835
 20
-235.0662547310177
 30
0.0
 10
258.2641649940285
 20
-253.7993182997102
 30
0.0
 10
258.2641649940285
 20
-276.6465176109605
 30
0.0
 10
258.2641649940285
 20
-299.4930279026593
 30
0.0
 10
275.8775717913835
 20
-318.2267804909033
 30
0.0
 10
298.2665731008249
 20
-320.0078960317695
 30
0.0
 10
298.2651950617217
 20
-320.0533713221746
 30
0.0
 10
298.2645060421701
 20
-320.1002246516829
 30
0.0
 10
298.2645060421701
 20
-320.1463889616396
 30
0.0
 10
298.2645060421701
 20
-322.3553856440446
 30
0.0
 10
299.8311642476032
 20
-324.1461474586331
 30
0.0
 10
301.7640363447076
 20
-324.1461474586331
 30
0.0
 10
303.6974252064757
 20
-324.1461474586331
 30
0.0
 10
305.2642556667967
 20
-322.3553856440446
 30
0.0
 10
305.2642556667967
 20
-320.1463889616396
 30
0.0
 10
305.2642556667967
 20
-320.1002246516829
 30
0.0
 10
305.2635666472451
 20
-320.0533713221746
 30
0.0
 10
305.2618440983661
 20
-320.0078960317695
 30
0.0
 10
327.6505008980317
 20
-318.2267804909033
 30
0.0
 10
345.2642522051624
 20
-299.4930279026593
 30
0.0
 10
345.2642522051624
 20
-276.6465176109605
 30
0.0
 10
345.2642522051624
 20
-253.7993182997102
 30
0.0
 10
327.6508454078075
 20
-235.0662547310177
 30
0.0
 10
305.2621886081419
 20
-233.2851391901515
 30
0.0
  0
SPLINE
  5
41
330
1F
100
AcDbEntity
  8
\U+30EC\U+30A4\U+30E4\U+30FC 1
 62
   250
420
  3288107
370
    35
100
AcDbSpline
210
0.0
220
0.0
230
1.0
 70
    11
 71
     3
 72
    41
 73
    37
 74
     0
 42
0.0000000001
 43
0.0000000001
 40
0.0
 40
0.0
 40
0.0
 40
0.0
 40
1.0
 40
1.0
 40
1.0
 40
2.0
 40
2.0
 40
2.0
 40
3.0
 40
3.0
 40
3.0
 40
4.0
 40
4.0
 40
4.0
 40
5.0
 40
5.0
 40
5.0
 40
6.0
 40
6.0
 40
6.0
 40
7.0
 40
7.0
 40
7.0
 40
8.0
 40
8.0
 40
8.0
 40
9.0
 40
9.0
 40
9.0
 40
10.0
 40
10.0
 40
10.0
 40
11.0
 40
11.0
 40
11.0
 40
12.0
 40
12.0
 40
12.0
 40
12.0
 10
375.2624409326139
 20
-368.2854289531899
 30
0.0
 10
375.2638189717171
 20
-368.2392646432332
 30
0.0
 10
375.2645079912687
 20
-368.1931003332764
 30
0.0
 10
375.2645079912687
 20
-368.1469360233198
 30
0.0
 10
375.2645079912687
 20
-365.9372503213631
 30
0.0
 10
373.6976775309477
 20
-364.1464885067747
 30
0.0
 10
371.7642886691796
 20
-364.1464885067747
 30
0.0
 10
369.8315888269631
 20
-364.1464885067747
 30
0.0
 10
368.2647583666421
 20
-365.9372503213631
 30
0.0
 10
368.2647583666421
 20
-368.1469360233198
 30
0.0
 10
368.2647583666421
 20
-368.1931003332764
 30
0.0
 10
368.2654473861937
 20
-368.2392646432332
 30
0.0
 10
368.2664809155211
 20
-368.2854289531899
 30
0.0
 10
345.8778241158554
 20
-370.066544494056
 30
0.0
 10
328.2644173185005
 20
-388.7996080627485
 30
0.0
 10
328.2644173185005
 20
-411.6468073739989
 30
0.0
 10
328.2644173185005
 20
-434.4933176656976
 30
0.0
 10
345.8778241158554
 20
-453.2270702539416
 30
0.0
 10
368.2668254252969
 20
-455.0081857948078
 30
0.0
 10
368.2654473861937
 20
-455.0536610852129
 30
0.0
 10
368.2647583666421
 20
-455.1005144147212
 30
0.0
 10
368.2647583666421
 20
-455.1466787246779
 30
0.0
 10
368.2647583666421
 20
-457.3556754070829
 30
0.0
 10
369.8315888269631
 20
-459.1464372216714
 30
0.0
 10
371.7642886691796
 20
-459.1464372216714
 30
0.0
 10
373.6976775309477
 20
-459.1464372216714
 30
0.0
 10
375.2645079912687
 20
-457.3556754070829
 30
0.0
 10
375.2645079912687
 20
-455.1466787246779
 30
0.0
 10
375.2645079912687
 20
-455.1005144147212
 30
0.0
 10
375.2638189717171
 20
-455.0536610852129
 30
0.0
 10
375.2620964228381
 20
-455.0081857948078
 30
0.0
 10
397.6507532225037
 20
-453.2270702539416
 30
0.0
 10
415.2645045296344
 20
-434.4933176656976
 30
0.0
 10
415.2645045296344
 20
-411.6468073739989
 30
0.0
 10
415.2645045296344
 20
-388.7996080627485
 30
0.0
 10
397.6510977322795
 20
-370.066544494056
 30
0.0
 10
375.2624409326139
 20
-368.2854289531899
 30
0.0
  0
SPLINE
  5
42
330
1F
100
AcDbEntity
  8
\U+30EC\U+30A4\U+30E4\U+30FC 1
 62
   250
420
  3288107
370
    35
100
AcDbSpline
210
0.0
220
0.0
230
1.0
 70
    11
 71
     3
 72
    41
 73
    37
 74
     0
 42
0.0000000001
 43
0.0000000001
 40
0.0
 40
0.0
 40
0.0
 40
0.0
 40
1.0
 40
1.0
 40
1.0
 40
2.0
 40
2.0
 40
2.0
 40
3.0
 40
3.0
 40
3.0
 40
4.0
 40
4.0
 40
4.0
 40
5.0
 40
5.0
 40
5.0
 40
6.0
 40
6.0
 40
6.0
 40
7.0
 40
7.0
 40
7.0
 40
8.0
 40
8.0
 40
8.0
 40
9.0
 40
9.0
 40
9.0
 40
10.0
 40
10.0
 40
10.0
 40
11.0
 40
11.0
 40
11.0
 40
12.0
 40
12.0
 40
12.0
 40
12.0
 10
445.2626932570858
 20
-233.2851391901515
 30
0.0
 10
445.264071296189
 20
-233.2389748801948
 30
0.0
 10
445.2647603157406
 20
-233.1928105702382
 30
0.0
 10
445.2647603157406
 20
-233.1466462602815
 30
0.0
 10
445.2647603157406
 20
-230.9376495778764
 30
0.0
 10
443.6979298554196
 20
-229.1461987437364
 30
0.0
 10
441.7645409936515
 20
-229.1461987437364
 30
0.0
 10
439.831841151435
 20
-229.1461987437364
 30
0.0
 10
438.265010691114
 20
-230.9376495778764
 30
0.0
 10
438.265010691114
 20
-233.1466462602815
 30
0.0
 10
438.265010691114
 20
-233.1928105702382
 30
0.0
 10
438.2656997106656
 20
-233.2389748801948
 30
0.0
 10
438.266733239993
 20
-233.2851391901515
 30
0.0
 10
415.8780764403274
 20
-235.0662547310177
 30
0.0
 10
398.2646696429725
 20
-253.7993182997102
 30
0.0
 10
398.2646696429725
 20
-276.6465176109605
 30
0.0
 10
398.2646696429725
 20
-299.4937169222109
 30
0.0
 10
415.8780764403274
 20
-318.2267804909033
 30
0.0
 10
438.2670777497688
 20
-320.0078960317695
 30
0.0
 10
438.2656997106656
 20
-320.0540603417262
 30
0.0
 10
438.265010691114
 20
-320.1002246516829
 30
0.0
 10
438.265010691114
 20
-320.1470779811912
 30
0.0
 10
438.265010691114
 20
-322.3560746635962
 30
0.0
 10
439.831841151435
 20
-324.1468364781847
 30
0.0
 10
441.7645409936515
 20
-324.1468364781847
 30
0.0
 10
443.6979298554196
 20
-324.1468364781847
 30
0.0
 10
445.2647603157406
 20
-322.3560746635962
 30
0.0
 10
445.2647603157406
 20
-320.1470779811912
 30
0.0
 10
445.2647603157406
 20
-320.1002246516829
 30
0.0
 10
445.264071296189
 20
-320.0540603417262
 30
0.0
 10
445.26234874731
 20
-320.0078960317695
 30
0.0
 10
467.6510055469756
 20
-318.2267804909033
 30
0.0
 10
485.2647568541064
 20
-299.4937169222109
 30
0.0
 10
485.2647568541064
 20
-276.6465176109605
 30
0.0
 10
485.2647568541064
 20
-253.7993182997102
 30
0.0
 10
467.6513500567514
 20
-235.0662547310177
 30
0.0
 10
445.2626932570858
 20
-233.2851391901515
 30
0.0
  0
SPLINE
  5
43
330
1F
100
AcDbEntity
  8
\U+30EC\U+30A4\U+30E4\U+30FC 1
 62
   250
420
  3288107
370
    35
100
AcDbSpline
210
0.0
220
0.0
230
1.0
 70
    11
 71
     3
 72
    41
 73
    37
 74
     0
 42
0.0000000001
 43
0.0000000001
 40
0.0
 40
0.0
 40
0.0
 40
0.0
 40
1.0
 40
1.0
 40
1.0
 40
2.0
 40
2.0
 40
2.0
 40
3.0
 40
3.0
 40
3.0
 40
4.0
 40
4.0
 40
4.0
 40
5.0
 40
5.0
 40
5.0
 40
6.0
 40
6.0
 40
6.0
 40
7.0
 40
7.0
 40
7.0
 40
8.0
 40
8.0
 40
8.0
 40
9.0
 40
9.0
 40
9.0
 40
10.0
 40
10.0
 40
10.0
 40
11.0
 40
11.0
 40
11.0
 40
12.0
 40
12.0
 40
12.0
 40
12.0
 10
515.262601071782
 20
-368.2854289531899
 30
0.0
 10
515.2639791108852
 20
-368.2392646432332
 30
0.0
 10
515.2646681304368
 20
-368.1931003332764
 30
0.0
 10
515.2646681304368
 20
-368.1469360233198
 30
0.0
 10
515.2646681304368
 20
-365.9372503213631
 30
0.0
 10
513.6978376701157
 20
-364.1464885067747
 30
0.0
 10
511.7644488083477
 20
-364.1464885067747
 30
0.0
 10
509.8317489661312
 20
-364.1464885067747
 30
0.0
 10
508.2649185058102
 20
-365.9372503213631
 30
0.0
 10
508.2649185058102
 20
-368.1469360233198
 30
0.0
 10
508.2649185058102
 20
-368.1931003332764
 30
0.0
 10
508.2656075253618
 20
-368.2392646432332
 30
0.0
 10
508.2666410546892
 20
-368.2854289531899
 30
0.0
 10
485.8779842550235
 20
-370.066544494056
 30
0.0
 10
468.2645774576686
 20
-388.7996080627485
 30
0.0
 10
468.2645774576686
 20
-411.6468073739989
 30
0.0
 10
468.2645774576686
 20
-434.4933176656976
 30
0.0
 10
485.8779842550235
 20
-453.2270702539416
 30
0.0
 10
508.266985564465
 20
-455.0081857948078
 30
0.0
 10
508.2656075253618
 20
-455.0536610852129
 30
0.0
 10
508.2649185058102
 20
-455.1005144147212
 30
0.0
 10
508.2649185058102
 20
-455.1466787246779
 30
0.0
 10
508.2649185058102
 20
-457.3556754070829
 30
0.0
 10
509.8317489661312
 20
-459.1464372216714
 30
0.0
 10
511.7644488083477
 20
-459.1464372216714
 30
0.0
 10
513.6978376701157
 20
-459.1464372216714
 30
0.0
 10
515.2646681304368
 20
-457.3556754070829
 30
0.0
 10
515.2646681304368
 20
-455.1466787246779
 30
0.0
 10
515.2646681304368
 20
-455.1005144147212
 30
0.0
 10
515.2639791108852
 20
-455.0536610852129
 30
0.0
 10
515.2622565620062
 20
-455.0081857948078
 30
0.0
 10
537.6509133616718
 20
-453.2270702539416
 30
0.0
 10
555.2646646688025
 20
-434.4933176656976
 30
0.0
 10
555.2646646688025
 20
-411.6468073739989
 30
0.0
 10
555.2646646688025
 20
-388.7996080627485
 30
0.0
 10
537.6512578714476
 20
-370.066544494056
 30
0.0
 10
515.262601071782
 20
-368.2854289531899
 30
0.0
  0
SPLINE
  5
44
330
1F
100
AcDbEntity
  8
\U+30EC\U+30A4\U+30E4\U+30FC 1
 62
   250
420
  3288107
370
    35
100
AcDbSpline
210
0.0
220
0.0
230
1.0
 70
    11
 71
     3
 72
    41
 73
    37
 74
     0
 42
0.0000000001
 43
0.0000000001
 40
0.0
 40
0.0
 40
0.0
 40
0.0
 40
1.0
 40
1.0
 40
1.0
 40
2.0
 40
2.0
 40
2.0
 40
3.0
 40
3.0
 40
3.0
 40
4.0
 40
4.0
 40
4.0
 40
5.0
 40
5.0
 40
5.0
 40
6.0
 40
6.0
 40
6.0
 40
7.0
 40
7.0
 40
7.0
 40
8.0
 40
8.0
 40
8.0
 40
9.0
 40
9.0
 40
9.0
 40
10.0
 40
10.0
 40
10.0
 40
11.0
 40
11.0
 40
11.0
 40
12.0
 40
12.0
 40
12.0
 40
12.0
 10
585.2625088864781
 20
-233.2851391901515
 30
0.0
 10
585.2638869255813
 20
-233.2389748801948
 30
0.0
 10
585.264575945133
 20
-233.1928105702382
 30
0.0
 10
585.264575945133
 20
-233.1466462602815
 30
0.0
 10
585.264575945133
 20
-230.9376495778764
 30
0.0
 10
583.6977454848119
 20
-229.1461987437364
 30
0.0
 10
581.7643566230438
 20
-229.1461987437364
 30
0.0
 10
579.8316567808273
 20
-229.1461987437364
 30
0.0
 10
578.2648263205064
 20
-230.9376495778764
 30
0.0
 10
578.2648263205064
 20
-233.1466462602815
 30
0.0
 10
578.2648263205064
 20
-233.1928105702382
 30
0.0
 10
578.265515340058
 20
-233.2389748801948
 30
0.0
 10
578.2665488693854
 20
-233.2851391901515
 30
0.0
 10
555.8778920697197
 20
-235.0662547310177
 30
0.0
 10
538.2644852723648
 20
-253.7993182997102
 30
0.0
 10
538.2644852723648
 20
-276.6465176109605
 30
0.0
 10
538.2644852723648
 20
-299.4937169222109
 30
0.0
 10
555.8778920697197
 20
-318.2267804909033
 30
0.0
 10
578.2668933791612
 20
-320.0078960317695
 30
0.0
 10
578.265515340058
 20
-320.0540603417262
 30
0.0
 10
578.2648263205064
 20
-320.1002246516829
 30
0.0
 10
578.2648263205064
 20
-320.1470779811912
 30
0.0
 10
578.2648263205064
 20
-322.3560746635962
 30
0.0
 10
579.8316567808273
 20
-324.1468364781847
 30
0.0
 10
581.7643566230438
 20
-324.1468364781847
 30
0.0
 10
583.6977454848119
 20
-324.1468364781847
 30
0.0
 10
585.264575945133
 20
-322.3560746635962
 30
0.0
 10
585.264575945133
 20
-320.1470779811912
 30
0.0
 10
585.264575945133
 20
-320.1002246516829
 30
0.0
 10
585.2638869255813
 20
-320.0540603417262
 30
0.0
 10
585.2621643767023
 20
-320.0078960317695
 30
0.0
 10
607.6508211763679
 20
-318.2267804909033
 30
0.0
 10
625.2645724834987
 20
-299.4937169222109
 30
0.0
 10
625.2645724834987
 20
-276.6465176109605
 30
0.0
 10
625.2645724834987
 20
-253.7993182997102
 30
0.0
 10
607.6511656861437
 20
-235.0662547310177
 30
0.0
 10
585.2625088864781
 20
-233.2851391901515
 30
0.0
  0
SPLINE
  5
45
330
1F
100
AcDbEntity
  8
\U+30EC\U+30A4\U+30E4\U+30FC 1
 62
   250
420
  3288107
370
    35
100
AcDbSpline
210
0.0
220
0.0
230
1.0
 70
    11
 71
     3
 72
    41
 73
    37
 74
     0
 42
0.0000000001
 43
0.0000000001
 40
0.0
 40
0.0
 40
0.0
 40
0.0
 40
1.0
 40
1.0
 40
1.0
 40
2.0
 40
2.0
 40
2.0
 40
3.0
 40
3.0
 40
3.0
 40
4.0
 40
4.0
 40
4.0
 40
5.0
 40
5.0
 40
5.0
 40
6.0
 40
6.0
 40
6.0
 40
7.0
 40
7.0
 40
7.0
 40
8.0
 40
8.0
 40
8.0
 40
9.0
 40
9.0
 40
9.0
 40
10.0
 40
10.0
 40
10.0
 40
11.0
 40
11.0
 40
11.0
 40
12.0
 40
12.0
 40
12.0
 40
12.0
 10
655.2627612109501
 20
-368.2847399336383
 30
0.0
 10
655.2641392500533
 20
-368.2385756236816
 30
0.0
 10
655.2648282696049
 20
-368.1924113137249
 30
0.0
 10
655.2648282696049
 20
-368.1462470037682
 30
0.0
 10
655.2648282696049
 20
-365.9372503213631
 30
0.0
 10
653.6979978092838
 20
-364.1464885067747
 30
0.0
 10
651.7646089475157
 20
-364.1464885067747
 30
0.0
 10
649.8319091052992
 20
-364.1464885067747
 30
0.0
 10
648.2650786449783
 20
-365.9372503213631
 30
0.0
 10
648.2650786449783
 20
-368.1462470037682
 30
0.0
 10
648.2650786449783
 20
-368.1924113137249
 30
0.0
 10
648.2657676645299
 20
-368.2385756236816
 30
0.0
 10
648.2668011938573
 20
-368.2847399336383
 30
0.0
 10
625.8781443941916
 20
-370.0658554745045
 30
0.0
 10
608.2647375968368
 20
-388.7989190431969
 30
0.0
 10
608.2647375968368
 20
-411.6461183544473
 30
0.0
 10
608.2647375968368
 20
-434.4933176656976
 30
0.0
 10
625.8781443941916
 20
-453.22638123439
 30
0.0
 10
648.2671457036331
 20
-455.0074967752562
 30
0.0
 10
648.2657676645299
 20
-455.0536610852129
 30
0.0
 10
648.2650786449783
 20
-455.0998253951696
 30
0.0
 10
648.2650786449783
 20
-455.1466787246779
 30
0.0
 10
648.2650786449783
 20
-457.3556754070829
 30
0.0
 10
649.8319091052992
 20
-459.1464372216714
 30
0.0
 10
651.7646089475157
 20
-459.1464372216714
 30
0.0
 10
653.6979978092838
 20
-459.1464372216714
 30
0.0
 10
655.2648282696049
 20
-457.3556754070829
 30
0.0
 10
655.2648282696049
 20
-455.1466787246779
 30
0.0
 10
655.2648282696049
 20
-455.0998253951696
 30
0.0
 10
655.2641392500533
 20
-455.0536610852129
 30
0.0
 10
655.2624167011743
 20
-455.0074967752562
 30
0.0
 10
677.65107350084
 20
-453.22638123439
 30
0.0
 10
695.2648248079706
 20
-434.4933176656976
 30
0.0
 10
695.2648248079706
 20
-411.6461183544473
 30
0.0
 10
695.2648248079706
 20
-388.7989190431969
 30
0.0
 10
677.6514180106157
 20
-370.0658554745045
 30
0.0
 10
655.2627612109501
 20
-368.2847399336383
 30
0.0
  0
SPLINE
  5
46
330
1F
100
AcDbEntity
  8
\U+30EC\U+30A4\U+30E4\U+30FC 1
 62
   250
420
  3288107
370
    35
100
AcDbSpline
210
0.0
220
0.0
230
1.0
 70
    11
 71
     3
 72
   131
 73
   127
 74
     0
 42
0.0000000001
 43
0.0000000001
 40
0.0
 40
0.0
 40
0.0
 40
0.0
 40
1.0
 40
1.0
 40
1.0
 40
2.0
 40
2.0
 40
2.0
 40
3.0
 40
3.0
 40
3.0
 40
4.0
 40
4.0
 40
4.0
 40
5.0
 40
5.0
 40
5.0
 40
6.0
 40
6.0
 40
6.0
 40
7.0
 40
7.0
 40
7.0
 40
8.0
 40
8.0
 40
8.0
 40
9.0
 40
9.0
 40
9.0
 40
10.0
 40
10.0
 40
10.0
 40
11.0
 40
11.0
 40
11.0
 40
12.0
 40
12.0
 40
12.0
 40
13.0
 40
13.0
 40
13.0
 40
14.0
 40
14.0
 40
14.0
 40
15.0
 40
15.0
 40
15.0
 40
16.0
 40
16.0
 40
16.0
 40
17.0
 40
17.0
 40
17.0
 40
18.0
 40
18.0
 40
18.0
 40
19.0
 40
19.0
 40
19.0
 40
20.0
 40
20.0
 40
20.0
 40
21.0
 40
21.0
 40
21.0
 40
22.0
 40
22.0
 40
22.0
 40
23.0
 40
23.0
 40
23.0
 40
24.0
 40
24.0
 40
24.0
 40
25.0
 40
25.0
 40
25.0
 40
26.0
 40
26.0
 40
26.0
 40
27.0
 40
27.0
 40
27.0
 40
28.0
 40
28.0
 40
28.0
 40
29.0
 40
29.0
 40
29.0
 40
30.0
 40
30.0
 40
30.0
 40
31.0
 40
31.0
 40
31.0
 40
32.0
 40
32.0
 40
32.0
 40
33.0
 40
33.0
 40
33.0
 40
34.0
 40
34.0
 40
34.0
 40
35.0
 40
35.0
 40
35.0
 40
36.0
 40
36.0
 40
36.0
 40
37.0
 40
37.0
 40
37.0
 40
38.0
 40
38.0
 40
38.0
 40
39.0
 40
39.0
 40
39.0
 40
40.0
 40
40.0
 40
40.0
 40
41.0
 40
41.0
 40
41.0
 40
42.0
 40
42.0
 40
42.0
 40
42.0
 10
736.7644724003771
 20
-97.94654082728138
 30
0.0
 10
736.7644724003771
 20
-97.94654082728138
 30
0.0
 10
671.7651239813624
 20
-97.94654082728138
 30
0.0
 10
671.7651239813624
 20
-97.94654082728138
 30
0.0
 10
671.7651239813624
 20
-97.94654082728138
 30
0.0
 10
671.7651239813624
 20
-92.34687893149045
 30
0.0
 10
671.7651239813624
 20
-92.34687893149045
 30
0.0
 10
671.7651239813624
 20
-92.34687893149045
 30
0.0
 10
571.7649603805601
 20
-92.34687893149045
 30
0.0
 10
571.7649603805601
 20
-92.34687893149045
 30
0.0
 10
571.7649603805601
 20
-92.34687893149045
 30
0.0
 10
571.7649603805601
 20
-97.94654082728138
 30
0.0
 10
571.7649603805601
 20
-97.94654082728138
 30
0.0
 10
571.7649603805601
 20
-97.94654082728138
 30
0.0
 10
471.7647967797577
 20
-97.94654082728138
 30
0.0
 10
471.7647967797577
 20
-97.94654082728138
 30
0.0
 10
471.7647967797577
 20
-97.94654082728138
 30
0.0
 10
471.7647967797577
 20
-92.34687893149045
 30
0.0
 10
471.7647967797577
 20
-92.34687893149045
 30
0.0
 10
471.7647967797577
 20
-92.34687893149045
 30
0.0
 10
371.7644609240675
 20
-92.34687893149045
 30
0.0
 10
371.7644609240675
 20
-92.34687893149045
 30
0.0
 10
371.7644609240675
 20
-92.34687893149045
 30
0.0
 10
371.7644609240675
 20
-97.94654082728138
 30
0.0
 10
371.7644609240675
 20
-97.94654082728138
 30
0.0
 10
371.7644609240675
 20
-97.94654082728138
 30
0.0
 10
271.7642973232651
 20
-97.94654082728138
 30
0.0
 10
271.7642973232651
 20
-97.94654082728138
 30
0.0
 10
271.7642973232651
 20
-97.94654082728138
 30
0.0
 10
271.7642973232651
 20
-92.34687893149045
 30
0.0
 10
271.7642973232651
 20
-92.34687893149045
 30
0.0
 10
271.7642973232651
 20
-92.34687893149045
 30
0.0
 10
171.7641337224628
 20
-92.34687893149045
 30
0.0
 10
171.7641337224628
 20
-92.34687893149045
 30
0.0
 10
171.7641337224628
 20
-92.34687893149045
 30
0.0
 10
171.7641337224628
 20
-97.94654082728138
 30
0.0
 10
171.7641337224628
 20
-97.94654082728138
 30
0.0
 10
171.7641337224628
 20
-97.94654082728138
 30
0.0
 10
71.76397012166044
 20
-97.94654082728138
 30
0.0
 10
71.76397012166044
 20
-97.94654082728138
 30
0.0
 10
71.76397012166044
 20
-97.94654082728138
 30
0.0
 10
71.76397012166044
 20
-92.34687893149045
 30
0.0
 10
71.76397012166044
 20
-92.34687893149045
 30
0.0
 10
71.76397012166044
 20
-92.34687893149045
 30
0.0
 10
6.763932683094081
 20
-92.34653442171465
 30
0.0
 10
6.763932683094081
 20
-92.34653442171465
 30
0.0
 10
6.763932683094081
 20
-92.34653442171465
 30
0.0
 10
6.763932683094081
 20
-67.34683803128986
 30
0.0
 10
6.763932683094081
 20
-67.34683803128986
 30
0.0
 10
6.763932683094081
 20
-67.34683803128986
 30
0.0
 10
12.36393908866081
 20
-67.34683803128986
 30
0.0
 10
12.36393908866081
 20
-67.34683803128986
 30
0.0
 10
12.36393908866081
 20
-67.34683803128986
 30
0.0
 10
12.36393908866081
 20
-37.34692675495948
 30
0.0
 10
12.36393908866081
 20
-37.34692675495948
 30
0.0
 10
12.36393908866081
 20
-37.34692675495948
 30
0.0
 10
6.763932683094081
 20
-37.34692675495948
 30
0.0
 10
6.763932683094081
 20
-37.34692675495948
 30
0.0
 10
6.763932683094081
 20
-37.34692675495948
 30
0.0
 10
6.763932683094081
 20
-12.34723036453469
 30
0.0
 10
6.763932683094081
 20
-12.34723036453469
 30
0.0
 10
6.763932683094081
 20
-12.34723036453469
 30
0.0
 10
6.764621702645673
 20
-12.34723036453469
 30
0.0
 10
6.764621702645673
 20
-12.34723036453469
 30
0.0
 10
6.764621702645673
 20
-12.34723036453469
 30
0.0
 10
71.76465914121204
 20
-12.34723036453469
 30
0.0
 10
71.76465914121204
 20
-12.3468858547589
 30
0.0
 10
71.76465914121204
 20
-12.3468858547589
 30
0.0
 10
71.76465914121204
 20
-6.747223958967967
 30
0.0
 10
71.76465914121204
 20
-6.747223958967967
 30
0.0
 10
71.76465914121204
 20
-6.747223958967967
 30
0.0
 10
171.7648227420144
 20
-6.747223958967967
 30
0.0
 10
171.7648227420144
 20
-6.747223958967967
 30
0.0
 10
171.7648227420144
 20
-6.747223958967967
 30
0.0
 10
171.7648227420144
 20
-12.3468858547589
 30
0.0
 10
171.7648227420144
 20
-12.3468858547589
 30
0.0
 10
171.7648227420144
 20
-12.3468858547589
 30
0.0
 10
271.7649863428167
 20
-12.3468858547589
 30
0.0
 10
271.7649863428167
 20
-12.3468858547589
 30
0.0
 10
271.7649863428167
 20
-12.3468858547589
 30
0.0
 10
271.7649863428167
 20
-6.747223958967967
 30
0.0
 10
271.7649863428167
 20
-6.747223958967967
 30
0.0
 10
271.7649863428167
 20
-6.747223958967967
 30
0.0
 10
371.7651499436191
 20
-6.747223958967967
 30
0.0
 10
371.7651499436191
 20
-6.747223958967967
 30
0.0
 10
371.7651499436191
 20
-6.747223958967967
 30
0.0
 10
371.7651499436191
 20
-12.3468858547589
 30
0.0
 10
371.7651499436191
 20
-12.3468858547589
 30
0.0
 10
371.7651499436191
 20
-12.3468858547589
 30
0.0
 10
471.7654857993093
 20
-12.3468858547589
 30
0.0
 10
471.7654857993093
 20
-12.3468858547589
 30
0.0
 10
471.7654857993093
 20
-12.3468858547589
 30
0.0
 10
471.7654857993093
 20
-6.747223958967967
 30
0.0
 10
471.7654857993093
 20
-6.747223958967967
 30
0.0
 10
471.7654857993093
 20
-6.747223958967967
 30
0.0
 10
571.7656494001117
 20
-6.747223958967967
 30
0.0
 10
571.7656494001117
 20
-6.747223958967967
 30
0.0
 10
571.7656494001117
 20
-6.747223958967967
 30
0.0
 10
571.7656494001117
 20
-12.3468858547589
 30
0.0
 10
571.7656494001117
 20
-12.3468858547589
 30
0.0
 10
571.7656494001117
 20
-12.3468858547589
 30
0.0
 10
671.765813000914
 20
-12.3468858547589
 30
0.0
 10
671.765813000914
 20
-12.3468858547589
 30
0.0
 10
671.765813000914
 20
-12.3468858547589
 30
0.0
 10
671.765813000914
 20
-6.747223958967967
 30
0.0
 10
671.765813000914
 20
-6.747223958967967
 30
0.0
 10
671.765813000914
 20
-6.747223958967967
 30
0.0
 10
671.7678800595687
 20
-6.747223958967967
 30
0.0
 10
671.7678800595687
 20
-6.747223958967967
 30
0.0
 10
671.7678800595687
 20
-6.747223958967967
 30
0.0
 10
736.7644724003771
 20
-6.747223958967967
 30
0.0
 10
736.7644724003771
 20
-6.747223958967967
 30
0.0
 10
736.7644724003771
 20
-6.747223958967967
 30
0.0
 10
736.7644724003771
 20
-37.34692675495948
 30
0.0
 10
736.7644724003771
 20
-37.34692675495948
 30
0.0
 10
736.7644724003771
 20
-37.34692675495948
 30
0.0
 10
731.1648105045862
 20
-37.34692675495948
 30
0.0
 10
731.1648105045862
 20
-37.34692675495948
 30
0.0
 10
731.1648105045862
 20
-37.34692675495948
 30
0.0
 10
731.1648105045862
 20
-67.34683803128986
 30
0.0
 10
731.1648105045862
 20
-67.34683803128986
 30
0.0
 10
731.1648105045862
 20
-67.34683803128986
 30
0.0
 10
736.7644724003771
 20
-67.34683803128986
 30
0.0
 10
736.7644724003771
 20
-67.34683803128986
 30
0.0
 10
736.7644724003771
 20
-67.34683803128986
 30
0.0
 10
736.7644724003771
 20
-97.94654082728138
 30
0.0
 10
736.7644724003771
 20
-97.94654082728138
 30
0.0
  0
POLYLINE
  5
47
330
1F
100
AcDbEntity
  8
\U+30EC\U+30A4\U+30E4\U+30FC 1
 62
   250
420
  3288107
370
    35
100
AcDb2dPolyline
 66
     1
 10
0.0
 20
0.0
 30
0.0
  0
VERTEX
  5
48
330
47
100
AcDbEntity
  8
\U+30EC\U+30A4\U+30E4\U+30FC 1
 62
   250
420
  3288107
370
    35
100
AcDbVertex
100
AcDb2dVertex
 10
321.7669629469847
 20
-346.943392852393
 30
0.0
  0
VERTEX
  5
49
330
47
100
AcDbEntity
  8
\U+30EC\U+30A4\U+30E4\U+30FC 1
 62
   250
420
  3288107
370
    35
100
AcDbVertex
100
AcDb2dVertex
 10
321.7669629469847
 20
-341.3430419370505
 30
0.0
  0
VERTEX
  5
4A
330
47
100
AcDbEntity
  8
\U+30EC\U+30A4\U+30E4\U+30FC 1
 62
   250
420
  3288107
370
    35
100
AcDbVertex
100
AcDb2dVertex
 10
421.7671265477871
 20
-341.3430419370505
 30
0.0
  0
VERTEX
  5
4B
330
47
100
AcDbEntity
  8
\U+30EC\U+30A4\U+30E4\U+30FC 1
 62
   250
420
  3288107
370
    35
100
AcDbVertex
100
AcDb2dVertex
 10
421.7671265477871
 20
-346.943392852393
 30
0.0
  0
VERTEX
  5
4C
330
47
100
AcDbEntity
  8
\U+30EC\U+30A4\U+30E4\U+30FC 1
 62
   250
420
  3288107
370
    35
100
AcDbVertex
100
AcDb2dVertex
 10
321.7669629469847
 20
-346.943392852393
 30
0.0
  0
SEQEND
  5
4D
330
47
100
AcDbEntity
  8
\U+30EC\U+30A4\U+30E4\U+30FC 1
370
    35
  0
POLYLINE
  5
4E
330
1F
100
AcDbEntity
  8
\U+30EC\U+30A4\U+30E4\U+30FC 1
 62
   250
420
  3288107
370
    35
100
AcDb2dPolyline
 66
     1
 10
0.0
 20
0.0
 30
0.0
  0
VERTEX
  5
4F
330
4E
100
AcDbEntity
  8
\U+30EC\U+30A4\U+30E4\U+30FC 1
 62
   250
420
  3288107
370
    35
100
AcDbVertex
100
AcDb2dVertex
 10
118.2638325999725
 20
-346.943392852393
 30
0.0
  0
VERTEX
  5
50
330
4E
100
AcDbEntity
  8
\U+30EC\U+30A4\U+30E4\U+30FC 1
 62
   250
420
  3288107
370
    35
100
AcDbVertex
100
AcDb2dVertex
 10
118.2638325999725
 20
-341.3430419370505
 30
0.0
  0
VERTEX
  5
51
330
4E
100
AcDbEntity
  8
\U+30EC\U+30A4\U+30E4\U+30FC 1
 62
   250
420
  3288107
370
    35
100
AcDbVertex
100
AcDb2dVertex
 10
221.7667993461824
 20
-341.3430419370505
 30
0.0
  0
VERTEX
  5
52
330
4E
100
AcDbEntity
  8
\U+30EC\U+30A4\U+30E4\U+30FC 1
 62
   250
420
  3288107
370
    35
100
AcDbVertex
100
AcDb2dVertex
 10
221.7667993461824
 20
-346.943392852393
 30
0.0
  0
VERTEX
  5
53
330
4E
100
AcDbEntity
  8
\U+30EC\U+30A4\U+30E4\U+30FC 1
 62
   250
420
  3288107
370
    35
100
AcDbVertex
100
AcDb2dVertex
 10
118.2638325999725
 20
-346.943392852393
 30
0.0
  0
SEQEND
  5
54
330
4E
100
AcDbEntity
  8
\U+30EC\U+30A4\U+30E4\U+30FC 1
370
    35
  0
POLYLINE
  5
55
330
1F
100
AcDbEntity
  8
\U+30EC\U+30A4\U+30E4\U+30FC 1
 62
   250
420
  3288107
370
    35
100
AcDb2dPolyline
 66
     1
 10
0.0
 20
0.0
 30
0.0
  0
VERTEX
  5
56
330
55
100
AcDbEntity
  8
\U+30EC\U+30A4\U+30E4\U+30FC 1
 62
   250
420
  3288107
370
    35
100
AcDbVertex
100
AcDb2dVertex
 10
521.7672901485894
 20
-346.9458044208235
 30
0.0
  0
VERTEX
  5
57
330
55
100
AcDbEntity
  8
\U+30EC\U+30A4\U+30E4\U+30FC 1
 62
   250
420
  3288107
370
    35
100
AcDbVertex
100
AcDb2dVertex
 10
521.7672901485894
 20
-341.345453505481
 30
0.0
  0
VERTEX
  5
58
330
55
100
AcDbEntity
  8
\U+30EC\U+30A4\U+30E4\U+30FC 1
 62
   250
420
  3288107
370
    35
100
AcDbVertex
100
AcDb2dVertex
 10
625.2645724834987
 20
-341.345453505481
 30
0.0
  0
VERTEX
  5
59
330
55
100
AcDbEntity
  8
\U+30EC\U+30A4\U+30E4\U+30FC 1
 62
   250
420
  3288107
370
    35
100
AcDbVertex
100
AcDb2dVertex
 10
625.2645724834987
 20
-346.9458044208235
 30
0.0
  0
VERTEX
  5
5A
330
55
100
AcDbEntity
  8
\U+30EC\U+30A4\U+30E4\U+30FC 1
 62
   250
420
  3288107
370
    35
100
AcDbVertex
100
AcDb2dVertex
 10
521.7672901485894
 20
-346.9458044208235
 30
0.0
  0
SEQEND
  5
5B
330
55
100
AcDbEntity
  8
\U+30EC\U+30A4\U+30E4\U+30FC 1
370
    35
  0
POLYLINE
  5
5C
330
1F
100
AcDbEntity
  8
\U+30EC\U+30A4\U+30E4\U+30FC 1
 62
   250
420
  3288107
370
    35
100
AcDb2dPolyline
 66
     1
 10
0.0
 20
0.0
 30
0.0
  0
VERTEX
  5
5D
330
5C
100
AcDbEntity
  8
\U+30EC\U+30A4\U+30E4\U+30FC 1
 62
   250
420
  3288107
370
    35
100
AcDbVertex
100
AcDb2dVertex
 10
310.2680879053481
 20
-494.14552985458
 30
0.0
  0
VERTEX
  5
5E
330
5C
100
AcDbEntity
  8
\U+30EC\U+30A4\U+30E4\U+30FC 1
 62
   250
420
  3288107
370
    35
100
AcDbVertex
100
AcDb2dVertex
 10
210.2706803827522
 20
-494.14552985458
 30
0.0
  0
VERTEX
  5
5F
330
5C
100
AcDbEntity
  8
\U+30EC\U+30A4\U+30E4\U+30FC 1
 62
   250
420
  3288107
370
    35
100
AcDbVertex
100
AcDb2dVertex
 10
210.2713694023037
 20
-499.7455362601467
 30
0.0
  0
VERTEX
  5
60
330
5C
100
AcDbEntity
  8
\U+30EC\U+30A4\U+30E4\U+30FC 1
 62
   250
420
  3288107
370
    35
100
AcDbVertex
100
AcDb2dVertex
 10
110.2710335466135
 20
-499.7455362601467
 30
0.0
  0
VERTEX
  5
61
330
5C
100
AcDbEntity
  8
\U+30EC\U+30A4\U+30E4\U+30FC 1
 62
   250
420
  3288107
370
    35
100
AcDbVertex
100
AcDb2dVertex
 10
110.2710335466135
 20
-494.14552985458
 30
0.0
  0
VERTEX
  5
62
330
5C
100
AcDbEntity
  8
\U+30EC\U+30A4\U+30E4\U+30FC 1
 62
   250
420
  3288107
370
    35
100
AcDbVertex
100
AcDb2dVertex
 10
6.768066800403635
 20
-494.14552985458
 30
0.0
  0
VERTEX
  5
63
330
5C
100
AcDbEntity
  8
\U+30EC\U+30A4\U+30E4\U+30FC 1
 62
   250
420
  3288107
370
    35
100
AcDbVertex
100
AcDb2dVertex
 10
6.768066800403635
 20
-579.7455293368782
 30
0.0
  0
VERTEX
  5
64
330
5C
100
AcDbEntity
  8
\U+30EC\U+30A4\U+30E4\U+30FC 1
 62
   250
420
  3288107
370
    35
100
AcDbVertex
100
AcDb2dVertex
 10
513.7681176643782
 20
-579.7455293368782
 30
0.0
  0
VERTEX
  5
65
330
5C
100
AcDbEntity
  8
\U+30EC\U+30A4\U+30E4\U+30FC 1
 62
   250
420
  3288107
370
    35
100
AcDbVertex
100
AcDb2dVertex
 10
513.7681176643782
 20
-494.14552985458
 30
0.0
  0
VERTEX
  5
66
330
5C
100
AcDbEntity
  8
\U+30EC\U+30A4\U+30E4\U+30FC 1
 62
   250
420
  3288107
370
    35
100
AcDbVertex
100
AcDb2dVertex
 10
410.2684237610384
 20
-494.14552985458
 30
0.0
  0
VERTEX
  5
67
330
5C
100
AcDbEntity
  8
\U+30EC\U+30A4\U+30E4\U+30FC 1
 62
   250
420
  3288107
370
    35
100
AcDbVertex
100
AcDb2dVertex
 10
410.2684237610384
 20
-499.7455362601467
 30
0.0
  0
VERTEX
  5
68
330
5C
100
AcDbEntity
  8
\U+30EC\U+30A4\U+30E4\U+30FC 1
 62
   250
420
  3288107
370
    35
100
AcDbVertex
100
AcDb2dVertex
 10
310.2680879053481
 20
-499.7455362601467
 30
0.0
  0
VERTEX
  5
69
330
5C
100
AcDbEntity
  8
\U+30EC\U+30A4\U+30E4\U+30FC 1
 62
   250
420
  3288107
370
    35
100
AcDbVertex
100
AcDb2dVertex
 10
310.2680879053481
 20
-494.14552985458
 30
0.0
  0
SEQEND
  5
6A
330
5C
100
AcDbEntity
  8
\U+30EC\U+30A4\U+30E4\U+30FC 1
370
    35
  0
POLYLINE
  5
6B
330
1F
100
AcDbEntity
  8
\U+30EC\U+30A4\U+30E4\U+30FC 1
 62
   250
420
  3288107
370
    35
100
AcDb2dPolyline
 66
     1
 10
0.0
 20
0.0
 30
0.0
  0
VERTEX
  5
6C
330
6B
100
AcDbEntity
  8
\U+30EC\U+30A4\U+30E4\U+30FC 1
 62
   250
420
  3288107
370
    35
100
AcDbVertex
100
AcDb2dVertex
 10
130.2674144631505
 20
-559.7457033225833
 30
0.0
  0
VERTEX
  5
6D
330
6B
100
AcDbEntity
  8
\U+30EC\U+30A4\U+30E4\U+30FC 1
 62
   250
420
  3288107
370
    35
100
AcDbVertex
100
AcDb2dVertex
 10
110.2674161939677
 20
-559.7457033225833
 30
0.0
  0
VERTEX
  5
6E
330
6B
100
AcDbEntity
  8
\U+30EC\U+30A4\U+30E4\U+30FC 1
 62
   250
420
  3288107
370
    35
100
AcDbVertex
100
AcDb2dVertex
 10
110.2674161939677
 20
-519.7457067842175
 30
0.0
  0
VERTEX
  5
6F
330
6B
100
AcDbEntity
  8
\U+30EC\U+30A4\U+30E4\U+30FC 1
 62
   250
420
  3288107
370
    35
100
AcDbVertex
100
AcDb2dVertex
 10
130.2674144631505
 20
-519.7457067842175
 30
0.0
  0
VERTEX
  5
70
330
6B
100
AcDbEntity
  8
\U+30EC\U+30A4\U+30E4\U+30FC 1
 62
   250
420
  3288107
370
    35
100
AcDbVertex
100
AcDb2dVertex
 10
130.2674144631505
 20
-559.7457033225833
 30
0.0
  0
SEQEND
  5
71
330
6B
100
AcDbEntity
  8
\U+30EC\U+30A4\U+30E4\U+30FC 1
370
    35
  0
POLYLINE
  5
72
330
1F
100
AcDbEntity
  8
\U+30EC\U+30A4\U+30E4\U+30FC 1
 62
   250
420
  3288107
370
    35
100
AcDb2dPolyline
 66
     1
 10
0.0
 20
0.0
 30
0.0
  0
VERTEX
  5
73
330
72
100
AcDbEntity
  8
\U+30EC\U+30A4\U+30E4\U+30FC 1
 62
   250
420
  3288107
370
    35
100
AcDbVertex
100
AcDb2dVertex
 10
170.2675832564042
 20
-559.7457033225833
 30
0.0
  0
VERTEX
  5
74
330
72
100
AcDbEntity
  8
\U+30EC\U+30A4\U+30E4\U+30FC 1
 62
   250
420
  3288107
370
    35
100
AcDbVertex
100
AcDb2dVertex
 10
150.2675849872213
 20
-559.7457033225833
 30
0.0
  0
VERTEX
  5
75
330
72
100
AcDbEntity
  8
\U+30EC\U+30A4\U+30E4\U+30FC 1
 62
   250
420
  3288107
370
    35
100
AcDbVertex
100
AcDb2dVertex
 10
150.2675849872213
 20
-519.7457067842175
 30
0.0
  0
VERTEX
  5
76
330
72
100
AcDbEntity
  8
\U+30EC\U+30A4\U+30E4\U+30FC 1
 62
   250
420
  3288107
370
    35
100
AcDbVertex
100
AcDb2dVertex
 10
170.2675832564042
 20
-519.7457067842175
 30
0.0
  0
VERTEX
  5
77
330
72
100
AcDbEntity
  8
\U+30EC\U+30A4\U+30E4\U+30FC 1
 62
   250
420
  3288107
370
    35
100
AcDbVertex
100
AcDb2dVertex
 10
170.2675832564042
 20
-559.7457033225833
 30
0.0
  0
SEQEND
  5
78
330
72
100
AcDbEntity
  8
\U+30EC\U+30A4\U+30E4\U+30FC 1
370
    35
  0
POLYLINE
  5
79
330
1F
100
AcDbEntity
  8
\U+30EC\U+30A4\U+30E4\U+30FC 1
 62
   250
420
  3288107
370
    35
100
AcDb2dPolyline
 66
     1
 10
0.0
 20
0.0
 30
0.0
  0
VERTEX
  5
7A
330
79
100
AcDbEntity
  8
\U+30EC\U+30A4\U+30E4\U+30FC 1
 62
   250
420
  3288107
370
    35
100
AcDbVertex
100
AcDb2dVertex
 10
210.2679243045458
 20
-559.7457033225833
 30
0.0
  0
VERTEX
  5
7B
330
79
100
AcDbEntity
  8
\U+30EC\U+30A4\U+30E4\U+30FC 1
 62
   250
420
  3288107
370
    35
100
AcDbVertex
100
AcDb2dVertex
 10
190.267753780475
 20
-559.7457033225833
 30
0.0
  0
VERTEX
  5
7C
330
79
100
AcDbEntity
  8
\U+30EC\U+30A4\U+30E4\U+30FC 1
 62
   250
420
  3288107
370
    35
100
AcDbVertex
100
AcDb2dVertex
 10
190.267753780475
 20
-519.7457067842175
 30
0.0
  0
VERTEX
  5
7D
330
79
100
AcDbEntity
  8
\U+30EC\U+30A4\U+30E4\U+30FC 1
 62
   250
420
  3288107
370
    35
100
AcDbVertex
100
AcDb2dVertex
 10
210.2679243045458
 20
-519.7457067842175
 30
0.0
  0
VERTEX
  5
7E
330
79
100
AcDbEntity
  8
\U+30EC\U+30A4\U+30E4\U+30FC 1
 62
   250
420
  3288107
370
    35
100
AcDbVertex
100
AcDb2dVertex
 10
210.2679243045458
 20
-559.7457033225833
 30
0.0
  0
SEQEND
  5
7F
330
79
100
AcDbEntity
  8
\U+30EC\U+30A4\U+30E4\U+30FC 1
370
    35
  0
POLYLINE
  5
80
330
1F
100
AcDbEntity
  8
\U+30EC\U+30A4\U+30E4\U+30FC 1
 62
   250
420
  3288107
370
    35
100
AcDb2dPolyline
 66
     1
 10
0.0
 20
0.0
 30
0.0
  0
VERTEX
  5
81
330
80
100
AcDbEntity
  8
\U+30EC\U+30A4\U+30E4\U+30FC 1
 62
   250
420
  3288107
370
    35
100
AcDbVertex
100
AcDb2dVertex
 10
250.2675763331358
 20
-559.7457033225833
 30
0.0
  0
VERTEX
  5
82
330
80
100
AcDbEntity
  8
\U+30EC\U+30A4\U+30E4\U+30FC 1
 62
   250
420
  3288107
370
    35
100
AcDbVertex
100
AcDb2dVertex
 10
230.2680948286166
 20
-559.7457033225833
 30
0.0
  0
VERTEX
  5
83
330
80
100
AcDbEntity
  8
\U+30EC\U+30A4\U+30E4\U+30FC 1
 62
   250
420
  3288107
370
    35
100
AcDbVertex
100
AcDb2dVertex
 10
230.2680948286166
 20
-519.7457067842175
 30
0.0
  0
VERTEX
  5
84
330
80
100
AcDbEntity
  8
\U+30EC\U+30A4\U+30E4\U+30FC 1
 62
   250
420
  3288107
370
    35
100
AcDbVertex
100
AcDb2dVertex
 10
250.2675763331358
 20
-519.7457067842175
 30
0.0
  0
VERTEX
  5
85
330
80
100
AcDbEntity
  8
\U+30EC\U+30A4\U+30E4\U+30FC 1
 62
   250
420
  3288107
370
    35
100
AcDbVertex
100
AcDb2dVertex
 10
250.2675763331358
 20
-559.7457033225833
 30
0.0
  0
SEQEND
  5
86
330
80
100
AcDbEntity
  8
\U+30EC\U+30A4\U+30E4\U+30FC 1
370
    35
  0
POLYLINE
  5
87
330
1F
100
AcDbEntity
  8
\U+30EC\U+30A4\U+30E4\U+30FC 1
 62
   250
420
  3288107
370
    35
100
AcDb2dPolyline
 66
     1
 10
0.0
 20
0.0
 30
0.0
  0
VERTEX
  5
88
330
87
100
AcDbEntity
  8
\U+30EC\U+30A4\U+30E4\U+30FC 1
 62
   250
420
  3288107
370
    35
100
AcDbVertex
100
AcDb2dVertex
 10
50.2669046217553
 20
-559.7457033225833
 30
0.0
  0
VERTEX
  5
89
330
87
100
AcDbEntity
  8
\U+30EC\U+30A4\U+30E4\U+30FC 1
 62
   250
420
  3288107
370
    35
100
AcDbVertex
100
AcDb2dVertex
 10
30.26707860746031
 20
-559.7457033225833
 30
0.0
  0
VERTEX
  5
8A
330
87
100
AcDbEntity
  8
\U+30EC\U+30A4\U+30E4\U+30FC 1
 62
   250
420
  3288107
370
    35
100
AcDbVertex
100
AcDb2dVertex
 10
30.26707860746031
 20
-519.7457067842175
 30
0.0
  0
VERTEX
  5
8B
330
87
100
AcDbEntity
  8
\U+30EC\U+30A4\U+30E4\U+30FC 1
 62
   250
420
  3288107
370
    35
100
AcDbVertex
100
AcDb2dVertex
 10
50.2669046217553
 20
-519.7457067842175
 30
0.0
  0
VERTEX
  5
8C
330
87
100
AcDbEntity
  8
\U+30EC\U+30A4\U+30E4\U+30FC 1
 62
   250
420
  3288107
370
    35
100
AcDbVertex
100
AcDb2dVertex
 10
50.2669046217553
 20
-559.7457033225833
 30
0.0
  0
SEQEND
  5
8D
330
87
100
AcDbEntity
  8
\U+30EC\U+30A4\U+30E4\U+30FC 1
370
    35
  0
POLYLINE
  5
8E
330
1F
100
AcDbEntity
  8
\U+30EC\U+30A4\U+30E4\U+30FC 1
 62
   250
420
  3288107
370
    35
100
AcDb2dPolyline
 66
     1
 10
0.0
 20
0.0
 30
0.0
  0
VERTEX
  5
8F
330
8E
100
AcDbEntity
  8
\U+30EC\U+30A4\U+30E4\U+30FC 1
 62
   250
420
  3288107
370
    35
100
AcDbVertex
100
AcDb2dVertex
 10
90.26724566989688
 20
-559.7457033225833
 30
0.0
  0
VERTEX
  5
90
330
8E
100
AcDbEntity
  8
\U+30EC\U+30A4\U+30E4\U+30FC 1
 62
   250
420
  3288107
370
    35
100
AcDbVertex
100
AcDb2dVertex
 10
70.26707514582608
 20
-559.7457033225833
 30
0.0
  0
VERTEX
  5
91
330
8E
100
AcDbEntity
  8
\U+30EC\U+30A4\U+30E4\U+30FC 1
 62
   250
420
  3288107
370
    35
100
AcDbVertex
100
AcDb2dVertex
 10
70.26707514582608
 20
-519.7457067842175
 30
0.0
  0
VERTEX
  5
92
330
8E
100
AcDbEntity
  8
\U+30EC\U+30A4\U+30E4\U+30FC 1
 62
   250
420
  3288107
370
    35
100
AcDbVertex
100
AcDb2dVertex
 10
90.26724566989688
 20
-519.7457067842175
 30
0.0
  0
VERTEX
  5
93
330
8E
100
AcDbEntity
  8
\U+30EC\U+30A4\U+30E4\U+30FC 1
 62
   250
420
  3288107
370
    35
100
AcDbVertex
100
AcDb2dVertex
 10
90.26724566989688
 20
-559.7457033225833
 30
0.0
  0
SEQEND
  5
94
330
8E
100
AcDbEntity
  8
\U+30EC\U+30A4\U+30E4\U+30FC 1
370
    35
  0
POLYLINE
  5
95
330
1F
100
AcDbEntity
  8
\U+30EC\U+30A4\U+30E4\U+30FC 1
 62
   250
420
  3288107
370
    35
100
AcDb2dPolyline
 66
     1
 10
0.0
 20
0.0
 30
0.0
  0
VERTEX
  5
96
330
95
100
AcDbEntity
  8
\U+30EC\U+30A4\U+30E4\U+30FC 1
 62
   250
420
  3288107
370
    35
100
AcDbVertex
100
AcDb2dVertex
 10
370.2679104580089
 20
-559.7457033225833
 30
0.0
  0
VERTEX
  5
97
330
95
100
AcDbEntity
  8
\U+30EC\U+30A4\U+30E4\U+30FC 1
 62
   250
420
  3288107
370
    35
100
AcDbVertex
100
AcDb2dVertex
 10
350.2680844437139
 20
-559.7457033225833
 30
0.0
  0
VERTEX
  5
98
330
95
100
AcDbEntity
  8
\U+30EC\U+30A4\U+30E4\U+30FC 1
 62
   250
420
  3288107
370
    35
100
AcDbVertex
100
AcDb2dVertex
 10
350.2680844437139
 20
-519.7457067842175
 30
0.0
  0
VERTEX
  5
99
330
95
100
AcDbEntity
  8
\U+30EC\U+30A4\U+30E4\U+30FC 1
 62
   250
420
  3288107
370
    35
100
AcDbVertex
100
AcDb2dVertex
 10
370.2679104580089
 20
-519.7457067842175
 30
0.0
  0
VERTEX
  5
9A
330
95
100
AcDbEntity
  8
\U+30EC\U+30A4\U+30E4\U+30FC 1
 62
   250
420
  3288107
370
    35
100
AcDbVertex
100
AcDb2dVertex
 10
370.2679104580089
 20
-559.7457033225833
 30
0.0
  0
SEQEND
  5
9B
330
95
100
AcDbEntity
  8
\U+30EC\U+30A4\U+30E4\U+30FC 1
370
    35
  0
POLYLINE
  5
9C
330
1F
100
AcDbEntity
  8
\U+30EC\U+30A4\U+30E4\U+30FC 1
 62
   250
420
  3288107
370
    35
100
AcDb2dPolyline
 66
     1
 10
0.0
 20
0.0
 30
0.0
  0
VERTEX
  5
9D
330
9C
100
AcDbEntity
  8
\U+30EC\U+30A4\U+30E4\U+30FC 1
 62
   250
420
  3288107
370
    35
100
AcDbVertex
100
AcDb2dVertex
 10
410.2684237610384
 20
-559.7457033225833
 30
0.0
  0
VERTEX
  5
9E
330
9C
100
AcDbEntity
  8
\U+30EC\U+30A4\U+30E4\U+30FC 1
 62
   250
420
  3288107
370
    35
100
AcDbVertex
100
AcDb2dVertex
 10
390.2682532369676
 20
-559.7457033225833
 30
0.0
  0
VERTEX
  5
9F
330
9C
100
AcDbEntity
  8
\U+30EC\U+30A4\U+30E4\U+30FC 1
 62
   250
420
  3288107
370
    35
100
AcDbVertex
100
AcDb2dVertex
 10
390.2682532369676
 20
-519.7457067842175
 30
0.0
  0
VERTEX
  5
A0
330
9C
100
AcDbEntity
  8
\U+30EC\U+30A4\U+30E4\U+30FC 1
 62
   250
420
  3288107
370
    35
100
AcDbVertex
100
AcDb2dVertex
 10
410.2684237610384
 20
-519.7457067842175
 30
0.0
  0
VERTEX
  5
A1
330
9C
100
AcDbEntity
  8
\U+30EC\U+30A4\U+30E4\U+30FC 1
 62
   250
420
  3288107
370
    35
100
AcDbVertex
100
AcDb2dVertex
 10
410.2684237610384
 20
-559.7457033225833
 30
0.0
  0
SEQEND
  5
A2
330
9C
100
AcDbEntity
  8
\U+30EC\U+30A4\U+30E4\U+30FC 1
370
    35
  0
POLYLINE
  5
A3
330
1F
100
AcDbEntity
  8
\U+30EC\U+30A4\U+30E4\U+30FC 1
 62
   250
420
  3288107
370
    35
100
AcDb2dPolyline
 66
     1
 10
0.0
 20
0.0
 30
0.0
  0
VERTEX
  5
A4
330
A3
100
AcDbEntity
  8
\U+30EC\U+30A4\U+30E4\U+30FC 1
 62
   250
420
  3288107
370
    35
100
AcDbVertex
100
AcDb2dVertex
 10
450.26876480918
 20
-559.7457033225833
 30
0.0
  0
VERTEX
  5
A5
330
A3
100
AcDbEntity
  8
\U+30EC\U+30A4\U+30E4\U+30FC 1
 62
   250
420
  3288107
370
    35
100
AcDbVertex
100
AcDb2dVertex
 10
430.2685942851091
 20
-559.7457033225833
 30
0.0
  0
VERTEX
  5
A6
330
A3
100
AcDbEntity
  8
\U+30EC\U+30A4\U+30E4\U+30FC 1
 62
   250
420
  3288107
370
    35
100
AcDbVertex
100
AcDb2dVertex
 10
430.2685942851091
 20
-519.7457067842175
 30
0.0
  0
VERTEX
  5
A7
330
A3
100
AcDbEntity
  8
\U+30EC\U+30A4\U+30E4\U+30FC 1
 62
   250
420
  3288107
370
    35
100
AcDbVertex
100
AcDb2dVertex
 10
450.26876480918
 20
-519.7457067842175
 30
0.0
  0
VERTEX
  5
A8
330
A3
100
AcDbEntity
  8
\U+30EC\U+30A4\U+30E4\U+30FC 1
 62
   250
420
  3288107
370
    35
100
AcDbVertex
100
AcDb2dVertex
 10
450.26876480918
 20
-559.7457033225833
 30
0.0
  0
SEQEND
  5
A9
330
A3
100
AcDbEntity
  8
\U+30EC\U+30A4\U+30E4\U+30FC 1
370
    35
  0
POLYLINE
  5
AA
330
1F
100
AcDbEntity
  8
\U+30EC\U+30A4\U+30E4\U+30FC 1
 62
   250
420
  3288107
370
    35
100
AcDb2dPolyline
 66
     1
 10
0.0
 20
0.0
 30
0.0
  0
VERTEX
  5
AB
330
AA
100
AcDbEntity
  8
\U+30EC\U+30A4\U+30E4\U+30FC 1
 62
   250
420
  3288107
370
    35
100
AcDbVertex
100
AcDb2dVertex
 10
490.2684168377699
 20
-559.7457033225833
 30
0.0
  0
VERTEX
  5
AC
330
AA
100
AcDbEntity
  8
\U+30EC\U+30A4\U+30E4\U+30FC 1
 62
   250
420
  3288107
370
    35
100
AcDbVertex
100
AcDb2dVertex
 10
470.2689353332507
 20
-559.7457033225833
 30
0.0
  0
VERTEX
  5
AD
330
AA
100
AcDbEntity
  8
\U+30EC\U+30A4\U+30E4\U+30FC 1
 62
   250
420
  3288107
370
    35
100
AcDbVertex
100
AcDb2dVertex
 10
470.2689353332507
 20
-519.7457067842175
 30
0.0
  0
VERTEX
  5
AE
330
AA
100
AcDbEntity
  8
\U+30EC\U+30A4\U+30E4\U+30FC 1
 62
   250
420
  3288107
370
    35
100
AcDbVertex
100
AcDb2dVertex
 10
490.2684168377699
 20
-519.7457067842175
 30
0.0
  0
VERTEX
  5
AF
330
AA
100
AcDbEntity
  8
\U+30EC\U+30A4\U+30E4\U+30FC 1
 62
   250
420
  3288107
370
    35
100
AcDbVertex
100
AcDb2dVertex
 10
490.2684168377699
 20
-559.7457033225833
 30
0.0
  0
SEQEND
  5
B0
330
AA
100
AcDbEntity
  8
\U+30EC\U+30A4\U+30E4\U+30FC 1
370
    35
  0
POLYLINE
  5
B1
330
1F
100
AcDbEntity
  8
\U+30EC\U+30A4\U+30E4\U+30FC 1
 62
   250
420
  3288107
370
    35
100
AcDb2dPolyline
 66
     1
 10
0.0
 20
0.0
 30
0.0
  0
VERTEX
  5
B2
330
B1
100
AcDbEntity
  8
\U+30EC\U+30A4\U+30E4\U+30FC 1
 62
   250
420
  3288107
370
    35
100
AcDbVertex
100
AcDb2dVertex
 10
290.2679173812774
 20
-559.7457033225833
 30
0.0
  0
VERTEX
  5
B3
330
B1
100
AcDbEntity
  8
\U+30EC\U+30A4\U+30E4\U+30FC 1
 62
   250
420
  3288107
370
    35
100
AcDbVertex
100
AcDb2dVertex
 10
270.2680913669823
 20
-559.7457033225833
 30
0.0
  0
VERTEX
  5
B4
330
B1
100
AcDbEntity
  8
\U+30EC\U+30A4\U+30E4\U+30FC 1
 62
   250
420
  3288107
370
    35
100
AcDbVertex
100
AcDb2dVertex
 10
270.2680913669823
 20
-519.7457067842175
 30
0.0
  0
VERTEX
  5
B5
330
B1
100
AcDbEntity
  8
\U+30EC\U+30A4\U+30E4\U+30FC 1
 62
   250
420
  3288107
370
    35
100
AcDbVertex
100
AcDb2dVertex
 10
290.2679173812774
 20
-519.7457067842175
 30
0.0
  0
VERTEX
  5
B6
330
B1
100
AcDbEntity
  8
\U+30EC\U+30A4\U+30E4\U+30FC 1
 62
   250
420
  3288107
370
    35
100
AcDbVertex
100
AcDb2dVertex
 10
290.2679173812774
 20
-559.7457033225833
 30
0.0
  0
SEQEND
  5
B7
330
B1
100
AcDbEntity
  8
\U+30EC\U+30A4\U+30E4\U+30FC 1
370
    35
  0
POLYLINE
  5
B8
330
1F
100
AcDbEntity
  8
\U+30EC\U+30A4\U+30E4\U+30FC 1
 62
   250
420
  3288107
370
    35
100
AcDb2dPolyline
 66
     1
 10
0.0
 20
0.0
 30
0.0
  0
VERTEX
  5
B9
330
B8
100
AcDbEntity
  8
\U+30EC\U+30A4\U+30E4\U+30FC 1
 62
   250
420
  3288107
370
    35
100
AcDbVertex
100
AcDb2dVertex
 10
330.2679139196431
 20
-559.7457033225833
 30
0.0
  0
VERTEX
  5
BA
330
B8
100
AcDbEntity
  8
\U+30EC\U+30A4\U+30E4\U+30FC 1
 62
   250
420
  3288107
370
    35
100
AcDbVertex
100
AcDb2dVertex
 10
310.2677433955723
 20
-559.7457033225833
 30
0.0
  0
VERTEX
  5
BB
330
B8
100
AcDbEntity
  8
\U+30EC\U+30A4\U+30E4\U+30FC 1
 62
   250
420
  3288107
370
    35
100
AcDbVertex
100
AcDb2dVertex
 10
310.2677433955723
 20
-519.7457067842175
 30
0.0
  0
VERTEX
  5
BC
330
B8
100
AcDbEntity
  8
\U+30EC\U+30A4\U+30E4\U+30FC 1
 62
   250
420
  3288107
370
    35
100
AcDbVertex
100
AcDb2dVertex
 10
330.2679139196431
 20
-519.7457067842175
 30
0.0
  0
VERTEX
  5
BD
330
B8
100
AcDbEntity
  8
\U+30EC\U+30A4\U+30E4\U+30FC 1
 62
   250
420
  3288107
370
    35
100
AcDbVertex
100
AcDb2dVertex
 10
330.2679139196431
 20
-559.7457033225833
 30
0.0
  0
SEQEND
  5
BE
330
B8
100
AcDbEntity
  8
\U+30EC\U+30A4\U+30E4\U+30FC 1
370
    35
  0
SPLINE
  5
BF
330
1F
100
AcDbEntity
  8
\U+30EC\U+30A4\U+30E4\U+30FC 1
 62
   250
420
  3288107
370
    35
100
AcDbSpline
210
0.0
220
0.0
230
1.0
 70
    11
 71
     3
 72
    17
 73
    13
 74
     0
 42
0.0000000001
 43
0.0000000001
 40
0.0
 40
0.0
 40
0.0
 40
0.0
 40
1.0
 40
1.0
 40
1.0
 40
2.0
 40
2.0
 40
2.0
 40
3.0
 40
3.0
 40
3.0
 40
4.0
 40
4.0
 40
4.0
 40
4.0
 10
101.8672343307297
 20
-568.2454485110263
 30
0.0
 10
101.8672343307297
 20
-569.1291160859436
 30
0.0
 10
101.1508262519615
 20
-569.8453519098238
 30
0.0
 10
100.2671586770444
 20
-569.8453519098238
 30
0.0
 10
99.3834911021272
 20
-569.8453519098238
 30
0.0
 10
98.66708302335907
 20
-569.1291160859436
 30
0.0
 10
98.66708302335907
 20
-568.2454485110263
 30
0.0
 10
98.66708302335907
 20
-567.3617809361092
 30
0.0
 10
99.3834911021272
 20
-566.645545112229
 30
0.0
 10
100.2671586770444
 20
-566.645545112229
 30
0.0
 10
101.1508262519615
 20
-566.645545112229
 30
0.0
 10
101.8672343307297
 20
-567.3617809361092
 30
0.0
 10
101.8672343307297
 20
-568.2454485110263
 30
0.0
  0
SPLINE
  5
C0
330
1F
100
AcDbEntity
  8
\U+30EC\U+30A4\U+30E4\U+30FC 1
 62
   250
420
  3288107
370
    35
100
AcDbSpline
210
0.0
220
0.0
230
1.0
 70
    11
 71
     3
 72
    17
 73
    13
 74
     0
 42
0.0000000001
 43
0.0000000001
 40
0.0
 40
0.0
 40
0.0
 40
0.0
 40
1.0
 40
1.0
 40
1.0
 40
2.0
 40
2.0
 40
2.0
 40
3.0
 40
3.0
 40
3.0
 40
4.0
 40
4.0
 40
4.0
 40
4.0
 10
421.8684124218712
 20
-568.2454485110263
 30
0.0
 10
421.8684124218712
 20
-569.1291160859436
 30
0.0
 10
421.1521765979909
 20
-569.8453519098238
 30
0.0
 10
420.268164513298
 20
-569.8453519098238
 30
0.0
 10
419.3848414481566
 20
-569.8453519098238
 30
0.0
 10
418.6682611145006
 20
-569.1291160859436
 30
0.0
 10
418.6682611145006
 20
-568.2454485110263
 30
0.0
 10
418.6682611145006
 20
-567.3617809361092
 30
0.0
 10
419.3848414481566
 20
-566.645545112229
 30
0.0
 10
420.268164513298
 20
-566.645545112229
 30
0.0
 10
421.1521765979909
 20
-566.645545112229
 30
0.0
 10
421.8684124218712
 20
-567.3617809361092
 30
0.0
 10
421.8684124218712
 20
-568.2454485110263
 30
0.0
  0
SPLINE
  5
C1
330
1F
100
AcDbEntity
  8
\U+30EC\U+30A4\U+30E4\U+30FC 1
 62
   250
420
  3288107
370
    35
100
AcDbSpline
210
0.0
220
0.0
230
1.0
 70
    11
 71
     3
 72
    17
 73
    13
 74
     0
 42
0.0000000001
 43
0.0000000001
 40
0.0
 40
0.0
 40
0.0
 40
0.0
 40
1.0
 40
1.0
 40
1.0
 40
2.0
 40
2.0
 40
2.0
 40
3.0
 40
3.0
 40
3.0
 40
4.0
 40
4.0
 40
4.0
 40
4.0
 10
25.4666793915165
 20
-213.745922746096
 30
0.0
 10
25.4666793915165
 20
-214.6295903210132
 30
0.0
 10
24.75027131274836
 20
-215.3458261448934
 30
0.0
 10
23.86660373783119
 20
-215.3458261448934
 30
0.0
 10
22.98293616291402
 20
-215.3458261448934
 30
0.0
 10
22.26670033903378
 20
-214.6295903210132
 30
0.0
 10
22.26670033903378
 20
-213.745922746096
 30
0.0
 10
22.26670033903378
 20
-212.8622551711788
 30
0.0
 10
22.98293616291402
 20
-212.1456748375228
 30
0.0
 10
23.86660373783119
 20
-212.1456748375228
 30
0.0
 10
24.75027131274836
 20
-212.1456748375228
 30
0.0
 10
25.4666793915165
 20
-212.8622551711788
 30
0.0
 10
25.4666793915165
 20
-213.745922746096
 30
0.0
  0
SPLINE
  5
C2
330
1F
100
AcDbEntity
  8
\U+30EC\U+30A4\U+30E4\U+30FC 1
 62
   250
420
  3288107
370
    35
100
AcDbSpline
210
0.0
220
0.0
230
1.0
 70
    11
 71
     3
 72
    17
 73
    13
 74
     0
 42
0.0000000001
 43
0.0000000001
 40
0.0
 40
0.0
 40
0.0
 40
0.0
 40
1.0
 40
1.0
 40
1.0
 40
2.0
 40
2.0
 40
2.0
 40
3.0
 40
3.0
 40
3.0
 40
4.0
 40
4.0
 40
4.0
 40
4.0
 10
25.4666793915165
 20
-474.5456796899844
 30
0.0
 10
25.4666793915165
 20
-473.6620121150672
 30
0.0
 10
24.75027131274836
 20
-472.945776291187
 30
0.0
 10
23.86660373783119
 20
-472.945776291187
 30
0.0
 10
22.98293616291402
 20
-472.945776291187
 30
0.0
 10
22.26670033903378
 20
-473.6620121150672
 30
0.0
 10
22.26670033903378
 20
-474.5456796899844
 30
0.0
 10
22.26670033903378
 20
-475.4293472649015
 30
0.0
 10
22.98293616291402
 20
-476.1459275985576
 30
0.0
 10
23.86660373783119
 20
-476.1459275985576
 30
0.0
 10
24.75027131274836
 20
-476.1459275985576
 30
0.0
 10
25.4666793915165
 20
-475.4293472649015
 30
0.0
 10
25.4666793915165
 20
-474.5456796899844
 30
0.0
  0
SPLINE
  5
C3
330
1F
100
AcDbEntity
  8
\U+30EC\U+30A4\U+30E4\U+30FC 1
 62
   250
420
  3288107
370
    35
100
AcDbSpline
210
0.0
220
0.0
230
1.0
 70
    11
 71
     3
 72
    17
 73
    13
 74
     0
 42
0.0000000001
 43
0.0000000001
 40
0.0
 40
0.0
 40
0.0
 40
0.0
 40
1.0
 40
1.0
 40
1.0
 40
2.0
 40
2.0
 40
2.0
 40
3.0
 40
3.0
 40
3.0
 40
4.0
 40
4.0
 40
4.0
 40
4.0
 10
718.0672378483674
 20
-213.745922746096
 30
0.0
 10
718.0672378483674
 20
-214.6295903210132
 30
0.0
 10
718.7838181820235
 20
-215.3458261448934
 30
0.0
 10
719.6671412471649
 20
-215.3458261448934
 30
0.0
 10
720.5511533318578
 20
-215.3458261448934
 30
0.0
 10
721.2670446459623
 20
-214.6295903210132
 30
0.0
 10
721.2670446459623
 20
-213.745922746096
 30
0.0
 10
721.2670446459623
 20
-212.8622551711788
 30
0.0
 10
720.5511533318578
 20
-212.1456748375228
 30
0.0
 10
719.6671412471649
 20
-212.1456748375228
 30
0.0
 10
718.7838181820235
 20
-212.1456748375228
 30
0.0
 10
718.0672378483674
 20
-212.8622551711788
 30
0.0
 10
718.0672378483674
 20
-213.745922746096
 30
0.0
  0
SPLINE
  5
C4
330
1F
100
AcDbEntity
  8
\U+30EC\U+30A4\U+30E4\U+30FC 1
 62
   250
420
  3288107
370
    35
100
AcDbSpline
210
0.0
220
0.0
230
1.0
 70
    11
 71
     3
 72
    17
 73
    13
 74
     0
 42
0.0000000001
 43
0.0000000001
 40
0.0
 40
0.0
 40
0.0
 40
0.0
 40
1.0
 40
1.0
 40
1.0
 40
2.0
 40
2.0
 40
2.0
 40
3.0
 40
3.0
 40
3.0
 40
4.0
 40
4.0
 40
4.0
 40
4.0
 10
718.0672378483674
 20
-474.5456796899844
 30
0.0
 10
718.0672378483674
 20
-473.6620121150672
 30
0.0
 10
718.7838181820235
 20
-472.945776291187
 30
0.0
 10
719.6671412471649
 20
-472.945776291187
 30
0.0
 10
720.5511533318578
 20
-472.945776291187
 30
0.0
 10
721.2670446459623
 20
-473.6620121150672
 30
0.0
 10
721.2670446459623
 20
-474.5456796899844
 30
0.0
 10
721.2670446459623
 20
-475.4293472649015
 30
0.0
 10
720.5511533318578
 20
-476.1459275985576
 30
0.0
 10
719.6671412471649
 20
-476.1459275985576
 30
0.0
 10
718.7838181820235
 20
-476.1459275985576
 30
0.0
 10
718.0672378483674
 20
-475.4293472649015
 30
0.0
 10
718.0672378483674
 20
-474.5456796899844
 30
0.0
  0
SPLINE
  5
C5
330
1F
100
AcDbEntity
  8
\U+30EC\U+30A4\U+30E4\U+30FC 1
 62
   250
420
  3288107
370
    35
100
AcDbSpline
210
0.0
220
0.0
230
1.0
 70
    11
 71
     3
 72
    17
 73
    13
 74
     0
 42
0.0000000001
 43
0.0000000001
 40
0.0
 40
0.0
 40
0.0
 40
0.0
 40
1.0
 40
1.0
 40
1.0
 40
2.0
 40
2.0
 40
2.0
 40
3.0
 40
3.0
 40
3.0
 40
4.0
 40
4.0
 40
4.0
 40
4.0
 10
231.7667123533299
 20
-217.8452445682946
 30
0.0
 10
230.8830447784127
 20
-217.8452445682946
 30
0.0
 10
230.1668089545325
 20
-217.1290087444144
 30
0.0
 10
230.1668089545325
 20
-216.2453411694972
 30
0.0
 10
230.1668089545325
 20
-215.3616735945801
 30
0.0
 10
230.8830447784127
 20
-214.6454377706998
 30
0.0
 10
231.7667123533299
 20
-214.6454377706998
 30
0.0
 10
232.6503799282471
 20
-214.6454377706998
 30
0.0
 10
233.3669602619031
 20
-215.3616735945801
 30
0.0
 10
233.3669602619031
 20
-216.2453411694972
 30
0.0
 10
233.3669602619031
 20
-217.1290087444144
 30
0.0
 10
232.6503799282471
 20
-217.8452445682946
 30
0.0
 10
231.7667123533299
 20
-217.8452445682946
 30
0.0
  0
SPLINE
  5
C6
330
1F
100
AcDbEntity
  8
\U+30EC\U+30A4\U+30E4\U+30FC 1
 62
   250
420
  3288107
370
    35
100
AcDbSpline
210
0.0
220
0.0
230
1.0
 70
    11
 71
     3
 72
    17
 73
    13
 74
     0
 42
0.0000000001
 43
0.0000000001
 40
0.0
 40
0.0
 40
0.0
 40
0.0
 40
1.0
 40
1.0
 40
1.0
 40
2.0
 40
2.0
 40
2.0
 40
3.0
 40
3.0
 40
3.0
 40
4.0
 40
4.0
 40
4.0
 40
4.0
 10
511.7672048865541
 20
-217.8452445682946
 30
0.0
 10
510.8835373116369
 20
-217.8452445682946
 30
0.0
 10
510.1673014877566
 20
-217.1290087444144
 30
0.0
 10
510.1673014877566
 20
-216.2453411694972
 30
0.0
 10
510.1673014877566
 20
-215.3616735945801
 30
0.0
 10
510.8835373116369
 20
-214.6454377706998
 30
0.0
 10
511.7672048865541
 20
-214.6454377706998
 30
0.0
 10
512.6508724614712
 20
-214.6454377706998
 30
0.0
 10
513.3674527951273
 20
-215.3616735945801
 30
0.0
 10
513.3674527951273
 20
-216.2453411694972
 30
0.0
 10
513.3674527951273
 20
-217.1290087444144
 30
0.0
 10
512.6508724614712
 20
-217.8452445682946
 30
0.0
 10
511.7672048865541
 20
-217.8452445682946
 30
0.0
  0
SPLINE
  5
C7
330
1F
100
AcDbEntity
  8
\U+30EC\U+30A4\U+30E4\U+30FC 1
 62
   250
420
  3288107
370
    35
100
AcDbSpline
210
0.0
220
0.0
230
1.0
 70
    11
 71
     3
 72
    17
 73
    13
 74
     0
 42
0.0000000001
 43
0.0000000001
 40
0.0
 40
0.0
 40
0.0
 40
0.0
 40
1.0
 40
1.0
 40
1.0
 40
2.0
 40
2.0
 40
2.0
 40
3.0
 40
3.0
 40
3.0
 40
4.0
 40
4.0
 40
4.0
 40
4.0
 10
161.7668045386337
 20
-470.4453243384584
 30
0.0
 10
162.6504721135509
 20
-470.4453243384584
 30
0.0
 10
163.3667079374312
 20
-471.1619046721144
 30
0.0
 10
163.3667079374312
 20
-472.0455722470316
 30
0.0
 10
163.3667079374312
 20
-472.9292398219487
 30
0.0
 10
162.6504721135509
 20
-473.645475645829
 30
0.0
 10
161.7668045386337
 20
-473.645475645829
 30
0.0
 10
160.8831369637166
 20
-473.645475645829
 30
0.0
 10
160.1665566300605
 20
-472.9292398219487
 30
0.0
 10
160.1665566300605
 20
-472.0455722470316
 30
0.0
 10
160.1665566300605
 20
-471.1619046721144
 30
0.0
 10
160.8831369637166
 20
-470.4453243384584
 30
0.0
 10
161.7668045386337
 20
-470.4453243384584
 30
0.0
  0
SPLINE
  5
C8
330
1F
100
AcDbEntity
  8
\U+30EC\U+30A4\U+30E4\U+30FC 1
 62
   250
420
  3288107
370
    35
100
AcDbSpline
210
0.0
220
0.0
230
1.0
 70
    11
 71
     3
 72
    17
 73
    13
 74
     0
 42
0.0000000001
 43
0.0000000001
 40
0.0
 40
0.0
 40
0.0
 40
0.0
 40
1.0
 40
1.0
 40
1.0
 40
2.0
 40
2.0
 40
2.0
 40
3.0
 40
3.0
 40
3.0
 40
4.0
 40
4.0
 40
4.0
 40
4.0
 10
581.767457211026
 20
-470.4453243384584
 30
0.0
 10
582.6511247859431
 20
-470.4453243384584
 30
0.0
 10
583.3673606098234
 20
-471.1619046721144
 30
0.0
 10
583.3673606098234
 20
-472.0455722470316
 30
0.0
 10
583.3673606098234
 20
-472.9292398219487
 30
0.0
 10
582.6511247859431
 20
-473.645475645829
 30
0.0
 10
581.767457211026
 20
-473.645475645829
 30
0.0
 10
580.8837896361089
 20
-473.645475645829
 30
0.0
 10
580.1672093024528
 20
-472.9292398219487
 30
0.0
 10
580.1672093024528
 20
-472.0455722470316
 30
0.0
 10
580.1672093024528
 20
-471.1619046721144
 30
0.0
 10
580.8837896361089
 20
-470.4453243384584
 30
0.0
 10
581.767457211026
 20
-470.4453243384584
 30
0.0
  0
SPLINE
  5
C9
330
1F
100
AcDbEntity
  8
\U+30EC\U+30A4\U+30E4\U+30FC 1
 62
   250
420
  3288107
370
    35
100
AcDbSpline
210
0.0
220
0.0
230
1.0
 70
    11
 71
     3
 72
    17
 73
    13
 74
     0
 42
0.0000000001
 43
0.0000000001
 40
0.0
 40
0.0
 40
0.0
 40
0.0
 40
1.0
 40
1.0
 40
1.0
 40
2.0
 40
2.0
 40
2.0
 40
3.0
 40
3.0
 40
3.0
 40
4.0
 40
4.0
 40
4.0
 40
4.0
 10
581.7647011328196
 20
-121.6464018336272
 30
0.0
 10
580.8806890481267
 20
-121.6464018336272
 30
0.0
 10
580.1647977340223
 20
-120.9298214999712
 30
0.0
 10
580.1647977340223
 20
-120.046153925054
 30
0.0
 10
580.1647977340223
 20
-119.1624863501368
 30
0.0
 10
580.8806890481267
 20
-118.4462505262566
 30
0.0
 10
581.7647011328196
 20
-118.4462505262566
 30
0.0
 10
582.648024197961
 20
-118.4462505262566
 30
0.0
 10
583.364604531617
 20
-119.1624863501368
 30
0.0
 10
583.364604531617
 20
-120.046153925054
 30
0.0
 10
583.364604531617
 20
-120.9298214999712
 30
0.0
 10
582.648024197961
 20
-121.6464018336272
 30
0.0
 10
581.7647011328196
 20
-121.6464018336272
 30
0.0
  0
SPLINE
  5
CA
330
1F
100
AcDbEntity
  8
\U+30EC\U+30A4\U+30E4\U+30FC 1
 62
   250
420
  3288107
370
    35
100
AcDbSpline
210
0.0
220
0.0
230
1.0
 70
    11
 71
     3
 72
    17
 73
    13
 74
     0
 42
0.0000000001
 43
0.0000000001
 40
0.0
 40
0.0
 40
0.0
 40
0.0
 40
1.0
 40
1.0
 40
1.0
 40
2.0
 40
2.0
 40
2.0
 40
3.0
 40
3.0
 40
3.0
 40
4.0
 40
4.0
 40
4.0
 40
4.0
 10
161.7638762055395
 20
-121.6464018336272
 30
0.0
 10
160.8802086306223
 20
-121.6464018336272
 30
0.0
 10
160.1639728067421
 20
-120.9298214999712
 30
0.0
 10
160.1639728067421
 20
-120.046153925054
 30
0.0
 10
160.1639728067421
 20
-119.1624863501368
 30
0.0
 10
160.8802086306223
 20
-118.4462505262566
 30
0.0
 10
161.7638762055395
 20
-118.4462505262566
 30
0.0
 10
162.6475437804567
 20
-118.4462505262566
 30
0.0
 10
163.3641241141127
 20
-119.1624863501368
 30
0.0
 10
163.3641241141127
 20
-120.046153925054
 30
0.0
 10
163.3641241141127
 20
-120.9298214999712
 30
0.0
 10
162.6475437804567
 20
-121.6464018336272
 30
0.0
 10
161.7638762055395
 20
-121.6464018336272
 30
0.0
  0
SPLINE
  5
CB
330
1F
100
AcDbEntity
  8
\U+30EC\U+30A4\U+30E4\U+30FC 1
 62
   250
420
  3288107
370
    35
100
AcDbSpline
210
0.0
220
0.0
230
1.0
 70
    11
 71
     3
 72
   131
 73
   127
 74
     0
 42
0.0000000001
 43
0.0000000001
 40
0.0
 40
0.0
 40
0.0
 40
0.0
 40
1.0
 40
1.0
 40
1.0
 40
2.0
 40
2.0
 40
2.0
 40
3.0
 40
3.0
 40
3.0
 40
4.0
 40
4.0
 40
4.0
 40
5.0
 40
5.0
 40
5.0
 40
6.0
 40
6.0
 40
6.0
 40
7.0
 40
7.0
 40
7.0
 40
8.0
 40
8.0
 40
8.0
 40
9.0
 40
9.0
 40
9.0
 40
10.0
 40
10.0
 40
10.0
 40
11.0
 40
11.0
 40
11.0
 40
12.0
 40
12.0
 40
12.0
 40
13.0
 40
13.0
 40
13.0
 40
14.0
 40
14.0
 40
14.0
 40
15.0
 40
15.0
 40
15.0
 40
16.0
 40
16.0
 40
16.0
 40
17.0
 40
17.0
 40
17.0
 40
18.0
 40
18.0
 40
18.0
 40
19.0
 40
19.0
 40
19.0
 40
20.0
 40
20.0
 40
20.0
 40
21.0
 40
21.0
 40
21.0
 40
22.0
 40
22.0
 40
22.0
 40
23.0
 40
23.0
 40
23.0
 40
24.0
 40
24.0
 40
24.0
 40
25.0
 40
25.0
 40
25.0
 40
26.0
 40
26.0
 40
26.0
 40
27.0
 40
27.0
 40
27.0
 40
28.0
 40
28.0
 40
28.0
 40
29.0
 40
29.0
 40
29.0
 40
30.0
 40
30.0
 40
30.0
 40
31.0
 40
31.0
 40
31.0
 40
32.0
 40
32.0
 40
32.0
 40
33.0
 40
33.0
 40
33.0
 40
34.0
 40
34.0
 40
34.0
 40
35.0
 40
35.0
 40
35.0
 40
36.0
 40
36.0
 40
36.0
 40
37.0
 40
37.0
 40
37.0
 40
38.0
 40
38.0
 40
38.0
 40
39.0
 40
39.0
 40
39.0
 40
40.0
 40
40.0
 40
40.0
 40
41.0
 40
41.0
 40
41.0
 40
42.0
 40
42.0
 40
42.0
 40
42.0
 10
736.7644724003771
 20
-194.1457280717246
 30
0.0
 10
736.7644724003771
 20
-194.1457280717246
 30
0.0
 10
671.7651239813624
 20
-194.1457280717246
 30
0.0
 10
671.7651239813624
 20
-194.1457280717246
 30
0.0
 10
671.7651239813624
 20
-194.1457280717246
 30
0.0
 10
671.7651239813624
 20
-188.5460661759336
 30
0.0
 10
671.7651239813624
 20
-188.5460661759336
 30
0.0
 10
671.7651239813624
 20
-188.5460661759336
 30
0.0
 10
571.7649603805601
 20
-188.5460661759336
 30
0.0
 10
571.7649603805601
 20
-188.5460661759336
 30
0.0
 10
571.7649603805601
 20
-188.5460661759336
 30
0.0
 10
571.7649603805601
 20
-194.1457280717246
 30
0.0
 10
571.7649603805601
 20
-194.1457280717246
 30
0.0
 10
571.7649603805601
 20
-194.1457280717246
 30
0.0
 10
471.7647967797577
 20
-194.1457280717246
 30
0.0
 10
471.7647967797577
 20
-194.1457280717246
 30
0.0
 10
471.7647967797577
 20
-194.1457280717246
 30
0.0
 10
471.7647967797577
 20
-188.5460661759336
 30
0.0
 10
471.7647967797577
 20
-188.5460661759336
 30
0.0
 10
471.7647967797577
 20
-188.5460661759336
 30
0.0
 10
371.7644609240675
 20
-188.5460661759336
 30
0.0
 10
371.7644609240675
 20
-188.5460661759336
 30
0.0
 10
371.7644609240675
 20
-188.5460661759336
 30
0.0
 10
371.7644609240675
 20
-194.1457280717246
 30
0.0
 10
371.7644609240675
 20
-194.1457280717246
 30
0.0
 10
371.7644609240675
 20
-194.1457280717246
 30
0.0
 10
271.7642973232651
 20
-194.1457280717246
 30
0.0
 10
271.7642973232651
 20
-194.1457280717246
 30
0.0
 10
271.7642973232651
 20
-194.1457280717246
 30
0.0
 10
271.7642973232651
 20
-188.5460661759336
 30
0.0
 10
271.7642973232651
 20
-188.5460661759336
 30
0.0
 10
271.7642973232651
 20
-188.5460661759336
 30
0.0
 10
171.7641337224628
 20
-188.5460661759336
 30
0.0
 10
171.7641337224628
 20
-188.5460661759336
 30
0.0
 10
171.7641337224628
 20
-188.5460661759336
 30
0.0
 10
171.7641337224628
 20
-194.1457280717246
 30
0.0
 10
171.7641337224628
 20
-194.1457280717246
 30
0.0
 10
171.7641337224628
 20
-194.1457280717246
 30
0.0
 10
71.76397012166044
 20
-194.1457280717246
 30
0.0
 10
71.76397012166044
 20
-194.1457280717246
 30
0.0
 10
71.76397012166044
 20
-194.1457280717246
 30
0.0
 10
71.76397012166044
 20
-188.5460661759336
 30
0.0
 10
71.76397012166044
 20
-188.5460661759336
 30
0.0
 10
71.76397012166044
 20
-188.5460661759336
 30
0.0
 10
6.763932683094081
 20
-188.5457216661578
 30
0.0
 10
6.763932683094081
 20
-188.5457216661578
 30
0.0
 10
6.763932683094081
 20
-188.5457216661578
 30
0.0
 10
6.763932683094081
 20
-163.5460252757331
 30
0.0
 10
6.763932683094081
 20
-163.5460252757331
 30
0.0
 10
6.763932683094081
 20
-163.5460252757331
 30
0.0
 10
12.36393908866081
 20
-163.5460252757331
 30
0.0
 10
12.36393908866081
 20
-163.5460252757331
 30
0.0
 10
12.36393908866081
 20
-163.5460252757331
 30
0.0
 10
12.36393908866081
 20
-133.5461139994027
 30
0.0
 10
12.36393908866081
 20
-133.5461139994027
 30
0.0
 10
12.36393908866081
 20
-133.5461139994027
 30
0.0
 10
6.763932683094081
 20
-133.5461139994027
 30
0.0
 10
6.763932683094081
 20
-133.5461139994027
 30
0.0
 10
6.763932683094081
 20
-133.5461139994027
 30
0.0
 10
6.763932683094081
 20
-108.5464176089779
 30
0.0
 10
6.763932683094081
 20
-108.5464176089779
 30
0.0
 10
6.763932683094081
 20
-108.5464176089779
 30
0.0
 10
6.764621702645673
 20
-108.5464176089779
 30
0.0
 10
6.764621702645673
 20
-108.5464176089779
 30
0.0
 10
6.764621702645673
 20
-108.5464176089779
 30
0.0
 10
71.76465914121204
 20
-108.5464176089779
 30
0.0
 10
71.76465914121204
 20
-108.5460730992021
 30
0.0
 10
71.76465914121204
 20
-108.5460730992021
 30
0.0
 10
71.76465914121204
 20
-102.9464112034112
 30
0.0
 10
71.76465914121204
 20
-102.9464112034112
 30
0.0
 10
71.76465914121204
 20
-102.9464112034112
 30
0.0
 10
171.7648227420144
 20
-102.9464112034112
 30
0.0
 10
171.7648227420144
 20
-102.9464112034112
 30
0.0
 10
171.7648227420144
 20
-102.9464112034112
 30
0.0
 10
171.7648227420144
 20
-108.5460730992021
 30
0.0
 10
171.7648227420144
 20
-108.5460730992021
 30
0.0
 10
171.7648227420144
 20
-108.5460730992021
 30
0.0
 10
271.7649863428167
 20
-108.5460730992021
 30
0.0
 10
271.7649863428167
 20
-108.5460730992021
 30
0.0
 10
271.7649863428167
 20
-108.5460730992021
 30
0.0
 10
271.7649863428167
 20
-102.9464112034112
 30
0.0
 10
271.7649863428167
 20
-102.9464112034112
 30
0.0
 10
271.7649863428167
 20
-102.9464112034112
 30
0.0
 10
371.7651499436191
 20
-102.9464112034112
 30
0.0
 10
371.7651499436191
 20
-102.9464112034112
 30
0.0
 10
371.7651499436191
 20
-102.9464112034112
 30
0.0
 10
371.7651499436191
 20
-108.5460730992021
 30
0.0
 10
371.7651499436191
 20
-108.5460730992021
 30
0.0
 10
371.7651499436191
 20
-108.5460730992021
 30
0.0
 10
471.7654857993093
 20
-108.5460730992021
 30
0.0
 10
471.7654857993093
 20
-108.5460730992021
 30
0.0
 10
471.7654857993093
 20
-108.5460730992021
 30
0.0
 10
471.7654857993093
 20
-102.9464112034112
 30
0.0
 10
471.7654857993093
 20
-102.9464112034112
 30
0.0
 10
471.7654857993093
 20
-102.9464112034112
 30
0.0
 10
571.7656494001117
 20
-102.9464112034112
 30
0.0
 10
571.7656494001117
 20
-102.9464112034112
 30
0.0
 10
571.7656494001117
 20
-102.9464112034112
 30
0.0
 10
571.7656494001117
 20
-108.5460730992021
 30
0.0
 10
571.7656494001117
 20
-108.5460730992021
 30
0.0
 10
571.7656494001117
 20
-108.5460730992021
 30
0.0
 10
671.765813000914
 20
-108.5460730992021
 30
0.0
 10
671.765813000914
 20
-108.5460730992021
 30
0.0
 10
671.765813000914
 20
-108.5460730992021
 30
0.0
 10
671.765813000914
 20
-102.9464112034112
 30
0.0
 10
671.765813000914
 20
-102.9464112034112
 30
0.0
 10
671.765813000914
 20
-102.9464112034112
 30
0.0
 10
671.7678800595687
 20
-102.9464112034112
 30
0.0
 10
671.7678800595687
 20
-102.9464112034112
 30
0.0
 10
671.7678800595687
 20
-102.9464112034112
 30
0.0
 10
736.7644724003771
 20
-102.9464112034112
 30
0.0
 10
736.7644724003771
 20
-102.9464112034112
 30
0.0
 10
736.7644724003771
 20
-102.9464112034112
 30
0.0
 10
736.7644724003771
 20
-133.5461139994027
 30
0.0
 10
736.7644724003771
 20
-133.5461139994027
 30
0.0
 10
736.7644724003771
 20
-133.5461139994027
 30
0.0
 10
731.1648105045862
 20
-133.5461139994027
 30
0.0
 10
731.1648105045862
 20
-133.5461139994027
 30
0.0
 10
731.1648105045862
 20
-133.5461139994027
 30
0.0
 10
731.1648105045862
 20
-163.5460252757331
 30
0.0
 10
731.1648105045862
 20
-163.5460252757331
 30
0.0
 10
731.1648105045862
 20
-163.5460252757331
 30
0.0
 10
736.7644724003771
 20
-163.5460252757331
 30
0.0
 10
736.7644724003771
 20
-163.5460252757331
 30
0.0
 10
736.7644724003771
 20
-163.5460252757331
 30
0.0
 10
736.7644724003771
 20
-194.1457280717246
 30
0.0
 10
736.7644724003771
 20
-194.1457280717246
 30
0.0
  0
SPLINE
  5
CC
330
1F
100
AcDbEntity
  8
\U+30EC\U+30A4\U+30E4\U+30FC 1
 62
   250
420
  3288107
370
    35
100
AcDbSpline
210
0.0
220
0.0
230
1.0
 70
    11
 71
     3
 72
    17
 73
    13
 74
     0
 42
0.0000000001
 43
0.0000000001
 40
0.0
 40
0.0
 40
0.0
 40
0.0
 40
1.0
 40
1.0
 40
1.0
 40
2.0
 40
2.0
 40
2.0
 40
3.0
 40
3.0
 40
3.0
 40
4.0
 40
4.0
 40
4.0
 40
4.0
 10
161.7637039506516
 20
-175.4460819512843
 30
0.0
 10
162.6473715255688
 20
-175.4460819512843
 30
0.0
 10
163.363607349449
 20
-176.1626622849404
 30
0.0
 10
163.363607349449
 20
-177.0463298598575
 30
0.0
 10
163.363607349449
 20
-177.9299974347747
 30
0.0
 10
162.6473715255688
 20
-178.6462332586549
 30
0.0
 10
161.7637039506516
 20
-178.6462332586549
 30
0.0
 10
160.8800363757344
 20
-178.6462332586549
 30
0.0
 10
160.1634560420784
 20
-177.9299974347747
 30
0.0
 10
160.1634560420784
 20
-177.0463298598575
 30
0.0
 10
160.1634560420784
 20
-176.1626622849404
 30
0.0
 10
160.8800363757344
 20
-175.4460819512843
 30
0.0
 10
161.7637039506516
 20
-175.4460819512843
 30
0.0
  0
SPLINE
  5
CD
330
1F
100
AcDbEntity
  8
\U+30EC\U+30A4\U+30E4\U+30FC 1
 62
   250
420
  3288107
370
    35
100
AcDbSpline
210
0.0
220
0.0
230
1.0
 70
    11
 71
     3
 72
    17
 73
    13
 74
     0
 42
0.0000000001
 43
0.0000000001
 40
0.0
 40
0.0
 40
0.0
 40
0.0
 40
1.0
 40
1.0
 40
1.0
 40
2.0
 40
2.0
 40
2.0
 40
3.0
 40
3.0
 40
3.0
 40
4.0
 40
4.0
 40
4.0
 40
4.0
 10
581.7643566230438
 20
-175.4460819512843
 30
0.0
 10
582.648024197961
 20
-175.4460819512843
 30
0.0
 10
583.3642600218412
 20
-176.1626622849404
 30
0.0
 10
583.3642600218412
 20
-177.0463298598575
 30
0.0
 10
583.3642600218412
 20
-177.9299974347747
 30
0.0
 10
582.648024197961
 20
-178.6462332586549
 30
0.0
 10
581.7643566230438
 20
-178.6462332586549
 30
0.0
 10
580.8806890481267
 20
-178.6462332586549
 30
0.0
 10
580.1641087144707
 20
-177.9299974347747
 30
0.0
 10
580.1641087144707
 20
-177.0463298598575
 30
0.0
 10
580.1641087144707
 20
-176.1626622849404
 30
0.0
 10
580.8806890481267
 20
-175.4460819512843
 30
0.0
 10
581.7643566230438
 20
-175.4460819512843
 30
0.0
  0
SPLINE
  5
CE
330
1F
100
AcDbEntity
  8
\U+30EC\U+30A4\U+30E4\U+30FC 1
 62
   250
420
  3288107
370
    35
100
AcDbSpline
210
0.0
220
0.0
230
1.0
 70
    11
 71
     3
 72
    17
 73
    13
 74
     0
 42
0.0000000001
 43
0.0000000001
 40
0.0
 40
0.0
 40
0.0
 40
0.0
 40
1.0
 40
1.0
 40
1.0
 40
2.0
 40
2.0
 40
2.0
 40
3.0
 40
3.0
 40
3.0
 40
4.0
 40
4.0
 40
4.0
 40
4.0
 10
231.7637840202356
 20
-25.44687007940822
 30
0.0
 10
230.8801164453185
 20
-25.44687007940822
 30
0.0
 10
230.1638806214382
 20
-24.73063425552798
 30
0.0
 10
230.1638806214382
 20
-23.84696668061081
 30
0.0
 10
230.1638806214382
 20
-22.96329910569364
 30
0.0
 10
230.8801164453185
 20
-22.2470632818134
 30
0.0
 10
231.7637840202356
 20
-22.2470632818134
 30
0.0
 10
232.6474515951528
 20
-22.2470632818134
 30
0.0
 10
233.3640319288089
 20
-22.96329910569364
 30
0.0
 10
233.3640319288089
 20
-23.84696668061081
 30
0.0
 10
233.3640319288089
 20
-24.73063425552798
 30
0.0
 10
232.6474515951528
 20
-25.44687007940822
 30
0.0
 10
231.7637840202356
 20
-25.44687007940822
 30
0.0
  0
SPLINE
  5
CF
330
1F
100
AcDbEntity
  8
\U+30EC\U+30A4\U+30E4\U+30FC 1
 62
   250
420
  3288107
370
    35
100
AcDbSpline
210
0.0
220
0.0
230
1.0
 70
    11
 71
     3
 72
    17
 73
    13
 74
     0
 42
0.0000000001
 43
0.0000000001
 40
0.0
 40
0.0
 40
0.0
 40
0.0
 40
1.0
 40
1.0
 40
1.0
 40
2.0
 40
2.0
 40
2.0
 40
3.0
 40
3.0
 40
3.0
 40
4.0
 40
4.0
 40
4.0
 40
4.0
 10
511.7644488083477
 20
-25.44687007940822
 30
0.0
 10
510.8804367236547
 20
-25.44687007940822
 30
0.0
 10
510.1645454095503
 20
-24.73063425552798
 30
0.0
 10
510.1645454095503
 20
-23.84696668061081
 30
0.0
 10
510.1645454095503
 20
-22.96329910569364
 30
0.0
 10
510.8804367236547
 20
-22.2470632818134
 30
0.0
 10
511.7644488083477
 20
-22.2470632818134
 30
0.0
 10
512.6477718734891
 20
-22.2470632818134
 30
0.0
 10
513.3643522071451
 20
-22.96329910569364
 30
0.0
 10
513.3643522071451
 20
-23.84696668061081
 30
0.0
 10
513.3643522071451
 20
-24.73063425552798
 30
0.0
 10
512.6477718734891
 20
-25.44687007940822
 30
0.0
 10
511.7644488083477
 20
-25.44687007940822
 30
0.0
  0
SPLINE
  5
D0
330
1F
100
AcDbEntity
  8
\U+30EC\U+30A4\U+30E4\U+30FC 1
 62
   250
420
  3288107
370
    35
100
AcDbSpline
210
0.0
220
0.0
230
1.0
 70
    11
 71
     3
 72
    17
 73
    13
 74
     0
 42
0.0000000001
 43
0.0000000001
 40
0.0
 40
0.0
 40
0.0
 40
0.0
 40
1.0
 40
1.0
 40
1.0
 40
2.0
 40
2.0
 40
2.0
 40
3.0
 40
3.0
 40
3.0
 40
4.0
 40
4.0
 40
4.0
 40
4.0
 10
511.7644488083477
 20
-79.24689470684113
 30
0.0
 10
512.6481163832649
 20
-79.24689470684113
 30
0.0
 10
513.3643522071451
 20
-79.96313053072136
 30
0.0
 10
513.3643522071451
 20
-80.84679810563854
 30
0.0
 10
513.3643522071451
 20
-81.73046568055571
 30
0.0
 10
512.6481163832649
 20
-82.44670150443595
 30
0.0
 10
511.7644488083477
 20
-82.44670150443595
 30
0.0
 10
510.8807812334305
 20
-82.44670150443595
 30
0.0
 10
510.1642008997745
 20
-81.73046568055571
 30
0.0
 10
510.1642008997745
 20
-80.84679810563854
 30
0.0
 10
510.1642008997745
 20
-79.96313053072136
 30
0.0
 10
510.8807812334305
 20
-79.24689470684113
 30
0.0
 10
511.7644488083477
 20
-79.24689470684113
 30
0.0
  0
SPLINE
  5
D1
330
1F
100
AcDbEntity
  8
\U+30EC\U+30A4\U+30E4\U+30FC 1
 62
   250
420
  3288107
370
    35
100
AcDbSpline
210
0.0
220
0.0
230
1.0
 70
    11
 71
     3
 72
    17
 73
    13
 74
     0
 42
0.0000000001
 43
0.0000000001
 40
0.0
 40
0.0
 40
0.0
 40
0.0
 40
1.0
 40
1.0
 40
1.0
 40
2.0
 40
2.0
 40
2.0
 40
3.0
 40
3.0
 40
3.0
 40
4.0
 40
4.0
 40
4.0
 40
4.0
 10
231.7639562751235
 20
-79.24655019706533
 30
0.0
 10
232.6476238500407
 20
-79.24655019706533
 30
0.0
 10
233.363859673921
 20
-79.96313053072136
 30
0.0
 10
233.363859673921
 20
-80.84645359586274
 30
0.0
 10
233.363859673921
 20
-81.73046568055571
 30
0.0
 10
232.6476238500407
 20
-82.44635699466015
 30
0.0
 10
231.7639562751235
 20
-82.44635699466015
 30
0.0
 10
230.8802887002064
 20
-82.44635699466015
 30
0.0
 10
230.1637083665503
 20
-81.73046568055571
 30
0.0
 10
230.1637083665503
 20
-80.84645359586274
 30
0.0
 10
230.1637083665503
 20
-79.96313053072136
 30
0.0
 10
230.8802887002064
 20
-79.24655019706533
 30
0.0
 10
231.7639562751235
 20
-79.24655019706533
 30
0.0
  0
SPLINE
  5
D2
330
1F
100
AcDbEntity
  8
\U+30EC\U+30A4\U+30E4\U+30FC 1
 62
   250
420
  3288107
370
    35
100
AcDbSpline
210
0.0
220
0.0
230
1.0
 70
    11
 71
     3
 72
    17
 73
    13
 74
     0
 42
0.0000000001
 43
0.0000000001
 40
0.0
 40
0.0
 40
0.0
 40
0.0
 40
1.0
 40
1.0
 40
1.0
 40
2.0
 40
2.0
 40
2.0
 40
3.0
 40
3.0
 40
3.0
 40
4.0
 40
4.0
 40
4.0
 40
4.0
 10
25.46375105842223
 20
-52.34688239312467
 30
0.0
 10
25.46375105842223
 20
-53.23089447781764
 30
0.0
 10
24.74751523454199
 20
-53.94678579192208
 30
0.0
 10
23.86384765962482
 20
-53.94678579192208
 30
0.0
 10
22.98018008470765
 20
-53.94678579192208
 30
0.0
 10
22.26394426082741
 20
-53.23089447781764
 30
0.0
 10
22.26394426082741
 20
-52.34688239312467
 30
0.0
 10
22.26394426082741
 20
-51.4635593279833
 30
0.0
 10
22.98018008470765
 20
-50.74697899432726
 30
0.0
 10
23.86384765962482
 20
-50.74697899432726
 30
0.0
 10
24.74751523454199
 20
-50.74697899432726
 30
0.0
 10
25.46375105842223
 20
-51.4635593279833
 30
0.0
 10
25.46375105842223
 20
-52.34688239312467
 30
0.0
  0
SPLINE
  5
D3
330
1F
100
AcDbEntity
  8
\U+30EC\U+30A4\U+30E4\U+30FC 1
 62
   250
420
  3288107
370
    35
100
AcDbSpline
210
0.0
220
0.0
230
1.0
 70
    11
 71
     3
 72
    17
 73
    13
 74
     0
 42
0.0000000001
 43
0.0000000001
 40
0.0
 40
0.0
 40
0.0
 40
0.0
 40
1.0
 40
1.0
 40
1.0
 40
2.0
 40
2.0
 40
2.0
 40
3.0
 40
3.0
 40
3.0
 40
4.0
 40
4.0
 40
4.0
 40
4.0
 10
718.0644817701611
 20
-52.34688239312467
 30
0.0
 10
718.0644817701611
 20
-51.4628703084317
 30
0.0
 10
718.7810621038171
 20
-50.74697899432726
 30
0.0
 10
719.6647296787343
 20
-50.74697899432726
 30
0.0
 10
720.5483972536515
 20
-50.74697899432726
 30
0.0
 10
721.2646330775317
 20
-51.4628703084317
 30
0.0
 10
721.2646330775317
 20
-52.34688239312467
 30
0.0
 10
721.2646330775317
 20
-53.23020545826605
 30
0.0
 10
720.5483972536515
 20
-53.94678579192208
 30
0.0
 10
719.6647296787343
 20
-53.94678579192208
 30
0.0
 10
718.7810621038171
 20
-53.94678579192208
 30
0.0
 10
718.0644817701611
 20
-53.23020545826605
 30
0.0
 10
718.0644817701611
 20
-52.34688239312467
 30
0.0
  0
SPLINE
  5
D4
330
1F
100
AcDbEntity
  8
\U+30EC\U+30A4\U+30E4\U+30FC 1
 62
   250
420
  3288107
370
    35
100
AcDbSpline
210
0.0
220
0.0
230
1.0
 70
    11
 71
     3
 72
    17
 73
    13
 74
     0
 42
0.0000000001
 43
0.0000000001
 40
0.0
 40
0.0
 40
0.0
 40
0.0
 40
1.0
 40
1.0
 40
1.0
 40
2.0
 40
2.0
 40
2.0
 40
3.0
 40
3.0
 40
3.0
 40
4.0
 40
4.0
 40
4.0
 40
4.0
 10
25.46409556819803
 20
-148.5460696375679
 30
0.0
 10
25.46409556819803
 20
-149.4300817222608
 30
0.0
 10
24.74768748942989
 20
-150.1459730363653
 30
0.0
 10
23.86401991451272
 20
-150.1459730363653
 30
0.0
 10
22.98035233959554
 20
-150.1459730363653
 30
0.0
 10
22.26411651571531
 20
-149.4300817222608
 30
0.0
 10
22.26411651571531
 20
-148.5460696375679
 30
0.0
 10
22.26411651571531
 20
-147.6627465724265
 30
0.0
 10
22.98035233959554
 20
-146.9461662387705
 30
0.0
 10
23.86401991451272
 20
-146.9461662387705
 30
0.0
 10
24.74768748942989
 20
-146.9461662387705
 30
0.0
 10
25.46409556819803
 20
-147.6627465724265
 30
0.0
 10
25.46409556819803
 20
-148.5460696375679
 30
0.0
  0
SPLINE
  5
D5
330
1F
100
AcDbEntity
  8
\U+30EC\U+30A4\U+30E4\U+30FC 1
 62
   250
420
  3288107
370
    35
100
AcDbSpline
210
0.0
220
0.0
230
1.0
 70
    11
 71
     3
 72
    17
 73
    13
 74
     0
 42
0.0000000001
 43
0.0000000001
 40
0.0
 40
0.0
 40
0.0
 40
0.0
 40
1.0
 40
1.0
 40
1.0
 40
2.0
 40
2.0
 40
2.0
 40
3.0
 40
3.0
 40
3.0
 40
4.0
 40
4.0
 40
4.0
 40
4.0
 10
718.0644817701611
 20
-148.5460696375679
 30
0.0
 10
718.0644817701611
 20
-147.6620575528749
 30
0.0
 10
718.7810621038171
 20
-146.9461662387705
 30
0.0
 10
719.6647296787343
 20
-146.9461662387705
 30
0.0
 10
720.5483972536515
 20
-146.9461662387705
 30
0.0
 10
721.2646330775317
 20
-147.6620575528749
 30
0.0
 10
721.2646330775317
 20
-148.5460696375679
 30
0.0
 10
721.2646330775317
 20
-149.4293927027093
 30
0.0
 10
720.5483972536515
 20
-150.1459730363653
 30
0.0
 10
719.6647296787343
 20
-150.1459730363653
 30
0.0
 10
718.7810621038171
 20
-150.1459730363653
 30
0.0
 10
718.0644817701611
 20
-149.4293927027093
 30
0.0
 10
718.0644817701611
 20
-148.5460696375679
 30
0.0
  0
SPLINE
  5
D6
330
1F
100
AcDbEntity
  8
\U+30EC\U+30A4\U+30E4\U+30FC 1
 62
   250
420
  3288107
370
    35
100
AcDbSpline
210
0.0
220
0.0
230
1.0
 70
    11
 71
     3
 72
    17
 73
    13
 74
     0
 42
0.0000000001
 43
0.0000000001
 40
0.0
 40
0.0
 40
0.0
 40
0.0
 40
1.0
 40
1.0
 40
1.0
 40
2.0
 40
2.0
 40
2.0
 40
3.0
 40
3.0
 40
3.0
 40
4.0
 40
4.0
 40
4.0
 40
4.0
 10
380.162058963987
 20
-18.94769315901349
 30
0.0
 10
380.162058963987
 20
-18.06402558409632
 30
0.0
 10
380.878639297643
 20
-17.34744525044029
 30
0.0
 10
381.7623068725602
 20
-17.34744525044029
 30
0.0
 10
382.6459744474773
 20
-17.34744525044029
 30
0.0
 10
383.3622102713576
 20
-18.06402558409632
 30
0.0
 10
383.3622102713576
 20
-18.94769315901349
 30
0.0
 10
383.3622102713576
 20
-19.83136073393066
 30
0.0
 10
382.6459744474773
 20
-20.5475965578109
 30
0.0
 10
381.7623068725602
 20
-20.5475965578109
 30
0.0
 10
380.878639297643
 20
-20.5475965578109
 30
0.0
 10
380.162058963987
 20
-19.83136073393066
 30
0.0
 10
380.162058963987
 20
-18.94769315901349
 30
0.0
  0
SPLINE
  5
D7
330
1F
100
AcDbEntity
  8
\U+30EC\U+30A4\U+30E4\U+30FC 1
 62
   250
420
  3288107
370
    35
100
AcDbSpline
210
0.0
220
0.0
230
1.0
 70
    11
 71
     3
 72
    17
 73
    13
 74
     0
 42
0.0000000001
 43
0.0000000001
 40
0.0
 40
0.0
 40
0.0
 40
0.0
 40
1.0
 40
1.0
 40
1.0
 40
2.0
 40
2.0
 40
2.0
 40
3.0
 40
3.0
 40
3.0
 40
4.0
 40
4.0
 40
4.0
 40
4.0
 10
360.162232949692
 20
-18.94769315901349
 30
0.0
 10
360.162232949692
 20
-18.06402558409632
 30
0.0
 10
360.878813283348
 20
-17.34744525044029
 30
0.0
 10
361.7624808582652
 20
-17.34744525044029
 30
0.0
 10
362.6461484331824
 20
-17.34744525044029
 30
0.0
 10
363.3623842570626
 20
-18.06402558409632
 30
0.0
 10
363.3623842570626
 20
-18.94769315901349
 30
0.0
 10
363.3623842570626
 20
-19.83136073393066
 30
0.0
 10
362.6461484331824
 20
-20.5475965578109
 30
0.0
 10
361.7624808582652
 20
-20.5475965578109
 30
0.0
 10
360.878813283348
 20
-20.5475965578109
 30
0.0
 10
360.162232949692
 20
-19.83136073393066
 30
0.0
 10
360.162232949692
 20
-18.94769315901349
 30
0.0
  0
SPLINE
  5
D8
330
1F
100
AcDbEntity
  8
\U+30EC\U+30A4\U+30E4\U+30FC 1
 62
   250
420
  3288107
370
    35
100
AcDbSpline
210
0.0
220
0.0
230
1.0
 70
    11
 71
     3
 72
    17
 73
    13
 74
     0
 42
0.0000000001
 43
0.0000000001
 40
0.0
 40
0.0
 40
0.0
 40
0.0
 40
1.0
 40
1.0
 40
1.0
 40
2.0
 40
2.0
 40
2.0
 40
3.0
 40
3.0
 40
3.0
 40
4.0
 40
4.0
 40
4.0
 40
4.0
 10
380.1641260226418
 20
-115.1468804034567
 30
0.0
 10
380.1641260226418
 20
-114.2632128285395
 30
0.0
 10
380.8807063562978
 20
-113.5466324948835
 30
0.0
 10
381.7643739312149
 20
-113.5466324948835
 30
0.0
 10
382.6480415061321
 20
-113.5466324948835
 30
0.0
 10
383.3642773300124
 20
-114.2632128285395
 30
0.0
 10
383.3642773300124
 20
-115.1468804034567
 30
0.0
 10
383.3642773300124
 20
-116.0305479783739
 30
0.0
 10
382.6480415061321
 20
-116.7467838022541
 30
0.0
 10
381.7643739312149
 20
-116.7467838022541
 30
0.0
 10
380.8807063562978
 20
-116.7467838022541
 30
0.0
 10
380.1641260226418
 20
-116.0305479783739
 30
0.0
 10
380.1641260226418
 20
-115.1468804034567
 30
0.0
  0
SPLINE
  5
D9
330
1F
100
AcDbEntity
  8
\U+30EC\U+30A4\U+30E4\U+30FC 1
 62
   250
420
  3288107
370
    35
100
AcDbSpline
210
0.0
220
0.0
230
1.0
 70
    11
 71
     3
 72
    17
 73
    13
 74
     0
 42
0.0000000001
 43
0.0000000001
 40
0.0
 40
0.0
 40
0.0
 40
0.0
 40
1.0
 40
1.0
 40
1.0
 40
2.0
 40
2.0
 40
2.0
 40
3.0
 40
3.0
 40
3.0
 40
4.0
 40
4.0
 40
4.0
 40
4.0
 10
360.1643000083467
 20
-115.1468804034567
 30
0.0
 10
360.1643000083467
 20
-114.2632128285395
 30
0.0
 10
360.8808803420028
 20
-113.5466324948835
 30
0.0
 10
361.76454791692
 20
-113.5466324948835
 30
0.0
 10
362.6482154918372
 20
-113.5466324948835
 30
0.0
 10
363.3644513157174
 20
-114.2632128285395
 30
0.0
 10
363.3644513157174
 20
-115.1468804034567
 30
0.0
 10
363.3644513157174
 20
-116.0305479783739
 30
0.0
 10
362.6482154918372
 20
-116.7467838022541
 30
0.0
 10
361.76454791692
 20
-116.7467838022541
 30
0.0
 10
360.8808803420028
 20
-116.7467838022541
 30
0.0
 10
360.1643000083467
 20
-116.0305479783739
 30
0.0
 10
360.1643000083467
 20
-115.1468804034567
 30
0.0
  0
ENDSEC
  0
SECTION
  2
OBJECTS
  0
DICTIONARY
  5
C
330
0
100
AcDbDictionary
281
     1
  3
ACAD_GROUP
350
D
  3
ACAD_LAYOUT
350
1A
  3
ACAD_MLINESTYLE
350
17
  3
ACAD_PLOTSETTINGS
350
19
  3
ACAD_PLOTSTYLENAME
350
E
  3
ACAD_TABLESTYLE
350
DA
  3
ACAD_VISUALSTYLE
350
2A
  0
DICTIONARY
  5
D
102
{ACAD_REACTORS
330
C
102
}
330
C
100
AcDbDictionary
281
     1
  0
DICTIONARY
  5
1A
102
{ACAD_REACTORS
330
C
102
}
330
C
100
AcDbDictionary
281
     1
  3
Layout1
350
1E
  3
Layout2
350
26
  3
Model
350
22
  0
DICTIONARY
  5
17
102
{ACAD_REACTORS
330
C
102
}
330
C
100
AcDbDictionary
281
     1
  3
Standard
350
18
  0
DICTIONARY
  5
19
102
{ACAD_REACTORS
330
C
102
}
330
C
100
AcDbDictionary
281
     1
  0
ACDBDICTIONARYWDFLT
  5
E
102
{ACAD_REACTORS
330
C
102
}
330
C
100
AcDbDictionary
281
     1
  3
Normal
350
F
100
AcDbDictionaryWithDefault
340
F
  0
DICTIONARY
  5
DA
102
{ACAD_REACTORS
330
C
102
}
330
C
100
AcDbDictionary
281
     1
  0
DICTIONARY
  5
2A
102
{ACAD_REACTORS
330
C
102
}
330
C
100
AcDbDictionary
281
     1
  3
2dWireframe
350
2F
  3
3D Hidden
350
31
  3
3dWireframe
350
30
  3
Basic
350
32
  3
Brighten
350
36
  3
ColorChange
350
3A
  3
Conceptual
350
34
  3
Dim
350
35
  3
Facepattern
350
39
  3
Flat
350
2B
  3
FlatWithEdges
350
2C
  3
Gouraud
350
2D
  3
GouraudWithEdges
350
2E
  3
Linepattern
350
38
  3
Realistic
350
33
  3
Thicken
350
37
  0
LAYOUT
  5
1E
102
{ACAD_REACTORS
330
1A
102
}
330
1A
100
AcDbPlotSettings
  1

  2
none_device
  4

  6

 40
0.0
 41
0.0
 42
0.0
 43
0.0
 44
0.0
 45
0.0
 46
0.0
 47
0.0
 48
0.0
 49
0.0
140
0.0
141
0.0
142
1.0
143
1.0
 70
   688
 72
     0
 73
     0
 74
     5
  7

 75
    16
 76
     0
 77
     2
 78
   300
147
1.0
148
0.0
149
0.0
100
AcDbLayout
  1
Layout1
 70
     1
 71
     1
 10
0.0
 20
0.0
 11
12.0
 21
9.0
 12
0.0
 22
0.0
 32
0.0
 14
1.000000000000000E+20
 24
1.000000000000000E+20
 34
1.000000000000000E+20
 15
-1.000000000000000E+20
 25
-1.000000000000000E+20
 35
-1.000000000000000E+20
146
0.0
 13
0.0
 23
0.0
 33
0.0
 16
1.0
 26
0.0
 36
0.0
 17
0.0
 27
1.0
 37
0.0
 76
     0
330
1B
  0
LAYOUT
  5
26
102
{ACAD_REACTORS
330
1A
102
}
330
1A
100
AcDbPlotSettings
  1

  2
none_device
  4

  6

 40
0.0
 41
0.0
 42
0.0
 43
0.0
 44
0.0
 45
0.0
 46
0.0
 47
0.0
 48
0.0
 49
0.0
140
0.0
141
0.0
142
1.0
143
1.0
 70
   688
 72
     0
 73
     0
 74
     5
  7

 75
    16
 76
     0
 77
     2
 78
   300
147
1.0
148
0.0
149
0.0
100
AcDbLayout
  1
Layout2
 70
     1
 71
     2
 10
0.0
 20
0.0
 11
0.0
 21
0.0
 12
0.0
 22
0.0
 32
0.0
 14
0.0
 24
0.0
 34
0.0
 15
0.0
 25
0.0
 35
0.0
146
0.0
 13
0.0
 23
0.0
 33
0.0
 16
1.0
 26
0.0
 36
0.0
 17
0.0
 27
1.0
 37
0.0
 76
     0
330
23
  0
LAYOUT
  5
22
102
{ACAD_REACTORS
330
1A
102
}
330
1A
100
AcDbPlotSettings
  1

  2
none_device
  4

  6

 40
0.0
 41
0.0
 42
0.0
 43
0.0
 44
0.0
 45
0.0
 46
0.0
 47
0.0
 48
0.0
 49
0.0
140
0.0
141
0.0
142
1.0
143
1.0
 70
  1712
 72
     0
 73
     0
 74
     0
  7

 75
     0
 76
     0
 77
     2
 78
   300
147
1.0
148
0.0
149
0.0
100
AcDbLayout
  1
Model
 70
     1
 71
     0
 10
0.0
 20
0.0
 11
12.0
 21
9.0
 12
0.0
 22
0.0
 32
0.0
 14
1.000000000000000E+20
 24
1.000000000000000E+20
 34
1.000000000000000E+20
 15
-1.000000000000000E+20
 25
-1.000000000000000E+20
 35
-1.000000000000000E+20
146
0.0
 13
0.0
 23
0.0
 33
0.0
 16
1.0
 26
0.0
 36
0.0
 17
0.0
 27
1.0
 37
0.0
 76
     0
330
1F
331
29
  0
MLINESTYLE
  5
18
102
{ACAD_REACTORS
330
17
102
}
330
17
100
AcDbMlineStyle
  2
Standard
 70
     0
  3

 62
   256
 51
90.0
 52
90.0
 71
     2
 49
0.5
 62
   256
  6
BYLAYER
 49
-0.5
 62
   256
  6
BYLAYER
  0
ACDBPLACEHOLDER
  5
F
102
{ACAD_REACTORS
330
E
102
}
330
E
  0
VISUALSTYLE
  5
2F
102
{ACAD_REACTORS
330
2A
102
}
330
2A
100
AcDbVisualStyle
  2
2dWireframe
 70
     4
 71
     0
 72
     2
 73
     0
 90
        0
 40
-0.6
 41
-30.0
 62
     5
 63
     7
421
 16777215
 74
     1
 91
        4
 64
     7
 65
   257
 75
     1
175
     1
 42
1.0
 92
        0
 66
   257
 43
1.0
 76
     1
 77
     6
 78
     2
 67
     7
 79
     5
170
     0
171
     0
290
     0
174
     0
 93
        1
 44
0.0
173
     0
291
     0
 45
0.0
1001
ACAD
1000
AcDbSavedByObjectVersion
1070
     0
  0
VISUALSTYLE
  5
31
102
{ACAD_REACTORS
330
2A
102
}
330
2A
100
AcDbVisualStyle
  2
3D Hidden
 70
     6
 71
     1
 72
     2
 73
     2
 90
        0
 40
-0.6
 41
-30.0
 62
     5
 63
     7
421
 16777215
 74
     2
 91
        2
 64
     7
 65
   257
 75
     2
175
     1
 42
40.0
 92
        0
 66
   257
 43
1.0
 76
     1
 77
     6
 78
     2
 67
     7
 79
     3
170
     0
171
     0
290
     0
174
     0
 93
        1
 44
0.0
173
     0
291
     0
 45
0.0
1001
ACAD
1000
AcDbSavedByObjectVersion
1070
     0
  0
VISUALSTYLE
  5
30
102
{ACAD_REACTORS
330
2A
102
}
330
2A
100
AcDbVisualStyle
  2
3dWireframe
 70
     5
 71
     0
 72
     2
 73
     0
 90
        0
 40
-0.6
 41
-30.0
 62
     5
 63
     7
421
 16777215
 74
     1
 91
        4
 64
     7
 65
   257
 75
     1
175
     1
 42
1.0
 92
        0
 66
   257
 43
1.0
 76
     1
 77
     6
 78
     2
 67
     7
 79
     5
170
     0
171
     0
290
     0
174
     0
 93
        1
 44
0.0
173
     0
291
     0
 45
0.0
1001
ACAD
1000
AcDbSavedByObjectVersion
1070
     0
  0
VISUALSTYLE
  5
32
102
{ACAD_REACTORS
330
2A
102
}
330
2A
100
AcDbVisualStyle
  2
Basic
 70
     7
 71
     1
 72
     0
 73
     1
 90
        0
 40
-0.6
 41
-30.0
 62
     5
 63
     7
421
 16777215
 74
     0
 91
        4
 64
     7
 65
   257
 75
     1
175
     1
 42
1.0
 92
        8
 66
     7
 43
1.0
 76
     1
 77
     6
 78
     2
 67
     7
 79
     5
170
     0
171
     0
290
     0
174
     0
 93
        1
 44
0.0
173
     0
291
     1
 45
0.0
1001
ACAD
1000
AcDbSavedByObjectVersion
1070
     0
  0
VISUALSTYLE
  5
36
102
{ACAD_REACTORS
330
2A
102
}
330
2A
100
AcDbVisualStyle
  2
Brighten
 70
    12
 71
     2
 72
     2
 73
     0
 90
        0
 40
-0.6
 41
-30.0
 62
     5
 63
     7
421
 16777215
 74
     1
 91
        4
 64
     7
 65
   257
 75
     1
175
     1
 42
1.0
 92
        8
 66
     7
 43
1.0
 76
     1
 77
     6
 78
     2
 67
     7
 79
     5
170
     0
171
     0
290
     0
174
     0
 93
        1
 44
50.0
173
     0
291
     1
 45
0.0
1001
ACAD
1000
AcDbSavedByObjectVersion
1070
     0
  0
VISUALSTYLE
  5
3A
102
{ACAD_REACTORS
330
2A
102
}
330
2A
100
AcDbVisualStyle
  2
ColorChange
 70
    16
 71
     2
 72
     2
 73
     3
 90
        0
 40
-0.6
 41
-30.0
 62
     5
 63
     8
421
  8421504
 74
     1
 91
        4
 64
     7
 65
   257
 75
     1
175
     1
 42
1.0
 92
        8
 66
     8
424
  8421504
 43
1.0
 76
     1
 77
     6
 78
     2
 67
     7
 79
     5
170
     0
171
     0
290
     0
174
     0
 93
        1
 44
0.0
173
     0
291
     1
 45
0.0
1001
ACAD
1000
AcDbSavedByObjectVersion
1070
     0
  0
VISUALSTYLE
  5
34
102
{ACAD_REACTORS
330
2A
102
}
330
2A
100
AcDbVisualStyle
  2
Conceptual
 70
     9
 71
     3
 72
     2
 73
     0
 90
        0
 40
-0.6
 41
-30.0
 62
     5
 63
     7
421
 16777215
 74
     2
 91
        2
 64
     7
 65
   257
 75
     1
175
     1
 42
40.0
 92
        8
 66
     7
 43
1.0
 76
     1
 77
     6
 78
     2
 67
     7
 79
     3
170
     0
171
     0
290
     0
174
     0
 93
        1
 44
0.0
173
     0
291
     0
 45
0.0
1001
ACAD
1000
AcDbSavedByObjectVersion
1070
     0
  0
VISUALSTYLE
  5
35
102
{ACAD_REACTORS
330
2A
102
}
330
2A
100
AcDbVisualStyle
  2
Dim
 70
    11
 71
     2
 72
     2
 73
     0
 90
        0
 40
-0.6
 41
-30.0
 62
     5
 63
     7
421
 16777215
 74
     1
 91
        4
 64
     7
 65
   257
 75
     1
175
     1
 42
1.0
 92
        8
 66
     7
 43
1.0
 76
     1
 77
     6
 78
     2
 67
     7
 79
     5
170
     0
171
     0
290
     0
174
     0
 93
        1
 44
-50.0
173
     0
291
     1
 45
0.0
1001
ACAD
1000
AcDbSavedByObjectVersion
1070
     0
  0
VISUALSTYLE
  5
39
102
{ACAD_REACTORS
330
2A
102
}
330
2A
100
AcDbVisualStyle
  2
Facepattern
 70
    15
 71
     2
 72
     2
 73
     0
 90
        0
 40
-0.6
 41
-30.0
 62
     5
 63
     7
421
 16777215
 74
     1
 91
        4
 64
     7
 65
   257
 75
     1
175
     1
 42
1.0
 92
        8
 66
     7
 43
1.0
 76
     1
 77
     6
 78
     2
 67
     7
 79
     5
170
     0
171
     0
290
     0
174
     0
 93
        1
 44
0.0
173
     0
291
     1
 45
0.0
1001
ACAD
1000
AcDbSavedByObjectVersion
1070
     0
  0
VISUALSTYLE
  5
2B
102
{ACAD_REACTORS
330
2A
102
}
330
2A
100
AcDbVisualStyle
  2
Flat
 70
     0
 71
     2
 72
     1
 73
     1
 90
        2
 40
-0.6
 41
30.0
 62
     5
 63
     7
421
 16777215
 74
     0
 91
        4
 64
     7
 65
   257
 75
     1
175
     1
 42
1.0
 92
        8
 66
     7
 43
1.0
 76
     1
 77
     6
 78
     2
 67
     7
 79
     5
170
     0
171
     0
290
     0
174
     0
 93
       13
 44
0.0
173
     0
291
     1
 45
0.0
1001
ACAD
1000
AcDbSavedByObjectVersion
1070
     0
  0
VISUALSTYLE
  5
2C
102
{ACAD_REACTORS
330
2A
102
}
330
2A
100
AcDbVisualStyle
  2
FlatWithEdges
 70
     1
 71
     2
 72
     1
 73
     1
 90
        2
 40
-0.6
 41
30.0
 62
     5
 63
     7
421
 16777215
 74
     1
 91
        4
 64
     7
 65
   257
 75
     1
175
     1
 42
1.0
 92
        0
 66
   257
 43
1.0
 76
     1
 77
     6
 78
     2
 67
     7
 79
     5
170
     0
171
     0
290
     0
174
     0
 93
       13
 44
0.0
173
     0
291
     1
 45
0.0
1001
ACAD
1000
AcDbSavedByObjectVersion
1070
     0
  0
VISUALSTYLE
  5
2D
102
{ACAD_REACTORS
330
2A
102
}
330
2A
100
AcDbVisualStyle
  2
Gouraud
 70
     2
 71
     2
 72
     2
 73
     1
 90
        2
 40
-0.6
 41
30.0
 62
     5
 63
     7
421
 16777215
 74
     0
 91
        4
 64
     7
 65
   257
 75
     1
175
     1
 42
1.0
 92
        0
 66
     7
 43
1.0
 76
     1
 77
     6
 78
     2
 67
     7
 79
     5
170
     0
171
     0
290
     0
174
     0
 93
       13
 44
0.0
173
     0
291
     1
 45
0.0
1001
ACAD
1000
AcDbSavedByObjectVersion
1070
     0
  0
VISUALSTYLE
  5
2E
102
{ACAD_REACTORS
330
2A
102
}
330
2A
100
AcDbVisualStyle
  2
GouraudWithEdges
 70
     3
 71
     2
 72
     2
 73
     1
 90
        2
 40
-0.6
 41
30.0
 62
     5
 63
     7
421
 16777215
 74
     1
 91
        4
 64
     7
 65
   257
 75
     1
175
     1
 42
1.0
 92
        0
 66
   257
 43
1.0
 76
     1
 77
     6
 78
     2
 67
     7
 79
     5
170
     0
171
     0
290
     0
174
     0
 93
       13
 44
0.0
173
     0
291
     1
 45
0.0
1001
ACAD
1000
AcDbSavedByObjectVersion
1070
     0
  0
VISUALSTYLE
  5
38
102
{ACAD_REACTORS
330
2A
102
}
330
2A
100
AcDbVisualStyle
  2
Linepattern
 70
    14
 71
     2
 72
     2
 73
     0
 90
        0
 40
-0.6
 41
-30.0
 62
     5
 63
     7
421
 16777215
 74
     1
 91
        4
 64
     7
 65
   257
 75
     7
175
     7
 42
1.0
 92
        8
 66
     7
 43
1.0
 76
     1
 77
     6
 78
     2
 67
     7
 79
     5
170
     0
171
     0
290
     0
174
     0
 93
        1
 44
0.0
173
     0
291
     1
 45
0.0
1001
ACAD
1000
AcDbSavedByObjectVersion
1070
     0
  0
VISUALSTYLE
  5
33
102
{ACAD_REACTORS
330
2A
102
}
330
2A
100
AcDbVisualStyle
  2
Realistic
 70
     8
 71
     2
 72
     2
 73
     0
 90
        0
 40
-0.6
 41
-30.0
 62
     5
 63
     7
421
 16777215
 74
     1
 91
        0
 64
     7
 65
   257
 75
     1
175
     1
 42
1.0
 92
        8
 66
     8
424
  7895160
 43
1.0
 76
     1
 77
     6
 78
     2
 67
     7
 79
     5
170
     0
171
     0
290
     0
174
     0
 93
       13
 44
0.0
173
     0
291
     0
 45
0.0
1001
ACAD
1000
AcDbSavedByObjectVersion
1070
     0
  0
VISUALSTYLE
  5
37
102
{ACAD_REACTORS
330
2A
102
}
330
2A
100
AcDbVisualStyle
  2
Thicken
 70
    13
 71
     2
 72
     2
 73
     0
 90
        0
 40
-0.6
 41
-30.0
 62
     5
 63
     7
421
 16777215
 74
     1
 91
        4
 64
     7
 65
   257
 75
     1
175
     1
 42
1.0
 92
       12
 66
     7
 43
1.0
 76
     1
 77
     6
 78
     2
 67
     7
 79
     5
170
     0
171
     0
290
     0
174
     0
 93
        1
 44
0.0
173
     0
291
     1
 45
0.0
1001
ACAD
1000
AcDbSavedByObjectVersion
1070
     0
  0
ENDSEC
  0
EOF
