  0
SECTION
  2
HEADER
  9
$ACADVER
  1
AC1018
  9
$ACADMAINTVER
 70
     0
  9
$DWGCODEPAGE
  3
ANSI_932
  9
$INSBASE
 10
0.0
 20
0.0
 30
0.0
  9
$EXTMIN
 10
1.000000000000000E+20
 20
1.000000000000000E+20
 30
1.000000000000000E+20
  9
$EXTMAX
 10
-1.000000000000000E+20
 20
-1.000000000000000E+20
 30
-1.000000000000000E+20
  9
$LIMMIN
 10
0.0
 20
0.0
  9
$LIMMAX
 10
12.0
 20
9.0
  9
$ORTHOMODE
 70
     0
  9
$REGENMODE
 70
     1
  9
$FILLMODE
 70
     1
  9
$QTEXTMODE
 70
     0
  9
$MIRRTEXT
 70
     1
  9
$LTSCALE
 40
1.0
  9
$ATTMODE
 70
     1
  9
$TEXTSIZE
 40
0.2
  9
$TRACEWID
 40
0.05
  9
$TEXTSTYLE
  7
Standard
  9
$CLAYER
  8
0
  9
$CELTYPE
  6
ByLayer
  9
$CECOLOR
 62
   256
  9
$CELTSCALE
 40
1.0
  9
$DISPSILH
 70
     0
  9
$DIMSCALE
 40
1.0
  9
$DIMASZ
 40
0.18
  9
$DIMEXO
 40
0.0625
  9
$DIMDLI
 40
0.38
  9
$DIMRND
 40
0.0
  9
$DIMDLE
 40
0.0
  9
$DIMEXE
 40
0.18
  9
$DIMTP
 40
0.0
  9
$DIMTM
 40
0.0
  9
$DIMTXT
 40
0.18
  9
$DIMCEN
 40
0.09
  9
$DIMTSZ
 40
0.0
  9
$DIMTOL
 70
     0
  9
$DIMLIM
 70
     0
  9
$DIMTIH
 70
     1
  9
$DIMTOH
 70
     1
  9
$DIMSE1
 70
     0
  9
$DIMSE2
 70
     0
  9
$DIMTAD
 70
     0
  9
$DIMZIN
 70
     0
  9
$DIMBLK
  1

  9
$DIMASO
 70
     1
  9
$DIMSHO
 70
     1
  9
$DIMPOST
  1

  9
$DIMAPOST
  1

  9
$DIMALT
 70
     0
  9
$DIMALTD
 70
     2
  9
$DIMALTF
 40
25.4
  9
$DIMLFAC
 40
1.0
  9
$DIMTOFL
 70
     0
  9
$DIMTVP
 40
0.0
  9
$DIMTIX
 70
     0
  9
$DIMSOXD
 70
     0
  9
$DIMSAH
 70
     0
  9
$DIMBLK1
  1

  9
$DIMBLK2
  1

  9
$DIMSTYLE
  2
Standard
  9
$DIMCLRD
 70
     0
  9
$DIMCLRE
 70
     0
  9
$DIMCLRT
 70
     0
  9
$DIMTFAC
 40
1.0
  9
$DIMGAP
 40
0.09
  9
$DIMJUST
 70
     0
  9
$DIMSD1
 70
     0
  9
$DIMSD2
 70
     0
  9
$DIMTOLJ
 70
     1
  9
$DIMTZIN
 70
     0
  9
$DIMALTZ
 70
     0
  9
$DIMALTTZ
 70
     0
  9
$DIMUPT
 70
     0
  9
$DIMDEC
 70
     4
  9
$DIMTDEC
 70
     4
  9
$DIMALTU
 70
     2
  9
$DIMALTTD
 70
     2
  9
$DIMTXSTY
  7
Standard
  9
$DIMAUNIT
 70
     0
  9
$DIMADEC
 70
     0
  9
$DIMALTRND
 40
0.0
  9
$DIMAZIN
 70
     0
  9
$DIMDSEP
 70
    46
  9
$DIMATFIT
 70
     3
  9
$DIMFRAC
 70
     0
  9
$DIMLDRBLK
  1

  9
$DIMLUNIT
 70
     2
  9
$DIMLWD
 70
    -2
  9
$DIMLWE
 70
    -2
  9
$DIMTMOVE
 70
     0
  9
$LUNITS
 70
     2
  9
$LUPREC
 70
     4
  9
$SKETCHINC
 40
0.1
  9
$FILLETRAD
 40
0.5
  9
$AUNITS
 70
     0
  9
$AUPREC
 70
     0
  9
$MENU
  1
.
  9
$ELEVATION
 40
0.0
  9
$PELEVATION
 40
0.0
  9
$THICKNESS
 40
0.0
  9
$LIMCHECK
 70
     0
  9
$CHAMFERA
 40
0.5
  9
$CHAMFERB
 40
0.5
  9
$CHAMFERC
 40
1.0
  9
$CHAMFERD
 40
0.0
  9
$SKPOLY
 70
     0
  9
$TDCREATE
 40
2458447.109301076
  9
$TDUCREATE
 40
2458446.734301076
  9
$TDUPDATE
 40
2458447.109301088
  9
$TDUUPDATE
 40
2458446.734301088
  9
$TDINDWG
 40
0.0000000116
  9
$TDUSRTIMER
 40
0.0000000116
  9
$USRTIMER
 70
     1
  9
$ANGBASE
 50
0.0
  9
$ANGDIR
 70
     0
  9
$PDMODE
 70
     0
  9
$PDSIZE
 40
0.0
  9
$PLINEWID
 40
0.0
  9
$SPLFRAME
 70
     0
  9
$SPLINETYPE
 70
     6
  9
$SPLINESEGS
 70
     8
  9
$HANDSEED
  5
55
  9
$SURFTAB1
 70
     6
  9
$SURFTAB2
 70
     6
  9
$SURFTYPE
 70
     6
  9
$SURFU
 70
     6
  9
$SURFV
 70
     6
  9
$UCSBASE
  2

  9
$UCSNAME
  2

  9
$UCSORG
 10
0.0
 20
0.0
 30
0.0
  9
$UCSXDIR
 10
1.0
 20
0.0
 30
0.0
  9
$UCSYDIR
 10
0.0
 20
1.0
 30
0.0
  9
$UCSORTHOREF
  2

  9
$UCSORTHOVIEW
 70
     0
  9
$UCSORGTOP
 10
0.0
 20
0.0
 30
0.0
  9
$UCSORGBOTTOM
 10
0.0
 20
0.0
 30
0.0
  9
$UCSORGLEFT
 10
0.0
 20
0.0
 30
0.0
  9
$UCSORGRIGHT
 10
0.0
 20
0.0
 30
0.0
  9
$UCSORGFRONT
 10
0.0
 20
0.0
 30
0.0
  9
$UCSORGBACK
 10
0.0
 20
0.0
 30
0.0
  9
$PUCSBASE
  2

  9
$PUCSNAME
  2

  9
$PUCSORG
 10
0.0
 20
0.0
 30
0.0
  9
$PUCSXDIR
 10
1.0
 20
0.0
 30
0.0
  9
$PUCSYDIR
 10
0.0
 20
1.0
 30
0.0
  9
$PUCSORTHOREF
  2

  9
$PUCSORTHOVIEW
 70
     0
  9
$PUCSORGTOP
 10
0.0
 20
0.0
 30
0.0
  9
$PUCSORGBOTTOM
 10
0.0
 20
0.0
 30
0.0
  9
$PUCSORGLEFT
 10
0.0
 20
0.0
 30
0.0
  9
$PUCSORGRIGHT
 10
0.0
 20
0.0
 30
0.0
  9
$PUCSORGFRONT
 10
0.0
 20
0.0
 30
0.0
  9
$PUCSORGBACK
 10
0.0
 20
0.0
 30
0.0
  9
$USERI1
 70
     0
  9
$USERI2
 70
     0
  9
$USERI3
 70
     0
  9
$USERI4
 70
     0
  9
$USERI5
 70
     0
  9
$USERR1
 40
0.0
  9
$USERR2
 40
0.0
  9
$USERR3
 40
0.0
  9
$USERR4
 40
0.0
  9
$USERR5
 40
0.0
  9
$WORLDVIEW
 70
     1
  9
$SHADEDGE
 70
     3
  9
$SHADEDIF
 70
    70
  9
$TILEMODE
 70
     1
  9
$MAXACTVP
 70
    64
  9
$PINSBASE
 10
0.0
 20
0.0
 30
0.0
  9
$PLIMCHECK
 70
     0
  9
$PEXTMIN
 10
1.000000000000000E+20
 20
1.000000000000000E+20
 30
1.000000000000000E+20
  9
$PEXTMAX
 10
-1.000000000000000E+20
 20
-1.000000000000000E+20
 30
-1.000000000000000E+20
  9
$PLIMMIN
 10
0.0
 20
0.0
  9
$PLIMMAX
 10
12.0
 20
9.0
  9
$UNITMODE
 70
     0
  9
$VISRETAIN
 70
     1
  9
$PLINEGEN
 70
     0
  9
$PSLTSCALE
 70
     1
  9
$TREEDEPTH
 70
  3020
  9
$CMLSTYLE
  2
Standard
  9
$CMLJUST
 70
     0
  9
$CMLSCALE
 40
1.0
  9
$PROXYGRAPHICS
 70
     1
  9
$MEASUREMENT
 70
     0
  9
$CELWEIGHT
370
    -1
  9
$ENDCAPS
280
     0
  9
$JOINSTYLE
280
     0
  9
$LWDISPLAY
290
     1
  9
$INSUNITS
 70
     1
  9
$HYPERLINKBASE
  1

  9
$STYLESHEET
  1

  9
$XEDIT
290
     1
  9
$CEPSNTYPE
380
     0
  9
$PSTYLEMODE
290
     1
  9
$FINGERPRINTGUID
  2
{ED7AE26E-BC89-4178-B46B-9CF0ADCDA701}
  9
$VERSIONGUID
  2
{FAEB1C32-E019-11D5-929B-00C0DF256EC4}
  9
$EXTNAMES
290
     1
  9
$PSVPSCALE
 40
0.0
  9
$OLESTARTUP
290
     0
  9
$SORTENTS
280
   127
  9
$INDEXCTL
280
     0
  9
$HIDETEXT
280
     1
  9
$XCLIPFRAME
290
     0
  9
$HALOGAP
280
     0
  9
$OBSCOLOR
 70
   257
  9
$OBSLTYPE
280
     0
  9
$INTERSECTIONDISPLAY
280
     0
  9
$INTERSECTIONCOLOR
 70
   257
  9
$DIMASSOC
280
     2
  9
$PROJECTNAME
  1

  0
ENDSEC
  0
SECTION
  2
CLASSES
  0
CLASS
  1
ACDBDICTIONARYWDFLT
  2
AcDbDictionaryWithDefault
  3
ObjectDBX Classes
 90
        0
 91
        3
280
     0
281
     0
  0
CLASS
  1
VISUALSTYLE
  2
AcDbVisualStyle
  3
ObjectDBX Classes
 90
     4095
 91
        3
280
     0
281
     0
  0
ENDSEC
  0
SECTION
  2
TABLES
  0
TABLE
  2
VPORT
  5
8
330
0
100
AcDbSymbolTable
 70
     1
  0
VPORT
  5
29
330
8
100
AcDbSymbolTableRecord
100
AcDbViewportTableRecord
  2
*Active
 70
     0
 10
0.0
 20
0.0
 11
1.0
 21
1.0
 12
0.0
 22
0.0
 13
0.0
 23
0.0
 14
0.5
 24
0.5
 15
0.5
 25
0.5
 16
0.0
 26
0.0
 36
1.0
 17
97.68591918189159
 27
-54.84164993455263
 37
0.0
 40
315.0001019307964
 41
2.365079625479716
 42
50.0
 43
0.0
 44
0.0
 50
0.0
 51
0.0
 71
     0
 72
   100
 73
     1
 74
     3
 75
     0
 76
     0
 77
     0
 78
     0
281
     0
 65
     1
110
0.0
120
0.0
130
0.0
111
1.0
121
0.0
131
0.0
112
0.0
122
1.0
132
0.0
 79
     0
146
0.0
  0
ENDTAB
  0
TABLE
  2
LTYPE
  5
5
330
0
100
AcDbSymbolTable
 70
     1
  0
LTYPE
  5
14
330
5
100
AcDbSymbolTableRecord
100
AcDbLinetypeTableRecord
  2
ByBlock
 70
     0
  3

 72
    65
 73
     0
 40
0.0
  0
LTYPE
  5
15
330
5
100
AcDbSymbolTableRecord
100
AcDbLinetypeTableRecord
  2
ByLayer
 70
     0
  3

 72
    65
 73
     0
 40
0.0
  0
LTYPE
  5
16
330
5
100
AcDbSymbolTableRecord
100
AcDbLinetypeTableRecord
  2
Continuous
 70
     0
  3
Solid line
 72
    65
 73
     0
 40
0.0
  0
ENDTAB
  0
TABLE
  2
LAYER
  5
2
330
0
100
AcDbSymbolTable
 70
     2
  0
LAYER
  5
10
330
2
100
AcDbSymbolTableRecord
100
AcDbLayerTableRecord
  2
0
 70
     0
 62
     7
  6
Continuous
370
    -3
390
F
  0
LAYER
  5
3B
330
2
100
AcDbSymbolTableRecord
100
AcDbLayerTableRecord
  2
\U+30EC\U+30A4\U+30E4\U+30FC 1
 70
     0
 62
     7
  6
Continuous
370
    -3
390
F
  0
ENDTAB
  0
TABLE
  2
STYLE
  5
3
330
0
100
AcDbSymbolTable
 70
     1
  0
STYLE
  5
11
330
3
100
AcDbSymbolTableRecord
100
AcDbTextStyleTableRecord
  2
Standard
 70
     0
 40
0.0
 41
1.0
 50
0.0
 71
     0
 42
0.2
  3
txt
  4

  0
ENDTAB
  0
TABLE
  2
VIEW
  5
6
330
0
100
AcDbSymbolTable
 70
     0
  0
ENDTAB
  0
TABLE
  2
UCS
  5
7
330
0
100
AcDbSymbolTable
 70
     0
  0
ENDTAB
  0
TABLE
  2
APPID
  5
9
330
0
100
AcDbSymbolTable
 70
     1
  0
APPID
  5
12
330
9
100
AcDbSymbolTableRecord
100
AcDbRegAppTableRecord
  2
ACAD
 70
     0
  0
ENDTAB
  0
TABLE
  2
DIMSTYLE
  5
A
330
0
100
AcDbSymbolTable
 70
     1
100
AcDbDimStyleTable
  0
DIMSTYLE
105
27
330
A
100
AcDbSymbolTableRecord
100
AcDbDimStyleTableRecord
  2
Standard
 70
     0
340
11
  0
ENDTAB
  0
TABLE
  2
BLOCK_RECORD
  5
1
330
0
100
AcDbSymbolTable
 70
     1
  0
BLOCK_RECORD
  5
1F
330
1
100
AcDbSymbolTableRecord
100
AcDbBlockTableRecord
  2
*Model_Space
340
22
  0
BLOCK_RECORD
  5
1B
330
1
100
AcDbSymbolTableRecord
100
AcDbBlockTableRecord
  2
*Paper_Space
340
1E
  0
BLOCK_RECORD
  5
23
330
1
100
AcDbSymbolTableRecord
100
AcDbBlockTableRecord
  2
*Paper_Space0
340
26
  0
ENDTAB
  0
ENDSEC
  0
SECTION
  2
BLOCKS
  0
BLOCK
  5
20
330
1F
100
AcDbEntity
  8
0
100
AcDbBlockBegin
  2
*Model_Space
 70
     0
 71
     0
 10
0.0
 20
0.0
 30
0.0
  3
*Model_Space
  1

  0
ENDBLK
  5
21
330
1F
100
AcDbEntity
  8
0
100
AcDbBlockEnd
  0
BLOCK
  5
1C
330
1B
100
AcDbEntity
 67
     1
  8
0
100
AcDbBlockBegin
  2
*Paper_Space
 70
     0
 71
     0
 10
0.0
 20
0.0
 30
0.0
  3
*Paper_Space
  1

  0
ENDBLK
  5
1D
330
1B
100
AcDbEntity
 67
     1
  8
0
100
AcDbBlockEnd
  0
BLOCK
  5
24
330
23
100
AcDbEntity
  8
0
100
AcDbBlockBegin
  2
*Paper_Space0
 70
     0
 71
     0
 10
0.0
 20
0.0
 30
0.0
  3
*Paper_Space0
  1

  0
ENDBLK
  5
25
330
23
100
AcDbEntity
  8
0
100
AcDbBlockEnd
  0
ENDSEC
  0
SECTION
  2
ENTITIES
  0
SPLINE
  5
3C
330
1F
100
AcDbEntity
  8
\U+30EC\U+30A4\U+30E4\U+30FC 1
 62
   250
420
  3288107
370
    35
100
AcDbSpline
210
0.0
220
0.0
230
1.0
 70
    11
 71
     3
 72
    41
 73
    37
 74
     0
 42
0.0000000001
 43
0.0000000001
 40
0.0
 40
0.0
 40
0.0
 40
0.0
 40
1.0
 40
1.0
 40
1.0
 40
2.0
 40
2.0
 40
2.0
 40
3.0
 40
3.0
 40
3.0
 40
4.0
 40
4.0
 40
4.0
 40
5.0
 40
5.0
 40
5.0
 40
6.0
 40
6.0
 40
6.0
 40
7.0
 40
7.0
 40
7.0
 40
8.0
 40
8.0
 40
8.0
 40
9.0
 40
9.0
 40
9.0
 40
10.0
 40
10.0
 40
10.0
 40
11.0
 40
11.0
 40
11.0
 40
12.0
 40
12.0
 40
12.0
 40
12.0
 10
-114.6936777933968
 20
64.61229168590778
 30
0.0
 10
-114.6922997542937
 20
64.65845599586446
 30
0.0
 10
-114.6916107347421
 20
64.70462030582115
 30
0.0
 10
-114.6916107347421
 20
64.75078461577783
 30
0.0
 10
-114.6916107347421
 20
66.96047031773446
 30
0.0
 10
-116.258441195063
 20
68.75123213232294
 30
0.0
 10
-118.1918300568311
 20
68.75123213232294
 30
0.0
 10
-120.1245298990476
 20
68.75123213232294
 30
0.0
 10
-121.6913603593686
 20
66.96047031773446
 30
0.0
 10
-121.6913603593686
 20
64.75078461577783
 30
0.0
 10
-121.6913603593686
 20
64.70462030582115
 30
0.0
 10
-121.690671339817
 20
64.65845599586446
 30
0.0
 10
-121.6896378104896
 20
64.61229168590778
 30
0.0
 10
-144.0786391199311
 20
62.83117614504158
 30
0.0
 10
-161.6915291526223
 20
44.0981125763491
 30
0.0
 10
-161.6915291526223
 20
21.25091326509878
 30
0.0
 10
-161.6915291526223
 20
-1.595597026599956
 30
0.0
 10
-144.0779501003795
 20
-20.32934961484403
 30
0.0
 10
-121.6892933007138
 20
-22.11046515571022
 30
0.0
 10
-121.690671339817
 20
-22.15594044611531
 30
0.0
 10
-121.6913603593686
 20
-22.20279377562359
 30
0.0
 10
-121.6913603593686
 20
-22.24895808558028
 30
0.0
 10
-121.6913603593686
 20
-24.45795476798531
 30
0.0
 10
-120.1245298990476
 20
-26.2487165825738
 30
0.0
 10
-118.1918300568311
 20
-26.2487165825738
 30
0.0
 10
-116.258441195063
 20
-26.2487165825738
 30
0.0
 10
-114.6916107347421
 20
-24.45795476798531
 30
0.0
 10
-114.6916107347421
 20
-22.24895808558028
 30
0.0
 10
-114.6916107347421
 20
-22.20279377562359
 30
0.0
 10
-114.6922997542937
 20
-22.15594044611531
 30
0.0
 10
-114.6940223031726
 20
-22.11046515571022
 30
0.0
 10
-92.305365503507
 20
-20.32934961484403
 30
0.0
 10
-74.69161419637628
 20
-1.595597026599956
 30
0.0
 10
-74.69161419637628
 20
21.25091326509878
 30
0.0
 10
-74.69161419637628
 20
44.0981125763491
 30
0.0
 10
-92.30502099373122
 20
62.83117614504158
 30
0.0
 10
-114.6936777933968
 20
64.61229168590778
 30
0.0
  0
SPLINE
  5
3D
330
1F
100
AcDbEntity
  8
\U+30EC\U+30A4\U+30E4\U+30FC 1
 62
   250
420
  3288107
370
    35
100
AcDbSpline
210
0.0
220
0.0
230
1.0
 70
    11
 71
     3
 72
    41
 73
    37
 74
     0
 42
0.0000000001
 43
0.0000000001
 40
0.0
 40
0.0
 40
0.0
 40
0.0
 40
1.0
 40
1.0
 40
1.0
 40
2.0
 40
2.0
 40
2.0
 40
3.0
 40
3.0
 40
3.0
 40
4.0
 40
4.0
 40
4.0
 40
5.0
 40
5.0
 40
5.0
 40
6.0
 40
6.0
 40
6.0
 40
7.0
 40
7.0
 40
7.0
 40
8.0
 40
8.0
 40
8.0
 40
9.0
 40
9.0
 40
9.0
 40
10.0
 40
10.0
 40
10.0
 40
11.0
 40
11.0
 40
11.0
 40
12.0
 40
12.0
 40
12.0
 40
12.0
 10
-184.693585608093
 20
-70.38748131246685
 30
0.0
 10
-184.6922075689898
 20
-70.34131700251017
 30
0.0
 10
-184.6915185494382
 20
-70.29515269255347
 30
0.0
 10
-184.6915185494382
 20
-70.24898838259679
 30
0.0
 10
-184.6915185494382
 20
-68.03999170019175
 30
0.0
 10
-186.2583490097592
 20
-66.24922988560327
 30
0.0
 10
-188.1917378715273
 20
-66.24922988560327
 30
0.0
 10
-190.1244377137438
 20
-66.24922988560327
 30
0.0
 10
-191.6912681740648
 20
-68.03999170019175
 30
0.0
 10
-191.6912681740648
 20
-70.24898838259679
 30
0.0
 10
-191.6912681740648
 20
-70.29515269255347
 30
0.0
 10
-191.6905791545132
 20
-70.34131700251017
 30
0.0
 10
-191.6895456251858
 20
-70.38748131246685
 30
0.0
 10
-214.0783746797393
 20
-72.16859685333304
 30
0.0
 10
-231.6914369673185
 20
-90.90166042202551
 30
0.0
 10
-231.6914369673185
 20
-113.7488597332759
 30
0.0
 10
-231.6914369673185
 20
-136.5960590445262
 30
0.0
 10
-214.0780301699635
 20
-155.3291226132187
 30
0.0
 10
-191.68920111541
 20
-157.1102381540848
 30
0.0
 10
-191.6905791545132
 20
-157.1564024640415
 30
0.0
 10
-191.6912681740648
 20
-157.2025667739982
 30
0.0
 10
-191.6912681740648
 20
-157.2494201035065
 30
0.0
 10
-191.6912681740648
 20
-159.4584167859115
 30
0.0
 10
-190.1244377137438
 20
-161.2491786005
 30
0.0
 10
-188.1917378715273
 20
-161.2491786005
 30
0.0
 10
-186.2583490097592
 20
-161.2491786005
 30
0.0
 10
-184.6915185494382
 20
-159.4584167859115
 30
0.0
 10
-184.6915185494382
 20
-157.2494201035065
 30
0.0
 10
-184.6915185494382
 20
-157.2025667739982
 30
0.0
 10
-184.6922075689898
 20
-157.1564024640415
 30
0.0
 10
-184.6939301178688
 20
-157.1102381540848
 30
0.0
 10
-162.3052733182032
 20
-155.3291226132187
 30
0.0
 10
-144.6915220110724
 20
-136.5960590445262
 30
0.0
 10
-144.6915220110724
 20
-113.7488597332759
 30
0.0
 10
-144.6915220110724
 20
-90.90166042202551
 30
0.0
 10
-162.3049288084274
 20
-72.16859685333304
 30
0.0
 10
-184.693585608093
 20
-70.38748131246685
 30
0.0
  0
SPLINE
  5
3E
330
1F
100
AcDbEntity
  8
\U+30EC\U+30A4\U+30E4\U+30FC 1
 62
   250
420
  3288107
370
    35
100
AcDbSpline
210
0.0
220
0.0
230
1.0
 70
    11
 71
     3
 72
    41
 73
    37
 74
     0
 42
0.0000000001
 43
0.0000000001
 40
0.0
 40
0.0
 40
0.0
 40
0.0
 40
1.0
 40
1.0
 40
1.0
 40
2.0
 40
2.0
 40
2.0
 40
3.0
 40
3.0
 40
3.0
 40
4.0
 40
4.0
 40
4.0
 40
5.0
 40
5.0
 40
5.0
 40
6.0
 40
6.0
 40
6.0
 40
7.0
 40
7.0
 40
7.0
 40
8.0
 40
8.0
 40
8.0
 40
9.0
 40
9.0
 40
9.0
 40
10.0
 40
10.0
 40
10.0
 40
11.0
 40
11.0
 40
11.0
 40
12.0
 40
12.0
 40
12.0
 40
12.0
 10
-44.69308095914909
 20
-70.38748131246685
 30
0.0
 10
-44.6917029200459
 20
-70.34131700251017
 30
0.0
 10
-44.69101390049431
 20
-70.29515269255347
 30
0.0
 10
-44.69101390049431
 20
-70.24898838259679
 30
0.0
 10
-44.69101390049431
 20
-68.03999170019175
 30
0.0
 10
-46.25784436081528
 20
-66.24922988560327
 30
0.0
 10
-48.19123322258339
 20
-66.24922988560327
 30
0.0
 10
-50.12393306479989
 20
-66.24922988560327
 30
0.0
 10
-51.69076352512086
 20
-68.03999170019175
 30
0.0
 10
-51.69076352512086
 20
-70.24898838259679
 30
0.0
 10
-51.69076352512086
 20
-70.29515269255347
 30
0.0
 10
-51.69007450556928
 20
-70.34131700251017
 30
0.0
 10
-51.68904097624188
 20
-70.38748131246685
 30
0.0
 10
-74.07769777590751
 20
-72.16859685333304
 30
0.0
 10
-91.69110457326244
 20
-90.90166042202551
 30
0.0
 10
-91.69110457326244
 20
-113.7488597332759
 30
0.0
 10
-91.69110457326244
 20
-136.5960590445262
 30
0.0
 10
-74.07769777590751
 20
-155.3291226132187
 30
0.0
 10
-51.68869646646609
 20
-157.1102381540848
 30
0.0
 10
-51.69007450556928
 20
-157.1564024640415
 30
0.0
 10
-51.69076352512086
 20
-157.2025667739982
 30
0.0
 10
-51.69076352512086
 20
-157.2494201035065
 30
0.0
 10
-51.69076352512086
 20
-159.4584167859115
 30
0.0
 10
-50.12393306479989
 20
-161.2491786005
 30
0.0
 10
-48.19123322258339
 20
-161.2491786005
 30
0.0
 10
-46.25784436081528
 20
-161.2491786005
 30
0.0
 10
-44.69101390049431
 20
-159.4584167859115
 30
0.0
 10
-44.69101390049431
 20
-157.2494201035065
 30
0.0
 10
-44.69101390049431
 20
-157.2025667739982
 30
0.0
 10
-44.6917029200459
 20
-157.1564024640415
 30
0.0
 10
-44.69342546892489
 20
-157.1102381540848
 30
0.0
 10
-22.30476866925926
 20
-155.3291226132187
 30
0.0
 10
-4.691017362128533
 20
-136.5960590445262
 30
0.0
 10
-4.691017362128533
 20
-113.7488597332759
 30
0.0
 10
-4.691017362128533
 20
-90.90166042202551
 30
0.0
 10
-22.30442415948346
 20
-72.16859685333304
 30
0.0
 10
-44.69308095914909
 20
-70.38748131246685
 30
0.0
  0
SPLINE
  5
3F
330
1F
100
AcDbEntity
  8
\U+30EC\U+30A4\U+30E4\U+30FC 1
 62
   250
420
  3288107
370
    35
100
AcDbSpline
210
0.0
220
0.0
230
1.0
 70
    11
 71
     3
 72
    41
 73
    37
 74
     0
 42
0.0000000001
 43
0.0000000001
 40
0.0
 40
0.0
 40
0.0
 40
0.0
 40
1.0
 40
1.0
 40
1.0
 40
2.0
 40
2.0
 40
2.0
 40
3.0
 40
3.0
 40
3.0
 40
4.0
 40
4.0
 40
4.0
 40
5.0
 40
5.0
 40
5.0
 40
6.0
 40
6.0
 40
6.0
 40
7.0
 40
7.0
 40
7.0
 40
8.0
 40
8.0
 40
8.0
 40
9.0
 40
9.0
 40
9.0
 40
10.0
 40
10.0
 40
10.0
 40
11.0
 40
11.0
 40
11.0
 40
12.0
 40
12.0
 40
12.0
 40
12.0
 10
25.30665460065918
 20
64.61229168590778
 30
0.0
 10
25.30820489465026
 20
64.65845599586446
 30
0.0
 10
25.30889391420185
 20
64.70462030582115
 30
0.0
 10
25.30889391420185
 20
64.75078461577783
 30
0.0
 10
25.30889391420185
 20
66.96047031773446
 30
0.0
 10
23.74206345388087
 20
68.75123213232294
 30
0.0
 10
21.80850233722488
 20
68.75123213232294
 30
0.0
 10
19.87597474989627
 20
68.75123213232294
 30
0.0
 10
18.30914428957529
 20
66.96047031773446
 30
0.0
 10
18.30914428957529
 20
64.75078461577783
 30
0.0
 10
18.30914428957529
 20
64.70462030582115
 30
0.0
 10
18.30983330912688
 20
64.65845599586446
 30
0.0
 10
18.31086683845427
 20
64.61229168590778
 30
0.0
 10
-4.077789961211352
 20
62.83117614504158
 30
0.0
 10
-21.69119675856628
 20
44.0981125763491
 30
0.0
 10
-21.69119675856628
 20
21.25091326509878
 30
0.0
 10
-21.69119675856628
 20
-1.595597026599956
 30
0.0
 10
-4.077789961211352
 20
-20.32934961484403
 30
0.0
 10
18.31121134823007
 20
-22.11046515571022
 30
0.0
 10
18.30983330912688
 20
-22.15594044611531
 30
0.0
 10
18.30914428957529
 20
-22.20279377562359
 30
0.0
 10
18.30914428957529
 20
-22.24895808558028
 30
0.0
 10
18.30914428957529
 20
-24.45795476798531
 30
0.0
 10
19.87597474989627
 20
-26.2487165825738
 30
0.0
 10
21.80850233722488
 20
-26.2487165825738
 30
0.0
 10
23.74206345388087
 20
-26.2487165825738
 30
0.0
 10
25.30889391420185
 20
-24.45795476798531
 30
0.0
 10
25.30889391420185
 20
-22.24895808558028
 30
0.0
 10
25.30889391420185
 20
-22.20279377562359
 30
0.0
 10
25.30820489465026
 20
-22.15594044611531
 30
0.0
 10
25.30648234577128
 20
-22.11046515571022
 30
0.0
 10
47.6951391454369
 20
-20.32934961484403
 30
0.0
 10
65.30889045256762
 20
-1.595597026599956
 30
0.0
 10
65.30889045256762
 20
21.25091326509878
 30
0.0
 10
65.30889045256762
 20
44.0981125763491
 30
0.0
 10
47.6954836552127
 20
62.83117614504158
 30
0.0
 10
25.30665460065918
 20
64.61229168590778
 30
0.0
  0
SPLINE
  5
40
330
1F
100
AcDbEntity
  8
\U+30EC\U+30A4\U+30E4\U+30FC 1
 62
   250
420
  3288107
370
    35
100
AcDbSpline
210
0.0
220
0.0
230
1.0
 70
    11
 71
     3
 72
    41
 73
    37
 74
     0
 42
0.0000000001
 43
0.0000000001
 40
0.0
 40
0.0
 40
0.0
 40
0.0
 40
1.0
 40
1.0
 40
1.0
 40
2.0
 40
2.0
 40
2.0
 40
3.0
 40
3.0
 40
3.0
 40
4.0
 40
4.0
 40
4.0
 40
5.0
 40
5.0
 40
5.0
 40
6.0
 40
6.0
 40
6.0
 40
7.0
 40
7.0
 40
7.0
 40
8.0
 40
8.0
 40
8.0
 40
9.0
 40
9.0
 40
9.0
 40
10.0
 40
10.0
 40
10.0
 40
11.0
 40
11.0
 40
11.0
 40
12.0
 40
12.0
 40
12.0
 40
12.0
 10
95.30707918001903
 20
-70.38817033201845
 30
0.0
 10
95.30845721912222
 20
-70.34200602206175
 30
0.0
 10
95.3091462386738
 20
-70.29584171210507
 30
0.0
 10
95.3091462386738
 20
-70.24967740214838
 30
0.0
 10
95.3091462386738
 20
-68.03999170019175
 30
0.0
 10
93.74231577835283
 20
-66.24922988560327
 30
0.0
 10
91.80892691658472
 20
-66.24922988560327
 30
0.0
 10
89.87622707436822
 20
-66.24922988560327
 30
0.0
 10
88.30939661404724
 20
-68.03999170019175
 30
0.0
 10
88.30939661404724
 20
-70.24967740214838
 30
0.0
 10
88.30939661404724
 20
-70.29584171210507
 30
0.0
 10
88.31008563359885
 20
-70.34200602206175
 30
0.0
 10
88.31111916292623
 20
-70.38817033201845
 30
0.0
 10
65.9224623632606
 20
-72.16928587288463
 30
0.0
 10
48.30905556590567
 20
-90.90234944157712
 30
0.0
 10
48.30905556590567
 20
-113.7495487528274
 30
0.0
 10
48.30905556590567
 20
-136.5960590445262
 30
0.0
 10
65.9224623632606
 20
-155.3298116327702
 30
0.0
 10
88.31146367270202
 20
-157.1109271736364
 30
0.0
 10
88.31008563359885
 20
-157.1564024640415
 30
0.0
 10
88.30939661404724
 20
-157.2032557935498
 30
0.0
 10
88.30939661404724
 20
-157.2494201035065
 30
0.0
 10
88.30939661404724
 20
-159.4584167859115
 30
0.0
 10
89.87622707436822
 20
-161.2491786005
 30
0.0
 10
91.80892691658472
 20
-161.2491786005
 30
0.0
 10
93.74231577835283
 20
-161.2491786005
 30
0.0
 10
95.3091462386738
 20
-159.4584167859115
 30
0.0
 10
95.3091462386738
 20
-157.2494201035065
 30
0.0
 10
95.3091462386738
 20
-157.2032557935498
 30
0.0
 10
95.30845721912222
 20
-157.1564024640415
 30
0.0
 10
95.30673467024323
 20
-157.1109271736364
 30
0.0
 10
117.6953914699089
 20
-155.3298116327702
 30
0.0
 10
135.3094872868154
 20
-136.5960590445262
 30
0.0
 10
135.3094872868154
 20
-113.7495487528274
 30
0.0
 10
135.3094872868154
 20
-90.90234944157712
 30
0.0
 10
117.6960804894605
 20
-72.16928587288463
 30
0.0
 10
95.30707918001903
 20
-70.38817033201845
 30
0.0
  0
SPLINE
  5
41
330
1F
100
AcDbEntity
  8
\U+30EC\U+30A4\U+30E4\U+30FC 1
 62
   250
420
  3288107
370
    35
100
AcDbSpline
210
0.0
220
0.0
230
1.0
 70
    11
 71
     3
 72
    41
 73
    37
 74
     0
 42
0.0000000001
 43
0.0000000001
 40
0.0
 40
0.0
 40
0.0
 40
0.0
 40
1.0
 40
1.0
 40
1.0
 40
2.0
 40
2.0
 40
2.0
 40
3.0
 40
3.0
 40
3.0
 40
4.0
 40
4.0
 40
4.0
 40
5.0
 40
5.0
 40
5.0
 40
6.0
 40
6.0
 40
6.0
 40
7.0
 40
7.0
 40
7.0
 40
8.0
 40
8.0
 40
8.0
 40
9.0
 40
9.0
 40
9.0
 40
10.0
 40
10.0
 40
10.0
 40
11.0
 40
11.0
 40
11.0
 40
12.0
 40
12.0
 40
12.0
 40
12.0
 10
165.307331504491
 20
64.61229168590778
 30
0.0
 10
165.3087095435942
 20
64.65845599586446
 30
0.0
 10
165.3093985631457
 20
64.70462030582115
 30
0.0
 10
165.3093985631457
 20
64.75078461577783
 30
0.0
 10
165.3093985631457
 20
66.95978129818286
 30
0.0
 10
163.7425681028248
 20
68.75123213232294
 30
0.0
 10
161.8091792410567
 20
68.75123213232294
 30
0.0
 10
159.8764793988402
 20
68.75123213232294
 30
0.0
 10
158.3096489385192
 20
66.95978129818286
 30
0.0
 10
158.3096489385192
 20
64.75078461577783
 30
0.0
 10
158.3096489385192
 20
64.70462030582115
 30
0.0
 10
158.3103379580708
 20
64.65845599586446
 30
0.0
 10
158.311715997174
 20
64.61229168590778
 30
0.0
 10
135.9227146877326
 20
62.83117614504158
 30
0.0
 10
118.3093078903776
 20
44.0981125763491
 30
0.0
 10
118.3093078903776
 20
21.25091326509878
 30
0.0
 10
118.3093078903776
 20
-1.596286046151548
 30
0.0
 10
135.9227146877326
 20
-20.32934961484403
 30
0.0
 10
158.311715997174
 20
-22.11046515571022
 30
0.0
 10
158.3103379580708
 20
-22.15662946566691
 30
0.0
 10
158.3096489385192
 20
-22.20279377562359
 30
0.0
 10
158.3096489385192
 20
-22.24964710513187
 30
0.0
 10
158.3096489385192
 20
-24.4586437875369
 30
0.0
 10
159.8764793988402
 20
-26.24940560212539
 30
0.0
 10
161.8091792410567
 20
-26.24940560212539
 30
0.0
 10
163.7425681028248
 20
-26.24940560212539
 30
0.0
 10
165.3093985631457
 20
-24.4586437875369
 30
0.0
 10
165.3093985631457
 20
-22.24964710513187
 30
0.0
 10
165.3093985631457
 20
-22.20279377562359
 30
0.0
 10
165.3087095435942
 20
-22.15662946566691
 30
0.0
 10
165.307331504491
 20
-22.11046515571022
 30
0.0
 10
187.6956437943808
 20
-20.32934961484403
 30
0.0
 10
205.3097396112873
 20
-1.596286046151548
 30
0.0
 10
205.3097396112873
 20
21.25091326509878
 30
0.0
 10
205.3097396112873
 20
44.0981125763491
 30
0.0
 10
187.6963328139324
 20
62.83117614504158
 30
0.0
 10
165.307331504491
 20
64.61229168590778
 30
0.0
  0
SPLINE
  5
42
330
1F
100
AcDbEntity
  8
\U+30EC\U+30A4\U+30E4\U+30FC 1
 62
   250
420
  3288107
370
    35
100
AcDbSpline
210
0.0
220
0.0
230
1.0
 70
    11
 71
     3
 72
    41
 73
    37
 74
     0
 42
0.0000000001
 43
0.0000000001
 40
0.0
 40
0.0
 40
0.0
 40
0.0
 40
1.0
 40
1.0
 40
1.0
 40
2.0
 40
2.0
 40
2.0
 40
3.0
 40
3.0
 40
3.0
 40
4.0
 40
4.0
 40
4.0
 40
5.0
 40
5.0
 40
5.0
 40
6.0
 40
6.0
 40
6.0
 40
7.0
 40
7.0
 40
7.0
 40
8.0
 40
8.0
 40
8.0
 40
9.0
 40
9.0
 40
9.0
 40
10.0
 40
10.0
 40
10.0
 40
11.0
 40
11.0
 40
11.0
 40
12.0
 40
12.0
 40
12.0
 40
12.0
 10
235.3075838289629
 20
-70.38817033201845
 30
0.0
 10
235.3089618680661
 20
-70.34200602206175
 30
0.0
 10
235.3096508876177
 20
-70.29584171210507
 30
0.0
 10
235.3096508876177
 20
-70.24967740214838
 30
0.0
 10
235.3096508876177
 20
-68.03999170019175
 30
0.0
 10
233.7428204272967
 20
-66.24922988560327
 30
0.0
 10
231.8094315655287
 20
-66.24922988560327
 30
0.0
 10
229.8767317233121
 20
-66.24922988560327
 30
0.0
 10
228.3099012629912
 20
-68.03999170019175
 30
0.0
 10
228.3099012629912
 20
-70.24967740214838
 30
0.0
 10
228.3099012629912
 20
-70.29584171210507
 30
0.0
 10
228.3105902825428
 20
-70.34200602206175
 30
0.0
 10
228.3112793020943
 20
-70.38817033201845
 30
0.0
 10
205.9229670122045
 20
-72.16928587288463
 30
0.0
 10
188.3095602148496
 20
-90.90234944157712
 30
0.0
 10
188.3095602148496
 20
-113.7495487528274
 30
0.0
 10
188.3095602148496
 20
-136.5960590445262
 30
0.0
 10
205.9229670122045
 20
-155.3298116327702
 30
0.0
 10
228.3119683216459
 20
-157.1109271736364
 30
0.0
 10
228.3105902825428
 20
-157.1564024640415
 30
0.0
 10
228.3099012629912
 20
-157.2032557935498
 30
0.0
 10
228.3099012629912
 20
-157.2494201035065
 30
0.0
 10
228.3099012629912
 20
-159.4584167859115
 30
0.0
 10
229.8767317233121
 20
-161.2491786005
 30
0.0
 10
231.8094315655287
 20
-161.2491786005
 30
0.0
 10
233.7428204272967
 20
-161.2491786005
 30
0.0
 10
235.3096508876177
 20
-159.4584167859115
 30
0.0
 10
235.3096508876177
 20
-157.2494201035065
 30
0.0
 10
235.3096508876177
 20
-157.2032557935498
 30
0.0
 10
235.3089618680661
 20
-157.1564024640415
 30
0.0
 10
235.3068948094113
 20
-157.1109271736364
 30
0.0
 10
257.6958961188528
 20
-155.3298116327702
 30
0.0
 10
275.3093029162077
 20
-136.5960590445262
 30
0.0
 10
275.3093029162077
 20
-113.7495487528274
 30
0.0
 10
275.3093029162077
 20
-90.90234944157712
 30
0.0
 10
257.6958961188528
 20
-72.16928587288463
 30
0.0
 10
235.3075838289629
 20
-70.38817033201845
 30
0.0
  0
SPLINE
  5
43
330
1F
100
AcDbEntity
  8
\U+30EC\U+30A4\U+30E4\U+30FC 1
 62
   250
420
  3288107
370
    35
100
AcDbSpline
210
0.0
220
0.0
230
1.0
 70
    11
 71
     3
 72
    41
 73
    37
 74
     0
 42
0.0000000001
 43
0.0000000001
 40
0.0
 40
0.0
 40
0.0
 40
0.0
 40
1.0
 40
1.0
 40
1.0
 40
2.0
 40
2.0
 40
2.0
 40
3.0
 40
3.0
 40
3.0
 40
4.0
 40
4.0
 40
4.0
 40
5.0
 40
5.0
 40
5.0
 40
6.0
 40
6.0
 40
6.0
 40
7.0
 40
7.0
 40
7.0
 40
8.0
 40
8.0
 40
8.0
 40
9.0
 40
9.0
 40
9.0
 40
10.0
 40
10.0
 40
10.0
 40
11.0
 40
11.0
 40
11.0
 40
12.0
 40
12.0
 40
12.0
 40
12.0
 10
305.3071471338833
 20
64.61229168590778
 30
0.0
 10
305.3085251729865
 20
64.65845599586446
 30
0.0
 10
305.3092141925381
 20
64.70462030582115
 30
0.0
 10
305.3092141925381
 20
64.75078461577783
 30
0.0
 10
305.3092141925381
 20
66.95978129818286
 30
0.0
 10
303.7423837322171
 20
68.75123213232294
 30
0.0
 10
301.808994870449
 20
68.75123213232294
 30
0.0
 10
299.8762950282325
 20
68.75123213232294
 30
0.0
 10
298.3094645679115
 20
66.95978129818286
 30
0.0
 10
298.3094645679115
 20
64.75078461577783
 30
0.0
 10
298.3094645679115
 20
64.70462030582115
 30
0.0
 10
298.3101535874631
 20
64.65845599586446
 30
0.0
 10
298.3115316265663
 20
64.61229168590778
 30
0.0
 10
275.9225303171249
 20
62.83117614504158
 30
0.0
 10
258.30912351977
 20
44.0981125763491
 30
0.0
 10
258.30912351977
 20
21.25091326509878
 30
0.0
 10
258.30912351977
 20
-1.596286046151548
 30
0.0
 10
275.9225303171249
 20
-20.32934961484403
 30
0.0
 10
298.3115316265663
 20
-22.11046515571022
 30
0.0
 10
298.3101535874631
 20
-22.15662946566691
 30
0.0
 10
298.3094645679115
 20
-22.20279377562359
 30
0.0
 10
298.3094645679115
 20
-22.24964710513187
 30
0.0
 10
298.3094645679115
 20
-24.4586437875369
 30
0.0
 10
299.8762950282325
 20
-26.24940560212539
 30
0.0
 10
301.808994870449
 20
-26.24940560212539
 30
0.0
 10
303.7423837322171
 20
-26.24940560212539
 30
0.0
 10
305.3092141925381
 20
-24.4586437875369
 30
0.0
 10
305.3092141925381
 20
-22.24964710513187
 30
0.0
 10
305.3092141925381
 20
-22.20279377562359
 30
0.0
 10
305.3085251729865
 20
-22.15662946566691
 30
0.0
 10
305.3071471338833
 20
-22.11046515571022
 30
0.0
 10
327.6954594237731
 20
-20.32934961484403
 30
0.0
 10
345.3095552406796
 20
-1.596286046151548
 30
0.0
 10
345.3095552406796
 20
21.25091326509878
 30
0.0
 10
345.3095552406796
 20
44.0981125763491
 30
0.0
 10
327.6961484433247
 20
62.83117614504158
 30
0.0
 10
305.3071471338833
 20
64.61229168590778
 30
0.0
  0
SPLINE
  5
44
330
1F
100
AcDbEntity
  8
\U+30EC\U+30A4\U+30E4\U+30FC 1
 62
   250
420
  3288107
370
    35
100
AcDbSpline
210
0.0
220
0.0
230
1.0
 70
    11
 71
     3
 72
    41
 73
    37
 74
     0
 42
0.0000000001
 43
0.0000000001
 40
0.0
 40
0.0
 40
0.0
 40
0.0
 40
1.0
 40
1.0
 40
1.0
 40
2.0
 40
2.0
 40
2.0
 40
3.0
 40
3.0
 40
3.0
 40
4.0
 40
4.0
 40
4.0
 40
5.0
 40
5.0
 40
5.0
 40
6.0
 40
6.0
 40
6.0
 40
7.0
 40
7.0
 40
7.0
 40
8.0
 40
8.0
 40
8.0
 40
9.0
 40
9.0
 40
9.0
 40
10.0
 40
10.0
 40
10.0
 40
11.0
 40
11.0
 40
11.0
 40
12.0
 40
12.0
 40
12.0
 40
12.0
 10
375.3073994583552
 20
-70.38748131246685
 30
0.0
 10
375.3087774974584
 20
-70.34131700251017
 30
0.0
 10
375.30946651701
 20
-70.29515269255347
 30
0.0
 10
375.30946651701
 20
-70.24898838259679
 30
0.0
 10
375.30946651701
 20
-68.03999170019175
 30
0.0
 10
373.742636056689
 20
-66.24922988560327
 30
0.0
 10
371.8092471949209
 20
-66.24922988560327
 30
0.0
 10
369.8765473527044
 20
-66.24922988560327
 30
0.0
 10
368.3097168923835
 20
-68.03999170019175
 30
0.0
 10
368.3097168923835
 20
-70.24898838259679
 30
0.0
 10
368.3097168923835
 20
-70.29515269255347
 30
0.0
 10
368.310405911935
 20
-70.34131700251017
 30
0.0
 10
368.3117839510383
 20
-70.38748131246685
 30
0.0
 10
345.9227826415968
 20
-72.16859685333304
 30
0.0
 10
328.3093758442419
 20
-90.90166042202551
 30
0.0
 10
328.3093758442419
 20
-113.7488597332759
 30
0.0
 10
328.3093758442419
 20
-136.5960590445262
 30
0.0
 10
345.9227826415968
 20
-155.3291226132187
 30
0.0
 10
368.3117839510383
 20
-157.1102381540848
 30
0.0
 10
368.310405911935
 20
-157.1564024640415
 30
0.0
 10
368.3097168923835
 20
-157.2025667739982
 30
0.0
 10
368.3097168923835
 20
-157.2494201035065
 30
0.0
 10
368.3097168923835
 20
-159.4584167859115
 30
0.0
 10
369.8765473527044
 20
-161.2491786005
 30
0.0
 10
371.8092471949209
 20
-161.2491786005
 30
0.0
 10
373.742636056689
 20
-161.2491786005
 30
0.0
 10
375.30946651701
 20
-159.4584167859115
 30
0.0
 10
375.30946651701
 20
-157.2494201035065
 30
0.0
 10
375.30946651701
 20
-157.2025667739982
 30
0.0
 10
375.3087774974584
 20
-157.1564024640415
 30
0.0
 10
375.3073994583552
 20
-157.1102381540848
 30
0.0
 10
397.6957117482451
 20
-155.3291226132187
 30
0.0
 10
415.3098075651516
 20
-136.5960590445262
 30
0.0
 10
415.3098075651516
 20
-113.7488597332759
 30
0.0
 10
415.3098075651516
 20
-90.90166042202551
 30
0.0
 10
397.6964007677967
 20
-72.16859685333304
 30
0.0
 10
375.3073994583552
 20
-70.38748131246685
 30
0.0
  0
POLYLINE
  5
45
330
1F
100
AcDbEntity
  8
\U+30EC\U+30A4\U+30E4\U+30FC 1
 62
   250
420
  3288107
370
    35
100
AcDb2dPolyline
 66
     1
 10
0.0
 20
0.0
 30
0.0
  0
VERTEX
  5
46
330
45
100
AcDbEntity
  8
\U+30EC\U+30A4\U+30E4\U+30FC 1
 62
   250
420
  3288107
370
    35
100
AcDbVertex
100
AcDb2dVertex
 10
-267.591422663934
 20
93.1516537677503
 30
0.0
  0
VERTEX
  5
47
330
45
100
AcDbEntity
  8
\U+30EC\U+30A4\U+30E4\U+30FC 1
 62
   250
420
  3288107
370
    35
100
AcDbVertex
100
AcDb2dVertex
 10
451.2091042422156
 20
93.1516537677503
 30
0.0
  0
VERTEX
  5
48
330
45
100
AcDbEntity
  8
\U+30EC\U+30A4\U+30E4\U+30FC 1
 62
   250
420
  3288107
370
    35
100
AcDbVertex
100
AcDb2dVertex
 10
451.2091042422156
 20
-185.6487389614879
 30
0.0
  0
VERTEX
  5
49
330
45
100
AcDbEntity
  8
\U+30EC\U+30A4\U+30E4\U+30FC 1
 62
   250
420
  3288107
370
    35
100
AcDbVertex
100
AcDb2dVertex
 10
-267.591422663934
 20
-185.6487389614879
 30
0.0
  0
VERTEX
  5
4A
330
45
100
AcDbEntity
  8
\U+30EC\U+30A4\U+30E4\U+30FC 1
 62
   250
420
  3288107
370
    35
100
AcDbVertex
100
AcDb2dVertex
 10
-267.591422663934
 20
93.1516537677503
 30
0.0
  0
SEQEND
  5
4B
330
45
100
AcDbEntity
  8
\U+30EC\U+30A4\U+30E4\U+30FC 1
370
    35
  0
SPLINE
  5
4C
330
1F
100
AcDbEntity
  8
\U+30EC\U+30A4\U+30E4\U+30FC 1
 62
   250
420
  3288107
370
    35
100
AcDbSpline
210
0.0
220
0.0
230
1.0
 70
    11
 71
     3
 72
    17
 73
    13
 74
     0
 42
0.0000000001
 43
0.0000000001
 40
0.0
 40
0.0
 40
0.0
 40
0.0
 40
1.0
 40
1.0
 40
1.0
 40
2.0
 40
2.0
 40
2.0
 40
3.0
 40
3.0
 40
3.0
 40
4.0
 40
4.0
 40
4.0
 40
4.0
 10
-254.4912661843968
 20
84.15150812996329
 30
0.0
 10
-254.4912661843968
 20
83.2678405550461
 30
0.0
 10
-255.2076742631649
 20
82.55160473116588
 30
0.0
 10
-256.0913418380821
 20
82.55160473116588
 30
0.0
 10
-256.9750094129993
 20
82.55160473116588
 30
0.0
 10
-257.6912452368795
 20
83.2678405550461
 30
0.0
 10
-257.6912452368795
 20
84.15150812996329
 30
0.0
 10
-257.6912452368795
 20
85.03517570488046
 30
0.0
 10
-256.9750094129993
 20
85.75175603853648
 30
0.0
 10
-256.0913418380821
 20
85.75175603853648
 30
0.0
 10
-255.2076742631649
 20
85.75175603853648
 30
0.0
 10
-254.4912661843968
 20
85.03517570488046
 30
0.0
 10
-254.4912661843968
 20
84.15150812996329
 30
0.0
  0
SPLINE
  5
4D
330
1F
100
AcDbEntity
  8
\U+30EC\U+30A4\U+30E4\U+30FC 1
 62
   250
420
  3288107
370
    35
100
AcDbSpline
210
0.0
220
0.0
230
1.0
 70
    11
 71
     3
 72
    17
 73
    13
 74
     0
 42
0.0000000001
 43
0.0000000001
 40
0.0
 40
0.0
 40
0.0
 40
0.0
 40
1.0
 40
1.0
 40
1.0
 40
2.0
 40
2.0
 40
2.0
 40
3.0
 40
3.0
 40
3.0
 40
4.0
 40
4.0
 40
4.0
 40
4.0
 10
-254.4912661843968
 20
-176.6480765590372
 30
0.0
 10
-254.4912661843968
 20
-175.7647534938958
 30
0.0
 10
-255.2076742631649
 20
-175.0481731602398
 30
0.0
 10
-256.0913418380821
 20
-175.0481731602398
 30
0.0
 10
-256.9750094129993
 20
-175.0481731602398
 30
0.0
 10
-257.6912452368795
 20
-175.7647534938958
 30
0.0
 10
-257.6912452368795
 20
-176.6480765590372
 30
0.0
 10
-257.6912452368795
 20
-177.5320886437301
 30
0.0
 10
-256.9750094129993
 20
-178.2486689773862
 30
0.0
 10
-256.0913418380821
 20
-178.2486689773862
 30
0.0
 10
-255.2076742631649
 20
-178.2486689773862
 30
0.0
 10
-254.4912661843968
 20
-177.5320886437301
 30
0.0
 10
-254.4912661843968
 20
-176.6480765590372
 30
0.0
  0
SPLINE
  5
4E
330
1F
100
AcDbEntity
  8
\U+30EC\U+30A4\U+30E4\U+30FC 1
 62
   250
420
  3288107
370
    35
100
AcDbSpline
210
0.0
220
0.0
230
1.0
 70
    11
 71
     3
 72
    17
 73
    13
 74
     0
 42
0.0000000001
 43
0.0000000001
 40
0.0
 40
0.0
 40
0.0
 40
0.0
 40
1.0
 40
1.0
 40
1.0
 40
2.0
 40
2.0
 40
2.0
 40
3.0
 40
3.0
 40
3.0
 40
4.0
 40
4.0
 40
4.0
 40
4.0
 10
438.1094645273421
 20
84.15150812996329
 30
0.0
 10
438.1094645273421
 20
83.2678405550461
 30
0.0
 10
438.8260448609981
 20
82.55160473116588
 30
0.0
 10
439.7093679261395
 20
82.55160473116588
 30
0.0
 10
440.5933800108324
 20
82.55160473116588
 30
0.0
 10
441.3092713249369
 20
83.2678405550461
 30
0.0
 10
441.3092713249369
 20
84.15150812996329
 30
0.0
 10
441.3092713249369
 20
85.03517570488046
 30
0.0
 10
440.5933800108324
 20
85.75175603853648
 30
0.0
 10
439.7093679261395
 20
85.75175603853648
 30
0.0
 10
438.8260448609981
 20
85.75175603853648
 30
0.0
 10
438.1094645273421
 20
85.03517570488046
 30
0.0
 10
438.1094645273421
 20
84.15150812996329
 30
0.0
  0
SPLINE
  5
4F
330
1F
100
AcDbEntity
  8
\U+30EC\U+30A4\U+30E4\U+30FC 1
 62
   250
420
  3288107
370
    35
100
AcDbSpline
210
0.0
220
0.0
230
1.0
 70
    11
 71
     3
 72
    17
 73
    13
 74
     0
 42
0.0000000001
 43
0.0000000001
 40
0.0
 40
0.0
 40
0.0
 40
0.0
 40
1.0
 40
1.0
 40
1.0
 40
2.0
 40
2.0
 40
2.0
 40
3.0
 40
3.0
 40
3.0
 40
4.0
 40
4.0
 40
4.0
 40
4.0
 10
438.1094645273421
 20
-176.6480765590372
 30
0.0
 10
438.1094645273421
 20
-175.7647534938958
 30
0.0
 10
438.8260448609981
 20
-175.0481731602398
 30
0.0
 10
439.7093679261395
 20
-175.0481731602398
 30
0.0
 10
440.5933800108324
 20
-175.0481731602398
 30
0.0
 10
441.3092713249369
 20
-175.7647534938958
 30
0.0
 10
441.3092713249369
 20
-176.6480765590372
 30
0.0
 10
441.3092713249369
 20
-177.5320886437301
 30
0.0
 10
440.5933800108324
 20
-178.2486689773862
 30
0.0
 10
439.7093679261395
 20
-178.2486689773862
 30
0.0
 10
438.8260448609981
 20
-178.2486689773862
 30
0.0
 10
438.1094645273421
 20
-177.5320886437301
 30
0.0
 10
438.1094645273421
 20
-176.6480765590372
 30
0.0
  0
SPLINE
  5
50
330
1F
100
AcDbEntity
  8
\U+30EC\U+30A4\U+30E4\U+30FC 1
 62
   250
420
  3288107
370
    35
100
AcDbSpline
210
0.0
220
0.0
230
1.0
 70
    11
 71
     3
 72
    17
 73
    13
 74
     0
 42
0.0000000001
 43
0.0000000001
 40
0.0
 40
0.0
 40
0.0
 40
0.0
 40
1.0
 40
1.0
 40
1.0
 40
2.0
 40
2.0
 40
2.0
 40
3.0
 40
3.0
 40
3.0
 40
4.0
 40
4.0
 40
4.0
 40
4.0
 10
-48.19140547747129
 20
80.05166954310097
 30
0.0
 10
-49.07507305238845
 20
80.05166954310097
 30
0.0
 10
-49.79130887626869
 20
80.76807762186911
 30
0.0
 10
-49.79130887626869
 20
81.65174519678628
 30
0.0
 10
-49.79130887626869
 20
82.53541277170346
 30
0.0
 10
-49.07507305238845
 20
83.25164859558369
 30
0.0
 10
-48.19140547747129
 20
83.25164859558369
 30
0.0
 10
-47.30773790255411
 20
83.25164859558369
 30
0.0
 10
-46.59115756889808
 20
82.53541277170346
 30
0.0
 10
-46.59115756889808
 20
81.65174519678628
 30
0.0
 10
-46.59115756889808
 20
80.76807762186911
 30
0.0
 10
-47.30773790255411
 20
80.05166954310097
 30
0.0
 10
-48.19140547747129
 20
80.05166954310097
 30
0.0
  0
SPLINE
  5
51
330
1F
100
AcDbEntity
  8
\U+30EC\U+30A4\U+30E4\U+30FC 1
 62
   250
420
  3288107
370
    35
100
AcDbSpline
210
0.0
220
0.0
230
1.0
 70
    11
 71
     3
 72
    17
 73
    13
 74
     0
 42
0.0000000001
 43
0.0000000001
 40
0.0
 40
0.0
 40
0.0
 40
0.0
 40
1.0
 40
1.0
 40
1.0
 40
2.0
 40
2.0
 40
2.0
 40
3.0
 40
3.0
 40
3.0
 40
4.0
 40
4.0
 40
4.0
 40
4.0
 10
231.8094315655287
 20
80.05166954310097
 30
0.0
 10
230.9254194808357
 20
80.05166954310097
 30
0.0
 10
230.2095281667312
 20
80.76807762186911
 30
0.0
 10
230.2095281667312
 20
81.65174519678628
 30
0.0
 10
230.2095281667312
 20
82.53541277170346
 30
0.0
 10
230.9254194808357
 20
83.25164859558369
 30
0.0
 10
231.8094315655287
 20
83.25164859558369
 30
0.0
 10
232.69275463067
 20
83.25164859558369
 30
0.0
 10
233.4093349643261
 20
82.53541277170346
 30
0.0
 10
233.4093349643261
 20
81.65174519678628
 30
0.0
 10
233.4093349643261
 20
80.76807762186911
 30
0.0
 10
232.69275463067
 20
80.05166954310097
 30
0.0
 10
231.8094315655287
 20
80.05166954310097
 30
0.0
  0
SPLINE
  5
52
330
1F
100
AcDbEntity
  8
\U+30EC\U+30A4\U+30E4\U+30FC 1
 62
   250
420
  3288107
370
    35
100
AcDbSpline
210
0.0
220
0.0
230
1.0
 70
    11
 71
     3
 72
    17
 73
    13
 74
     0
 42
0.0000000001
 43
0.0000000001
 40
0.0
 40
0.0
 40
0.0
 40
0.0
 40
1.0
 40
1.0
 40
1.0
 40
2.0
 40
2.0
 40
2.0
 40
3.0
 40
3.0
 40
3.0
 40
4.0
 40
4.0
 40
4.0
 40
4.0
 10
-118.1913132921674
 20
-172.5484102270628
 30
0.0
 10
-117.3076457172503
 20
-172.5484102270628
 30
0.0
 10
-116.59140989337
 20
-173.2649905607188
 30
0.0
 10
-116.59140989337
 20
-174.1483136258602
 30
0.0
 10
-116.59140989337
 20
-175.0323257105531
 30
0.0
 10
-117.3076457172503
 20
-175.7482170246576
 30
0.0
 10
-118.1913132921674
 20
-175.7482170246576
 30
0.0
 10
-119.0749808670846
 20
-175.7482170246576
 30
0.0
 10
-119.7915612007406
 20
-175.0323257105531
 30
0.0
 10
-119.7915612007406
 20
-174.1483136258602
 30
0.0
 10
-119.7915612007406
 20
-173.2649905607188
 30
0.0
 10
-119.0749808670846
 20
-172.5484102270628
 30
0.0
 10
-118.1913132921674
 20
-172.5484102270628
 30
0.0
  0
SPLINE
  5
53
330
1F
100
AcDbEntity
  8
\U+30EC\U+30A4\U+30E4\U+30FC 1
 62
   250
420
  3288107
370
    35
100
AcDbSpline
210
0.0
220
0.0
230
1.0
 70
    11
 71
     3
 72
    17
 73
    13
 74
     0
 42
0.0000000001
 43
0.0000000001
 40
0.0
 40
0.0
 40
0.0
 40
0.0
 40
1.0
 40
1.0
 40
1.0
 40
2.0
 40
2.0
 40
2.0
 40
3.0
 40
3.0
 40
3.0
 40
4.0
 40
4.0
 40
4.0
 40
4.0
 10
301.8096838900006
 20
-172.5484102270628
 30
0.0
 10
302.693006955142
 20
-172.5484102270628
 30
0.0
 10
303.409587288798
 20
-173.2649905607188
 30
0.0
 10
303.409587288798
 20
-174.1483136258602
 30
0.0
 10
303.409587288798
 20
-175.0323257105531
 30
0.0
 10
302.693006955142
 20
-175.7482170246576
 30
0.0
 10
301.8096838900006
 20
-175.7482170246576
 30
0.0
 10
300.9256718053076
 20
-175.7482170246576
 30
0.0
 10
300.2090914716516
 20
-175.0323257105531
 30
0.0
 10
300.2090914716516
 20
-174.1483136258602
 30
0.0
 10
300.2090914716516
 20
-173.2649905607188
 30
0.0
 10
300.9256718053076
 20
-172.5484102270628
 30
0.0
 10
301.8096838900006
 20
-172.5484102270628
 30
0.0
  0
ENDSEC
  0
SECTION
  2
OBJECTS
  0
DICTIONARY
  5
C
330
0
100
AcDbDictionary
281
     1
  3
ACAD_GROUP
350
D
  3
ACAD_LAYOUT
350
1A
  3
ACAD_MLINESTYLE
350
17
  3
ACAD_PLOTSETTINGS
350
19
  3
ACAD_PLOTSTYLENAME
350
E
  3
ACAD_TABLESTYLE
350
54
  3
ACAD_VISUALSTYLE
350
2A
  0
DICTIONARY
  5
D
102
{ACAD_REACTORS
330
C
102
}
330
C
100
AcDbDictionary
281
     1
  0
DICTIONARY
  5
1A
102
{ACAD_REACTORS
330
C
102
}
330
C
100
AcDbDictionary
281
     1
  3
Layout1
350
1E
  3
Layout2
350
26
  3
Model
350
22
  0
DICTIONARY
  5
17
102
{ACAD_REACTORS
330
C
102
}
330
C
100
AcDbDictionary
281
     1
  3
Standard
350
18
  0
DICTIONARY
  5
19
102
{ACAD_REACTORS
330
C
102
}
330
C
100
AcDbDictionary
281
     1
  0
ACDBDICTIONARYWDFLT
  5
E
102
{ACAD_REACTORS
330
C
102
}
330
C
100
AcDbDictionary
281
     1
  3
Normal
350
F
100
AcDbDictionaryWithDefault
340
F
  0
DICTIONARY
  5
54
102
{ACAD_REACTORS
330
C
102
}
330
C
100
AcDbDictionary
281
     1
  0
DICTIONARY
  5
2A
102
{ACAD_REACTORS
330
C
102
}
330
C
100
AcDbDictionary
281
     1
  3
2dWireframe
350
2F
  3
3D Hidden
350
31
  3
3dWireframe
350
30
  3
Basic
350
32
  3
Brighten
350
36
  3
ColorChange
350
3A
  3
Conceptual
350
34
  3
Dim
350
35
  3
Facepattern
350
39
  3
Flat
350
2B
  3
FlatWithEdges
350
2C
  3
Gouraud
350
2D
  3
GouraudWithEdges
350
2E
  3
Linepattern
350
38
  3
Realistic
350
33
  3
Thicken
350
37
  0
LAYOUT
  5
1E
102
{ACAD_REACTORS
330
1A
102
}
330
1A
100
AcDbPlotSettings
  1

  2
none_device
  4

  6

 40
0.0
 41
0.0
 42
0.0
 43
0.0
 44
0.0
 45
0.0
 46
0.0
 47
0.0
 48
0.0
 49
0.0
140
0.0
141
0.0
142
1.0
143
1.0
 70
   688
 72
     0
 73
     0
 74
     5
  7

 75
    16
 76
     0
 77
     2
 78
   300
147
1.0
148
0.0
149
0.0
100
AcDbLayout
  1
Layout1
 70
     1
 71
     1
 10
0.0
 20
0.0
 11
12.0
 21
9.0
 12
0.0
 22
0.0
 32
0.0
 14
1.000000000000000E+20
 24
1.000000000000000E+20
 34
1.000000000000000E+20
 15
-1.000000000000000E+20
 25
-1.000000000000000E+20
 35
-1.000000000000000E+20
146
0.0
 13
0.0
 23
0.0
 33
0.0
 16
1.0
 26
0.0
 36
0.0
 17
0.0
 27
1.0
 37
0.0
 76
     0
330
1B
  0
LAYOUT
  5
26
102
{ACAD_REACTORS
330
1A
102
}
330
1A
100
AcDbPlotSettings
  1

  2
none_device
  4

  6

 40
0.0
 41
0.0
 42
0.0
 43
0.0
 44
0.0
 45
0.0
 46
0.0
 47
0.0
 48
0.0
 49
0.0
140
0.0
141
0.0
142
1.0
143
1.0
 70
   688
 72
     0
 73
     0
 74
     5
  7

 75
    16
 76
     0
 77
     2
 78
   300
147
1.0
148
0.0
149
0.0
100
AcDbLayout
  1
Layout2
 70
     1
 71
     2
 10
0.0
 20
0.0
 11
0.0
 21
0.0
 12
0.0
 22
0.0
 32
0.0
 14
0.0
 24
0.0
 34
0.0
 15
0.0
 25
0.0
 35
0.0
146
0.0
 13
0.0
 23
0.0
 33
0.0
 16
1.0
 26
0.0
 36
0.0
 17
0.0
 27
1.0
 37
0.0
 76
     0
330
23
  0
LAYOUT
  5
22
102
{ACAD_REACTORS
330
1A
102
}
330
1A
100
AcDbPlotSettings
  1

  2
none_device
  4

  6

 40
0.0
 41
0.0
 42
0.0
 43
0.0
 44
0.0
 45
0.0
 46
0.0
 47
0.0
 48
0.0
 49
0.0
140
0.0
141
0.0
142
1.0
143
1.0
 70
  1712
 72
     0
 73
     0
 74
     0
  7

 75
     0
 76
     0
 77
     2
 78
   300
147
1.0
148
0.0
149
0.0
100
AcDbLayout
  1
Model
 70
     1
 71
     0
 10
0.0
 20
0.0
 11
12.0
 21
9.0
 12
0.0
 22
0.0
 32
0.0
 14
1.000000000000000E+20
 24
1.000000000000000E+20
 34
1.000000000000000E+20
 15
-1.000000000000000E+20
 25
-1.000000000000000E+20
 35
-1.000000000000000E+20
146
0.0
 13
0.0
 23
0.0
 33
0.0
 16
1.0
 26
0.0
 36
0.0
 17
0.0
 27
1.0
 37
0.0
 76
     0
330
1F
331
29
  0
MLINESTYLE
  5
18
102
{ACAD_REACTORS
330
17
102
}
330
17
100
AcDbMlineStyle
  2
Standard
 70
     0
  3

 62
   256
 51
90.0
 52
90.0
 71
     2
 49
0.5
 62
   256
  6
BYLAYER
 49
-0.5
 62
   256
  6
BYLAYER
  0
ACDBPLACEHOLDER
  5
F
102
{ACAD_REACTORS
330
E
102
}
330
E
  0
VISUALSTYLE
  5
2F
102
{ACAD_REACTORS
330
2A
102
}
330
2A
100
AcDbVisualStyle
  2
2dWireframe
 70
     4
 71
     0
 72
     2
 73
     0
 90
        0
 40
-0.6
 41
-30.0
 62
     5
 63
     7
421
 16777215
 74
     1
 91
        4
 64
     7
 65
   257
 75
     1
175
     1
 42
1.0
 92
        0
 66
   257
 43
1.0
 76
     1
 77
     6
 78
     2
 67
     7
 79
     5
170
     0
171
     0
290
     0
174
     0
 93
        1
 44
0.0
173
     0
291
     0
 45
0.0
1001
ACAD
1000
AcDbSavedByObjectVersion
1070
     0
  0
VISUALSTYLE
  5
31
102
{ACAD_REACTORS
330
2A
102
}
330
2A
100
AcDbVisualStyle
  2
3D Hidden
 70
     6
 71
     1
 72
     2
 73
     2
 90
        0
 40
-0.6
 41
-30.0
 62
     5
 63
     7
421
 16777215
 74
     2
 91
        2
 64
     7
 65
   257
 75
     2
175
     1
 42
40.0
 92
        0
 66
   257
 43
1.0
 76
     1
 77
     6
 78
     2
 67
     7
 79
     3
170
     0
171
     0
290
     0
174
     0
 93
        1
 44
0.0
173
     0
291
     0
 45
0.0
1001
ACAD
1000
AcDbSavedByObjectVersion
1070
     0
  0
VISUALSTYLE
  5
30
102
{ACAD_REACTORS
330
2A
102
}
330
2A
100
AcDbVisualStyle
  2
3dWireframe
 70
     5
 71
     0
 72
     2
 73
     0
 90
        0
 40
-0.6
 41
-30.0
 62
     5
 63
     7
421
 16777215
 74
     1
 91
        4
 64
     7
 65
   257
 75
     1
175
     1
 42
1.0
 92
        0
 66
   257
 43
1.0
 76
     1
 77
     6
 78
     2
 67
     7
 79
     5
170
     0
171
     0
290
     0
174
     0
 93
        1
 44
0.0
173
     0
291
     0
 45
0.0
1001
ACAD
1000
AcDbSavedByObjectVersion
1070
     0
  0
VISUALSTYLE
  5
32
102
{ACAD_REACTORS
330
2A
102
}
330
2A
100
AcDbVisualStyle
  2
Basic
 70
     7
 71
     1
 72
     0
 73
     1
 90
        0
 40
-0.6
 41
-30.0
 62
     5
 63
     7
421
 16777215
 74
     0
 91
        4
 64
     7
 65
   257
 75
     1
175
     1
 42
1.0
 92
        8
 66
     7
 43
1.0
 76
     1
 77
     6
 78
     2
 67
     7
 79
     5
170
     0
171
     0
290
     0
174
     0
 93
        1
 44
0.0
173
     0
291
     1
 45
0.0
1001
ACAD
1000
AcDbSavedByObjectVersion
1070
     0
  0
VISUALSTYLE
  5
36
102
{ACAD_REACTORS
330
2A
102
}
330
2A
100
AcDbVisualStyle
  2
Brighten
 70
    12
 71
     2
 72
     2
 73
     0
 90
        0
 40
-0.6
 41
-30.0
 62
     5
 63
     7
421
 16777215
 74
     1
 91
        4
 64
     7
 65
   257
 75
     1
175
     1
 42
1.0
 92
        8
 66
     7
 43
1.0
 76
     1
 77
     6
 78
     2
 67
     7
 79
     5
170
     0
171
     0
290
     0
174
     0
 93
        1
 44
50.0
173
     0
291
     1
 45
0.0
1001
ACAD
1000
AcDbSavedByObjectVersion
1070
     0
  0
VISUALSTYLE
  5
3A
102
{ACAD_REACTORS
330
2A
102
}
330
2A
100
AcDbVisualStyle
  2
ColorChange
 70
    16
 71
     2
 72
     2
 73
     3
 90
        0
 40
-0.6
 41
-30.0
 62
     5
 63
     8
421
  8421504
 74
     1
 91
        4
 64
     7
 65
   257
 75
     1
175
     1
 42
1.0
 92
        8
 66
     8
424
  8421504
 43
1.0
 76
     1
 77
     6
 78
     2
 67
     7
 79
     5
170
     0
171
     0
290
     0
174
     0
 93
        1
 44
0.0
173
     0
291
     1
 45
0.0
1001
ACAD
1000
AcDbSavedByObjectVersion
1070
     0
  0
VISUALSTYLE
  5
34
102
{ACAD_REACTORS
330
2A
102
}
330
2A
100
AcDbVisualStyle
  2
Conceptual
 70
     9
 71
     3
 72
     2
 73
     0
 90
        0
 40
-0.6
 41
-30.0
 62
     5
 63
     7
421
 16777215
 74
     2
 91
        2
 64
     7
 65
   257
 75
     1
175
     1
 42
40.0
 92
        8
 66
     7
 43
1.0
 76
     1
 77
     6
 78
     2
 67
     7
 79
     3
170
     0
171
     0
290
     0
174
     0
 93
        1
 44
0.0
173
     0
291
     0
 45
0.0
1001
ACAD
1000
AcDbSavedByObjectVersion
1070
     0
  0
VISUALSTYLE
  5
35
102
{ACAD_REACTORS
330
2A
102
}
330
2A
100
AcDbVisualStyle
  2
Dim
 70
    11
 71
     2
 72
     2
 73
     0
 90
        0
 40
-0.6
 41
-30.0
 62
     5
 63
     7
421
 16777215
 74
     1
 91
        4
 64
     7
 65
   257
 75
     1
175
     1
 42
1.0
 92
        8
 66
     7
 43
1.0
 76
     1
 77
     6
 78
     2
 67
     7
 79
     5
170
     0
171
     0
290
     0
174
     0
 93
        1
 44
-50.0
173
     0
291
     1
 45
0.0
1001
ACAD
1000
AcDbSavedByObjectVersion
1070
     0
  0
VISUALSTYLE
  5
39
102
{ACAD_REACTORS
330
2A
102
}
330
2A
100
AcDbVisualStyle
  2
Facepattern
 70
    15
 71
     2
 72
     2
 73
     0
 90
        0
 40
-0.6
 41
-30.0
 62
     5
 63
     7
421
 16777215
 74
     1
 91
        4
 64
     7
 65
   257
 75
     1
175
     1
 42
1.0
 92
        8
 66
     7
 43
1.0
 76
     1
 77
     6
 78
     2
 67
     7
 79
     5
170
     0
171
     0
290
     0
174
     0
 93
        1
 44
0.0
173
     0
291
     1
 45
0.0
1001
ACAD
1000
AcDbSavedByObjectVersion
1070
     0
  0
VISUALSTYLE
  5
2B
102
{ACAD_REACTORS
330
2A
102
}
330
2A
100
AcDbVisualStyle
  2
Flat
 70
     0
 71
     2
 72
     1
 73
     1
 90
        2
 40
-0.6
 41
30.0
 62
     5
 63
     7
421
 16777215
 74
     0
 91
        4
 64
     7
 65
   257
 75
     1
175
     1
 42
1.0
 92
        8
 66
     7
 43
1.0
 76
     1
 77
     6
 78
     2
 67
     7
 79
     5
170
     0
171
     0
290
     0
174
     0
 93
       13
 44
0.0
173
     0
291
     1
 45
0.0
1001
ACAD
1000
AcDbSavedByObjectVersion
1070
     0
  0
VISUALSTYLE
  5
2C
102
{ACAD_REACTORS
330
2A
102
}
330
2A
100
AcDbVisualStyle
  2
FlatWithEdges
 70
     1
 71
     2
 72
     1
 73
     1
 90
        2
 40
-0.6
 41
30.0
 62
     5
 63
     7
421
 16777215
 74
     1
 91
        4
 64
     7
 65
   257
 75
     1
175
     1
 42
1.0
 92
        0
 66
   257
 43
1.0
 76
     1
 77
     6
 78
     2
 67
     7
 79
     5
170
     0
171
     0
290
     0
174
     0
 93
       13
 44
0.0
173
     0
291
     1
 45
0.0
1001
ACAD
1000
AcDbSavedByObjectVersion
1070
     0
  0
VISUALSTYLE
  5
2D
102
{ACAD_REACTORS
330
2A
102
}
330
2A
100
AcDbVisualStyle
  2
Gouraud
 70
     2
 71
     2
 72
     2
 73
     1
 90
        2
 40
-0.6
 41
30.0
 62
     5
 63
     7
421
 16777215
 74
     0
 91
        4
 64
     7
 65
   257
 75
     1
175
     1
 42
1.0
 92
        0
 66
     7
 43
1.0
 76
     1
 77
     6
 78
     2
 67
     7
 79
     5
170
     0
171
     0
290
     0
174
     0
 93
       13
 44
0.0
173
     0
291
     1
 45
0.0
1001
ACAD
1000
AcDbSavedByObjectVersion
1070
     0
  0
VISUALSTYLE
  5
2E
102
{ACAD_REACTORS
330
2A
102
}
330
2A
100
AcDbVisualStyle
  2
GouraudWithEdges
 70
     3
 71
     2
 72
     2
 73
     1
 90
        2
 40
-0.6
 41
30.0
 62
     5
 63
     7
421
 16777215
 74
     1
 91
        4
 64
     7
 65
   257
 75
     1
175
     1
 42
1.0
 92
        0
 66
   257
 43
1.0
 76
     1
 77
     6
 78
     2
 67
     7
 79
     5
170
     0
171
     0
290
     0
174
     0
 93
       13
 44
0.0
173
     0
291
     1
 45
0.0
1001
ACAD
1000
AcDbSavedByObjectVersion
1070
     0
  0
VISUALSTYLE
  5
38
102
{ACAD_REACTORS
330
2A
102
}
330
2A
100
AcDbVisualStyle
  2
Linepattern
 70
    14
 71
     2
 72
     2
 73
     0
 90
        0
 40
-0.6
 41
-30.0
 62
     5
 63
     7
421
 16777215
 74
     1
 91
        4
 64
     7
 65
   257
 75
     7
175
     7
 42
1.0
 92
        8
 66
     7
 43
1.0
 76
     1
 77
     6
 78
     2
 67
     7
 79
     5
170
     0
171
     0
290
     0
174
     0
 93
        1
 44
0.0
173
     0
291
     1
 45
0.0
1001
ACAD
1000
AcDbSavedByObjectVersion
1070
     0
  0
VISUALSTYLE
  5
33
102
{ACAD_REACTORS
330
2A
102
}
330
2A
100
AcDbVisualStyle
  2
Realistic
 70
     8
 71
     2
 72
     2
 73
     0
 90
        0
 40
-0.6
 41
-30.0
 62
     5
 63
     7
421
 16777215
 74
     1
 91
        0
 64
     7
 65
   257
 75
     1
175
     1
 42
1.0
 92
        8
 66
     8
424
  7895160
 43
1.0
 76
     1
 77
     6
 78
     2
 67
     7
 79
     5
170
     0
171
     0
290
     0
174
     0
 93
       13
 44
0.0
173
     0
291
     0
 45
0.0
1001
ACAD
1000
AcDbSavedByObjectVersion
1070
     0
  0
VISUALSTYLE
  5
37
102
{ACAD_REACTORS
330
2A
102
}
330
2A
100
AcDbVisualStyle
  2
Thicken
 70
    13
 71
     2
 72
     2
 73
     0
 90
        0
 40
-0.6
 41
-30.0
 62
     5
 63
     7
421
 16777215
 74
     1
 91
        4
 64
     7
 65
   257
 75
     1
175
     1
 42
1.0
 92
       12
 66
     7
 43
1.0
 76
     1
 77
     6
 78
     2
 67
     7
 79
     5
170
     0
171
     0
290
     0
174
     0
 93
        1
 44
0.0
173
     0
291
     1
 45
0.0
1001
ACAD
1000
AcDbSavedByObjectVersion
1070
     0
  0
ENDSEC
  0
EOF
